<?xml version="1.0" encoding="utf-8"?>
<!-- Generator: Adobe Illustrator 24.0.1, SVG Export Plug-In . SVG Version: 6.00 Build 0)  -->
<svg version="1.0" id="Layer_1" xmlns="http://www.w3.org/2000/svg" xmlns:xlink="http://www.w3.org/1999/xlink" x="0px" y="0px"
	 viewBox="0 0 364.84 121.39" enable-background="new 0 0 364.84 121.39" xml:space="preserve">
<g>
	<path fill="#FFFFFF" d="M0,121.39V0.51h25.56v120.88H0z"/>
	<path fill="#FFFFFF" d="M153.22,121.39H124.1L92.44,70.43L81.6,78.22v43.17H56.04V0.51H81.6v55.36c1.69-2.37,3.39-4.74,5.08-7.11
		c1.69-2.37,3.39-4.74,5.08-7.11l32.68-41.14h28.44l-42.16,53.5L153.22,121.39z"/>
	<path fill="#FFFFFF" d="M238.04,121.39h-69.58V0.51h69.58V21.5h-44.02v26.58h40.97v20.99h-40.97v31.15h44.02V121.39z"/>
	<path fill="#FFFFFF" d="M337.25,121.39l-8.8-28.78h-44.02l-8.8,28.78h-27.6L290.69,0h31.32l42.83,121.39H337.25z M322.35,71.11
		l-8.8-28.1c-0.57-1.92-1.3-4.34-2.2-7.28c-0.91-2.93-1.81-5.93-2.71-8.97c-0.91-3.05-1.64-5.7-2.2-7.96
		c-0.57,2.26-1.33,5.05-2.29,8.38c-0.96,3.33-1.86,6.49-2.71,9.48c-0.85,2.99-1.5,5.11-1.95,6.35l-8.63,28.1H322.35z"/>
</g>
</svg>
