<?xml version="1.0" encoding="utf-8"?>
<!-- Generator: Adobe Illustrator 24.0.1, SVG Export Plug-In . SVG Version: 6.00 Build 0)  -->
<svg version="1.0" id="Layer_1" xmlns="http://www.w3.org/2000/svg" xmlns:xlink="http://www.w3.org/1999/xlink" x="0px" y="0px"
	 viewBox="0 0 197.97 42.55" enable-background="new 0 0 197.97 42.55" xml:space="preserve">
<g>
	<path fill="#FFFFFF" d="M12.57,6.4c0,3.49-2.68,5.05-5.34,5.05c-0.75,0-1.51-0.03-1.95-0.05V2.26c0.46-0.04,1.37-0.1,2.71-0.1
		C11.6,2.16,12.57,4.82,12.57,6.4 M20.47,23.53c-0.01-0.01-1.42-0.56-2.11-1.27c-1.74-1.78-4.99-7.67-5.05-7.77l-0.12-0.17
		c-0.39-0.57-0.97-1.42-1.81-2c2.08-0.74,4.35-2.76,4.35-6c0-1.01-0.41-6.04-8.45-6.04H0.16l1.39,0.77
		c0.51,0.28,0.72,0.63,0.72,1.18v20.14c0,0.56-0.22,0.93-0.71,1.17L0,24.32h7.56l-1.57-0.78c-0.48-0.24-0.71-0.61-0.71-1.17v-8.99
		c0.54-0.01,1.48-0.03,2.05-0.03c1.62,0,2.27,1.04,3.01,2.25L10.58,16c0.34,0.53,0.66,1.05,0.99,1.58c0.87,1.4,1.77,2.85,3.25,5.02
		c0.33,0.48,1.19,1.75,2.81,1.75l4.81-0.06L20.47,23.53z"/>
	<path fill="#FFFFFF" d="M42.85,12.68c0,5.83-3.85,9.9-9.36,9.9c-3.83,0-9.53-2.86-9.53-10.72c0-5.92,3.85-9.9,9.57-9.9
		C39.02,1.96,42.85,6.36,42.85,12.68 M42.46,3.37c-2.3-2.04-5.38-3.27-8.43-3.36c-4.85-0.16-8,1.98-9.8,3.8
		c-2.2,2.23-3.56,5.25-3.66,8.1c-0.11,3.15,1.03,6.16,3.2,8.48c2.4,2.56,5.82,4.09,9.39,4.2c0.13,0.01,0.26,0.01,0.4,0.01
		c3.11,0,6.51-1.37,8.95-3.64c2.41-2.23,3.75-5.13,3.86-8.37C46.52,7.97,44.33,5.03,42.46,3.37"/>
	<path fill="#FFFFFF" d="M61.31,9.12c-1.35,1.35-3.57,1.33-4.52,1.33l-0.12,0c-0.59,0-1.01-0.02-1.29-0.03V2.3
		c0.4-0.03,1.14-0.07,2.33-0.07c1.76,0,4.72,0.48,4.72,3.72C62.43,7.31,62.05,8.38,61.31,9.12 M55.39,12.43
		c0.63-0.01,1.9-0.03,2.92-0.03c4.12,0,6.21,1.61,6.21,4.78c0,1.53-0.44,2.74-1.31,3.6c-1.72,1.7-4.67,1.67-5.93,1.66l-0.25,0
		c-0.78,0-1.33-0.06-1.63-0.1V12.43z M62.17,11.08c1.41-0.77,3.54-2.41,3.54-5.19c0-4.13-4.35-5.6-8.41-5.6h-7.03l1.39,0.77
		c0.51,0.28,0.72,0.63,0.72,1.18v20.14c0,0.56-0.22,0.93-0.7,1.17l-1.57,0.78h8.1c9.03,0,9.73-5.23,9.73-6.83
		C67.93,13.13,64.21,11.59,62.17,11.08"/>
	<path fill="#FFFFFF" d="M76.9,22.37V2.23c0-0.57,0.2-0.91,0.69-1.18l1.4-0.77h-7.21l1.39,0.77c0.49,0.27,0.69,0.61,0.69,1.18v20.14
		c0,0.57-0.21,0.94-0.67,1.17l-1.57,0.78h7.53l-1.58-0.78C77.12,23.31,76.9,22.94,76.9,22.37"/>
	<path fill="#FFFFFF" d="M100.28,1.06c0.51,0.26,0.71,0.6,0.71,1.17v15.49L86.98,0.28h-6.17l2.33,0.8c0.66,0.23,1.02,0.58,1.37,1.06
		c0.12,0.2,0.12,0.2,0.12,0.8v19.43c0,0.56-0.22,0.93-0.71,1.17l-1.57,0.78h6.72l-1.67-0.78c-0.48-0.23-0.7-0.58-0.7-1.16V4.98
		c1.41,1.87,5.24,6.7,15.66,19.5l0.73,0.9V2.23c0-0.55,0.22-0.9,0.72-1.18l1.39-0.77h-6.43L100.28,1.06z"/>
	<path fill="#FFFFFF" d="M117.59,10.44c-0.36-0.18-0.73-0.36-1.1-0.55c-3.45-1.8-4.46-2.61-4.46-4.52c0-0.82,0.26-3.48,3.68-3.48
		c2.81,0,4.7,2.52,4.97,3.93l0.81-0.09l-0.18-4.12l-0.16-0.12c-1.76-1.29-3.79-1.48-4.85-1.48c-4.73,0-7.2,3.08-7.2,6.11
		c0,3.23,2.2,4.91,5.75,6.55l0.39,0.18c3.25,1.5,4.88,2.25,4.88,5.15c0,0.78-0.22,4.67-4.51,4.67c-2.77,0-4.77-1.74-5.95-5.18
		l-0.88-2.59l0.23,7.32l0.27,0.17c1.25,0.82,3.34,2.19,6.34,2.19c3.21,0,7.65-2.49,7.65-7.17
		C123.26,13.24,120.64,11.94,117.59,10.44"/>
	<path fill="#FFFFFF" d="M149.89,12.68c0,5.83-3.85,9.9-9.36,9.9c-3.83,0-9.53-2.86-9.53-10.72c0-5.92,3.85-9.9,9.57-9.9
		C146.05,1.96,149.89,6.36,149.89,12.68 M141.06,0.01c-4.85-0.16-8,1.98-9.8,3.8c-2.19,2.23-3.56,5.25-3.66,8.1
		c-0.11,3.14,1.03,6.15,3.2,8.47c2.4,2.56,5.82,4.09,9.4,4.2c0.13,0.01,0.27,0.01,0.4,0.01c3.11,0,6.5-1.37,8.95-3.64
		c2.41-2.23,3.74-5.13,3.86-8.37c0.1-3.24-0.98-6.16-3.12-8.44C147.95,1.66,144.5,0.11,141.06,0.01"/>
	<path fill="#FFFFFF" d="M174.98,1.06c0.51,0.26,0.72,0.6,0.72,1.17v15.49L161.68,0.28h-6.16l2.33,0.8
		c0.66,0.23,1.02,0.58,1.37,1.07c0.12,0.2,0.12,0.2,0.12,0.8v19.43c0,0.56-0.23,0.93-0.71,1.17l-1.57,0.78h6.73l-1.68-0.78
		c-0.49-0.23-0.7-0.59-0.7-1.16V4.98c1.41,1.87,5.24,6.7,15.66,19.5l0.73,0.9V2.23c0-0.55,0.22-0.9,0.73-1.18l1.39-0.77h-6.42
		L174.98,1.06z"/>
	<path fill="#FFFFFF" d="M192.29,10.43c-0.36-0.18-0.73-0.36-1.09-0.55c-3.45-1.8-4.46-2.61-4.46-4.52c0-0.82,0.27-3.48,3.68-3.48
		c2.81,0,4.7,2.52,4.97,3.93l0.81-0.09l-0.18-4.12l-0.16-0.12c-1.75-1.29-3.79-1.48-4.85-1.48c-4.73,0-7.2,3.08-7.2,6.11
		c0,3.23,2.2,4.9,5.75,6.55l0.39,0.18c3.25,1.5,4.88,2.25,4.88,5.15c0,0.78-0.22,4.67-4.51,4.67c-2.77,0-4.77-1.74-5.95-5.19
		l-0.89-2.58l0.23,7.31l0.25,0.17c1.25,0.82,3.34,2.2,6.35,2.2c3.21,0,7.65-2.49,7.65-7.17C197.97,13.24,195.34,11.94,192.29,10.43"
		/>
	<path fill="#FFFFFF" d="M196.15,39.49c0.23,0.21,0.34,0.48,0.34,0.79c0,0.32-0.11,0.57-0.33,0.77c-0.22,0.2-0.52,0.3-0.89,0.3
		c-0.37,0-0.66-0.11-0.89-0.32c-0.23-0.21-0.34-0.47-0.34-0.78c0-0.29,0.12-0.55,0.36-0.76c0.24-0.21,0.53-0.32,0.88-0.32
		C195.63,39.17,195.92,39.28,196.15,39.49 M195.86,36.33c0.16,0.15,0.24,0.35,0.24,0.6c0,0.26-0.08,0.47-0.24,0.63
		c-0.16,0.16-0.36,0.24-0.61,0.24c-0.24,0-0.44-0.08-0.6-0.25c-0.16-0.17-0.24-0.37-0.24-0.62c0-0.25,0.08-0.45,0.23-0.6
		c0.15-0.16,0.35-0.24,0.59-0.24C195.49,36.1,195.7,36.18,195.86,36.33 M197.4,37.61c0.1-0.23,0.15-0.49,0.15-0.76
		c0-0.39-0.1-0.75-0.29-1.09c-0.2-0.34-0.46-0.6-0.8-0.78c-0.34-0.18-0.73-0.28-1.18-0.28c-0.45,0-0.86,0.09-1.2,0.27
		c-0.35,0.18-0.62,0.44-0.81,0.76c-0.19,0.33-0.29,0.69-0.29,1.09c0,0.29,0.06,0.57,0.17,0.83c0.12,0.26,0.29,0.51,0.52,0.74
		c-0.35,0.26-0.61,0.56-0.79,0.89c-0.18,0.33-0.26,0.7-0.26,1.1c0,0.47,0.11,0.88,0.33,1.25c0.22,0.37,0.51,0.65,0.87,0.83
		c0.36,0.18,0.86,0.27,1.47,0.27c0.58,0,1.05-0.09,1.42-0.28c0.37-0.19,0.67-0.47,0.89-0.85c0.22-0.38,0.33-0.78,0.33-1.22
		c0-0.41-0.09-0.78-0.28-1.13c-0.19-0.35-0.46-0.63-0.8-0.86C197.11,38.1,197.3,37.84,197.4,37.61 M185.84,39.14l1.19,0.27
		c0.15-0.16,0.3-0.28,0.46-0.36c0.15-0.08,0.31-0.12,0.47-0.12c0.3,0,0.55,0.11,0.76,0.34c0.21,0.23,0.32,0.52,0.32,0.87
		c0,0.36-0.11,0.66-0.34,0.89c-0.23,0.23-0.5,0.35-0.82,0.35c-0.23,0-0.44-0.06-0.64-0.18c-0.19-0.12-0.35-0.3-0.47-0.54h-1.53
		c0.15,0.65,0.45,1.15,0.92,1.53c0.47,0.37,1.03,0.56,1.68,0.56c0.73,0,1.35-0.26,1.86-0.77c0.51-0.51,0.76-1.14,0.76-1.89
		c0-0.74-0.23-1.35-0.69-1.82c-0.46-0.47-1.04-0.71-1.73-0.71c-0.08,0-0.16,0.01-0.24,0.02c-0.08,0.01-0.17,0.03-0.26,0.05
		l0.31-1.39h2.5v-1.35h-3.59L185.84,39.14z M181.54,39.49c0.23,0.21,0.34,0.48,0.34,0.79c0,0.32-0.11,0.57-0.33,0.77
		c-0.22,0.2-0.52,0.3-0.89,0.3c-0.37,0-0.66-0.11-0.89-0.32s-0.34-0.47-0.34-0.78c0-0.29,0.12-0.55,0.36-0.76
		c0.24-0.21,0.53-0.32,0.88-0.32C181.02,39.17,181.31,39.28,181.54,39.49 M181.25,36.33c0.16,0.15,0.24,0.35,0.24,0.6
		c0,0.26-0.08,0.47-0.24,0.63c-0.16,0.16-0.36,0.24-0.61,0.24c-0.24,0-0.44-0.08-0.6-0.25c-0.16-0.17-0.24-0.37-0.24-0.62
		c0-0.25,0.08-0.45,0.23-0.6c0.15-0.16,0.35-0.24,0.59-0.24C180.88,36.1,181.09,36.18,181.25,36.33 M182.8,37.61
		c0.1-0.23,0.15-0.49,0.15-0.76c0-0.39-0.1-0.75-0.29-1.09c-0.2-0.34-0.46-0.6-0.8-0.78c-0.34-0.18-0.73-0.28-1.18-0.28
		c-0.45,0-0.86,0.09-1.2,0.27c-0.35,0.18-0.62,0.44-0.81,0.76c-0.19,0.33-0.29,0.69-0.29,1.09c0,0.29,0.06,0.57,0.17,0.83
		c0.12,0.26,0.29,0.51,0.52,0.74c-0.35,0.26-0.61,0.56-0.79,0.89c-0.18,0.33-0.26,0.7-0.26,1.1c0,0.47,0.11,0.88,0.33,1.25
		c0.22,0.37,0.51,0.65,0.87,0.83c0.36,0.18,0.86,0.27,1.47,0.27c0.58,0,1.05-0.09,1.42-0.28c0.37-0.19,0.67-0.47,0.89-0.85
		c0.22-0.38,0.33-0.78,0.33-1.22c0-0.41-0.09-0.78-0.28-1.13c-0.19-0.35-0.46-0.63-0.8-0.86C182.51,38.1,182.69,37.84,182.8,37.61
		 M171.29,36.26h1.58v6.29h1.45v-7.66h-2.18L171.29,36.26z M160.07,42.55h4.18v-1.43h-2.73V39.1h2.73v-1.4h-2.73v-1.38h2.73v-1.43
		h-4.18V42.55z M155.94,35.1c-0.58-0.27-1.19-0.4-1.82-0.4c-0.74,0-1.44,0.18-2.08,0.54c-0.64,0.36-1.14,0.84-1.48,1.43
		c-0.35,0.59-0.52,1.27-0.52,2.03c0,1.18,0.38,2.15,1.14,2.9c0.76,0.75,1.73,1.13,2.92,1.13c0.65,0,1.22-0.11,1.72-0.32
		c0.5-0.21,1.04-0.6,1.6-1.15l-0.99-1.03c-0.42,0.42-0.8,0.7-1.15,0.86c-0.35,0.16-0.74,0.24-1.16,0.24c-0.5,0-0.95-0.11-1.35-0.34
		c-0.41-0.23-0.72-0.54-0.94-0.93c-0.22-0.4-0.33-0.85-0.33-1.36c0-0.73,0.25-1.35,0.75-1.85c0.5-0.5,1.12-0.75,1.85-0.75
		c0.87,0,1.65,0.37,2.34,1.1l1.02-0.97C157.03,35.74,156.53,35.36,155.94,35.1 M141.2,42.55h1.46v-5.02l3.27,5.02h1.4v-7.66h-1.46
		v5.04l-3.28-5.04h-1.4V42.55z M136.78,42.55h1.45v-7.66h-1.45V42.55z M132.9,34.96c-0.35-0.18-0.71-0.27-1.09-0.27
		c-0.59,0-1.09,0.19-1.5,0.57c-0.4,0.38-0.61,0.84-0.61,1.37c0,0.37,0.12,0.74,0.37,1.11c0.24,0.37,0.78,0.89,1.62,1.57
		c0.44,0.36,0.72,0.62,0.85,0.8c0.13,0.17,0.19,0.35,0.19,0.52c0,0.19-0.09,0.36-0.26,0.5c-0.17,0.15-0.38,0.22-0.63,0.22
		c-0.48,0-0.9-0.34-1.27-1.02l-1.22,0.74c0.29,0.57,0.63,0.99,1.04,1.26c0.4,0.27,0.88,0.4,1.43,0.4c0.7,0,1.26-0.21,1.7-0.61
		c0.43-0.41,0.65-0.93,0.65-1.56c0-0.32-0.06-0.62-0.19-0.89c-0.12-0.27-0.33-0.56-0.63-0.86c-0.12-0.12-0.46-0.41-1.01-0.88
		c-0.59-0.5-0.95-0.83-1.07-0.98c-0.09-0.11-0.13-0.24-0.13-0.36c0-0.13,0.06-0.24,0.18-0.35c0.12-0.1,0.28-0.15,0.47-0.15
		c0.39,0,0.78,0.26,1.16,0.79l1.08-0.95C133.62,35.46,133.25,35.14,132.9,34.96 M123.03,38.09c-0.15,0.14-0.22,0.32-0.22,0.53
		c0,0.21,0.07,0.38,0.22,0.53c0.15,0.15,0.32,0.22,0.53,0.22c0.21,0,0.39-0.07,0.53-0.22c0.15-0.15,0.22-0.32,0.22-0.53
		c0-0.21-0.07-0.39-0.22-0.53c-0.15-0.14-0.32-0.22-0.53-0.22C123.35,37.87,123.18,37.94,123.03,38.09 M113.94,42.55h4.18v-1.43
		h-2.73V39.1h2.73v-1.4h-2.73v-1.38h2.73v-1.43h-4.18V42.55z M107.97,36.31h0.4c0.39,0,0.65,0.03,0.8,0.08
		c0.15,0.05,0.26,0.14,0.35,0.27c0.09,0.12,0.13,0.27,0.13,0.44c0,0.28-0.09,0.48-0.26,0.61c-0.17,0.12-0.49,0.18-0.96,0.18h-0.46
		V36.31z M106.51,42.55h1.46V39.3h0.13l1.72,3.24h1.59l-1.81-3.4c0.49-0.17,0.85-0.43,1.09-0.77c0.24-0.34,0.36-0.76,0.36-1.26
		c0-0.48-0.11-0.89-0.33-1.24c-0.22-0.35-0.51-0.6-0.87-0.75c-0.36-0.15-0.96-0.23-1.81-0.23h-1.54V42.55z M101.51,36.88
		c0.49,0.51,0.73,1.12,0.73,1.85c0,0.73-0.24,1.35-0.73,1.85c-0.49,0.5-1.07,0.75-1.77,0.75c-0.61,0-1.15-0.19-1.63-0.58
		c-0.61-0.49-0.91-1.16-0.91-2.01c0-0.76,0.24-1.39,0.72-1.88c0.48-0.49,1.08-0.74,1.79-0.74
		C100.43,36.12,101.03,36.37,101.51,36.88 M97.74,35.23c-0.62,0.36-1.11,0.85-1.46,1.46c-0.35,0.61-0.53,1.29-0.53,2.02
		c0,1.09,0.38,2.04,1.14,2.83c0.76,0.79,1.72,1.19,2.86,1.19c1.1,0,2.03-0.39,2.8-1.16c0.77-0.77,1.15-1.72,1.15-2.84
		c0-1.13-0.39-2.08-1.17-2.87c-0.78-0.78-1.71-1.18-2.79-1.18C99.03,34.7,98.36,34.88,97.74,35.23 M89.56,36.33h1.36v6.22h1.48
		v-6.22h1.4v-1.44h-4.23V36.33z M86.34,34.96c-0.35-0.18-0.71-0.27-1.09-0.27c-0.59,0-1.09,0.19-1.5,0.57
		c-0.4,0.38-0.61,0.84-0.61,1.37c0,0.37,0.12,0.74,0.37,1.11c0.24,0.37,0.78,0.89,1.62,1.57c0.44,0.36,0.72,0.62,0.85,0.8
		c0.13,0.17,0.19,0.35,0.19,0.52c0,0.19-0.08,0.36-0.26,0.5c-0.17,0.15-0.38,0.22-0.63,0.22c-0.48,0-0.9-0.34-1.27-1.02l-1.23,0.74
		c0.29,0.57,0.63,0.99,1.04,1.26c0.4,0.27,0.88,0.4,1.43,0.4c0.7,0,1.26-0.21,1.7-0.61c0.43-0.41,0.65-0.93,0.65-1.56
		c0-0.32-0.06-0.62-0.19-0.89c-0.12-0.27-0.33-0.56-0.63-0.86c-0.12-0.12-0.46-0.41-1.01-0.88c-0.59-0.5-0.95-0.83-1.07-0.98
		c-0.09-0.11-0.13-0.24-0.13-0.36c0-0.13,0.06-0.24,0.18-0.35c0.12-0.1,0.28-0.15,0.47-0.15c0.39,0,0.78,0.26,1.16,0.79l1.08-0.95
		C87.06,35.46,86.68,35.14,86.34,34.96 M72.56,36.33h1.36v6.22h1.48v-6.22h1.39v-1.44h-4.23V36.33z M64.1,42.55h1.46v-5.02
		l3.27,5.02h1.4v-7.66h-1.46v5.04l-3.28-5.04h-1.4V42.55z M57.23,42.55h4.18v-1.43h-2.73V39.1h2.73v-1.4h-2.73v-1.38h2.73v-1.43
		h-4.18V42.55z M45.71,42.55h1.42l0.84-4.84l1.61,4.84h1.28l1.63-4.84l0.82,4.84h1.41l-1.28-7.66h-1.42l-1.79,5.34l-1.77-5.34h-1.42
		L45.71,42.55z M39.73,36.33h1.36v6.22h1.48v-6.22h1.39v-1.44h-4.23V36.33z M34.53,36.31h0.4c0.39,0,0.65,0.03,0.8,0.08
		c0.15,0.05,0.26,0.14,0.35,0.27c0.09,0.12,0.13,0.27,0.13,0.44c0,0.28-0.09,0.48-0.26,0.61c-0.17,0.12-0.49,0.18-0.96,0.18h-0.46
		V36.31z M33.07,42.55h1.46V39.3h0.13l1.72,3.24h1.59l-1.81-3.4c0.49-0.17,0.85-0.43,1.09-0.77c0.24-0.34,0.36-0.76,0.36-1.26
		c0-0.48-0.11-0.89-0.33-1.24c-0.22-0.35-0.51-0.6-0.87-0.75c-0.36-0.15-0.96-0.23-1.81-0.23h-1.54V42.55z M27.86,39.55h-2.05
		l1.03-2.63L27.86,39.55z M23.14,42.55h1.51l0.62-1.58h3.12l0.6,1.58h1.52l-2.95-7.66h-1.48L23.14,42.55z M17.9,36.31h0.41
		c0.45,0,0.76,0.05,0.93,0.15c0.23,0.14,0.34,0.35,0.34,0.65c0,0.17-0.04,0.32-0.12,0.44c-0.08,0.12-0.19,0.21-0.34,0.26
		c-0.14,0.05-0.4,0.08-0.76,0.08H17.9V36.31z M16.44,42.55h1.46V39.3c0.74,0,1.25-0.04,1.54-0.12c0.48-0.14,0.86-0.39,1.14-0.74
		c0.28-0.35,0.42-0.8,0.42-1.33c0-0.48-0.11-0.9-0.32-1.24c-0.21-0.35-0.51-0.59-0.87-0.75c-0.37-0.15-0.97-0.23-1.81-0.23h-1.55
		V42.55z M9.58,42.55h4.18v-1.43h-2.73V39.1h2.73v-1.4h-2.73v-1.38h2.73v-1.43H9.58V42.55z M2.72,36.29c0.91,0,1.56,0.2,1.97,0.6
		c0.45,0.45,0.68,1.08,0.68,1.89c0,0.53-0.1,0.97-0.29,1.33c-0.19,0.36-0.44,0.62-0.74,0.77c-0.3,0.15-0.78,0.23-1.45,0.23H2.23
		v-4.83H2.72z M0.78,42.55h1.75c0.99,0,1.69-0.06,2.09-0.19c0.4-0.12,0.78-0.35,1.12-0.68c0.35-0.33,0.62-0.74,0.81-1.23
		c0.2-0.49,0.29-1.04,0.29-1.63c0-0.83-0.18-1.55-0.53-2.18c-0.35-0.62-0.8-1.07-1.34-1.35c-0.54-0.28-1.37-0.41-2.48-0.41H0.78
		V42.55z"/>
</g>
</svg>
