<svg role="presentation" aria-hidden="true" xmlns="http://www.w3.org/2000/svg" viewBox="0 0 16 16.248" width="18" height="18">
        <g transform="translate(-1385.7 -72.752)" fill="none">
          <g transform="translate(1388.1 77)">
            <path d="M-1.349,0H12.485s1.935,10.283.739,11.238-14.344,1.077-15.313,0S-1.349,0-1.349,0Z"></path>
            <path d="m-0.71002 0.75c-0.13875 0.87821-0.39444 2.5674-0.60103 4.3311-0.50004 4.269-0.2923 5.387-0.21086 5.6385 0.49148 0.21771 2.6219 0.53049 6.685 0.53049 4.3272 0 6.9998-0.34004 7.56-0.58605 0.089741-0.22058 0.35328-1.2864-0.19934-5.59-0.22641-1.7632-0.51142-3.4527-0.66511-4.324h-12.569m-0.63851-0.75h13.834s1.9349 10.283 0.73931 11.238c-1.1955 0.95451-14.344 1.0768-15.313 0-0.969-1.0768 0.73931-11.238 0.73931-11.238z" fill="white"></path>
          </g>
          <g transform="translate(-1647 3005.8)">
            <path d="m3044.7-2928h-8c0-2.757 1.795-5 4-5s4 2.243 4 5z"></path>
            <path d="m3043.9-2928.7c-0.11987-0.87646-0.44971-1.6802-0.95801-2.3154-0.61108-0.76392-1.407-1.1846-2.2412-1.1846s-1.6304 0.42065-2.2415 1.1846c-0.5083 0.63525-0.83838 1.439-0.95825 2.3154h6.3989m0.80054 0.75h-8c0-2.7573 1.7949-5 4.0002-5s3.9998 2.2427 3.9998 4.9993v7.3242e-4z" fill="white"></path>
          </g>
        </g>
      </svg>