<svg fill="white" viewBox="0 0 292.4 12.404" xmlns="http://www.w3.org/2000/svg">
<path transform="translate(-3.8 -3.798)" d="M3.849,15.859H7.085a5.619,5.619,0,0,0,5.687-5.884A5.562,5.562,0,0,0,7.085,4.092H3.8V15.86h.049ZM6.153,6.1h.393c2.6,0,3.922,1.324,3.922,3.873,0,2.305-1.079,3.874-3.922,3.874H6.153V6.1Zm21.916,7.3.882,2.5H31.4L26.941,3.847H25.176l-4.56,12.06h2.4l.98-2.5Zm-.638-1.863H24.637L25.91,7.28h.05l1.47,4.265Zm13.385,4.315h2.3V7.916h.05l6.177,8.237h1.666V4.141h-2.3v7.894h-.049L42.484,3.8H40.817v12.06ZM64.546,4.14H62.24V15.907h2.3V4.14ZM82.44,6.1V4.092H76.36V15.86h6.08V13.85H78.665V10.663h3.628V8.653H78.665v-2.6H82.44V6.1Zm13.973-1.96h-2.3V15.908h5.54V13.9H96.413V4.14Zm24.66,0h-2.4L122.4,16.153h1.666l2.207-7.7h.049l2.353,7.7h1.667l3.971-12.012h-2.4l-2.3,7.992h-.05l-2.45-8.188h-1.374l-2.353,8.188h-.049l-2.255-7.992ZM149.216,6.1V4.092h-6.08V15.86h6.08V13.85H145.44V10.663h3.628V8.653H145.44v-2.6h3.776V6.1ZM162.7,4.142h-2.3V15.908h5.54V13.9H162.7V4.14Zm15.885,0h-2.3V15.908h5.54V13.9h-3.236V4.14Zm16.915,0h-2.3V15.908h2.3V4.14Zm12.3,11.717h2.3V7.916h.049l6.177,8.237H218V4.141h-2.3v7.894h-.05L209.47,3.8H207.8v12.06Zm26.28-6.227v1.863h2.5a2.746,2.746,0,0,1-2.7,2.648c-2.206,0-3.334-2.157-3.334-4.118s1.079-4.217,3.285-4.217a3.07,3.07,0,0,1,2.7,1.863l2.01-1.078a5.007,5.007,0,0,0-4.658-2.8c-3.53,0-5.736,2.893-5.736,6.227,0,3.235,2.157,6.128,5.589,6.128,3.628,0,5.344-2.942,5.344-6.276V9.583h-5v.05Zm19.66-3.53h2.352V4.092h-7.01V6.1h2.353v9.757h2.3V6.1ZM270.9,16.2a5.941,5.941,0,0,0,5.834-6.227,5.844,5.844,0,1,0-11.668,0A5.941,5.941,0,0,0,270.9,16.2Zm0-10.149a3.693,3.693,0,0,1,3.432,3.824c0,1.765-1.52,4.02-3.432,4.02-1.961,0-3.432-2.255-3.432-4.02A3.689,3.689,0,0,1,270.9,6.053ZM286,15.859h2.3V7.916h.049l6.177,8.237H296.2V4.141h-2.3v7.894h-.05L287.669,3.8H286v12.06Z"></path>
</svg>