<svg width="48" height="32" viewBox="0 0 48 32" fill="none" xmlns="http://www.w3.org/2000/svg">
<path d="M43.7014 0H4.29862C4.13451 0 3.97012 0 3.8063 0.000965146C3.66783 0.00195954 3.52968 0.00350962 3.39152 0.00731171C3.09022 0.0155301 2.78634 0.0334584 2.4888 0.0873896C2.18651 0.142257 1.90522 0.231752 1.6308 0.372663C1.36102 0.51103 1.11403 0.69201 0.89999 0.907969C0.685856 1.12393 0.506408 1.37261 0.369241 1.64499C0.229494 1.92175 0.140698 2.20553 0.086672 2.51064C0.0329102 2.8108 0.0150147 3.11722 0.00689488 3.42077C0.00318297 3.5601 0.0015909 3.69944 0.000689024 3.83874C-0.000267954 4.0043 5.10388e-05 4.16975 5.10388e-05 4.33561V27.6647C5.10388e-05 27.8306 -0.000267954 27.9957 0.000689024 28.1616C0.0015909 28.3009 0.00318297 28.4403 0.00689488 28.5796C0.0150147 28.8829 0.0329102 29.1893 0.086672 29.4894C0.140698 29.7946 0.229494 30.0782 0.369241 30.355C0.506408 30.6274 0.685856 30.8764 0.89999 31.0921C1.11403 31.3084 1.36102 31.4893 1.6308 31.6273C1.90522 31.7686 2.18651 31.8582 2.4888 31.913C2.78634 31.9666 3.09022 31.9848 3.39152 31.993C3.52968 31.9962 3.66783 31.9981 3.8063 31.9987C3.97012 32 4.13451 32 4.29862 32H43.7014C43.8652 32 44.0296 32 44.1934 31.9987C44.3316 31.9981 44.4697 31.9962 44.6085 31.993C44.9092 31.9848 45.213 31.9666 45.5113 31.913C45.8132 31.8582 46.0945 31.7686 46.369 31.6273C46.639 31.4893 46.8853 31.3084 47.0998 31.0921C47.3136 30.8764 47.493 30.6274 47.6305 30.355C47.7706 30.0782 47.8593 29.7946 47.9131 29.4894C47.9669 29.1893 47.9843 28.8829 47.9925 28.5796C47.9962 28.4403 47.9981 28.3009 47.9987 28.1616C48 27.9957 48 27.8306 48 27.6647V4.33561C48 4.16975 48 4.0043 47.9987 3.83874C47.9981 3.69944 47.9962 3.5601 47.9925 3.42077C47.9843 3.11722 47.9669 2.8108 47.9131 2.51064C47.8593 2.20553 47.7706 1.92175 47.6305 1.64499C47.493 1.37261 47.3136 1.12393 47.0998 0.907969C46.8853 0.69201 46.639 0.51103 46.369 0.372663C46.0945 0.231752 45.8132 0.142257 45.5113 0.0873896C45.213 0.0334584 44.9092 0.0155301 44.6085 0.00731171C44.4697 0.00350962 44.3316 0.00195954 44.1934 0.000965146C44.0296 0 43.8652 0 43.7014 0Z" fill="black"/>
<path d="M43.7014 1.0332L44.1862 1.03414C44.3175 1.03507 44.4488 1.03651 44.5808 1.04013C44.8105 1.04639 45.0792 1.05894 45.3296 1.10421C45.5473 1.14376 45.7299 1.20389 45.9051 1.29385C46.0781 1.3825 46.2366 1.49867 46.375 1.63803C46.5139 1.77833 46.6292 1.93842 46.7183 2.11481C46.807 2.29015 46.8662 2.47341 46.9052 2.69457C46.95 2.9444 46.9623 3.2161 46.9686 3.44917C46.9722 3.58072 46.9739 3.71227 46.9745 3.84696C46.9758 4.00983 46.9758 4.17262 46.9758 4.33582V27.6649C46.9758 27.8281 46.9758 27.9906 46.9745 28.157C46.9739 28.2885 46.9722 28.42 46.9686 28.5518C46.9623 28.7845 46.95 29.0561 46.9046 29.3089C46.8662 29.527 46.807 29.7103 46.7178 29.8865C46.629 30.0625 46.5138 30.2224 46.3755 30.3618C46.2364 30.5022 46.0784 30.618 45.9034 30.7075C45.7295 30.797 45.5472 30.8571 45.3316 30.8962C45.0761 30.9421 44.7962 30.9547 44.5854 30.9605C44.4527 30.9635 44.3207 30.9653 44.1855 30.966C44.0244 30.9672 43.8626 30.9672 43.7014 30.9672H4.29864C4.29649 30.9672 4.2944 30.9672 4.29223 30.9672C4.1329 30.9672 3.97326 30.9672 3.81104 30.9659C3.67877 30.9653 3.5468 30.9636 3.4192 30.9606C3.20356 30.9547 2.92346 30.9421 2.67003 30.8965C2.45263 30.8571 2.27036 30.797 2.09416 30.7063C1.92078 30.6176 1.76293 30.5019 1.62371 30.3613C1.48556 30.2222 1.37075 30.0627 1.28198 29.8865C1.19313 29.7105 1.13368 29.5267 1.09459 29.3059C1.04941 29.0536 1.03699 28.7832 1.03079 28.552C1.02725 28.4197 1.02577 28.2874 1.02493 28.1558L1.02429 27.7675L1.02432 27.6649V4.33582L1.02429 4.23328L1.0249 3.84573C1.02577 3.71339 1.02725 3.58107 1.03079 3.44885C1.03699 3.21748 1.04941 2.94688 1.09496 2.69249C1.13371 2.47376 1.19313 2.28991 1.28244 2.113C1.37051 1.93813 1.48553 1.7785 1.62441 1.63847C1.76273 1.4989 1.9211 1.38288 2.09559 1.29338C2.2699 1.20386 2.45251 1.14376 2.66992 1.1043C2.92041 1.05891 3.18927 1.04639 3.41952 1.04011C3.55077 1.03651 3.68202 1.03507 3.81229 1.03417L4.29864 1.0332H43.7014Z" fill="white"/>
<path d="M13.4258 10.6099C13.8261 10.1092 14.0977 9.43698 14.0261 8.75C13.4401 8.77914 12.7251 9.13659 12.3111 9.63766C11.9393 10.0668 11.6103 10.7672 11.6961 11.4253C12.3539 11.4824 13.0111 11.0966 13.4258 10.6099Z" fill="black"/>
<path d="M14.0187 11.5536C13.0634 11.4967 12.2512 12.0958 11.795 12.0958C11.3386 12.0958 10.64 11.5823 9.88445 11.5961C8.90104 11.6106 7.98855 12.1666 7.48951 13.0509C6.46307 14.8201 7.21863 17.4443 8.21679 18.8852C8.70152 19.598 9.28569 20.3829 10.0554 20.3547C10.7827 20.3262 11.0678 19.8838 11.9518 19.8838C12.8352 19.8838 13.092 20.3547 13.8619 20.3404C14.6602 20.3262 15.1594 19.6272 15.6441 18.9137C16.2002 18.1011 16.4278 17.3165 16.4421 17.2734C16.4278 17.2591 14.9026 16.674 14.8885 14.9196C14.8741 13.4506 16.0859 12.7519 16.143 12.7085C15.4586 11.6964 14.3894 11.5823 14.0187 11.5536Z" fill="black"/>
<path d="M22.3363 9.56592C24.4126 9.56592 25.8584 10.9971 25.8584 13.0808C25.8584 15.1719 24.3828 16.6105 22.2843 16.6105H19.9855V20.2663H18.3246V9.56592H22.3363V9.56592ZM19.9855 15.2164H21.8912C23.3373 15.2164 24.1603 14.4379 24.1603 13.0882C24.1603 11.7387 23.3373 10.9675 21.8987 10.9675H19.9855V15.2164Z" fill="black"/>
<path d="M26.2924 18.0489C26.2924 16.6844 27.3379 15.8465 29.1919 15.7427L31.3274 15.6167V15.0161C31.3274 14.1484 30.7415 13.6294 29.7629 13.6294C28.8357 13.6294 28.2573 14.0742 28.1166 14.7713H26.6039C26.6928 13.3623 27.894 12.3242 29.8221 12.3242C31.713 12.3242 32.9216 13.3253 32.9216 14.8899V20.2661H31.3866V18.9832H31.3497C30.8974 19.8508 29.9111 20.3995 28.8878 20.3995C27.3602 20.3995 26.2924 19.4503 26.2924 18.0489ZM31.3274 17.3445V16.729L29.4067 16.8476C28.4501 16.9144 27.9089 17.3371 27.9089 18.0044C27.9089 18.6866 28.4724 19.1315 29.3326 19.1315C30.4523 19.1315 31.3274 18.3603 31.3274 17.3445Z" fill="black"/>
<path d="M34.3707 23.1361V21.8383C34.4891 21.868 34.756 21.868 34.8896 21.868C35.6311 21.868 36.0316 21.5566 36.2762 20.7557C36.2762 20.7409 36.4172 20.2812 36.4172 20.2737L33.5995 12.4653H35.3345L37.3072 18.8129H37.3366L39.3093 12.4653H41L38.0781 20.6741C37.411 22.5651 36.6398 23.1731 35.0232 23.1731C34.8896 23.1731 34.4891 23.1582 34.3707 23.1361Z" fill="black"/>
</svg>
