<svg width="58" height="64" viewBox="0 0 58 64" fill="none" xmlns="http://www.w3.org/2000/svg">
<path fill-rule="evenodd" clip-rule="evenodd" d="M29.9865 1.76676C29.871 0.77208 29.0257 0 28 0C26.8954 0 26 0.895431 26 2V4H14V2L13.9865 1.76676C13.871 0.77208 13.0257 0 12 0C10.8954 0 10 0.895431 10 2V4H6L5.64745 4.01019C2.49784 4.19268 0 6.80464 0 10V38L0.0101854 38.3525C0.192678 41.5022 2.80464 44 6 44H14C14 42.6371 14.1136 41.3008 14.3318 40H6L5.76676 39.9865C4.77208 39.871 4 39.0257 4 38V20H33H36H38H40V10L39.9898 9.64745C39.8073 6.49784 37.1954 4 34 4H30V2L29.9865 1.76676ZM10 8H6C4.97433 8 4.12899 8.77208 4.01346 9.76676L4 10V16H36V10C36 8.97433 35.2279 8.12899 34.2332 8.01346L34 8H30V10C30 11.1046 29.1046 12 28 12C26.9743 12 26.129 11.2279 26.0135 10.2332L26 10V8H14V10C14 11.1046 13.1046 12 12 12C10.9743 12 10.129 11.2279 10.0135 10.2332L10 10V8ZM38 24C26.9543 24 18 32.9543 18 44C18 55.0457 26.9543 64 38 64C49.0457 64 58 55.0457 58 44C58 32.9543 49.0457 24 38 24ZM38 28C46.8366 28 54 35.1634 54 44C54 52.8366 46.8366 60 38 60C29.1634 60 22 52.8366 22 44C22 35.1634 29.1634 28 38 28ZM39.9945 33.8507C39.9182 32.8159 39.0544 32 38 32C36.8954 32 36 32.8954 36 34V44L36.0065 44.1612C36.0624 44.8547 36.4764 45.4743 37.1056 45.7889L43.1056 47.7889L43.2481 47.8534C44.2063 48.2434 45.3184 47.8353 45.7889 46.8944L45.8534 46.7519C46.2434 45.7937 45.8353 44.6816 44.8944 44.2111L40 42.764V34L39.9945 33.8507Z" fill="#1F2D3D"/>
</svg>
