<svg width="24" height="18" viewBox="0 0 24 18" fill="none" xmlns="http://www.w3.org/2000/svg">
<path fill-rule="evenodd" clip-rule="evenodd" d="M16.4586 0C18.0933 0 19.5325 0.976276 20.0286 2.40171L20.0765 2.55075L20.9587 5.53846H22.5C23.3284 5.53846 24 6.15838 24 6.92308C24 7.68778 23.3284 8.30769 22.5 8.30769H21.75V16.6154C21.75 17.3801 21.0784 18 20.25 18C19.4216 18 18.75 17.3801 18.75 16.6154V15.2308H6V16.2692C6 17.2251 5.16053 18 4.125 18C3.08947 18 2.25 17.2251 2.25 16.2692V14.1923C2.25 14.1308 2.25348 14.07 2.26026 14.0102L2.25262 13.929L2.25 13.8462V8.30769H1.5C0.671573 8.30769 0 7.68778 0 6.92308C0 6.15838 0.671573 5.53846 1.5 5.53846L3.04066 5.53888L3.92352 2.55075C4.35364 1.09497 5.75268 0.0701635 7.37301 0.00346094L7.54139 0H16.4586ZM5.25 9.69238C4.42157 9.69238 3.75 10.3123 3.75 11.077C3.75 11.8417 4.42157 12.4616 5.25 12.4616C6.07843 12.4616 6.75 11.8417 6.75 11.077C6.75 10.3123 6.07843 9.69238 5.25 9.69238ZM18.75 9.69238C17.9216 9.69238 17.25 10.3123 17.25 11.077C17.25 11.8417 17.9216 12.4616 18.75 12.4616C19.5784 12.4616 20.25 11.8417 20.25 11.077C20.25 10.3123 19.5784 9.69238 18.75 9.69238ZM16.4586 1.38452H7.54139C6.57287 1.38452 5.71872 1.95569 5.41088 2.7935L5.37067 2.91497L4.36148 6.33205C4.17226 6.97277 4.65246 7.61529 5.32053 7.61529H18.68C19.3481 7.61529 19.8284 6.97266 19.639 6.33191L18.6293 2.91497C18.3872 2.09558 17.6335 1.50375 16.7386 1.40057L16.5961 1.38837L16.4586 1.38452Z" fill="#1F2D3D"/>
</svg>
