<svg width="44" height="45" viewBox="0 0 44 45" fill="none" xmlns="http://www.w3.org/2000/svg">
<path fill-rule="evenodd" clip-rule="evenodd" d="M31.9669 4.54656C32.4165 3.53762 31.963 2.35527 30.954 1.90571C22.0544 -2.05972 11.6066 0.300828 5.27631 7.70725C-1.05397 15.1137 -1.75873 25.8016 3.54422 33.9752C8.84717 42.1487 18.8946 45.8607 28.2378 43.0982C37.5811 40.3357 43.9944 31.7567 44 22.0137V20.1725L43.9865 19.9393C43.871 18.9446 43.0257 18.1725 42 18.1725C40.8954 18.1725 40 19.0679 40 20.1725V22.0125L39.9916 22.5544C39.7557 30.2996 34.5744 37.0535 27.1037 39.2623C19.4592 41.5226 11.2386 38.4855 6.89982 31.7981C2.56105 25.1106 3.13767 16.3659 8.31699 10.3061C13.4963 4.24633 22.0445 2.31497 29.326 5.55941C30.335 6.00897 31.5173 5.5555 31.9669 4.54656ZM43.5812 7.23757C44.1909 6.45269 44.1348 5.31826 43.4135 4.59765C42.6321 3.817 41.3657 3.81763 40.5851 4.59906L22.0001 23.2025L17.4143 18.6183L17.2259 18.4519C16.4413 17.8419 15.3068 17.8974 14.5859 18.6183C13.8048 19.3994 13.8048 20.6657 14.5859 21.4467L20.5859 27.4467L20.7743 27.6131C21.5592 28.2234 22.6941 28.1676 23.415 27.446L43.4149 7.42607L43.5812 7.23757Z" fill="#1F2D3D"/>
</svg>
