<?xml version="1.0" encoding="UTF-8"?>
<svg width="64px" height="64px" viewBox="0 0 64 64" version="1.1" xmlns="http://www.w3.org/2000/svg" xmlns:xlink="http://www.w3.org/1999/xlink">
    <!-- Generator: Sketch 52.6 (67491) - http://www.bohemiancoding.com/sketch -->
    <title>icon/impact/discount</title>
    <desc>Created with Sketch.</desc>
    <g id="icon/impact/discount" stroke="none" stroke-width="1" fill="none" fill-rule="evenodd">
        <path d="M62.7079111,31.2496889 L60.1061333,29.9181333 C59.2972444,29.5048 59.2136889,28.6976889 59.9185778,28.1243556 L62.1870222,26.2790222 C62.8919111,25.7065778 62.7550222,25.0443556 61.8785778,24.8088 L59.0554667,24.0514667 C58.1825778,23.8168 57.9319111,23.0443556 58.5034667,22.3376889 L60.3399111,20.0568 C60.9114667,19.3483556 60.6368,18.7314667 59.7328,18.6834667 L56.8172444,18.5314667 C55.9132444,18.4843556 55.5088,17.7830222 55.9221333,16.9696889 L57.2501333,14.3554667 C57.6616889,13.5439111 57.2652444,12.9972444 56.3719111,13.1403556 L53.4856889,13.5999111 C52.5923556,13.7448 52.0519111,13.1412444 52.2865778,12.2621333 L53.0430222,9.4248 C53.2794667,8.54657778 52.7790222,8.09324444 51.9336889,8.42035556 L49.2083556,9.47546667 C48.3630222,9.80168889 47.7096889,9.32435556 47.7568,8.41591111 L47.9114667,5.48257778 C47.9585778,4.57324444 47.3781333,4.23546667 46.6181333,4.73235556 L44.1701333,6.33324444 C43.4092444,6.82924444 42.6732444,6.49946667 42.5328,5.59902222 L42.0759111,2.69946667 C41.9354667,1.79991111 41.2954667,1.59102222 40.6563556,2.23546667 L38.5923556,4.31191111 C37.9514667,4.95724444 37.1630222,4.78835556 36.8385778,3.9368 L35.7932444,1.19546667 C35.4705778,0.3448 34.8021333,0.274577778 34.3070222,1.03813333 L32.7203556,3.50302222 C32.2252444,4.26657778 31.4181333,4.26657778 30.9256889,3.50302222 L29.3363556,1.03813333 C28.8439111,0.274577778 28.1754667,0.3448 27.8528,1.19546667 L26.8056889,3.93768889 C26.4812444,4.78835556 25.6928,4.95724444 25.0519111,4.31191111 L22.9879111,2.23546667 C22.3488,1.59102222 21.7079111,1.79991111 21.5674667,2.69946667 L21.1123556,5.59902222 C20.9719111,6.49946667 20.2341333,6.82924444 19.4759111,6.33235556 L17.0279111,4.73235556 C16.2670222,4.23546667 15.6839111,4.57324444 15.7328,5.48257778 L15.8874667,8.41591111 C15.9336889,9.32435556 15.2830222,9.80168889 14.4376889,9.47546667 L11.7114667,8.42035556 C10.8661333,8.09324444 10.3665778,8.54657778 10.6003556,9.4248 L11.3594667,12.2621333 C11.5941333,13.1412444 11.0536889,13.7448 10.1594667,13.5999111 L7.27413333,13.1403556 C6.37991111,12.9972444 5.98435556,13.5439111 6.39768889,14.3554667 L7.72391111,16.9696889 C8.13546667,17.7830222 7.7328,18.4843556 6.82791111,18.5314667 L3.90968889,18.6834667 C3.00657778,18.7314667 2.7328,19.3483556 3.30346667,20.0568 L5.14257778,22.3376889 C5.71146667,23.0443556 5.46524444,23.8168 4.5888,24.0514667 L1.76746667,24.8088 C0.891911111,25.0443556 0.753244444,25.7065778 1.45635556,26.2790222 L3.72746667,28.1243556 C4.43235556,28.6976889 4.34702222,29.5048 3.53813333,29.9181333 L0.937244444,31.2496889 C0.128355556,31.6630222 0.128355556,32.3385778 0.937244444,32.7510222 L3.53813333,34.0825778 C4.34702222,34.4959111 4.43235556,35.3030222 3.72746667,35.8754667 L1.45635556,37.7216889 C0.753244444,38.2959111 0.891911111,38.9563556 1.76746667,39.1910222 L4.5888,39.9492444 C5.46524444,40.1856889 5.71146667,40.9563556 5.14257778,41.6630222 L3.30346667,43.9439111 C2.7328,44.6523556 3.00657778,45.2683556 3.90968889,45.3172444 L6.82791111,45.4683556 C7.7328,45.5154667 8.13546667,46.2185778 7.72391111,47.0292444 L6.39768889,49.6452444 C5.98435556,50.4568 6.37991111,51.0043556 7.27413333,50.8594667 L10.1594667,50.3990222 C11.0536889,50.2559111 11.5941333,50.8585778 11.3594667,51.7385778 L10.6003556,54.5750222 C10.3665778,55.4541333 10.8661333,55.9065778 11.7114667,55.5794667 L14.4376889,54.5252444 C15.2830222,54.1981333 15.9336889,54.6745778 15.8874667,55.5848 L15.7328,58.5172444 C15.6839111,59.4265778 16.2670222,59.7643556 17.0279111,59.2683556 L19.4759111,57.6683556 C20.2341333,57.1705778 20.9719111,57.5012444 21.1123556,58.4008 L21.5674667,61.3021333 C21.7079111,62.2008 22.3488,62.4096889 22.9879111,61.7652444 L25.0519111,59.6888 C25.6928,59.0425778 26.4812444,59.2123556 26.8056889,60.0630222 L27.8528,62.8052444 C28.1754667,63.6559111 28.8439111,63.7252444 29.3363556,62.9625778 L30.9256889,60.4976889 C31.4199111,59.7332444 32.2252444,59.7332444 32.7203556,60.4976889 L34.3070222,62.9625778 C34.8021333,63.7252444 35.4705778,63.6559111 35.7932444,62.8052444 L36.8385778,60.0630222 C37.1630222,59.2123556 37.9514667,59.0425778 38.5923556,59.6888 L40.6563556,61.7652444 C41.2954667,62.4096889 41.9354667,62.2008 42.0759111,61.3021333 L42.5328,58.4008 C42.6732444,57.5012444 43.4092444,57.1705778 44.1701333,57.6683556 L46.6181333,59.2683556 C47.3781333,59.7643556 47.9585778,59.4265778 47.9114667,58.5172444 L47.7568,55.5848 C47.7096889,54.6745778 48.3630222,54.1981333 49.2083556,54.5252444 L51.9336889,55.5794667 C52.7790222,55.9065778 53.2794667,55.4541333 53.0430222,54.5750222 L52.2865778,51.7385778 C52.0519111,50.8585778 52.5923556,50.2559111 53.4856889,50.3990222 L56.3719111,50.8594667 C57.2652444,51.0043556 57.6616889,50.4568 57.2501333,49.6452444 L55.9221333,47.0292444 C55.5088,46.2185778 55.9132444,45.5154667 56.8172444,45.4683556 L59.7328,45.3172444 C60.6368,45.2683556 60.9114667,44.6523556 60.3399111,43.9439111 L58.5034667,41.6630222 C57.9319111,40.9563556 58.1825778,40.1856889 59.0572444,39.9492444 L61.8785778,39.1910222 C62.7550222,38.9563556 62.8919111,38.2959111 62.1870222,37.7216889 L59.9185778,35.8754667 C59.2136889,35.3030222 59.2972444,34.4959111 60.1061333,34.0825778 L62.7079111,32.7510222 C63.5159111,32.3385778 63.5159111,31.6630222 62.7079111,31.2496889" id="Fill-2" fill="#DE004D"></path>
        <path d="M39.7415758,20.3716838 C40.7229208,19.4486454 42.2901215,19.5101953 43.2774995,20.4975733 C43.2956005,20.5156743 43.3136568,20.534271 43.3313842,20.5529712 C44.3147495,21.5930821 44.3017701,23.198272 43.3025719,24.1382613 L23.2493724,44.1914608 C22.3093831,45.190659 20.7041933,45.2036384 19.6640823,44.2202731 C19.6453821,44.2025457 19.6267854,44.1844894 19.6086844,44.1663884 C18.6213064,43.1790104 18.5597565,41.6118097 19.4827949,40.6304647 L39.7415758,20.3716838 Z M23.1111111,25.7777778 C24.5838704,25.7777778 25.7777778,24.5838704 25.7777778,23.1111111 C25.7777778,21.6383518 24.5838704,20.4444444 23.1111111,20.4444444 C21.6383518,20.4444444 20.4444444,21.6383518 20.4444444,23.1111111 C20.4444444,24.5838704 21.6383518,25.7777778 23.1111111,25.7777778 Z M23.1111111,30.2222222 C19.1837529,30.2222222 16,27.0384693 16,23.1111111 C16,19.1837529 19.1837529,16 23.1111111,16 C27.0384693,16 30.2222222,19.1837529 30.2222222,23.1111111 C30.2222222,27.0384693 27.0384693,30.2222222 23.1111111,30.2222222 Z M40.8888889,43.5555556 C42.3616482,43.5555556 43.5555556,42.3616482 43.5555556,40.8888889 C43.5555556,39.4161296 42.3616482,38.2222222 40.8888889,38.2222222 C39.4161296,38.2222222 38.2222222,39.4161296 38.2222222,40.8888889 C38.2222222,42.3616482 39.4161296,43.5555556 40.8888889,43.5555556 Z M40.8888889,48 C36.9615307,48 33.7777778,44.8162471 33.7777778,40.8888889 C33.7777778,36.9615307 36.9615307,33.7777778 40.8888889,33.7777778 C44.8162471,33.7777778 48,36.9615307 48,40.8888889 C48,44.8162471 44.8162471,48 40.8888889,48 Z" id="Combined-Shape" fill="#FFFFFF"></path>
    </g>
</svg>