<svg xmlns="http://www.w3.org/2000/svg" width="24" height="24" viewBox="0 0 24 24">
    <path d="M11 3c.552 0 1 .448 1 1 0 .513-.386.936-.883.993L11 5H4c-.513 0-.936.386-.993.883L3 6v14c0 .513.386.936.883.993L4 21h14c.513 0 .936-.386.993-.883L19 20v-7c0-.552.448-1 1-1 .513 0 .936.386.993.883L21 13v7c0 1.598-1.249 2.904-2.824 2.995L18 23H4c-1.598 0-2.904-1.249-2.995-2.824L1 20V6c0-1.598 1.249-2.904 2.824-2.995L4 3h7zm6.703-1.091c1.212-1.212 3.176-1.212 4.388 0 1.212 1.212 1.212 3.176 0 4.388l-9.418 9.419c-.128.128-.289.219-.465.263l-3.965.991c-.733.183-1.396-.48-1.213-1.213l.991-3.965c.044-.176.135-.337.263-.465zm-1.191 4.018l-6.618 6.618-.52 2.08 2.08-.52 6.618-6.618-1.56-1.56zm4.165-2.604c-.43-.43-1.13-.43-1.56 0l-1.19 1.189 1.56 1.56 1.19-1.189c.37-.37.422-.935.158-1.36l-.072-.104z"/>
</svg>
