<?xml version="1.0" encoding="utf-8"?>
<!-- Generator: Adobe Illustrator 22.0.1, SVG Export Plug-In . SVG Version: 6.00 Build 0)  -->
<svg version="1.1" xmlns="http://www.w3.org/2000/svg" xmlns:xlink="http://www.w3.org/1999/xlink" x="0px" y="0px" width="928px"
	 height="527px" viewBox="0 0 928 527" enable-background="new 0 0 928 527" xml:space="preserve">
<path fill="#1450A0" d="M67.2,470.8c-35.3-33-56.8-80.4-64.3-142.2c-5.4-43.9-3.1-84,6.7-120.1c9.8-36.2,28.4-66.7,55.6-91.8
	c27.2-25,61.8-40.1,103.7-45.2c52.6-6.4,97.1,8.1,133.6,43.6c36.4,35.5,58.9,87.5,67.2,156c7.8,64.1-2.4,118.1-30.8,161.9
	c-28.3,43.8-72.2,69.4-131.5,76.6C149.3,516.8,102.5,503.8,67.2,470.8z M272.4,389.1c13-32.9,16.5-73.9,10.5-123
	c-4.5-36.8-15.9-67.5-34.1-91.9c-18.2-24.5-42-34.9-71.3-31.4c-33.2,4.1-57.9,23.2-73.9,57.5C87.6,234.6,82.3,274.7,88,320.6
	c5,41.2,17.2,73.1,36.4,95.9c19.2,22.8,46.1,32,80.5,27.8C236.8,440.4,259.4,422,272.4,389.1z"/>
<path fill="#DE004D" d="M533.4,319.3c21.6,17.2,35,41.5,40.3,72.7c6,35.5,2.4,65.3-10.8,89.5c-13.3,24.2-34.5,38.7-63.6,43.7
	c-30.4,5.2-55.7-1.1-76-18.9c-20.3-17.7-33-42-38.2-72.6c-5.9-34.9-1.9-64.7,12.2-89.3c14.1-24.6,34.3-39.1,60.8-43.6
	C486.7,295.9,511.8,302.1,533.4,319.3z M438,371.7c-5.8,15-7.2,31.8-4,50.2c3.1,18.5,9.7,33.3,19.8,44.6
	c10,11.3,22.1,15.7,36.2,13.4c13.8-2.4,23.9-10.8,30.2-25.3c6.3-14.5,7.9-30.6,4.9-48.2c-3.3-19.3-10.3-34.9-21.1-46.8
	c-10.8-11.9-23-16.7-36.6-14.4C453.7,347.9,443.9,356.7,438,371.7z"/>
<path fill="#E65D00" d="M580.3,74.4l4.1,22.9c14.2-17.7,33.1-29.2,57-34.4c28.4-6.2,53.7-1,76,15.6c22.2,16.6,36.9,40.9,43.9,73.1
	c7,32.2,4.1,59.7-8.8,82.4c-12.9,22.8-33.6,37.2-62,43.4c-24.7,5.4-45.7,4-63.2-4.3l22.5,95L591,380L528.8,84.3L580.3,74.4z
	 M627.7,225.7c11.7,9.3,25.5,12.3,41.6,8.8c14.1-3.1,24.1-11.3,30.2-24.8c6.1-13.5,7.3-28.5,3.7-45c-3.9-17.9-11.7-32-23.5-42.4
	c-11.7-10.3-24.9-13.9-39.5-10.7c-15.8,3.4-26.8,11.6-33,24.6c-6.2,12.9-7.3,28.6-3.2,47.1C608.1,202.2,616,216.4,627.7,225.7z"/>
<path fill="#6DA10C" d="M804.4,364.3c-4.2-11.3-11.1-19.1-20.9-23.6c-9.8-4.4-19.9-5.7-30.4-3.7c-8.5,1.6-15.5,5.1-21.1,10.4
	c-5.5,5.3-7.8,11.3-6.8,18.1c0.8,4.2,2.8,7.6,5.9,10.2c3.1,2.6,7.4,4.4,12.9,5.3c5.5,0.9,10.8,1.5,16,1.8c5.2,0.3,11.9,0.4,19.9,0.4
	c8.1,0,14.7,0.3,19.8,0.9c14.4,1.4,26.3,5,35.9,10.7c9.5,5.8,15.6,15.5,18.2,29.1c3.4,17.6-1.1,32.8-13.5,45.5
	c-12.3,12.8-28.6,21-48.8,24.9c-13.6,2.6-27,2.7-40,0.5c-13-2.3-25-7.6-36-16.1c-10.9-8.5-18.7-19.4-23.3-33l44.8-10.8
	c3.9,8.5,10.5,14.5,19.7,18c9.2,3.5,18.4,4.4,27.4,2.7c6.8-1.3,12.2-3.8,16.2-7.5c4-3.7,5.5-8,4.5-13c-1.1-6-5.2-9.9-12.3-11.7
	c-7-1.9-17.9-3-32.6-3.4c-14.7-0.4-25.5-1.1-32.5-2.1c-28.8-4.5-45.5-18.5-49.9-41.8c-3.8-20.1,0.7-37.2,13.7-51.4
	c12.9-14.2,30.1-23.3,51.5-27.3c22.6-4.3,44-1.9,64.2,7.3c20.1,9.1,33.4,24.7,39.9,46.6L804.4,364.3z"/>
<path fill="#2AACE2" d="M915.5,288.3c-8.3,7.2-18.3,10.7-29.8,10.7c-11.3,0-20.9-3.7-28.8-11.2c-7.9-7.4-11.9-17.2-11.9-29.3
	c0-11.8,4-21.1,12.1-28c8.1-6.9,18-10.3,29.8-10.3c11.6,0,21.3,3.7,29.2,11.2c7.9,7.4,11.9,17.1,11.9,28.9
	C928,271.8,923.8,281.1,915.5,288.3z"/>
<path fill="#2AACE2" d="M918,0l-1.2,191l-56-0.8c-1.6-125-2.8-187.5-3.6-187.5C882.7,2,902.9,1,918,0z"/>
</svg>
