<svg xmlns="http://www.w3.org/2000/svg" xmlns:xlink="http://www.w3.org/1999/xlink" width="40" height="40" viewBox="0 0 50 50">
    <defs>
        <path id="a" d="M42.15 5.85c7.602 7.604 7.996 28.687 0 36.418-7.816 7.554-28.686 7.732-36.417 0-7.732-7.732-7.556-28.602 0-36.417 7.73-7.997 28.814-7.603 36.417 0"/>
    </defs>
    <g fill="none" fill-rule="evenodd">
        <path fill="#FFF" d="M-930-1442H630V764H-930z"/>
        <g transform="translate(0 0)">
            <mask id="b" fill="#fff">
                <use xlink:href="#a"/>
            </mask>
            <use fill="#FFF" xlink:href="#a"/>
            <g fill="#F7F7F7" mask="url(#b)">
                <path d="M0 0h48v48H0z"/>
            </g>
            <g fill-rule="nonzero" mask="url(#b)">
                <path fill="#4285F4" d="M38.4 24.34c0-1.063-.095-2.085-.273-3.067H24v5.802h8.073c-.348 1.875-1.405 3.464-2.993 4.527v3.764h4.847c2.837-2.611 4.473-6.457 4.473-11.025z"/>
                <path fill="#34A853" d="M24 39c4.05 0 7.445-1.343 9.927-3.634l-4.847-3.764c-1.344.9-3.062 1.432-5.08 1.432-3.907 0-7.214-2.639-8.393-6.184h-5.012v3.886C13.064 35.64 18.136 39 24 39z"/>
                <path fill="#FBBC05" d="M15.607 26.85c-.3-.9-.47-1.861-.47-2.85 0-.989.17-1.95.47-2.85v-3.886h-5.012A14.994 14.994 0 0 0 9 24c0 2.42.58 4.711 1.595 6.736l5.012-3.886z"/>
                <path fill="#EA4335" d="M24 14.966c2.202 0 4.18.757 5.734 2.243l4.302-4.302C31.44 10.487 28.043 9 24 9c-5.864 0-10.936 3.361-13.405 8.264l5.012 3.886c1.18-3.545 4.486-6.184 8.393-6.184z"/>
            </g>
        </g>
    </g>
</svg>
