<svg width="44" height="40" viewBox="0 0 44 40" fill="none" xmlns="http://www.w3.org/2000/svg">
<path fill-rule="evenodd" clip-rule="evenodd" d="M5.63699 0H38.363C39.2968 0 40.1063 0.646156 40.3132 1.5567L43.9494 17.5561C44.2338 18.8076 43.2826 19.9992 41.9992 19.9992H39.9993V37.9985C39.9993 39.1031 39.1039 39.9985 37.9994 39.9985C36.9451 39.9985 36.0813 39.1826 36.0049 38.1478L35.9995 37.9985V19.9992H25.9998V37.9985C25.9998 39.1031 25.1044 39.9985 23.9999 39.9985H6.00061C4.89608 39.9985 4.00069 39.1031 4.00069 37.9985V19.9992H2.00077C0.717374 19.9992 -0.233852 18.8076 0.0505752 17.5561L3.6868 1.5567C3.89374 0.646156 4.70323 0 5.63699 0ZM37.9966 15.9994C37.9975 15.9994 37.9985 15.9994 37.9994 15.9994C38.0003 15.9994 38.0012 15.9994 38.0022 15.9994H39.4933L36.7664 3.99985H7.23257L4.50567 15.9994H5.99782L6.00061 15.9994H23.9999L24.0027 15.9994H37.9966ZM22 19.9992H8.00055V35.9976H22V19.9992Z" fill="#1F2D3D"/>
</svg>
