<svg width="40" height="40" xmlns="http://www.w3.org/2000/svg">
 <defs>
  <radialGradient gradientUnits="userSpaceOnUse" gradientTransform="matrix(1.3333 0 0 -1.333 -8 79.99)" r="47.36" cy="24.745" cx="2.3" id="svg_9">
   <stop stop-color="#fd5" offset="0"/>
   <stop stop-color="#fd5" offset="0.1"/>
   <stop stop-color="#ff543e" offset="0.5"/>
   <stop stop-color="#c837ab" offset="1"/>
  </radialGradient>
  <radialGradient gradientUnits="userSpaceOnUse" gradientTransform="matrix(1.3333 0 0 -1.333 -8 79.99)" r="26.93" cy="61.025" cx="5.85" id="svg_8">
   <stop stop-color="#3771c8" offset="0"/>
   <stop stop-color="#3771c8" offset="0.13"/>
   <stop stop-opacity="0" stop-color="#60f" offset="1"/>
  </radialGradient>
 </defs>
 <g>
  <title>background</title>
  <rect fill="none" id="canvas_background" height="40" width="40" y="-1" x="-1"/>
 </g>
 <g>
  <title>Layer 1</title>
  <svg y="0.00162" x="0" id="svg_7" viewBox="0 0 65 65" height="40" width="40">
   <path id="svg_30" d="m7.6,7.8c-4.9,5.2 -7.6,14.7 -7.6,24.2l0,0.2c0,9.5 2.5,19 7.6,24.1c10.3,10.3 38.1,10.1 48.6,0c10.7,-10.3 10.1,-38.4 0,-48.5s-38.3,-10.7 -48.6,0z" fill="url(#svg_9)"/>
   <path id="svg_31" d="m7.6,7.8c-4.9,5.2 -7.6,14.7 -7.6,24.2l0,0.2c0,9.5 2.5,19 7.6,24.1s14.7,7.7 24.3,7.7c9.5,0 19.1,-2.7 24.3,-7.6c10.7,-10.3 10.1,-38.4 0,-48.5s-38.3,-10.8 -48.6,-0.1z" fill="url(#svg_8)"/>
   <path id="svg_32" d="m32,10.7c-5.8,0 -6.5,0 -8.8,0.1c-1.8,0 -3.5,0.4 -5.2,1c-2.9,1.1 -5.1,3.4 -6.3,6.2c-0.6,1.7 -0.9,3.4 -1,5.2c-0.1,2.3 -0.1,3 -0.1,8.8s0,6.5 0.1,8.8c0,1.8 0.4,3.5 1,5.2c0.5,1.4 1.4,2.7 2.5,3.8c1.1,1.1 2.4,1.9 3.8,2.5c1.7,0.6 3.4,1 5.2,1c2.3,0.1 3,0.1 8.8,0.1s6.5,0 8.8,-0.1c1.8,0 3.5,-0.4 5.2,-1c2.9,-1.1 5.1,-3.4 6.2,-6.2c0.6,-1.7 0.9,-3.4 1,-5.2c0.1,-2.3 0.1,-3 0.1,-8.8s0,-6.5 -0.1,-8.8c0,-1.8 -0.4,-3.5 -1,-5.2c-1.1,-2.9 -3.4,-5.1 -6.2,-6.2c-1.7,-0.6 -3.4,-0.9 -5.2,-1c-2.3,-0.2 -3,-0.2 -8.8,-0.2zm-1.9,3.8l1.9,0c5.7,0 6.4,0 8.6,0.1c1.4,0 2.7,0.3 4,0.7c1.8,0.7 3.3,2.2 4,4c0.5,1.3 0.7,2.6 0.7,4c0.1,2.2 0.1,2.9 0.1,8.6s0,6.4 -0.1,8.6c0,1.4 -0.3,2.7 -0.7,4c-0.7,1.8 -2.2,3.3 -4,4c-1.3,0.5 -2.6,0.7 -4,0.7c-2.2,0.1 -2.9,0.1 -8.6,0.1s-6.4,0 -8.6,-0.1c-1.4,0 -2.7,-0.3 -4,-0.7c-1.8,-0.7 -3.3,-2.2 -4,-4c-0.5,-1.3 -0.7,-2.6 -0.7,-4c-0.1,-2.3 -0.1,-2.9 -0.1,-8.6s0,-6.4 0.1,-8.6c0,-1.4 0.3,-2.7 0.7,-4c0.7,-1.8 2.2,-3.3 4,-4c1.3,-0.5 2.6,-0.7 4,-0.7c1.9,-0.1 2.6,-0.1 6.7,-0.1zm13.3,3.6c-1.4,0 -2.6,1.1 -2.6,2.6c0,1.4 1.1,2.6 2.6,2.6c1.4,0 2.6,-1.1 2.6,-2.6s-1.2,-2.6 -2.6,-2.6zm-11.4,3c-6.1,0 -11,4.9 -11,10.9c0,6.1 4.9,11 10.9,11s11,-4.9 11,-10.9c0,-6.1 -4.9,-11 -10.9,-11zm0,3.8c3.9,0 7.1,3.2 7.1,7.1s-3.2,7.1 -7.1,7.1s-7.1,-3.1 -7.1,-7.1c0,-3.9 3.2,-7.1 7.1,-7.1z" fill="#FFF"/>
  </svg>
 </g>
</svg>