<svg xmlns="http://www.w3.org/2000/svg" width="364" height="104" viewBox="0 0 364 104">
    <g fill="none" fill-rule="evenodd">
        <path fill="#FFF" d="M318.52 42.615c-.726-1.216-1.732-2.272-2.935-2.952a6.676 6.676 0 0 0-.944-.447c.513-1.07.824-2.131 1.055-3.238a19.42 19.42 0 0 0 .381-3.76c-.008-1.217-.101-2.404-.512-3.7-.215-.648-.51-1.347-1.083-2.087-.559-.727-1.514-1.524-2.758-1.853-3.7-1.007-6.678-1.473-9.665-1.467-2.786.002-5.427.372-8.771.872-1.702.257-2.94 1.243-3.677 2.131-1.122 1.376-1.598 2.74-1.97 4.128-.347 1.386-.51 2.8-.512 4.198.012 1.426.14 2.796.688 4.275.291.736.691 1.546 1.507 2.354.78.805 2.205 1.517 3.626 1.49.654 0 1.268-.126 1.8-.311 1.255-.335 3.194-.542 5.22-.534.477-.001.96.012 1.445.03-.195.075-.39.153-.609.251-2.61 1.218-4.06 3.873-4.029 6.425 0 1.031-.095 2.15-.017 2.715-2.468-4.36-6.716-8.025-12.428-9.314a25.539 25.539 0 0 0-7.024-.974c-1.145 0-2.3.075-3.452.227-6.95.894-13.034 4.64-16.741 10.416-.525.812-.99 1.651-1.399 2.51a33.422 33.422 0 0 0-2.404-7.129 47.531 47.531 0 0 0-.498-1.028c-.063-.126-.115-.226-.144-.288l-.001.002c-.43-1.051-1.048-2.043-1.877-2.841-1.258-1.237-2.855-1.78-3.97-1.963-1.144-.193-1.955-.186-2.474-.245-.63-.06-1.256-.082-1.877-.082-1.57 0-3.096.146-4.402.337-.653.097-1.248.207-1.786.33-.561.137-.969.22-1.688.532l-.048.023c-2.57 1.195-4.035 3.857-3.998 6.41 0 1.032.18 2.97.18 2.97l-.011-.033c-.564-1.799-1.765-3.437-3.283-4.345-1.509-.924-3.027-1.11-4.14-1.11-.185 0-.363.005-.536.015 1.277-1.186 2.888-2.306 4.64-3.355a5.29 5.29 0 0 0 2.034-2.254 5.735 5.735 0 0 0 .533-2.452c-.035-1.769-.573-2.983-1.166-4.185-.927-1.765-2.176-3.377-3.634-4.765-.734-.69-1.52-1.318-2.444-1.85-.93-.514-2.01-1.015-3.567-1.04a5.486 5.486 0 0 0-2.841.783c-3.389 2.016-5.696 4.094-8.04 6.864-1.085 1.228-1.62 2.916-1.593 4.334.019 1.861.649 3.301 1.354 4.527 1.095 1.831 2.505 3.28 3.974 4.455.29.228.583.444.88.649a6.923 6.923 0 0 0-1.933 1.771c-.956 1.284-1.441 2.846-1.441 4.43 0 .45.039.924.125 1.406l.234 1.24.016.07c.045.19.214 1.13.34 2.326.133 1.21.243 2.746.242 4.364.014 2.673-.338 5.588-1.124 7.514-1.194 3.067-4.08 5.876-7.356 8.11a51.172 51.172 0 0 1-3.477 2.17c.622-.929.95-1.81 1.218-2.602.327-1.015.51-1.926.644-2.57 1.5-7.332 2.274-20.058 2.286-31.458 0-4.037-.103-7.883-.324-11.236-.23-3.368-.548-6.192-1.099-8.457l-.033-.168c-.108-.408-.237-1.79-1.511-3.238a5.659 5.659 0 0 0-1.455-1.133 28.103 28.103 0 0 0 1.894-1.105c.623-.4 1.31-.89 1.961-1.635.655-.739 1.138-1.678 1.403-2.502l.02-.055-.005.011c.382-1.207.516-2.347.522-3.495-.012-1.016-.092-1.988-.493-3.144-.217-.579-.507-1.243-1.194-1.987-.644-.732-1.992-1.519-3.428-1.492a4.78 4.78 0 0 0-1.946.417c-2.06.917-3.348 1.93-4.399 2.568-.98.419-1.489.477-2.185.49-.6.004-1.395-.1-2.526-.261-1.123-.157-2.556-.342-4.273-.341-.206 0-.418.002-.637.009-2.408.065-4.7.412-6.856 1.318-2.152.894-4.07 2.395-5.526 4.296-.364.487-.432.685-.53.876-.275.614-.35.924-.499 1.407a33.566 33.566 0 0 0-.571 2.27c-.083.396-.161.784-.221 1.174-.058.402-.115.754-.121 1.329.003.205.006.446.067.827.086.38.132.938.795 1.879a4.824 4.824 0 0 0 1.753 1.465c.727.36 1.498.491 2.112.491h.034c1.041-.043 1.7-.238 2.214-.45a5.858 5.858 0 0 0-.373 2.067c-.002.205.01.433.037.67.133 1.214.407 2.66.758 4.697.606 3.501 1.45 8.601 2.06 15.162-.057-.035-.11-.078-.166-.111-1.51-.926-3.03-1.11-4.138-1.111a11.34 11.34 0 0 0-1.285.08l-2 .192c-.822.07-1.743.155-2.59.249-.86.094-1.603.184-2.325.327l-.046.009-.012.003a6.919 6.919 0 0 0-4.08 2.634c-.958 1.284-1.444 2.845-1.444 4.429 0 .464.042.933.125 1.394l.012.07.222 1.177.016.072c.047.197.215 1.135.34 2.33.134 1.21.243 2.747.243 4.364.014 2.675-.337 5.594-1.125 7.517-1.196 3.068-4.085 5.877-7.36 8.111-.572.392-1.148.762-1.724 1.12.582-.892.892-1.74 1.152-2.505.327-1.016.511-1.929.647-2.575 1.5-7.326 2.273-20.04 2.285-31.433 0-4.04-.103-7.888-.325-11.246-.228-3.371-.547-6.198-1.098-8.465-.003-.007-.009-.044-.033-.17-.11-.406-.237-1.786-1.511-3.232-.538-.603-1.269-1.105-2.02-1.424.256-.664.304-1.24.31-1.72 0-.213-.012-.359-.02-.448l-.004-.044c-.032-.325-.06-.475-.1-.716-.11-.664-.294-1.65-.447-2.555-.145-.762-.427-1.838-1.495-2.849a2.34 2.34 0 0 0-.11-.099c.064-.295.123-.595.174-.88h.002l.115-.591c.064-.302.144-.74.146-1.311a5.308 5.308 0 0 0-.726-2.7c-.556-.956-1.441-1.698-2.306-2.13l-.402.736.384-.744-.009-.005a14.84 14.84 0 0 0-2.424-.999 16.92 16.92 0 0 0-5.072-.764c-.478 0-.982.02-1.505.064v.002c-1.804.164-3.308.842-4.602 1.772-1.285.951-2.404 2.18-3.098 3.893a9.12 9.12 0 0 0-.63 3.344c.001 1.594.4 3.138 1.108 4.544-.16.172-.328.376-.5.624a4.674 4.674 0 0 0-.803 2.6v.002c-.002.08.003.172.008.27.029.657.116 1.083.184 1.511.078.438.16.861.16.865.06.42.195.931.45 1.451-.217.275-.417.58-.588.912a5.832 5.832 0 0 0-.611 3.323c.132 1.219.406 2.672.76 4.725.391 2.248.88 5.156 1.34 8.686a21.63 21.63 0 0 0-5.034-4.515h-.001c-3.99-2.591-8.546-3.793-13.118-3.787-8.84.045-17.734 4.239-25.057 11.182-.711-.961-1.587-1.774-2.583-2.343-1.332-.774-2.779-1.053-3.987-1.045-1.588.008-2.842.396-3.778.73l-2.517.868c-1.053.348-2.172.724-3.195 1.087-1.048.374-1.952.71-2.754 1.077-4.943 1.806-5.56 6.364-5.56 6.364.013-1.781-.531-3.766-1.925-5.274-1.381-1.52-3.357-2.243-5.158-2.34-1.765-.128-3.385-.196-4.587-.197-.37 0-.702.005-1.046.025-1.901.091-3.866.75-5.406 2.08-1.54 1.31-2.507 3.206-2.814 5.136A70.999 70.999 0 0 0 40 60.317c.007 5.503.652 11.662 2.791 17.489 2.12 5.801 5.884 11.365 11.981 14.919 4.172 2.444 8.811 3.695 13.433 3.694h.007c4.143 0 8.278-1.009 12.03-3.025 4.966-2.664 8.74-6.884 10.798-11.87 2.594.334 5.51.567 8.626.568 7.818-.006 16.99-1.462 25.16-6.793 2.522-1.657 4.543-3.912 6.098-6.484-.076 2.413-.199 4.91-.38 7.5v-.004a9.91 9.91 0 0 0-.032.8c.02.89.057 2.3 1.135 3.914a5.842 5.842 0 0 0 2.341 1.963c.956.444 1.964.612 2.921.612h.01c.338 0 .675-.02 1.01-.057.64-.077 2.242-.179 3.906-.323a53.565 53.565 0 0 0 3.24-.378c-.52.287-1.018.572-1.478.859-.796.504-1.604.93-2.555 1.654-.473.371-1.013.833-1.537 1.59-.522.738-.968 1.886-.953 3.045 0 1.006.287 1.894.63 2.582.35.697.758 1.246 1.201 1.762l.035.04.031.037c.057.062 1.127 1.243 2.7 2.696 1.598 1.452 3.614 3.179 6.012 4.397.639.315 1.314.675 2.2 1.017.87.337 1.991.632 3.222.632h.032c.548 0 1.11-.054 1.666-.161a6.557 6.557 0 0 0 1.507-.422l.544-.225c.728-.294 5.067-2.109 9.969-6.39a41.947 41.947 0 0 0 10.781-14.648c.111.215.235.434.384.658a5.836 5.836 0 0 0 2.34 1.972c.963.45 1.977.616 2.937.616.338 0 .67-.02.995-.054l.065-.007h-.003c.596-.075 2.198-.175 3.86-.319 1.095-.1 2.213-.213 3.313-.388-.752.468-1.52.89-2.418 1.569-.473.372-1.013.832-1.539 1.59-.521.737-.969 1.887-.954 3.046a5.783 5.783 0 0 0 .63 2.58c.349.697.758 1.248 1.201 1.766l.025.03.042.046c.057.062 1.127 1.243 2.7 2.694 1.6 1.454 3.615 3.18 6.014 4.4.633.31 1.31.673 2.198 1.015.871.338 1.992.632 3.222.632h.03c.558 0 1.12-.057 1.667-.161a6.539 6.539 0 0 0 1.461-.402l.055-.022.556-.229c.75-.304 5.074-2.126 9.95-6.383a42.007 42.007 0 0 0 10.402-13.837c.451.086.912.162 1.385.228-.093.1-.182.199-.264.297-1.124 1.375-1.6 2.742-1.973 4.128-.348 1.386-.51 2.8-.512 4.196.014 1.428.14 2.801.69 4.281.293.737.694 1.548 1.511 2.354.782.806 2.205 1.515 3.627 1.488.65 0 1.266-.123 1.81-.315 1.245-.33 3.177-.534 5.198-.528 3.01-.008 6.314.424 8.278.965l.04.01.024.007c.38.096.785.155 1.242.157h.026c1.05 0 2.026-.365 2.704-.807 1.21-.803 1.748-1.679 2.192-2.463.63-1.193.972-2.37 1.23-3.605.246-1.231.38-2.496.38-3.76-.007-1.217-.1-2.403-.511-3.698-.213-.649-.51-1.348-1.084-2.09-.558-.727-1.518-1.523-2.761-1.853-1.805-.49-3.438-.853-4.986-1.096.456-.223.907-.466 1.355-.725 2.197-1.296 4.229-3.1 5.751-5.455a17.109 17.109 0 0 0 1.769-3.635c1.043 2.514 2.551 4.78 4.51 6.677 2.19 2.136 4.864 3.797 7.945 5.062-1.321.506-2.642.922-3.921 1.336-1.211.41-2.358.861-3.534 1.74a6.593 6.593 0 0 0-1.674 1.846 5.686 5.686 0 0 0-.807 2.907c.03 2.028.956 3.46 1.898 4.57l.039.043.024.029c.057.063 1.126 1.245 2.7 2.696 1.596 1.453 3.614 3.178 6.013 4.398.634.313 1.31.675 2.198 1.017.869.338 1.991.632 3.224.632h.03a8.9 8.9 0 0 0 1.689-.165 6.624 6.624 0 0 0 1.467-.41l.518-.215v.001c.327-.132.613-.268 1.163-.55 1.822-.956 5.59-3.25 9.571-7.575 2.093-2.27 4.234-5.114 6.16-8.583.502.012 1.009.02 1.53.02 1.805 0 3.743-.076 5.86-.242 3.904-.326 9.081-1.41 13.757-4.478 2.325-1.538 4.511-3.616 6.126-6.335 1.62-2.712 2.617-6.034 2.73-9.802.011-.37.016-.727.016-1.075-.046-11.196-5.224-19.737-6.049-21.13"/>
        <path fill="#DE004D" d="M295.07 73.546c-5.317 18.817-18.335 24.744-18.934 24.981l-.523.216a2.27 2.27 0 0 1-.625.173c-1.78.383-2.956-.277-4.615-1.101-3.503-1.752-7.496-6.172-7.496-6.172-1.917-2.22-.578-3.507 2.275-4.448 3.644-1.193 8.731-2.64 13.042-7.04-2.052-.166-3.617-.37-5.273-.822-8.678-2.415-13.554-7.172-14.879-14.516-.64-3.562.281-7.606 2.535-11.09 3.068-4.749 7.966-7.792 13.814-8.563 3.078-.406 6.124-.16 8.922.657 12.189 2.744 14.622 17.583 11.756 27.725m-14.168-3.775c-2.802.876-5.723-1.461-6.63-5.642-.849-3.96.954-7.79 3.394-8.534 2.76-.816 5.729 1.919 6.603 5.849.873 3.943-.939 7.566-3.367 8.327zm12.578-31.452c-3.265 1.364-2.776-9.776.422-10.257 6.882-1.034 9.976-1.334 16.74.496 2.462.67 1.136 10.805-1.325 10.138-4.178-1.133-11.435-1.618-15.837-.377zm26.95 26.368c-.4 12.569-12.027 16.098-18.816 16.634-3.695.294-6.758.284-9.507.096a49.012 49.012 0 0 0 2.963-7.87c.287-1.03.523-2.109.696-3.218 3.738.153 7.173-.143 8.938-1.328 1.384-.94 2.906-2.613 2.85-5.26-.137-5.957-4.704-10.366-5.884-12.827l-.468-1.073c-.706-1.654-.117-3.415 1.329-4.098.841-.388 4.087-1.345 5.694-1.865l1.95-.66c1.38-.486 3.372-.868 4.809 1.522.59.95 5.77 9.536 5.445 19.947z"/>
        <path fill="#ED7900" d="M248.858 47.14c-1.054-2.584-2.936-2.34-4.899-2.525-2.894-.271-6.814.384-7.652.763-1.458.688-2.04 2.449-1.334 4.107l.47 1.069c1.176 2.462 4.106 7.408 4.299 12.291.067 1.968-1.3 3.486-2.651 4.474-2.053 1.49-5.705 1.26-9.246-.142-.098 2.099-.33 4.154-.789 5.955a41.65 41.65 0 0 1-1.26 4.076c2.261.79 4.818 1.295 8.095 1.295 8.031 0 17.377-2.872 18.375-13.508.969-10.364-2.977-16.824-3.408-17.856m-15.651 47.712c-3.27 1.367-2.784-9.773.418-10.255 6.88-1.034 9.98-1.333 16.744.498 2.458.664 1.135 10.804-1.327 10.137-4.186-1.132-11.438-1.616-15.835-.38zm-6.411-42.57c.088.27 2.254 12.97.26 20.85-4.79 18.957-20.176 25.16-20.771 25.396l-.523.217a2.354 2.354 0 0 1-.629.172c-1.783.383-2.959-.276-4.615-1.102-3.503-1.751-7.5-6.17-7.5-6.17-1.909-2.22-.268-2.86 2.282-4.449 3.636-2.278 14.479-6.762 17.88-15.281 2.406-6.031 1.102-14.994.733-16.636l-.215-1.147c-.313-1.776.652-3.36 2.22-3.703.897-.182 2.801-.365 4.488-.512l2.044-.196c1.448-.17 3.478-.088 4.346 2.56zm-15.39-16.296c2.225-2.597 3.936-4.144 7.042-6.018 2.576-1.554 9.406 7.14 6.816 8.7-2.692 1.625-5.35 3.511-7.24 5.953-1.19 1.538-9.489-5.286-6.618-8.635z"/>
        <path fill="#0F52A0" d="M177.543 73.132c-4.787 18.956-20.176 25.158-20.773 25.395l-.524.216a2.255 2.255 0 0 1-.626.173c-1.781.383-2.954-.276-4.613-1.102-3.502-1.752-7.498-6.17-7.498-6.17-1.911-2.22-.268-2.859 2.278-4.449 3.634-2.278 14.473-6.762 17.878-15.281 2.407-6.031 1.105-14.994.738-16.636l-.218-1.147c-.315-1.777.652-3.36 2.217-3.703.903-.182 2.804-.365 4.49-.512l2.042-.196c1.454-.171 3.481-.088 4.346 2.56.094.27 2.26 12.97.263 20.852zm1.826-46.684c-.138-1.33.979-1.997 2.172-2.189 1.402-.229 7.199-.65 12.517-1.131 3.019-.269 2.939 1.235 3.175 2.2 2.159 8.763 1.485 37.826-.897 49.331-.346 1.677-.913 4.347-2.585 4.774-2.294.598-6.757.762-8.44.961-2.875.32-2.9-1.733-2.825-2.798 2.002-28.506-2.665-46.775-3.117-51.148zm9.605-8.2c-1.812.076-3.38-.287-4.621-.453-7.088-.945-10.428 3.924-11.556 2.396-.257-.35.776-4.435 1.035-4.767 2.183-2.816 5.056-3.906 9.244-4.018 4.945-.127 7.114 1.62 11.382-.343 1.425-.844 2.527-1.746 4.193-2.477 1.26-.54 1.58 2.676.937 4.667-.306.911-.754 1.38-1.666 1.965-2.352 1.495-5.267 2.882-8.948 3.03z"/>
        <path fill="#7DB614" d="M136.71 4.921c-1.735.142-3.591 1.494-4.215 3.072-.694 1.757-.319 3.85 1.004 5.603a7.081 7.081 0 0 0 2.244 1.94c-1.16.417-2.166.823-2.839 1.157-.367.19-.95.484-.946.901.006.564.24 1.61.302 2.01.106.683.587.576.822.482 6.217-2.492 11.533-2.538 12.577-2.703.312-.05.398-.352.37-.642-.033-.332-.297-1.708-.51-2.964-.127-.717-.472-.604-.708-.6a4.94 4.94 0 0 0-.537.045 1.443 1.443 0 0 0-.24.003l-.171.016c-2.396.304-4.53.428-5.998-.493-.957-.606-1.332-1.198-1.275-2.028.049-.798.904-1.292 1.572-1.302 1.655-.023 3.043.529 3.925.875l.381.133c.595.21 1.162-.02 1.325-.517.09-.289.213-.9.317-1.454l.13-.668c.103-.47.141-1.143-.728-1.588-.348-.173-2.885-1.605-6.801-1.278m-2.997 18.391c1.396-.232 7.197-.652 12.518-1.135 3.014-.268 2.935 1.24 3.174 2.2 2.157 8.765 1.489 37.824-.896 49.324-.35 1.684-.917 4.347-2.59 4.778-2.29.594-6.759.766-8.436.962-2.878.317-2.907-1.74-2.828-2.802 2.005-28.499-2.663-46.768-3.117-51.14-.137-1.329.979-1.992 2.175-2.187"/>
        <path fill="#DE004D" d="M111.966 61.202c-8.244 6.684-22.397 4.836-23.469 3.554a17.33 17.33 0 0 0-.045-.44c.389-2.613 5.524-12.168 16.129-15.117 8.31-2.303 15.925 5.077 7.385 12.003m10.294-22.919c-10.958-7.094-26.626-1.578-37.103 11.238-.826-2.347-1.523-3.85-1.744-4.228-1.718-3.013-4.296-2.491-6.086-1.836l-2.532.872c-2.099.694-4.452 1.493-5.547 2.003-1.9.9-2.747 3.157-1.932 5.252l.54 1.354c1.375 3.106 4.583 10.226 3.505 17.268-.376 2.478-1.604 4.978-3.646 5.748-2.294.863-5.46-.398-7.806-3.657-3.593-4.962-3.228-13.032-2.158-22.18l.054-.641c.203-2.4-.97-3.874-3.2-4.02-2.24-.163-4.217-.22-5.123-.17-2.407.126-4.028 1.514-4.398 3.788-1.716 9.82-2.746 31.61 11.767 40.088 6.75 3.953 14.774 4.176 21.439.597 5.123-2.754 8.667-7.44 9.902-12.846 8.505 1.522 22.858 2.47 34.373-5.067 9.484-6.203 12.07-25.55-.305-33.563"/>
    </g>
</svg>
