<svg xmlns="http://www.w3.org/2000/svg" width="669" height="69" viewBox="0 0 669 69">
    <g fill="#FFF" fill-rule="evenodd">
        <path d="M633.903 3.001l-32.958 33.171 8.26 7.971 8.195-7.97 8.37 8.066-8.283 8.283 8.283 8.17 8.283-8.17 8.17 8.17 8.363-8.149-8.364-8.358 8.298-8.013 8.262 7.971 8.238-8v-.004L633.91 3.001h-.007zm-8.067 24.828l8.07-8.289 8.274 8.29-8.274 8.282-8.07-8.283zM424.881 52.564c-.56 1.536-2.09 2.66-4.602 3.387-5.022.597-8.088.89-9.189.89-3.02 0-5.493-.596-7.41-1.793-2.082-1.317-3.024-3.51-2.808-6.58.168-2.297.942-4.688 2.298-7.16l.258-.192c.135-.036.216-.036.252 0 0 .384-.08 1.113-.243 2.172-.18.903-.267 1.599-.267 2.097 0 1.074.267 1.947.774 2.625 1.446 1.88 3.783 2.814 7.02 2.814.507 0 1.275-.012 2.295-.06a69.575 69.575 0 0 1 2.235-.063c1.155-.171 2.322-.34 3.516-.504 1.317-.258 2.376-.67 3.183-1.212-.084-.768-.47-1.647-1.152-2.625-.885-1.365-1.398-2.151-1.53-2.367.468-1.191 1.233-2.877 2.295-5.046 1.116.597 2.007 2.28 2.691 5.046.594 2.478.72 5.33.384 8.57zm-7.155-15.58c-.38.673-1.059 1.693-2.04 3.052h-.384a26.57 26.57 0 0 1-2.169-2.682h-.258l-1.848 2.682c-.813-.684-1.812-1.893-3.003-3.603l2.043-3.147c.345 0 .816.357 1.437 1.074.615.714 1.065 1.083 1.371 1.083.345 0 .66-.321.96-.96.04-.036.162-.246.384-.627.204-.375.45-.57.7-.57.035 0 .131.024.257.06l2.55 2.87v.769zM455.6 48.128c0-1.692-.385-2.907-1.153-3.627-1.443-1.88-3.237-3.798-5.448-5.754-1.88-1.665-3.74-3.327-5.619-4.98 1.23-.945 2.778-1.818 4.656-2.625 1.66-.639 3.318-1.278 4.947-1.917.55-.129 1-.639 1.338-1.536.294-.726.555-1.44.762-2.166l.198-.837c-2.6.567-4.503 1.071-5.778 1.533-3.102 1.494-4.974 2.496-5.607 3.012-2.097 1.536-3.26 3.534-3.522 6.006-.087.984.195 1.935.831 2.883.258.327.9 1.062 1.923 2.17.414-.51.678-.727.768-.64 2.802 2.22 4.99 4.29 6.567 6.222v.687h-12.426v-.024h-4.032c-.684-.594-1.128-1.419-1.344-2.484v-19.4c-.42-.898-.783-1.297-1.08-1.21l-2.676 3.06.156 17.325c.04 3.114.351 5.286.948 6.522.723 1.455 2.088 2.17 4.077 2.17h3.414v.023h18.036c-.039-.498-.039-1.203 0-2.103.042-1.239.063-2.004.063-2.31M490.067 26.033c-1.608-1.284-2.721-2.022-3.312-2.187l-1.212 2.502a11.33 11.33 0 0 0 3.249 2.193l1.275-2.508zM488.095 34.61c.045-.047.213-.428.507-1.148.213-.522.45-.855.702-1.026l2.814 1.659.513.189a28.93 28.93 0 0 0 .924-1.788c.276-.591.408-1.125.408-1.593-.204-.084-.74-.447-1.593-1.092-.68-.462-1.254-.756-1.725-.888l-1.34 2.367c-1.399-.852-2.46-1.53-3.19-2.052-.9 1.536-1.449 2.6-1.662 3.198 1.41 1.026 2.454 1.746 3.126 2.175h.516zM497.16 39.134c-.174-1.062-.426-1.677-.768-1.845l-1.72 2.49c-.425.426-.638.954-.638 1.6 0 .386.144 1.067.447 2.04.294.971.38 1.74.249 2.3a.962.962 0 0 1-.384.633l-.696.324c-2.085 0-3.813-.558-5.175-1.67.432-2.293.6-4.426.513-6.388l-.255-.498-2.808 3.837a1.768 1.768 0 0 0-.198.822c0 .258.078.657.23 1.2.15.552.223.945.223 1.197 0 .37-.135.738-.387 1.065-.73.21-2.02.318-3.891.318v.13c-1.21.008-2.124-.103-2.688-.325l-.12-.186c.552-2.937.765-5.262.633-7.014l-.252-.504-2.682 3.813c-.045.213-.021.891.06 2.04.045.891-.105 1.506-.444 1.84-.678.215-2.301.323-4.851.323h-1.002c-.1-.483-.168-.98-.288-1.46a68.09 68.09 0 0 1-1.074-2.806c-.516-1.062-1.125-1.7-1.848-1.91-.723 1.394-1.395 3.233-2.031 5.483.717 1.02 1.407 2.04 2.088 3.06.798 1.194 1.218 2.325 1.263 3.381-.171.174-.213.258-.126.258-1.66 4.164-3.567 6.52-5.73 7.077-.474.13-.96.192-1.464.192-1.875 0-3.762-.894-5.673-2.688l-.132.135c.348 2.631 1.776 5.028 4.269 7.2.855.762 1.872 1.143 3.066 1.143a3.89 3.89 0 0 0 2.415-.825c3.387-3.27 5.24-7.407 5.6-12.405 2.728-.08 4.714-.675 5.902-1.815 1.788 1.23 3.393 1.845 4.845 1.845h.768v-.036c1.548-.11 2.81-.696 3.774-1.809a18.818 18.818 0 0 0 8.166 1.845 21.1 21.1 0 0 0 3.639-.312c-.165-6.609-.444-10.962-.825-13.095M535.316 48.533c0 1.95-.126 3.189-.381 3.696-.684.042-1.24-.507-1.656-1.662-.564-1.326-1.065-2.1-1.54-2.367-1.364.093-2.765 1.269-4.211 3.522.378.249.867.567 1.464.954 0 .129.063.192.195.192v-.192c.636.375 1.317.795 2.019 1.212.708.429 1.224.972 1.578 1.653a8.61 8.61 0 0 1 .195 1.788c0 3.105-1.176 5.529-3.525 7.275-3.49 2.55-6.408 3.786-8.751 3.786-1.701 0-3.168-.615-4.413-1.81-1.578-1.613-2.391-4.124-2.391-7.523 0-.855.045-1.794.126-2.814l.834-3.573v-.13c.264-.938.597-1.898.98-2.9.382-1.002.826-1.821 1.345-2.454.303 0 .444.129.444.38-.294 1.114-.744 2.767-1.338 4.975v.135c-.258 1.23-.384 2.379-.384 3.444 0 1.197.177 2.238.51 3.135.72 2.127 2.748 3.195 6.08 3.195 2.809-.435 4.894-1.365 6.256-2.808-.22-.216-1.047-.768-2.5-1.671-1.016-.591-1.763-1.305-2.237-2.136-.465-.828-.534-1.881-.195-3.16v-.134c.345-1.947 1.212-3.843 2.622-5.673.855-.897 1.704-1.758 2.55-2.62 1.026-1.013 1.944-1.526 2.748-1.526.639 0 1.26.297 1.857.894.8 1.062 1.383 2.703 1.719 4.917M578.177 46.558c-1.149 0-2.21-.546-3.156-1.647-1.482-1.845-2.979-3.708-4.46-5.56-1.828-2.015-3.577-3.263-5.242-3.728a5.055 5.055 0 0 0-1.338-.198c-2.169 0-4.13 1.413-5.874 4.224 0 .816.036 1.254.13 1.347a5.952 5.952 0 0 1 3.506-1.113c1.872 0 3.43.693 4.66 2.076 1.874 1.974 2.957 3.345 3.257 4.095-.345.3-.615.462-.828.504h-17.817c-.38-3.687-1.158-7.236-2.39-10.63-.16-.72-.523-1.166-1.078-1.34-1.017 2.397-1.7 4.008-2.046 4.857.048.042.612 1.494 1.728 4.34.684 1.717 1.065 3.223 1.143 4.549-.633.51-1.44.867-2.418 1.089-.387.075-1.323.165-2.814.246-.98.222-1.7-.294-2.166-1.53-.297-1.06-.6-2.103-.894-3.135-.81 1.629-1.13 4.038-.963 7.233.297 1.242.495 1.884.582 1.956.081.057.126.174.126.35.81.763 1.764 1.15 2.865 1.15.726 0 1.8-.198 3.198-.603 1.41-.417 2.406-.627 3.003-.681l1.212-.51c.537-.393.876-.85 1.053-1.36h27.021v-5.981zM588.258 58.224c.081.345.12.651.12.897 0 .609-.357 1.053-1.086 1.347-.987.387-1.542.663-1.668.837l-2.244 2.367c-.3 0-.45-.129-.45-.381 0-.093.24-.714.702-1.863-.3-.168-.615-.363-.96-.561-.336-.222-.504-.516-.504-.903.168-2.808 1.101-4.518 2.808-5.115 1.095 0 1.803.123 2.106.387-.042.339-.156.786-.32 1.335-.523.048-1.057.087-1.606.129-.555.042-.969.213-1.218.504-.519.603-.768 1.077-.768 1.407 0 .174.06.315.186.444.43.435.918.639 1.482.639.423 0 1.566-.492 3.42-1.47M586.31 47.578c-.258 1.07-1.197 2.829-2.82 5.304-.222-.13-.32-.516-.32-1.15.077-2.771-.049-6.422-.379-10.98-.42-5.186-.624-8.87-.624-11.04 0-1.013.33-2.078 1.014-3.194a45.331 45.331 0 0 0 1.905-2.805c.252-.165.381-.042.381.387.042 1.998.216 5.295.52 9.897.305 4.206.455 7.476.455 9.825 0 1.266-.05 2.532-.132 3.756M180.738 52.505h8.286V19.373h-8.286zM136.596 27.719h8.247v-5.562h-8.247z"/>
        <path d="M137.97 47.045h5.496V35.98h-5.496v11.064zm-113.166 8.25h5.529V44.297h-5.529v10.998zm143.523-8.292h-16.575V35.98l-2.76-5.502h-19.296v16.566h-16.563V35.98l-2.766-5.502H91.038v-11.1h-8.283v24.918h8.283V35.98h13.809v11.064H66.231v-11.11h-8.283v11.11H38.619v-2.748l-2.76-5.568H16.524v8.316H0v5.496h16.524v2.754l2.76 5.57h19.335v-8.324l135.213-.036 2.784-5.502v-27.63h-8.289v27.63z"/>
        <path d="M63.465 60.866h8.283v-5.568h-8.283zM52.422 60.866h8.289v-5.568h-8.289zM373.914 55.253h5.523V44.249h-5.523v11.004zm-66.231 0h5.52V44.249h-5.52v11.004zm-33.132-8.25h5.52V41.44h-5.52v5.562zM384.96 38.69h-19.326v8.313H353.766V35.936L351 30.446h-19.419v5.49h13.899v11.067h-23.982v-2.754l-2.766-5.56h-19.341v8.314h-11.034V35.936h-19.332l-2.76 5.502v11.067h13.806v5.502h-13.806v5.562h19.326l2.766-5.562v-5.502h11.034v2.748l2.772 5.568h19.335v-8.316H365.634v2.748l2.76 5.568h19.326V44.249l-2.76-5.56zM211.062 24.893h8.301v-5.52h-8.301zM222.111 24.893h8.304v-5.52h-8.304z"/>
        <path d="M338.583 60.82h8.286v-5.564h-8.286zM216.615 38.69h5.496v-5.502h-5.496v5.502zm27.6-2.754v11.067h-13.8V27.686h-19.347l-2.778 5.502v11.06h13.821v8.257h41.433v-5.502h-11.043V35.936h11.043v-5.49h-16.569l-2.76 5.49z"/>
    </g>
</svg>
