<?xml version="1.0" encoding="UTF-8"?>
<svg enable-background="new 0 0 669 69" version="1.1" viewBox="0 0 669 69" xml:space="preserve" xmlns="http://www.w3.org/2000/svg">
<path d="m36.2 39.2l8.8-9.1-8.8-9.1-9.1 9.1 9.1 9.1zm-9.1 8.8l-9.1-8.7-9 8.7-9-8.8 36.2-36.2 36 36.3-9 8.7-9-8.7-9.1 8.8 9 9.1-9 8.9-9.1-9-8.9 8.9-9.1-8.8 9.1-9.2z" fill="#FFFFFF"/>
<path d="m270.8 33.2v6.1h-4.6v17.9h-9.1v-17.9h-4.4v17.9h-9.1v-17.9h-4.5v17.9h-21.1l-3-6.2v-11.7h-6.1v17.9h-8.9v-36.2h24.1v6h-15.2v6.1h15.2v17.9h6.1v-17.8h13.5v-6.1h9.1v6.1h4.4v-6.1h9.1v6.1h4.5zm-82.9 11.8h9.1v-5.8h-9.1v5.8zm111.5-17.9h9v-6h-9v6zm9 30v-23.9l-9-0.1v24h9zm27-17.8v17.9h-9v-17.9h-4.6v17.9h-9.1v-24h33.3l3 6.1v17.9h-9v-17.9h-4.6zm-159.5 17.8h9v-36.1h-9v36.1zm97.9-23.9l-3.1 6.1v11.7l3.1 6.1h21v-23.9h-21zm11.9 17.9h-6v-11.8h6v11.8zm-130.8-30.1l-12.2 36.1h9.1l4.5-12.1h6v12.1h9.1v-36.1h-16.5zm7.4 18.3h-4.5l4.5-12.2v12.2zm204.9-6.1l-3 6.1v11.8l3 6.1h12v3h-15v5.9h21l3-5.9v-27h-21zm11.9 17.9h-5.9v-11.8h5.9v11.8zm27.2-3.1v-8.8h-4.6v17.9h-9v-24h19.6l2.9 6.1v8.8h-8.9zm33.8-14.8h-18.1l-3 6.1v11.8l3.1 6.1h18.1l3-6.1v-11.8l-3.1-6.1zm-6 17.9h-6.1v-11.8h6.1v11.8zm16.3 6l-2.9-6.1v-17.8h9v17.9h4.6v-17.9h9.1v24h-19.8v-0.1zm45.4-23.9h-21.2v33h9v-9h12.2l2.9-6.1v-11.8l-2.9-6.1zm-6 17.9h-6.2v-11.8h6.2v11.8zm31.3-9.5c0-2.1-0.4-4.7-2.7-4.7-3 0-3.4 2.8-3.4 8.2 0 6.1 0.5 8.7 3.2 8.7 2 0 3-1.8 3-5.8h5.8c0 6.5-2.6 10.2-9 10.2-6 0-8.8-3.1-8.8-13.1 0-9.9 3.9-12.8 9.4-12.8 5.6 0 8.5 3.7 8.5 9.3h-6zm8.1 3.4c0 8.7 2 13.3 9.3 13.1 7 0 9.3-4.6 9.3-13.1 0-8.3-2-12.9-9.3-12.8-6.9 0.1-9.3 4.6-9.3 12.8m6.1 0c0-5 0.3-8.4 3.3-8.4 2.5 0 3.3 2.6 3.3 8.4 0 6.2-0.8 8.8-3.3 8.8-3 0-3.3-3.7-3.3-8.8m15.7-12.1h5.8v2.5h0.1c1.5-2.3 3.4-3.2 6-3.2 2.8 0 4.8 1.4 5.5 4h0.1c0.9-2.6 3.1-4 6-4 4 0 5.9 2.7 5.9 7.5v17.8h-6.1v-17.4c0-1.7-0.7-2.9-2.4-2.9-2 0-3.2 1.4-3.2 3.9v16.4h-6.1v-17.4c0-1.7-0.7-2.9-2.4-2.9-1.9 0-3.2 1.4-3.2 3.9v16.4h-6v-24.6zm32.8 32.6h6.1v-10.3h0.1c1.3 2 2.8 3 5.1 3 5 0 7.3-3.8 7.3-13.1 0-8.9-2.3-12.8-7.3-12.8-2.4 0-4 1-5.4 3.3h-0.1v-2.6h-5.8v32.5zm6-20.5c0-5.1 0.5-7.9 3.2-7.9 2.6 0 3.2 2.8 3.2 7.9 0 5.4-0.5 8.2-3.2 8.2s-3.2-2.8-3.2-8.2zm27 0c-0.8 0.6-1.8 1.1-2.6 1.2-2.5 0.5-3.4 1.8-3.4 4 0 1.9 0.7 3.5 2.3 3.5s3.7-1.1 3.7-3.8v-4.9zm-11.1-4.8v-0.3c0-5.7 3.7-7.7 8.3-7.7 7.1 0 8.5 3.2 8.5 7.6v12.8c0 2.3 0.1 3.4 0.8 4.8h-5.8c-0.4-0.8-0.5-1.8-0.7-2.6h-0.1c-1.4 2.6-3.1 3.3-6 3.3-4.2 0-5.7-3.8-5.7-7.1 0-4.7 1.8-6.6 6-7.8l3.4-1c1.8-0.5 2.4-1.3 2.4-2.6 0-1.9-0.8-3.1-2.8-3.1-1.9 0-2.8 1.3-2.8 3.3v0.4h-5.5zm21.1-7.3h5.8v2.9h0.1c1.3-2.5 3.5-3.6 6-3.6 3.8 0 6 2.2 6 7.1v18.1h-6.1v-17.1c0-2.2-0.8-3.1-2.6-3.1-2.1 0-3.2 1.3-3.2 3.8v16.5h-6.1l0.1-24.6zm22.5 28c0.5 0.1 1.1 0.1 1.6 0.1 2.2 0 3-1.3 3.2-3.5l-6.5-24.6h6.2l3.5 16.9h0.1l3.1-16.9h6.1l-5.7 22.9c-2.1 8.5-3.5 9.7-9.1 9.7h-2.4l-0.1-4.6zm-561.1-3.8h6.6l1.4-7h8.4l1.4 7h6.4l-8.1-36h-7.8l-8.3 36zm12.2-29.9l3.1 17.5h-6.2l3.1-17.5zm14.1 5.3h5.8v2.9h0.1c1.3-2.5 3.5-3.6 6-3.6 3.8 0 6 2.2 6 7.1v18.2h-6.1v-17.1c0-2.3-0.8-3.2-2.6-3.2-2.1 0-3.2 1.4-3.2 3.8v16.5h-6.1l0.1-24.6z" fill="#FFFFFF"/>
</svg>
