<svg xmlns="http://www.w3.org/2000/svg" xmlns:xlink="http://www.w3.org/1999/xlink" width="880" height="528" viewBox="0 0 880 528"><svg width="80" height="48" viewBox="0 0 80 48" id="amex" x="0" y="0"><path fill="#0072CE" d="M0 3.2C0 1.4 1.4 0 3.2 0h73.6C78.6 0 80 1.4 80 3.2v41.6c0 1.8-1.4 3.2-3.2 3.2H3.2C1.4 48 0 46.6 0 44.8V3.2z"></path><path fill="#FFF" d="M67.5 27.7h-2.8c-.3 0-.5 0-.6.1-.2.1-.2.3-.2.5s.1.4.3.5c.2.1.3.1.6.1h.8c.8 0 1.4.2 1.8.5.1 0 .1.1.1.2v-1.9zm0 4.3c-.4.5-1.1.8-2.1.8h-3v-1.4h3c.3 0 .5 0 .6-.2.1-.1.2-.2.2-.4s-.1-.3-.2-.4-.3-.1-.5-.1c-1.5 0-3.3 0-3.3-2 0-.9.6-1.9 2.2-1.9h3.1v-1.3h-2.9c-.9 0-1.5.2-1.9.5v-.5h-4.2c-.7 0-1.5.2-1.9.5v-.5H49v.5c-.6-.4-1.6-.5-2.1-.5h-5v.5c-.5-.5-1.5-.5-2.2-.5h-5.6l-1.3 1.4-1.2-1.4h-8.4v9h8.2l1.3-1.4 1.2 1.4H39V32h.5c.7 0 1.5 0 2.2-.3v2.4H46v-2.4h.2c.3 0 .3 0 .3.3v2.1h12.7c.8 0 1.6-.2 2.1-.6v.6h4c.8 0 1.7-.1 2.3-.4V32h-.1zm-6.2-2.6c.3.3.5.7.5 1.4 0 1.4-.9 2-2.4 2h-3v-1.4h3c.3 0 .5 0 .6-.2.1-.1.2-.2.2-.4s-.1-.3-.2-.4c-.1-.1-.3-.1-.6-.1-1.5 0-3.3 0-3.3-2 0-.9.6-1.9 2.2-1.9h3.1v1.4h-2.8c-.3 0-.5 0-.6.1-.2.1-.2.3-.2.5s.1.4.3.5.3.1.6.1h.8c.9-.1 1.5.1 1.8.4zm-14-.4c-.2.1-.5.1-.8.1h-1.9v-1.5h1.9c.3 0 .6 0 .7.1.2.1.3.3.3.6.2.4 0 .6-.2.7zm1 .8c.3.1.6.4.8.5.2.3.3.6.3 1.2v1.3h-1.6V32c0-.4 0-1-.3-1.3-.2-.2-.6-.3-1.1-.3h-1.7v2.4h-1.6v-6.5h3.6c.8 0 1.4 0 1.9.3s.8.7.8 1.4c0 1.1-.7 1.7-1.1 1.8zm1.9-3.4h5.2v1.3h-3.6v1.2h3.5v1.3h-3.5v1.3h3.6v1.3h-5.2v-6.4zm-10.4 2.9h-2v-1.6h2c.6 0 .9.2.9.8 0 .5-.3.8-.9.8zm-3.6 2.9l-2.4-2.6 2.4-2.6v5.2zm-6.1-.7h-3.8v-1.3h3.4v-1.3h-3.4v-1.2h3.9l1.7 1.9-1.8 1.9zm12.3-3c0 1.8-1.3 2.2-2.7 2.2h-1.9v2.2h-3l-1.9-2.1-2 2.1h-6.1v-6.5H31l1.9 2.1 2-2.1h5c1.1 0 2.5.3 2.5 2.1zM17.3 18.9l-1.1-2.6-1.1 2.6h2.2zm23.4-1c-.2.1-.5.1-.8.1H38v-1.4h2c.3 0 .6 0 .7.1.2.1.3.3.3.6 0 .2-.1.5-.3.6zm13.4 1L53 16.3l-1 2.6h2.1zm-25 2.8h-1.6v-5.1l-2.2 5.1h-1.4l-2.3-5.1v5.1h-3.2l-.6-1.4h-3.2l-.6 1.4h-1.7l2.8-6.5h2.3l2.6 6.1v-6.1h2.5l2 4.4 1.9-4.4H29l.1 6.5zm6.3 0h-5.2v-6.5h5.2v1.3h-3.6v1.2h3.5V19h-3.5v1.3h3.6v1.4zm7.3-4.7c0 1-.7 1.6-1.1 1.7.3.1.6.4.8.5.2.3.3.6.3 1.2v1.3h-1.6v-.8c0-.4 0-.9-.2-1.3-.2-.2-.6-.3-1.1-.3h-1.7v2.4h-1.6v-6.5h3.6c.8 0 1.4 0 1.9.3.4.3.7.7.7 1.5zm2.5 4.7h-1.6v-6.5h1.6v6.5zm18.4 0h-2.2l-2.9-4.9v4.9h-3.2l-.6-1.4h-3.2l-.6 1.4h-1.8c-.8 0-1.7-.2-2.2-.7s-.8-1.3-.8-2.5c0-1 .2-1.8.8-2.5.5-.5 1.3-.8 2.4-.8h1.5v1.4h-1.5c-.6 0-.9.1-1.2.4s-.4.8-.4 1.5.1 1.2.4 1.5c.2.3.7.3 1.1.3h.7l2.2-5.1h2.3l2.6 6.1v-6.1h2.4l2.7 4.5v-4.5h1.6l-.1 6.5zM12.4 23H15l.6-1.4h1.3l.6 1.4h5.2v-1.1l.5 1.1h2.7l.5-1.1V23h13v-2.4h.3c.2 0 .2 0 .2.3v2h6.7v-.5c.5.3 1.4.5 2.5.5h2.8l.6-1.4h1.3l.6 1.4h5.4v-1.4l.8 1.4H65v-9h-4.3V15l-.7-1.1h-4.4V15l-.6-1.1h-6c-1 0-1.9.1-2.6.5v-.5h-4.1v.5c-.5-.4-1.1-.5-1.8-.5H25.6l-1 2.3-1-2.3h-4.7V15l-.5-1.1h-4l-1.9 4.3-.1 4.8z"></path></svg><svg width="80" height="48" viewBox="0 0 80 48" id="android-pay" x="80" y="48"><path fill="none" d="M4 0h72c2.2 0 4 1.8 4 4v40c0 2.2-1.8 4-4 4H4c-2.2 0-4-1.8-4-4V4c0-2.2 1.8-4 4-4z"></path><path fill="#6EC848" d="M32.1 14.7v5.5c0 .7-.6 1.3-1.3 1.3-.7 0-1.3-.6-1.3-1.3v-5.5c0-.7.6-1.3 1.3-1.3.7 0 1.3.6 1.3 1.3zm15.4 0c0-.7-.6-1.3-1.3-1.3-.7 0-1.3.6-1.3 1.3v5.5c0 .7.6 1.3 1.3 1.3.7 0 1.3-.6 1.3-1.3v-5.5zm-14.9-1.5V13c0-.4 0-.8.1-1.2.4-1.5 1.4-2.7 2.7-3.4l-.9-1.7c-.1-.1 0-.2.1-.3.1-.1.2 0 .3.1l.9 1.7c1.7-.7 3.5-.7 5.2 0l1-1.7c.1-.1.2-.1.3-.1.1.1.1.2.1.3l-.9 1.7c1.5.7 2.5 2 2.9 3.6 0 .2.1.4.1.5v.6l-11.9.1zm8-2.7c0 .3.2.6.6.6.3 0 .6-.2.6-.6 0-.3-.2-.6-.6-.6-.3.1-.6.3-.6.6zm-5.4 0c0 .3.2.6.5.6s.6-.2.6-.5-.2-.6-.5-.6h-.1c-.2 0-.5.2-.5.5zm-2.6 3.2l-.1 8.7c0 .7.6 1.3 1.3 1.3H35v3c0 .7.6 1.3 1.3 1.3.7 0 1.3-.6 1.3-1.3v-3h1.8v3c0 .7.6 1.3 1.3 1.3.7 0 1.3-.6 1.3-1.3v-3h1.1c.7 0 1.3-.6 1.3-1.3v-8.7H32.6z"></path><path fill="#7B7979" d="M30.3 37.7c-1 0-2-.5-2.6-1.3-.1-.1-.1-.2-.1-.3v-3c0-.1 0-.2.1-.3.6-.8 1.5-1.3 2.5-1.3 1.7.1 3 1.6 2.9 3.3 0 1.5-1.3 2.8-2.8 2.9zm-2.7 3.5v-3.4c.7.7 1.7 1.1 2.7 1.1 2.4-.1 4.2-2.1 4.1-4.5-.1-2.2-1.9-4-4.1-4.1-1 0-2 .4-2.7 1.1v-.9h-1.2v10.7h1.2zm9.2-6.8c.1-1.6 1.3-2.8 2.9-2.9 1 0 2 .5 2.6 1.3 0 .1.1.2.1.3V36c0 .1 0 .2-.1.3-.6.9-1.5 1.4-2.6 1.3-1.7 0-3-1.5-2.9-3.2zm6.8 4.3v-8.2h-1.2v.9c-.7-.7-1.7-1.1-2.7-1.1-2.4.1-4.2 2.1-4.1 4.5.1 2.2 1.9 4 4.1 4.1 1 0 2-.4 2.7-1.1v.9h1.2zm8.9-8.2h-1.4L48.5 37l-2.7-6.5h-1.4l3.4 7.9-.3.6c-.2.6-.8 1-1.4 1h-.5v1.2h.4c1.2 0 2.3-.8 2.7-1.9l3.8-8.8z"></path></svg><svg width="80" height="48" viewBox="0 0 80 48" id="apple-pay" x="160" y="96"><path fill="none" d="M4 0h72c2.2 0 4 1.8 4 4v40c0 2.2-1.8 4-4 4H4c-2.2 0-4-1.8-4-4V4c0-2.2 1.8-4 4-4z"></path><path fill="#231F20" d="M54.8 33.5c2.1 0 3-.8 3.9-3.2l3.7-10.4h-2.2L57.7 28l-2.5-8.1h-2.3l3.6 9.9-.2.6c-.1.9-.9 1.5-1.8 1.4h-.6v1.7c.3.1.6.1.9 0zm-7.2-5.2c-1.1 0-1.8-.5-1.8-1.4 0-.8.7-1.4 2-1.4l2.4-.2v.8c0 1.3-1.1 2.3-2.4 2.2h-.2zm-.5 1.6c1.3 0 2.5-.6 3.1-1.8v1.6h2V23c0-2-1.6-3.2-4-3.2-2.3 0-3.9 1.3-4 3.1h1.9c.2-.9 1.1-1.5 2-1.4 1.3 0 2 .6 2 1.7v.8l-2.7.2c-2.5.1-3.8 1.2-3.8 2.9s1.5 2.9 3.5 2.8zM35.6 18h2.5c1.4-.2 2.7.8 2.9 2.2v.5c0 1.7-1 2.7-2.9 2.7h-2.4l-.1-5.4zm-2-1.8v13.6h2.1v-4.7h3c2.4.1 4.4-1.7 4.6-4.1v-.4c.1-2.4-1.7-4.4-4.1-4.5H33.6zm-7 2.6c-1.2-.1-2.3.7-2.9.7s-1.5-.7-2.4-.6c-1.3 0-2.4.7-3.1 1.9-1.3 2.3-.4 5.6.9 7.5.6.9 1.4 1.9 2.4 1.9s1.3-.6 2.4-.6 1.5.6 2.4.6c1 0 1.7-.9 2.3-1.8.4-.6.8-1.4 1-2.1-1.2-.5-2-1.7-2-3 0-1.2.6-2.2 1.6-2.8-.5-1.1-1.6-1.7-2.6-1.7zm-.8-1.3c-.5.7-1.3 1.1-2.2 1.1-.1-.8.2-1.7.8-2.3.6-.6 1.3-1.1 2.2-1.1.1.8-.2 1.7-.8 2.3z"></path></svg><svg width="80" height="48" viewBox="0 0 80 48" id="cash" x="240" y="144"><path fill="none" d="M4 0h72c2.2 0 4 1.8 4 4v40c0 2.2-1.8 4-4 4H4c-2.2 0-4-1.8-4-4V4c0-2.2 1.8-4 4-4z"></path><path d="M21.7 11.8c-.4-.4-.7-.6-1.1-.8-.3-.1-.7-.2-1-.2-.5 0-1 .1-1.4.3s-.8.4-1.1.8c-.3.3-.5.7-.7 1.1s-.2.9-.2 1.4c0 .5.1 1 .2 1.5.2.4.4.8.7 1.2.3.3.7.6 1.1.8s.9.3 1.4.3c.4 0 .8-.1 1.2-.3.4-.2.7-.5 1.1-.9l1.4 1c-.4.6-1 1.1-1.6 1.3s-1.3.4-2 .4c-.8 0-1.5-.1-2.1-.4s-1.2-.6-1.6-1c-.5-.4-.8-1-1.1-1.6s-.4-1.3-.4-2.1.1-1.5.4-2.1c.3-.6.6-1.2 1.1-1.6.5-.5 1-.8 1.6-1.1s1.3-.4 2.1-.4c.7 0 1.3.1 1.9.4.6.2 1.1.6 1.6 1.2l-1.5.8zm6.8 6.6c-.3.4-.6.7-1 .8s-.8.3-1.2.3c-.3 0-.6 0-.9-.1-.3-.1-.6-.2-.8-.4s-.4-.4-.5-.6c-.1-.3-.2-.5-.2-.9s.1-.7.2-.9c.1-.3.3-.5.5-.6.2-.2.5-.3.8-.4.3-.1.6-.2.9-.2.3-.1.6-.1.9-.1h1.3V15c0-.4-.1-.7-.4-.9-.3-.2-.7-.3-1.1-.3-.4 0-.7.1-1 .2-.3.1-.6.3-.8.5l-.9-.9c.4-.4.8-.7 1.3-.8s1-.3 1.5-.3.9.1 1.2.2c.3.1.6.2.8.4.2.2.4.4.5.6.1.2.2.4.3.7s.1.4.1.6v4.3h-1.5v-.9zm-.1-2.1H27.2c-.3 0-.6.1-.8.1-.3.1-.5.2-.6.3s-.3.3-.3.6c0 .2 0 .3.1.4l.3.3c.1.1.2.1.4.2s.3 0 .4 0c.6 0 1-.1 1.3-.4s.4-.6.4-1.1v-.4zm6.9-1.8c-.3-.5-.7-.7-1.3-.7-.2 0-.4.1-.7.2-.2.1-.3.3-.3.5s.1.4.3.4c.2.1.4.2.7.2.3.1.6.1.9.2l.9.3c.3.1.5.3.7.6.2.3.3.6.3 1s-.1.7-.3 1c-.2.3-.4.5-.7.7-.3.2-.6.3-.9.4s-.7.1-1 .1c-.5 0-1-.1-1.4-.2-.4-.1-.8-.4-1.2-.8l1.1-1c.2.2.4.4.7.6.2.2.5.2.9.2h.4c.2 0 .3-.1.4-.1.1-.1.2-.1.3-.2.1-.1.1-.2.1-.3 0-.2-.1-.4-.3-.5s-.4-.2-.7-.3c-.3-.1-.6-.1-.9-.2l-.9-.3c-.3-.1-.5-.3-.7-.6-.2-.2-.3-.6-.3-1s.1-.7.2-1c.2-.3.4-.5.6-.7.3-.2.5-.3.9-.4.3-.1.7-.1 1-.1.4 0 .9.1 1.3.2s.8.4 1.1.8l-1.2 1zm4.3-.9c.2-.3.4-.5.7-.8.3-.2.8-.3 1.3-.3.4 0 .8.1 1.1.2.3.1.6.3.8.6.2.2.3.5.4.8.1.3.1.6.1 1v4.2h-1.7v-3.4-.6c0-.2-.1-.4-.1-.6-.1-.2-.2-.4-.4-.5-.1-.2-.4-.2-.7-.2-.3 0-.5 0-.7.1-.2.1-.3.2-.5.4-.1.2-.2.3-.3.5s-.1.4-.1.6v3.6h-1.7V8.8h1.7v4.8zM49.7 16c0-.5.1-1 .3-1.4.2-.4.4-.8.8-1.1s.7-.5 1.2-.7.9-.3 1.4-.3 1 .1 1.4.3.8.4 1.2.7.6.7.8 1.1c.1.4.2.8.2 1.4s-.1 1-.3 1.4c-.2.4-.4.8-.8 1.1s-.7.5-1.2.7-.9.3-1.4.3-1-.1-1.4-.3-.8-.4-1.2-.7-.6-.7-.8-1.1c-.1-.4-.2-.9-.2-1.4zm1.7 0c0 .3 0 .5.1.8.1.2.2.5.4.6s.4.3.6.4c.2.1.5.2.8.2.3 0 .6-.1.8-.2.2-.1.4-.3.6-.4.2-.2.3-.4.4-.6.1-.2.1-.5.1-.8 0-.3 0-.5-.1-.8-.1-.2-.2-.5-.4-.6-.2-.2-.4-.3-.6-.4-.2-.2-.4-.2-.8-.2-.3 0-.6.1-.8.2-.2.1-.4.3-.6.4-.2.2-.3.4-.4.6-.1.3-.1.5-.1.8zm7.1-3.4h1.6v1.1c.2-.3.4-.6.7-.9s.8-.4 1.3-.4c.4 0 .8.1 1.1.2.3.1.6.3.8.6.2.2.3.5.4.8s.1.6.1 1v4.2H63v-3.4-.6c0-.2-.1-.4-.1-.6-.1-.2-.2-.4-.4-.5-.3-.1-.5-.1-.8-.1-.3 0-.5 0-.7.1-.2.1-.3.2-.5.4-.1.2-.2.3-.3.5s-.1.4-.1.6v3.6h-1.7v-6.6zM20.1 34.5c-.3.4-.6.7-1 .9-.4.2-.8.3-1.3.3s-1-.1-1.4-.3c-.4-.2-.7-.4-1-.7s-.5-.7-.7-1.1c-.1-.4-.2-.9-.2-1.4s.1-1 .2-1.4c.2-.4.4-.8.7-1.1.3-.3.6-.6 1-.7.4-.2.8-.3 1.3-.3.3 0 .6 0 .8.1.2.1.5.1.6.3.2.1.3.2.5.3l.3.3V25h1.7v10.5H20v-1zm-4-2.3c0 .3 0 .5.1.8.1.2.2.5.4.6s.4.3.6.4c.2.1.5.2.8.2s.6-.1.8-.2.4-.3.6-.4.3-.4.4-.6c.1-.2.1-.5.1-.8 0-.3 0-.5-.1-.8s-.2-.5-.4-.6-.4-.3-.6-.4-.5-.2-.8-.2-.6.1-.8.2c-.2.1-.4.3-.6.4s-.3.4-.4.6-.1.5-.1.8zm8.8.6c.1.5.3.9.6 1.2s.7.4 1.2.4c.4 0 .8-.1 1.1-.3.3-.2.5-.4.7-.6l1.2.9c-.4.5-.8.8-1.3 1-.5.2-1 .3-1.5.3s-1-.1-1.4-.3c-.4-.2-.8-.4-1.2-.7-.3-.3-.6-.7-.8-1.1-.2-.4-.3-.9-.3-1.4 0-.5.1-1 .3-1.4.2-.4.4-.8.8-1.1.3-.3.7-.5 1.2-.7.4-.2.9-.3 1.4-.3.5 0 .9.1 1.3.2s.7.4 1 .7.5.7.6 1.1c.2.4.2 1 .2 1.6v.5h-5.1zm3.4-1.3c0-.5-.2-.9-.5-1.2-.3-.3-.7-.4-1.2-.4s-.9.1-1.2.4c-.3.3-.5.7-.5 1.2h3.4zm3.3-6.5h1.7v10.5h-1.7V25zm3.6 3.9h1.7v6.7h-1.7v-6.7zm-.3-2.3c0-.3.1-.5.3-.7s.5-.3.8-.3c.3 0 .6.1.8.3.2.2.3.4.3.7 0 .3-.1.5-.3.7-.2.2-.5.3-.8.3-.3 0-.6-.1-.8-.3s-.3-.4-.3-.7zm3 2.3h1.8l1.8 4.7 1.8-4.7H45l-2.6 6.7h-1.8l-2.7-6.7zm9.4 3.9c.1.5.3.9.6 1.2s.7.4 1.2.4c.4 0 .8-.1 1.1-.3.3-.2.5-.4.7-.6l1.2.9c-.4.5-.8.8-1.3 1-.5.2-1 .3-1.5.3s-1-.1-1.4-.3-.8-.4-1.2-.7c-.3-.3-.6-.7-.8-1.1-.2-.4-.3-.9-.3-1.4 0-.5.1-1 .3-1.4.2-.4.4-.8.8-1.1s.7-.5 1.2-.7.9-.3 1.4-.3c.5 0 .9.1 1.3.2.4.2.7.4 1 .7.3.3.5.7.6 1.1.2.4.2 1 .2 1.6v.5h-5.1zm3.4-1.3c0-.5-.2-.9-.5-1.2-.2-.2-.6-.3-1.2-.3-.5 0-.9.1-1.2.4-.3.3-.5.7-.5 1.2h3.4zm3.3-2.6h1.7V30c.2-.4.4-.7.8-.9.3-.2.7-.3 1.2-.3h.3c.1 0 .2 0 .3.1v1.6c-.1 0-.3-.1-.4-.1h-.4c-.4 0-.7.1-.9.2-.2.1-.4.3-.5.5l-.3.6c0 .2-.1.3-.1.4v3.6H54v-6.8zm4.5 0h1.8l1.9 4.6 1.7-4.6h1.7L62.4 37c-.1.3-.3.6-.4.8-.1.2-.3.4-.5.6-.2.2-.4.3-.7.4-.3.1-.6.1-1 .1s-.9-.1-1.3-.2l.2-1.5c.1 0 .3.1.4.1h.4c.2 0 .4 0 .5-.1.1 0 .3-.1.4-.2s.2-.2.2-.3c.1-.1.1-.3.2-.5l.3-.8-2.6-6.5z"></path></svg><svg width="80" height="48" viewBox="0 0 80 48" id="cash-ar" x="320" y="192"><path fill="none" d="M4 0h72c2.2 0 4 1.8 4 4v40c0 2.2-1.8 4-4 4H4c-2.2 0-4-1.8-4-4V4c0-2.2 1.8-4 4-4z"></path><path d="M64.8 17.4c-.3 0-.5-.1-.6-.2-.1-.2-.2-.4-.2-.6v-5.5c0-.3 0-.6-.1-.7s-.2-.2-.3-.2-.1-.1-.1-.1c0-.1 0-.2.1-.3l.3-.3c.1-.1.3-.1.6-.1.4 0 .6.1.9.4s.3.6.3 1.1v5.8c0 .2-.1.4-.2.6-.2 0-.4.1-.7.1zm-5.7-1.3h.8c.2 0 .3-.1.4-.2s.1-.3.1-.6v-4.2c0-.3 0-.6-.1-.7s-.2-.2-.3-.2c-.1 0-.1-.1-.1-.1 0-.1 0-.2.1-.3l.3-.3c.1-.1.3-.1.5-.1.4 0 .6.1.9.4s.3.6.3 1.1v4.6c0 .6-.1 1-.4 1.4-.3.4-.7.6-1.2.6h-1.3v-1.4zm0 0v1.3H58c-.5 0-.9-.1-1.2-.4-.3.2-.7.4-1.2.4h-1.9c-.2 0-.3-.1-.4-.2-.1-.1-.1-.3-.1-.4s0-.3.1-.4c.1-.1.2-.2.4-.2h.8c.7 0 1.2-.1 1.4-.4.3-.3.4-.7.4-1.2 0-.4-.1-.8-.3-1.1-.2-.3-.4-.6-.6-.7-.1 0-.3.1-.4.2s-.2.4-.2.7c-.1 0-.2.1-.4.1-.1 0-.3.1-.4.1-.2 0-.4-.1-.6-.2-.2-.2-.3-.4-.3-.7 0-.4.1-.6.4-.8.2-.2.5-.3.8-.4s.6-.1.8-.1c.4 0 .7.1 1.2.3.4.2.8.6 1.1 1 .3.4.5.9.5 1.5 0 .3 0 .5-.1.9l-.3.9h1.6zM49 11.5c.5 0 1 .1 1.4.2.4.1.7.4.9.7s.3.9.3 1.5v1.7c0 .5-.1 1-.4 1.3-.3.3-.7.4-1.2.4h-4.3V16h1.2c-.1-.2-.2-.5-.2-.8-.1-.3-.1-.7-.1-1 0-.8.1-1.4.4-1.8.2-.4.5-.7.9-.8.2-.1.6-.1 1.1-.1zm1 2c0-.3-.1-.4-.3-.6-.2-.1-.4-.2-.6-.2-.3 0-.6.1-.8.4-.2.3-.3.7-.3 1.1 0 .4.1.8.3 1.2.2.4.4.6.8.6h.3c.2 0 .3-.1.4-.2.1-.1.1-.3.1-.6v-1.7zm-.9-2.8c-.3 0-.5-.1-.6-.3-.2-.2-.3-.4-.3-.6 0-.2.1-.5.3-.6.2-.2.4-.3.6-.3.2 0 .4.1.6.3.2.1.3.3.3.6 0 .2-.1.4-.3.6-.2.2-.4.3-.6.3zm-3.4 5.4v1.3h-.5c-.4 0-.8-.1-1.1-.3-.3.2-.7.3-1.1.3h-2.2c0 .7.1 1.3.3 1.8.2.5.4.8.7 1 0 .1-.1.2-.3.3s-.3.2-.6.2c-.5 0-.9-.2-1.1-.7s-.3-1.1-.3-1.7c0-.6.1-1.2.4-1.6s.6-.6 1.2-.6h.4L39 13c.1-.2.2-.5.5-.7.2-.2.6-.4 1-.6.4-.2.9-.2 1.4-.2.7 0 1.3.1 1.8.3.5.2.9.6 1.2 1 .3.4.4.9.4 1.5 0 .2 0 .5-.1.9l-.3.9h.8zm-2.8-.1c.3-.1.5-.4.6-.7s.2-.6.2-.9c0-.3-.1-.6-.2-.8-.2-.2-.4-.4-.7-.6-.3-.1-.6-.2-.9-.2-.4 0-.8.1-1 .3l2 2.9zm-12.1.1h1.1c.2 0 .4-.2.6-.5.2-.3.2-.8.2-1.4 0-.4 0-.7-.1-1l-.3-.6c-.1-.1-.3-.3-.5-.4 0-.1 0-.2.1-.3l.3-.3c.1-.1.3-.1.5-.1.5 0 .8.2 1.1.6.2.4.4 1 .4 1.7 0 .6-.1 1.2-.3 1.7-.2.5-.4 1-.8 1.3-.4.3-.8.5-1.3.5h-1.2v-1.2zm2.2-5.4c-.3 0-.5-.1-.6-.3-.2-.2-.3-.4-.3-.6 0-.2.1-.5.3-.6.1-.1.3-.2.6-.2.2 0 .4.1.6.3.2.2.3.4.3.6 0 .2-.1.4-.3.6-.2.1-.4.2-.6.2zm-2.2 5.4v1.3h-1.2c-.3 0-.5 0-.7-.1-.2.1-.4.1-.7.1h-4.3v-1.3H25c-.1-.2-.2-.5-.2-.8s-.1-.7-.1-1c0-.8.1-1.4.4-1.8.2-.4.5-.7.9-.8.4-.1.8-.2 1.2-.2.5 0 1 .1 1.4.2.4.1.7.4.9.7.2.4.3.9.3 1.5V16h1zm-2.6-2.6c0-.3-.1-.4-.3-.6s-.4-.2-.6-.2c-.3 0-.6.1-.8.4-.2.3-.3.7-.3 1.1 0 .4.1.8.3 1.2.2.4.4.6.8.6h.3c.2 0 .3-.1.4-.2.1-.1.1-.3.1-.6v-1.7zm-1.9-2.9c-.2 0-.4-.1-.6-.2-.2-.2-.2-.3-.2-.6 0-.2.1-.4.2-.6.2-.1.4-.2.6-.2.2 0 .4.1.6.2.2.2.2.3.2.6 0 .2-.1.4-.2.6-.2.1-.4.2-.6.2zm2 0c-.2 0-.4-.1-.6-.2-.2-.2-.2-.3-.2-.6 0-.2.1-.4.2-.6.2-.1.4-.2.6-.2.2 0 .4.1.6.2.2.2.2.3.2.6 0 .2-.1.4-.2.6-.2.1-.4.2-.6.2zm-4.4 5.5v1.3h-1.1c-.5 0-.9-.1-1.2-.4-.3.2-.7.4-1.2.4h-1.9c-.2 0-.3-.1-.4-.2-.1-.1-.1-.3-.1-.4s0-.3.1-.4c.1-.1.2-.2.4-.2h.8c.7 0 1.2-.1 1.4-.4.3-.3.4-.7.4-1.2 0-.4-.1-.8-.3-1.1-.2-.3-.4-.6-.6-.7-.1 0-.3.1-.4.2s-.2.4-.2.7c-.1 0-.2.1-.4.1-.1 0-.3.1-.4.1-.2 0-.4-.1-.6-.2-.2-.2-.3-.4-.3-.7 0-.4.1-.6.4-.8.2-.2.5-.3.8-.4s.6-.1.8-.1c.4 0 .7.1 1.2.3.4.2.8.6 1.1 1s.5.9.5 1.5c0 .3 0 .5-.1.9l-.3.9h1.6zm-4.7-5.2h-.1c-.1 0-.1 0-.2-.1s-.1-.1-.1-.2v-.1c0-.1 0-.2.1-.2 0-.1.1-.1.2-.1l2.5-.9h.1c.1 0 .1 0 .2.1.1 0 .1.1.1.2v.1c0 .1 0 .1-.1.2s-.1.1-.2.1l-2.5.9zm0-1.3h-.1c-.1 0-.1 0-.2-.1s-.1-.1-.1-.2v-.1c0-.1 0-.2.1-.2 0-.1.1-.1.2-.1l2.3-.9h.1c.1 0 .1 0 .2.1.1 0 .1.1.1.2v.1c0 .1 0 .1-.1.2 0 .1-.1.1-.2.1l-2.3.9zm-3.5 7.8c-.3 0-.5-.1-.6-.2-.1-.2-.2-.4-.2-.6v-5.5c0-.3 0-.6-.1-.7-.1-.1-.2-.2-.3-.2s-.1-.1-.1-.1c0-.1 0-.2.1-.3l.3-.3c.1-.1.3-.1.6-.1.4 0 .6.1.9.4.2.3.3.6.3 1.1v5.8c0 .2-.1.4-.2.6s-.4.1-.7.1zm55.4 17.9c.2 0 .3.1.4.2.1.1.1.3.1.4 0 .2 0 .3-.1.4-.1.1-.2.2-.4.2h-1.9c-.5 0-.9-.1-1.2-.4-.3.2-.8.4-1.2.4h-.5v-1.3h1c-.3-.6-.4-1.1-.4-1.8 0-.6.2-1.1.5-1.5.3-.4.7-.8 1.1-1s.8-.3 1.2-.3c.2 0 .5 0 .8.1.3.1.6.2.8.4.2.2.4.5.4.8 0 .3-.1.5-.3.7-.2.3-.4.4-.6.4-.1 0-.2 0-.4-.1-.1 0-.3-.1-.4-.1 0-.3-.1-.6-.2-.7-.1-.2-.2-.2-.4-.2l.2-.1c-.1 0-.1 0-.2.1-.1 0-.1 0-.2.1h.1c-.2.1-.4.4-.6.7-.2.3-.3.7-.3 1.1 0 .5.1.9.4 1.2.3.3.8.5 1.4.5h.9zm-1.7-3.4zm-3.1 3.4v1.3h-1.8c-.4 0-.8-.1-1.2-.4-.2.1-.4.3-.5.3-.2.1-.4.1-.6.1h-.4v-1.3h.4c.2 0 .4 0 .6-.1.2-.1.3-.2.5-.3v-3.4c0-.2.1-.4.2-.6s.3-.2.6-.2.5.1.6.2c.1.2.2.4.2.6v3c0 .3 0 .5.1.6.1.1.2.2.4.2h.9zm-2.2-5.4c-.3 0-.5-.1-.6-.3-.2-.2-.3-.4-.3-.6 0-.2.1-.5.3-.6.2-.2.4-.3.6-.3.2 0 .4.1.6.3s.3.4.3.6c0 .2-.1.4-.3.6-.1.2-.4.3-.6.3zm-2.2 5.4v1.3h-1.1c-.5 0-.9-.1-1.2-.4-.3.2-.7.4-1.2.4h-1.9c-.2 0-.3-.1-.4-.2s-.1-.3-.1-.4c0-.2 0-.3.1-.4s.2-.2.4-.2h.8c.7 0 1.2-.1 1.4-.4.3-.3.4-.7.4-1.2 0-.4-.1-.8-.3-1.1-.2-.3-.4-.6-.6-.7-.1 0-.3.1-.4.2-.1.2-.2.4-.2.7-.1 0-.2.1-.4.1h-.4c-.2 0-.4-.1-.6-.2-.2-.2-.3-.4-.3-.7 0-.4.1-.6.4-.8.2-.2.5-.3.8-.4.3-.1.6-.1.8-.1.4 0 .7.1 1.2.3s.8.6 1.1 1c.3.4.5.9.5 1.5 0 .3 0 .5-.1.9l-.3.9h1.6zm-11.3 1.3c-.3 0-.5-.1-.6-.2-.1-.2-.2-.4-.2-.6v-5.5c0-.3 0-.6-.1-.7s-.2-.2-.3-.2c-.1 0-.1-.1-.1-.1 0-.1 0-.2.1-.3l.3-.3c.1-.1.3-.1.6-.1.4 0 .6.1.9.4s.3.6.3 1.1v5.8c0 .2-.1.4-.2.6-.2 0-.4.1-.7.1zm-9.1 0c-.2 0-.3-.1-.4-.2s-.2-.3-.2-.5.1-.4.2-.5.3-.2.4-.2h1.3V32c0-.3 0-.6-.1-.7-.1-.1-.2-.2-.3-.2-.1 0-.1-.1-.1-.1 0-.1 0-.2.1-.3l.3-.3c.1-.1.3-.1.5-.1.4 0 .6.1.9.4.2.3.3.6.3 1.1v3.6h1.3c.2 0 .3-.1.4-.2.1-.1.1-.3.1-.6v-4.2c0-.3 0-.6-.1-.7s-.2-.2-.3-.2-.1-.1-.1-.1c0-.1 0-.2.1-.3l.3-.3c.1-.1.3-.1.5-.1.4 0 .6.1.9.4.2.3.3.6.3 1.1v4.6c0 .6-.1 1-.4 1.4-.3.4-.7.6-1.2.6h-4.7zM38 30.7c.5 0 .9.2 1.1.7.3.4.4 1.1.4 2 0 .8-.2 1.5-.5 2.2-.3.7-1 1-2 1h-.2c-.8 0-1.4-.2-1.9-.7-.1.2-.3.4-.5.5s-.5.2-.8.2h-1.8c-.4 0-.8-.1-1.2-.4-.2.1-.4.3-.5.3s-.4.1-.6.1h-1v-1.3h.7c.2 0 .3-.1.4-.3.1-.2.1-.4.1-.7v-2.1c0-.3 0-.5.1-.7s.3-.2.7-.2.6.1.7.2c.1.2.1.4.1.7v2.2c0 .3 0 .5.1.6.1.1.2.2.4.2h1.3c.2 0 .4-.1.4-.3.1-.2.1-.4.1-.7V32c0-.3.1-.6.2-.7.2-.1.3-.2.6-.2s.4.1.6.2c.2.1.2.4.2.7v2.4c0 .6.1 1 .4 1H37c.2 0 .4-.2.6-.5.2-.3.3-.7.3-1.2 0-.6-.1-1.1-.3-1.5-.2-.4-.4-.6-.6-.7 0-.2.1-.3.3-.5.1-.2.4-.3.7-.3zm-9.4 4.6v1.3h-1.8c-.4 0-.8-.1-1.2-.4-.2.1-.4.3-.5.3s-.4.1-.6.1h-.4v-1.3h.4c.2 0 .4 0 .6-.1.2-.1.3-.2.5-.3v-3.4c0-.2.1-.4.2-.6s.3-.2.6-.2.5.1.6.2c.1.2.2.4.2.6v3c0 .3 0 .5.1.6.1.1.2.2.4.2h.9zm-3.2-5.5c-.2 0-.4-.1-.6-.2s-.2-.3-.2-.6.1-.4.2-.6.3-.2.6-.2c.2 0 .4.1.6.2.2.2.2.3.2.6s-.1.4-.2.6c-.2.2-.4.2-.6.2zm2 0c-.2 0-.4-.1-.6-.2-.2-.2-.2-.3-.2-.6s.1-.4.2-.6c.2-.2.3-.2.6-.2.2 0 .4.1.6.2.2.2.2.3.2.6s-.1.4-.2.6c-.2.2-.4.2-.6.2zm-3.3 5.5v1.3h-.7c-.4 0-.8-.1-1.2-.3-.3.2-.6.3-.9.3h-4.8c-.2 0-.3-.1-.4-.2s-.1-.3-.1-.5.1-.4.2-.5.3-.2.4-.2H18V32c0-.3 0-.6-.1-.7-.1-.1-.2-.2-.3-.2-.1 0-.1-.1-.1-.1 0-.1 0-.2.1-.3l.3-.3c.1-.1.3-.1.5-.1.4 0 .6.1.9.4.2.3.3.6.3 1.1v3.6h1.3c.2 0 .3-.1.4-.2.1-.1.1-.3.1-.6v-4.2c0-.3 0-.6-.1-.7s-.2-.2-.3-.2c-.1 0-.1-.1-.1-.1 0-.1 0-.2.1-.3l.3-.3c.1-.1.3-.1.5-.1.4 0 .6.1.9.4.2.3.3.6.3 1.1v4.6c0 .2 0 .5-.1.7h1.2zm-12.2-4.6c.5 0 1 .1 1.3.2.4.1.7.4 1 .9.3.4.4 1.1.4 1.9 0 1.9-.8 2.9-2.3 2.9h-1.2c-.3 0-.5.1-.7.2-.2.1-.3.3-.3.5v1.2c0 .4-.1.8-.3 1.1-.2.3-.5.4-.8.4-.2 0-.4 0-.6-.1-.1-.1-.3-.2-.3-.3-.1-.2-.1-.3-.1-.4 0 0 .1 0 .2-.1.1 0 .2-.1.3-.3.1-.2.1-.4.1-.6v-.7c0-.3.1-.7.2-1 .1-.4.4-.7.8-.9v-1.8c0-.8.1-1.5.2-1.9.2-.4.4-.7.7-.9.3-.2.8-.3 1.4-.3zm.4 4.6c.3 0 .5-.2.6-.5.1-.3.2-.7.2-1.2s-.1-.9-.2-1.2c-.3-.3-.5-.4-.9-.4-.2 0-.4.1-.6.2-.2.1-.3.3-.3.6v2.6h1.2z"></path></svg><svg width="80" height="48" viewBox="0 0 80 48" id="cirrus" x="400" y="240"><path fill="#303F8A" d="M3.2 0h73.6C78.6 0 80 1.4 80 3.2v41.6c0 1.8-1.4 3.2-3.2 3.2H3.2C1.4 48 0 46.6 0 44.8V3.2C0 1.4 1.4 0 3.2 0z"></path><path fill="#009DDD" d="M64.1 31.9zm0 .3l-.1-.4h.3l.1.1s0 .1-.1.1l.1.2h-.1l-.1-.2h-.1v.2zm0 .2c.2 0 .4-.2.3-.4 0-.2-.2-.3-.3-.3-.2 0-.4.2-.3.4 0 .1.2.2.3.3zm-.5-.4c0-.3.2-.5.5-.5s.5.2.5.5-.2.5-.5.5-.5-.2-.5-.5zM39.9 34.7c6.3 5.7 16 5.2 21.7-1.1 5.7-6.3 5.2-16-1.1-21.7-6.3-5.7-16-5.2-21.7 1.1-2.6 2.9-3.9 6.5-3.9 10.3 0 4.4 1.8 8.6 5 11.4"></path><path fill="#007CC2" d="M45 21.7c-.1-.6-.1-1.1-.3-1.6h-9.5c.1-.6.3-1.1.5-1.6h8.6c-.2-.6-.4-1.1-.7-1.7h-7.2c.3-.6.6-1.1.9-1.6h5.4c-.4-.6-.8-1.1-1.2-1.7h-3.1c.5-.6 1-1.1 1.6-1.7-6.3-5.5-16-5-21.6 1.3-5.7 6.3-5.2 16 1.1 21.7 5.8 5.3 14.8 5.3 20.7 0 .6-.5 1.1-1.1 1.6-1.7h-3.1c-.4-.5-.9-1.1-1.2-1.6h5.4c.3-.5.6-1.1.9-1.7h-7.2c-.3-.5-.5-1.1-.7-1.7h8.6c.2-.5.3-1.1.5-1.6 0-1.5.1-3.1 0-4.8"></path><path fill="#FFF" d="M58.9 26.9zm0 .3l-.1-.4h.2s.1.1 0 .1c0 0 0 .1-.1.1l.1.2h-.1V27v.2zm0 .1c.2 0 .4-.2.4-.4s-.2-.4-.4-.4-.4.2-.4.4c.1.3.3.4.4.4zm-.4-.4c0-.3.2-.5.5-.5s.5.2.5.5-.2.5-.5.5c-.3.1-.5-.2-.5-.5z"></path><path fill="#003473" d="M43.6 21.2l-.8 1.8-.4-.1c-.7 0-1.3.3-1.6.9-.5 1.3-.8 2.6-1.1 3.9h-2.5l.1-.5c.5-2.1 1-4 1.3-6.1h2.2c0 .3-.1.7-.1 1 .8-.7 1.8-1.1 2.9-.9zm7 5c-.1.6-.2 1.2-.3 1.7H48l.2-1 .1-.1c-.7.8-1.7 1.3-2.7 1.2-1.2 0-2.1-.9-2.2-2v-.3c0-.5.1-.9.2-1.4l.6-3.1h2.4l-.6 3.1c-.1.3-.1.7-.2 1 0 .4.4.8 1.1.8 1 0 1.5-.8 1.7-1.8l.7-3.1h2.5l-1.2 5zm1.8-2.8c0 .9.6 1.4 1.9 1.9 1 .3 1.1.4 1.1.8s-.4.6-1.4.6c-.7 0-1.5-.1-2.2-.2l-.3 1.5h.1l.4.1.6.1c.6 0 1 .1 1.3.1 2.6 0 3.7-.7 3.7-2.3 0-.9-.5-1.5-1.7-1.9-1-.3-1.1-.4-1.1-.7 0-.3.4-.6 1.2-.6.6 0 1.2 0 1.8.1l.4-1.6c-.7-.1-1.5-.1-2.2-.1-2.8-.1-3.6 1-3.6 2.2zm-23.7-3.5c-.1.6-.2 1-.4 1.7-1.3-.6-2.7-.6-3.9 0-1 .7-1.6 1.9-1.4 3.1.1.7.6 1.2 1.2 1.4 1.1.4 2.3.3 3.2-.3-.2.8-.3 1.3-.4 1.9-1.3.4-2.8.5-4 .1-1.2-.4-2.1-1.5-2.3-2.8-.3-2 .7-3.9 2.6-4.8 1.6-.8 3.6-.9 5.4-.3zm.9 1.3h2.5l-1.4 6.6h-2.4l1.3-6.6z"></path><path fill="#FFF" d="M51.2 25.6c-.1.6-.2 1.1-.3 1.7h-2.2l.2-1.1c-.7.8-1.7 1.3-2.7 1.2-1.2.1-2.1-.8-2.2-2v-.3c0-.5.1-.9.2-1.4l.7-3.1h2.4l-.7 3.1c-.1.3-.1.7-.2 1 0 .4.4.8 1.1.8 1-.1 1.7-.8 1.8-1.8l.7-3.1h2.4l-1.2 5zm1.6-2.7c0 .9.6 1.4 1.9 1.9 1 .3 1.1.4 1.1.8 0 .3-.4.6-1.4.6-.7 0-1.5-.1-2.2-.3l-.2 1.4h.1l.5.1.6.1c.6 0 1 .1 1.4.1 2.6 0 3.7-.7 3.7-2.3 0-.9-.5-1.5-1.7-1.9-1-.3-1.1-.4-1.1-.7 0-.3.4-.6 1.2-.6.5 0 1.1 0 1.8.1l.4-1.6c-.6-.1-1.6-.1-2.2-.1-2.9.1-3.9 1.1-3.9 2.4zm-23.6-3.6c-.1.6-.2 1-.4 1.7-1.3-.6-2.7-.6-3.9 0-1 .7-1.6 1.9-1.4 3.1.1.7.6 1.2 1.2 1.5 1.1.4 2.3.3 3.2-.3-.2.8-.3 1.4-.4 1.9-1.3.4-2.8.5-4 .1-1.3-.4-2.2-1.5-2.4-2.8-.3-2 .7-3.9 2.6-4.8 1.7-.9 3.6-.9 5.5-.4zm1 1.4h2.4l-1.4 6.6h-2.4l1.4-6.6zm13.9 0c-1-.2-2.1.2-2.7 1.1.1-.3.1-.7.1-1h-2.2c-.3 2-.9 4.1-1.3 6.1v.4h2.5c.2-1.4.5-2.7 1-3.9.3-.6.9-.9 1.5-.9l.4.1.7-1.9z"></path><path fill="#003473" d="M38.3 21.2l-.8 1.8-.4-.1c-.6 0-1.2.3-1.5.9-.5 1.3-.8 2.6-1.1 3.9H32l.1-.5c.5-2.1 1-4.1 1.3-6.1h2.2c0 .3-.1.7-.1 1 .6-.7 1.7-1.1 2.8-.9"></path><path fill="#FFF" d="M38.1 22.5l-.4-.1c-.6 0-1.2.3-1.5.9-.5 1.3-.8 2.6-1 3.9h-2.5l.1-.4c.4-2.1 1-4.1 1.3-6.1h2.1c0 .3-.1.7-.1 1 .6-.9 1.7-1.3 2.7-1.1l-.7 1.9z"></path></svg><svg width="80" height="48" viewBox="0 0 80 48" id="maestro" x="480" y="288"><path fill="#303F8A" d="M3.2 0h73.6C78.6 0 80 1.4 80 3.2v41.6c0 1.8-1.4 3.2-3.2 3.2H3.2C1.4 48 0 46.6 0 44.8V3.2C0 1.4 1.4 0 3.2 0z"></path><path fill="#0092C7" d="M44.6 24.1c0-4.3-1.8-8.3-4.9-11.2-2.8-2.6-6.4-4-10.1-4-8.4 0-15.2 6.8-15.2 15.2s6.8 15.2 15.2 15.2c8.3-.1 15-6.8 15-15.2"></path><path fill="#D82331" d="M39.7 12.9c-.6.5-1.1 1-1.5 1.6h2.9c.4.5.8 1 1.1 1.6H37c-.3.5-.6 1-.9 1.6h7c.2.5.4 1 .6 1.6h-8.2c-.2.5-.3 1.1-.4 1.6h9.1c.3 1 .4 2.1.4 3.2 0 1.7-.3 3.3-.9 4.8h-8.2c.2.6.4 1.1.7 1.6h7c-.3.6-.6 1.1-.9 1.6h-5.2c.4.6.8 1.1 1.1 1.6h2.9c-.5.6-1 1.1-1.5 1.6 2.8 2.6 6.4 4 10.1 4 8.4 0 15.2-6.8 15.2-15.2 0-8.4-6.8-15.2-15.2-15.2-3.7.1-7.3 1.5-10 4"></path><path fill="#FFF" d="M60 25.2c-.2 1.8-1.8 3.1-3.6 2.9-1.5.2-2.8-.9-2.9-2.4v-.5c-.1-1.9 1.3-3.6 3.2-3.7h.5c1.5-.1 2.8 1 2.9 2.4v.3c-.1.4-.1.7-.1 1zm-1.9-.9c0-.7-.3-1.2-1-1.2-1 0-1.6 1.1-1.6 2.1 0 .9.4 1.4 1.1 1.4.7-.2 1.3-.8 1.4-1.5.1-.3.1-.5.1-.8zM40 27.7c-.6.2-1.3.3-1.9.3-2.1 0-3.2-.9-3.2-2.7-.2-1.9 1.2-3.5 3.1-3.7h.2c1.2-.2 2.4.7 2.5 2v.3c0 .5-.1 1-.3 1.5h-3.7v.2c0 .8.6 1.1 1.6 1.1.7 0 1.3-.1 1.9-.4l-.2 1.4zM39 24v-.4c0-.5-.4-.8-.9-.8-.6 0-1.1.5-1.1 1.1h2zm-5.2 3.9h-1.6l.1-.7c-.5.5-1.3.8-2 .8-.9 0-1.7-.7-1.7-1.6v-.1c0-1.5 1.2-2.5 3.3-2.5.3 0 .5 0 .8.1.1-.1.1-.2.1-.4 0-.4-.4-.6-1.1-.6-.5 0-1.1.1-1.6.2l-.3.1-.2.1.3-1.4c.7-.2 1.5-.4 2.3-.4 1.6 0 2.5.7 2.5 1.9 0 .4-.1.8-.2 1.1l-.5 2.4-.1.4-.1.4v.2zm-1.4-2.8H32c-1 0-1.6.3-1.6.9 0 .4.3.7.6.7.9-.1 1.5-.8 1.4-1.6zm10.4.3c.8.3.9.4.9.7 0 .3-.3.6-1.1.6-.6 0-1.2-.1-1.7-.3l-.2 1.4s.7.1.9.1c.3.1.7.1 1 .1 2 0 2.9-.7 2.9-2.1 0-.9-.4-1.3-1.3-1.7-.8-.4-.9-.4-.9-.7 0-.3.3-.6.9-.5.4 0 .9 0 1.3.1l.3-1.5c-.5 0-1.2-.1-1.7-.1-2.1 0-2.8.9-2.8 2.1-.1.8.4 1.4 1.5 1.8zm11-3.8h-.3c-.6 0-1 .3-1.6 1l.2-.9h-1.7L49.3 28h1.9c.7-3.8.9-4.5 1.9-4.5h.6l.7-1.8c-.4 0-.7 0-.6-.1zm-5.1 6.3c-.4.1-.9.2-1.3.2-.9 0-1.5-.5-1.5-1.3 0-.2 0-.4.1-.6l.1-.6.1-.5.9-4.8H49l-.3 1.4h.9l-.3 1.5h-1l-.4 2.7c-.1.1-.1.2-.1.3 0 .4.2.5.7.5.2 0 .3 0 .5-.1l-.3 1.3zm-20.9 0h-1.9L27 22l-2.6 5.9h-1.7l-.2-5.9-1.1 5.9h-1.7l1.4-7.7H24l.2 4.7 2.1-4.7h2.9l-1.4 7.7zm31.9-.5c0-.3.2-.5.5-.5s.5.2.5.5-.2.5-.5.5-.5-.2-.5-.5c0 .1 0 .1 0 0zm.5.3c.2 0 .4-.2.4-.4s-.2-.4-.4-.4-.4.2-.4.4.2.4.4.4zm-.1-.2l-.1-.3h.3c.1 0 .1.1.1.2s0 .1-.1.1l.1.2h-.1l-.2-.2v-.3h.1c.1 0 .1 0 .1-.1h-.2v.4z"></path></svg><svg width="80" height="48" viewBox="0 0 80 48" id="mastercard" x="560" y="336"><path fill="#006" d="M0 3.2C0 1.4 1.4 0 3.2 0h73.6C78.6 0 80 1.4 80 3.2v41.6c0 1.8-1.4 3.2-3.2 3.2H3.2C1.4 48 0 46.6 0 44.8V3.2z"></path><path fill="#C00" d="M44.9 24.4c0 8.6-7 15.6-15.6 15.6s-15.6-7-15.6-15.6 7-15.6 15.6-15.6 15.6 7 15.6 15.6"></path><path fill="#F90" d="M50.3 8.8c-4 0-7.7 1.5-10.5 4-.6.5-1.1 1.1-1.6 1.7h3.2c.4.5.8 1.1 1.2 1.7H37c-.3.5-.6 1.1-.9 1.7h7.3c.3.5.5 1.1.7 1.7h-8.7c-.2.5-.3 1.1-.5 1.7h9.6c.2 1.1.4 2.2.4 3.3 0 1.7-.3 3.4-.8 5h-8.7c.2.6.4 1.1.7 1.7h7.3c-.3.6-.6 1.1-.9 1.7H37c.4.6.8 1.1 1.2 1.7h3.2c-.5.6-1 1.1-1.6 1.7 2.8 2.5 6.4 4 10.5 4 8.6 0 15.6-7 15.6-15.6 0-9-7-16-15.6-16"></path><path fill="#006" d="M25.6 26.1h-.4c-1 0-1.4.3-1.4 1 0 .4.2.7.6.7.7-.1 1.2-.7 1.2-1.7zm1.3 2.9h-1.4v-.7c-.4.5-1 .8-1.8.8-.9 0-1.5-.7-1.5-1.8 0-1.6 1.1-2.5 3-2.5h.7c.1-.2.1-.3.1-.4 0-.4-.3-.6-1.1-.6s-1.5.2-1.8.3c0-.1.2-1.4.2-1.4.8-.2 1.4-.3 2-.3 1.5 0 2.2.7 2.2 1.9 0 .3-.1.7-.1 1.3-.2.9-.5 2.9-.5 3.4zM21.5 29h-1.7l.9-6.1-2.1 6.1h-1.2l-.1-6.1-1 6.1h-1.6l1.3-8h2.4l.2 4.5 1.5-4.5h2.7l-1.3 8M52.3 26.1h-.4c-1 0-1.4.3-1.4 1 0 .4.2.7.6.7.7-.1 1.2-.7 1.2-1.7zm1.3 2.9h-1.4v-.7c-.4.5-1 .8-1.8.8-.9 0-1.5-.7-1.5-1.8 0-1.6 1.1-2.5 3-2.5h.7c.1-.2.1-.3.1-.4 0-.4-.3-.6-1.1-.6s-1.5.2-1.8.3c0-.1.2-1.4.2-1.4.8-.2 1.4-.3 2-.3 1.5 0 2.2.7 2.2 1.9 0 .3-.1.7-.1 1.3-.2.9-.5 2.9-.5 3.4zM34.4 28.9c-.5.1-.8.2-1.2.2-.9 0-1.3-.5-1.3-1.4 0-.3.1-1 .2-1.7.1-.6.7-4.4.7-4.4h1.7l-.2 1h1l-.2 1.5h-1c-.2 1.2-.5 2.8-.5 3 0 .3.2.5.6.5.2 0 .3 0 .5-.1l-.3 1.4M39.6 28.8c-.6.2-1.1.3-1.7.3-1.9 0-2.9-1-2.9-2.9 0-2.2 1.3-3.8 2.9-3.8 1.4 0 2.3.9 2.3 2.3 0 .5-.1.9-.2 1.6h-3.4c-.1.9.5 1.3 1.5 1.3.6 0 1.1-.1 1.8-.4l-.3 1.6zm-1-3.8c0-.1.2-1.1-.8-1.1-.5 0-.9.4-1.1 1.1h1.9zM27.9 24.6c0 .8.4 1.4 1.3 1.8.7.3.8.4.8.7 0 .4-.3.6-1 .6-.5 0-1-.1-1.5-.3 0 0-.2 1.4-.2 1.5.3.1.7.1 1.7.2 1.8 0 2.6-.7 2.6-2.2 0-.9-.3-1.4-1.2-1.8-.7-.3-.8-.4-.8-.7 0-.3.3-.5.8-.5.3 0 .8 0 1.2.1l.2-1.5c-.4-.1-1.1-.1-1.5-.1-1.8 0-2.4 1-2.4 2.2M47.8 22.6c.5 0 .9.1 1.5.4l.3-1.7c-.2-.1-1.1-.7-1.9-.7-1.1 0-2.1.6-2.8 1.5-1-.3-1.4.3-1.9 1l-.4.1c0-.2.1-.4.1-.6h-1.6c-.2 2-.6 4-.9 6v.4h1.7c.3-1.8.4-3 .5-3.8l.6-.4c.1-.4.4-.5 1-.5-.1.4-.1.9-.1 1.3 0 2.1 1.1 3.4 3 3.4.5 0 .9-.1 1.5-.2l.3-1.8c-.6.3-1 .4-1.4.4-1 0-1.6-.7-1.6-1.9 0-1.7.9-2.9 2.1-2.9M62.2 21l-.4 2.3c-.5-.6-1-1.1-1.6-1.1-.9 0-1.6.6-2.1 1.6-.7-.1-1.4-.4-1.4-.4.1-.5.1-.9.1-1h-1.6c-.2 2-.6 4-.9 6l-.2.6h1.7c.2-1.5.4-2.7.5-3.7.6-.5.9-1 1.5-1-.3.6-.4 1.3-.4 2.1 0 1.6.8 2.7 2 2.7.6 0 1.1-.2 1.6-.7l-.1.6h1.6l1.3-7.9h-1.6V21zM60 27.5c-.6 0-.9-.4-.9-1.3 0-1.3.5-2.2 1.3-2.2.6 0 .9.4.9 1.3.1 1.3-.5 2.2-1.3 2.2z"></path><path fill="#FFF" d="M22 28.5h-1.7l.9-6.1-2.1 6.1h-1.2l-.1-6.1-1.1 6.1h-1.5l1.3-7.9h2.4l.1 4.9 1.6-4.9h2.7L22 28.5M26.1 25.6h-.4c-1 0-1.4.3-1.4 1 0 .4.2.7.6.7.7-.1 1.2-.7 1.2-1.7zm1.3 2.9H26v-.7c-.4.5-1 .8-1.8.8-.9 0-1.5-.7-1.5-1.8 0-1.6 1.1-2.5 3-2.5.2 0 .4 0 .7.1.1-.2.1-.3.1-.4 0-.4-.3-.6-1.1-.6s-1.5.2-1.8.3c0-.1.2-1.4.2-1.4.8-.2 1.4-.3 2-.3 1.5 0 2.2.7 2.2 1.9 0 .3-.1.7-.1 1.3-.2.8-.5 2.8-.5 3.3zM50.1 20.8l-.3 1.7c-.6-.3-1-.4-1.5-.4-1.3 0-2.2 1.2-2.2 3 0 1.2.6 1.9 1.6 1.9.4 0 .9-.1 1.4-.4l-.3 1.8c-.6.2-1 .2-1.5.2-1.8 0-3-1.3-3-3.4 0-2.8 1.6-4.8 3.8-4.8.9 0 1.8.3 2 .4M52.8 25.6h-.4c-1 0-1.4.3-1.4 1 0 .4.2.7.6.7.7-.1 1.2-.7 1.2-1.7zm1.3 2.9h-1.4v-.7c-.4.5-1 .8-1.8.8-.9 0-1.5-.7-1.5-1.8 0-1.6 1.1-2.5 3-2.5.2 0 .4 0 .7.1.1-.2.1-.3.1-.4 0-.4-.3-.6-1.1-.6s-1.5.2-1.8.3c0-.1.2-1.4.2-1.4.8-.2 1.4-.3 2-.3 1.5 0 2.2.7 2.2 1.9 0 .3-.1.7-.1 1.3-.2.8-.5 2.8-.5 3.3zM34.9 28.4c-.5.1-.8.2-1.2.2-.9 0-1.3-.5-1.3-1.4 0-.3.1-1 .2-1.7.1-.6.7-4.4.7-4.4H35l-.2 1h.9l-.2 1.5h-.9c-.2 1.2-.5 2.8-.5 3 0 .3.2.5.6.5.2 0 .3 0 .5-.1l-.3 1.4M40.1 28.3c-.6.2-1.1.3-1.7.3-1.9 0-2.9-1-2.9-2.9 0-2.2 1.3-3.8 2.9-3.8 1.4 0 2.3.9 2.3 2.3 0 .5-.1.9-.2 1.6h-3.4c-.1.9.5 1.3 1.5 1.3.6 0 1.1-.1 1.8-.4l-.3 1.6zm-1-3.8c0-.1.2-1.1-.8-1.1-.5 0-.9.4-1.1 1.1h1.9zM28.4 24.1c0 .8.4 1.4 1.3 1.8.7.3.8.4.8.7 0 .4-.3.6-1 .6-.5 0-1-.1-1.5-.3 0 0-.2 1.4-.2 1.5.4.1.7.2 1.8.2 1.8 0 2.6-.7 2.6-2.2 0-.9-.3-1.4-1.2-1.8-.7-.3-.8-.4-.8-.7 0-.3.3-.5.8-.5.3 0 .8 0 1.2.1l.2-1.5c-.4-.1-1.1-.1-1.5-.1-1.9 0-2.5 1-2.5 2.2M63 28.5h-1.6l.1-.6c-.5.5-.9.7-1.6.7-1.2 0-2-1.1-2-2.7 0-2.1 1.3-3.9 2.8-3.9.7 0 1.2.3 1.6.9l.4-2.3h1.7L63 28.5zM60.5 27c.8 0 1.3-.9 1.3-2.2 0-.8-.3-1.3-.9-1.3-.8 0-1.3.9-1.3 2.2.1.9.4 1.3.9 1.3zM55.6 22.1c-.2 2-.6 4-.9 6l-.1.4h1.7c.6-3.9.8-4.7 1.7-4.6.2-.8.4-1.5.6-1.9-.7-.1-1.1.3-1.6 1 0-.3.1-.6.1-1h-1.5M41.6 22.1c-.2 2-.6 4-.9 6l-.1.4h1.7c.6-3.9.8-4.7 1.7-4.6.2-.8.4-1.5.6-1.9-.7-.1-1.1.3-1.6 1 0-.3.1-.6.1-1h-1.5"></path></svg><svg width="80" height="48" viewBox="0 0 80 48" id="mastercard-white" x="640" y="384"><path fill="none" d="M4 0h72c2.2 0 4 1.8 4 4v40c0 2.2-1.8 4-4 4H4c-2.2 0-4-1.8-4-4V4c0-2.2 1.8-4 4-4z"></path><path fill="#231F20" d="M63.019 42.166v.097h.09c.02 0 .037-.005.049-.012.011-.008.018-.021.018-.037s-.007-.028-.018-.036a.089.089 0 0 0-.049-.012h-.09zm.09-.068c.046 0 .082.01.108.031a.105.105 0 0 1 .038.085c0 .03-.009.055-.03.075a.148.148 0 0 1-.086.036l.119.137h-.092l-.11-.136h-.036v.136h-.077v-.363h.166zm-.023.489a.307.307 0 0 0 .279-.425.312.312 0 0 0-.161-.162.32.32 0 0 0-.238 0 .293.293 0 0 0-.162.162.294.294 0 0 0-.024.119c0 .042.008.082.024.119.015.038.037.07.064.097s.06.049.098.065a.3.3 0 0 0 .12.025m0-.697a.388.388 0 0 1 .282.115.38.38 0 0 1 .116.277c0 .054-.01.105-.031.152s-.049.089-.085.125a.388.388 0 0 1-.282.115.398.398 0 0 1-.401-.392.39.39 0 0 1 .243-.361.394.394 0 0 1 .158-.031M26.33 40.491c0-.692.454-1.261 1.195-1.261.708 0 1.187.544 1.187 1.261s-.478 1.261-1.187 1.261c-.741 0-1.195-.569-1.195-1.261m3.19 0v-1.97h-.857v.478c-.272-.355-.684-.577-1.244-.577-1.105 0-1.971.866-1.971 2.069 0 1.204.866 2.069 1.971 2.069.56 0 .973-.223 1.244-.577v.478h.857v-1.97zm28.947 0c0-.692.454-1.261 1.195-1.261.709 0 1.187.544 1.187 1.261s-.477 1.261-1.187 1.261c-.741 0-1.195-.569-1.195-1.261m3.191 0v-3.552H60.8v2.06c-.272-.355-.684-.577-1.244-.577-1.105 0-1.971.866-1.971 2.069 0 1.204.866 2.069 1.971 2.069.56 0 .973-.223 1.244-.577v.478h.858v-1.97zm-21.505-1.302c.552 0 .907.346.997.956h-2.044c.091-.57.436-.956 1.047-.956m.017-.767c-1.155 0-1.962.841-1.962 2.069 0 1.253.841 2.069 2.02 2.069.593 0 1.137-.148 1.615-.552l-.42-.635c-.33.263-.751.412-1.146.412-.552 0-1.055-.256-1.178-.965h2.925c.008-.107.017-.214.017-.329-.009-1.229-.767-2.069-1.871-2.069m10.343 2.069c0-.692.454-1.261 1.195-1.261.708 0 1.187.544 1.187 1.261s-.478 1.261-1.187 1.261c-.741 0-1.195-.569-1.195-1.261m3.19 0v-1.97h-.857v.478c-.273-.355-.684-.577-1.244-.577-1.105 0-1.971.866-1.971 2.069 0 1.204.866 2.069 1.971 2.069.56 0 .972-.223 1.244-.577v.478h.857v-1.97zm-8.028 0c0 1.195.832 2.069 2.102 2.069.593 0 .989-.132 1.417-.47l-.411-.692c-.322.231-.659.355-1.031.355-.684-.008-1.187-.503-1.187-1.261s.503-1.253 1.187-1.261c.372 0 .709.124 1.031.355l.411-.692c-.428-.338-.824-.47-1.417-.47-1.269-.002-2.102.871-2.102 2.067m11.045-2.069c-.494 0-.816.231-1.039.577v-.478h-.849v3.94h.858v-2.208c0-.652.28-1.014.841-1.014.174 0 .355.025.536.099l.264-.808a1.821 1.821 0 0 0-.611-.108m-22.963.412c-.412-.272-.98-.412-1.607-.412-.998 0-1.641.478-1.641 1.261 0 .642.478 1.039 1.359 1.162l.405.058c.47.066.692.19.692.412 0 .305-.313.478-.898.478-.593 0-1.022-.19-1.31-.412l-.404.667c.47.346 1.063.511 1.706.511 1.138 0 1.797-.536 1.797-1.286 0-.692-.519-1.055-1.376-1.178l-.404-.058c-.371-.049-.668-.123-.668-.387 0-.289.28-.461.75-.461.503 0 .99.19 1.228.338l.371-.693zm11.052-.412c-.494 0-.816.231-1.038.577v-.478h-.849v3.94h.857v-2.208c0-.652.28-1.014.841-1.014.174 0 .355.025.536.099l.264-.808a1.817 1.817 0 0 0-.611-.108m-7.31.099h-1.401v-1.195h-.866v1.195h-.799v.783h.799v1.797c0 .914.355 1.458 1.368 1.458.372 0 .8-.115 1.072-.305l-.247-.734a1.59 1.59 0 0 1-.758.223c-.428 0-.568-.264-.568-.659v-1.78H37.5v-.783zM24.691 42.46v-2.473c0-.931-.593-1.558-1.55-1.566-.503-.008-1.022.148-1.385.701-.272-.437-.7-.701-1.302-.701-.421 0-.832.124-1.154.585v-.486h-.858v3.94h.865v-2.184c0-.684.379-1.047.965-1.047.569 0 .857.371.857 1.039v2.192h.866v-2.184c0-.684.395-1.047.964-1.047.585 0 .865.371.865 1.039v2.192h.867z"></path><path fill="#F79410" d="M63.547 29.358v-.575h-.15l-.174.395-.173-.395h-.15v.575h.107v-.434l.162.375h.11l.162-.375v.435h.106zm-.952 0v-.477h.192v-.097h-.491v.097h.192v.477h.107z"></path><path fill="#FF5F00" d="M46.491 31.834H33.508V8.502h12.983v23.332z"></path><path fill="#EB001B" d="M34.34 20.166c0-4.733 2.216-8.949 5.667-11.666a14.773 14.773 0 0 0-9.17-3.173C22.642 5.327 16 11.971 16 20.166s6.642 14.839 14.837 14.839c3.461 0 6.646-1.186 9.17-3.173a14.813 14.813 0 0 1-5.667-11.666"></path><path fill="#F79E1B" d="M64 20.166c0 8.195-6.642 14.839-14.837 14.839a14.78 14.78 0 0 1-9.171-3.173c3.452-2.717 5.668-6.933 5.668-11.666S43.444 11.217 39.992 8.5a14.778 14.778 0 0 1 9.171-3.173C57.358 5.327 64 11.971 64 20.166"></path></svg><svg width="80" height="48" viewBox="0 0 80 48" id="paypal" x="720" y="432"><path fill="none" d="M4 0h72c2.2 0 4 1.8 4 4v40c0 2.2-1.8 4-4 4H4c-2.2 0-4-1.8-4-4V4c0-2.2 1.8-4 4-4z"></path><path fill="#253B80" d="M31.5 19.8h-3.7c-.3 0-.5.2-.5.4l-1.5 9.5c0 .2.1.4.3.4h1.8c.3 0 .5-.2.5-.4l.4-2.6c0-.3.3-.4.5-.4h1.2c2.4 0 3.9-1.2 4.2-3.5.2-1 0-1.8-.5-2.4-.5-.7-1.5-1-2.7-1m.4 3.5c-.2 1.3-1.2 1.3-2.2 1.3h-.6l.4-2.5c0-.2.2-.3.3-.3h.3c.7 0 1.3 0 1.6.4.2.3.3.6.2 1.1M42.6 23.2h-1.8c-.2 0-.3.1-.3.3l-.1.5-.1-.2c-.4-.6-1.2-.7-2.1-.7-2 0-3.6 1.5-4 3.6-.2 1 .1 2 .7 2.7.5.6 1.3.9 2.2.9 1.6 0 2.5-1 2.5-1l-.1.5c0 .2.1.4.3.4h1.6c.3 0 .5-.2.5-.4l1-6.1c0-.3-.1-.5-.3-.5m-2.5 3.5c-.2 1-1 1.7-2 1.7-.5 0-.9-.2-1.2-.5-.3-.3-.4-.8-.3-1.2.2-1 1-1.7 2-1.7.5 0 .9.2 1.2.5.3.3.4.7.3 1.2M52 23.2h-1.8c-.2 0-.3.1-.4.2L47.3 27l-1-3.5c-.1-.2-.3-.4-.5-.4H44c-.2 0-.4.2-.3.4l2 5.8-1.8 2.7c-.1.2 0 .5.3.5H46c.2 0 .3-.1.4-.2l5.9-8.6c.1-.2 0-.5-.3-.5"></path><path fill="#179BD7" d="M58 19.8h-3.7c-.3 0-.5.2-.5.4l-1.5 9.5c0 .2.1.4.3.4h1.9c.2 0 .3-.1.4-.3l.4-2.7c0-.3.3-.4.5-.4H57c2.4 0 3.9-1.2 4.2-3.5.2-1 0-1.8-.5-2.4-.6-.7-1.5-1-2.7-1m.4 3.5c-.2 1.3-1.2 1.3-2.2 1.3h-.6l.4-2.5c0-.2.2-.3.3-.3h.3c.7 0 1.3 0 1.6.4.2.3.3.6.2 1.1M69.1 23.2h-1.8c-.2 0-.3.1-.3.3l-.1.5-.1-.2c-.4-.6-1.2-.7-2.1-.7-2 0-3.6 1.5-4 3.6-.2 1 .1 2 .7 2.7.5.6 1.3.9 2.2.9 1.6 0 2.5-1 2.5-1l-.1.5c0 .2.1.4.3.4h1.6c.3 0 .5-.2.5-.4l1-6.1c0-.3-.2-.5-.3-.5m-2.5 3.5c-.2 1-1 1.7-2 1.7-.5 0-.9-.2-1.2-.5-.3-.3-.4-.8-.3-1.2.2-1 1-1.7 2-1.7.5 0 .9.2 1.2.5.2.3.4.7.3 1.2M71.2 20.1l-1.5 9.7c0 .2.1.4.3.4h1.5c.3 0 .5-.2.5-.4l1.5-9.5c0-.2-.1-.4-.3-.4h-1.7c-.2-.1-.3 0-.3.2"></path><path fill="#253B80" d="M10.3 32l.3-1.8H7l2.1-13.3s0-.1.1-.1H14.4c1.7 0 2.9.4 3.5 1 .3.3.5.7.6 1 .1.4.1.9 0 1.4v.4l.3.2c.2.1.4.3.6.4.2.3.4.6.5 1.1.1.4 0 .9-.1 1.5-.1.7-.3 1.3-.6 1.7-.3.4-.6.8-1 1.1-.4.3-.8.5-1.3.6-.5.1-1.1.2-1.7.2h-.4c-.3 0-.6.1-.8.3-.2.2-.4.4-.4.7v.2l-.5 3.2v.2H10.3z"></path><path fill="#179BD7" d="M18.9 20.3c0 .1 0 .2-.1.3-.7 3.4-3 4.6-5.9 4.6h-1.5c-.4 0-.7.3-.7.6l-.7 4.9-.2 1.4c0 .2.1.4.4.4h2.6c.3 0 .6-.2.6-.5v-.1l.5-3.2v-.2c0-.3.3-.5.6-.5h.5c2.6 0 4.6-1 5.2-4.1.2-1.3.1-2.3-.5-3.1-.3-.2-.5-.3-.8-.5"></path><path fill="#222D65" d="M18.2 20h-.3c-.1 0-.2 0-.3-.1-.4-.1-.8-.1-1.3-.1h-4c-.1 0-.2 0-.3.1-.2.1-.3.3-.4.5l-.8 5.4v.2c.1-.4.4-.6.7-.6H13c2.9 0 5.2-1.2 5.9-4.6 0-.1 0-.2.1-.3-.2-.1-.4-.2-.6-.2-.1-.2-.1-.3-.2-.3"></path><path fill="#253B80" d="M11.6 20.3c0-.2.2-.4.4-.5.1 0 .2-.1.3-.1h4c.5 0 .9 0 1.3.1.1 0 .2 0 .3.1.1 0 .2.1.3.1h.2c.2.1.4.1.6.2.2-1.3 0-2.1-.7-2.9-.8-.9-2.1-1.2-3.9-1.2H9.2c-.4 0-.7.3-.7.6L6.4 30.2c0 .3.2.5.4.5H10l.8-5 .8-5.4z"></path></svg><svg width="80" height="48" viewBox="0 0 80 48" id="visa" x="800" y="480"><path fill="#26337A" d="M0 3.2C0 1.4 1.4 0 3.2 0h73.6C78.6 0 80 1.4 80 3.2v41.6c0 1.8-1.4 3.2-3.2 3.2H3.2C1.4 48 0 46.6 0 44.8V3.2z"></path><path fill="#FFF" d="M33.2 31.6l2.5-15.2h3.9l-2.5 15.2h-3.9M51.4 16.8c-.8-.3-2-.6-3.5-.6-3.9 0-6.6 2.1-6.6 5 0 2.2 2 3.4 3.4 4.1 1.5.7 2 1.2 2 1.9 0 1-1.2 1.5-2.4 1.5-1.6 0-2.4-.2-3.7-.8l-.5-.2-.5 3.4c.9.4 2.6.8 4.4.8 4.1 0 6.8-2 6.8-5.2 0-1.7-1-3.1-3.3-4.1-1.4-.7-2.2-1.2-2.2-1.9 0-.6.7-1.3 2.3-1.3 1.3 0 2.2.3 2.9.6l.4.2.5-3.4M56.6 26.2c.3-.9 1.6-4.3 1.6-4.3l.5-1.5.3 1.3s.8 3.6.9 4.4h-3.3v.1zm4.9-9.8h-3c-.9 0-1.6.3-2.1 1.3l-5.8 14h4.1s.7-1.9.8-2.3h5c.1.5.5 2.3.5 2.3h3.6l-3.1-15.3zM29.9 16.4L26 26.8l-.4-2.1c-.7-2.4-2.9-5.1-5.4-6.4l3.5 13.3h4.2l6.2-15.2h-4.2"></path><path fill="#EC982D" d="M22.5 16.4h-6.3l-.1.3c4.9 1.3 8.2 4.3 9.6 8l-1.4-7c-.3-1-1-1.3-1.8-1.3"></path></svg></svg>