<svg version="1.2" xmlns="http://www.w3.org/2000/svg" viewBox="0 0 576 576" width="576" height="576">
	<title>social-icons-svg</title>
	<defs>
		<radialGradient id="g1" cx="0" cy="0" r="1" gradientUnits="userSpaceOnUse" gradientTransform="matrix(63.145,0,0,-63.131,187.067,239.005)">
			<stop offset="0" stop-color="#ffdd55"/>
			<stop offset=".1" stop-color="#ffdd55"/>
			<stop offset=".5" stop-color="#ff543e"/>
			<stop offset="1" stop-color="#c837ab"/>
		</radialGradient>
		<radialGradient id="g2" cx="0" cy="0" r="1" gradientUnits="userSpaceOnUse" gradientTransform="matrix(35.906,0,0,-35.898,191.8,190.644)">
			<stop offset="0" stop-color="#3771c8"/>
			<stop offset=".13" stop-color="#3771c8"/>
			<stop offset="1" stop-color="#6600ff" stop-opacity="0"/>
		</radialGradient>
	</defs>
	<style>
		.s0 { fill: #1450a0 } 
		.s1 { fill: #ffffff } 
		.s2 { fill: #33599d } 
		.s3 { fill: #fefefe } 
		.s4 { fill: #4285f4 } 
		.s5 { fill: #34a853 } 
		.s6 { fill: #fbbc05 } 
		.s7 { fill: #ea4335 } 
		.s8 { fill: url(#g1) } 
		.s9 { fill: url(#g2) } 
		.s10 { fill: #bd081c } 
		.s11 { fill: #000000 } 
		.s12 { fill: #25d366 } 
		.s13 { fill: #fc0018 } 
	</style>
	<g id="email">
		<path id="Layer" class="s0" d="m56.2 7.8c10.1 10.1 10.7 38.2 0 48.5-10.4 10.1-38.3 10.3-48.5 0-10.2-10.3-10.1-38.1 0-48.5 10.4-10.6 38.4-10.2 48.5 0z"/>
		<path id="Layer" fill-rule="evenodd" class="s1" d="m52.2 20.9v22.2c0 1.8-1.5 3.1-3.1 3.1h-34c-1.8 0-3.1-1.5-3.1-3.1v-22c0-1.8 1.5-3.1 3.1-3.1h34c1.6 0 3 1.3 3.1 2.9zm-34.5 22.1h28.8l-8.8-8.9-1.3 1.5c-1.2 1-2.7 1.7-4.3 1.7-1.6 0-3.1-0.5-4.3-1.7l-1.3-1.5zm-2.6-20.2v18.4l9.2-9.2zm31.5-1.9h-29.1l12.5 12.4c0.5 0.6 1.3 0.9 2.1 0.9 0.8 0 1.6-0.4 2.1-0.9zm2.4 20.4v-18.5l-9.2 9.2z"/>
	</g>
	<g id="facebook">
		<path id="Layer" class="s2" d="m120.2 71.8c10.1 10.1 10.7 38.1 0 48.4-10.4 10-38.2 10.3-48.6 0-10.4-10.3-10.1-38 0-48.4 10.4-10.7 38.5-10.1 48.6 0z"/>
		<path id="Layer" class="s3" d="m105 128v-23.7h8l1.2-9.2h-9.2v-5.9c0-2.7 0.7-4.5 4.6-4.5h4.9v-8.2c-0.8-0.1-3.8-0.4-7.1-0.4-7.1 0-11.9 4.3-11.9 12.2v6.8h-8v9.2h8v23.7z"/>
	</g>
	<g id="googleplus">
		<path id="Layer" class="s1" d="m184.2 135.8c10.1 10.1 10.7 38.2 0 48.5-10.4 10.1-38.3 10.3-48.5 0-10.2-10.3-10.1-38.1 0-48.5 10.4-10.6 38.4-10.2 48.5 0z"/>
		<path id="Layer" class="s4" d="m179.3 160.4c0-1.5-0.1-2.8-0.4-4.1h-18.8v7.7h10.8c-0.4 2.5-1.9 4.7-4 6v5h6.4c3.8-3.3 6-8.5 6-14.6z"/>
		<path id="Layer" class="s5" d="m160.1 180c5.3 0 9.9-1.7 13.2-4.8l-6.4-5.1c-1.9 1.2-4.2 1.9-6.8 1.9-5.2 0-9.6-3.5-11.2-8.3h-6.7v5.2c3.3 6.5 10 11.1 17.9 11.1z"/>
		<path id="Layer" class="s6" d="m148.9 163.8c-0.4-1.2-0.7-2.5-0.7-3.9 0-1.4 0.3-2.5 0.7-3.9v-5h-6.7c-1.3 2.7-2.1 5.7-2.1 8.9 0 3.2 0.8 6.3 2.1 8.9z"/>
		<path id="Layer" class="s7" d="m160.1 148c2.9 0 5.6 1.1 7.6 2.9l5.7-5.7c-3.5-3.2-8-5.2-13.3-5.2-7.9 0-14.5 4.5-17.9 11.1l6.7 5.2c1.6-4.9 6-8.3 11.2-8.3z"/>
	</g>
	<g id="instagram">
		<path id="Layer" class="s8" d="m199.6 199.8c-4.9 5.2-7.6 14.7-7.6 24.2v0.2c0 9.5 2.5 19 7.6 24.1 10.3 10.3 38.1 10.1 48.6 0 10.7-10.3 10.1-38.4 0-48.5-10.1-10.1-38.3-10.7-48.6 0z"/>
		<path id="Layer" class="s9" d="m199.6 199.8c-4.9 5.2-7.6 14.7-7.6 24.2v0.2c0 9.5 2.5 19 7.6 24.1 5.1 5.1 14.7 7.7 24.3 7.7 9.5 0 19.1-2.7 24.3-7.6 10.7-10.3 10.1-38.4 0-48.5-10.1-10.1-38.3-10.8-48.6-0.1z"/>
		<path id="Layer" fill-rule="evenodd" class="s1" d="m232.8 202.9c1.8 0.1 3.5 0.4 5.2 1 2.8 1.1 5.1 3.3 6.2 6.2 0.6 1.7 1 3.4 1 5.2 0.1 2.3 0.1 3 0.1 8.8 0 5.8 0 6.5-0.1 8.8-0.1 1.8-0.4 3.5-1 5.2-1.1 2.8-3.3 5.1-6.2 6.2-1.7 0.6-3.4 1-5.2 1-2.3 0.1-3 0.1-8.8 0.1-5.8 0-6.5 0-8.8-0.1-1.8 0-3.5-0.4-5.2-1-1.4-0.6-2.7-1.4-3.8-2.5-1.1-1.1-2-2.4-2.5-3.8-0.6-1.7-1-3.4-1-5.2-0.1-2.3-0.1-3-0.1-8.8 0-5.8 0-6.5 0.1-8.8 0.1-1.8 0.4-3.5 1-5.2 1.2-2.8 3.4-5.1 6.3-6.2 1.7-0.6 3.4-1 5.2-1 2.3-0.1 3-0.1 8.8-0.1 5.8 0 6.5 0 8.8 0.2zm-17.4 3.7c-1.4 0-2.7 0.2-4 0.7-1.8 0.7-3.3 2.2-4 4-0.4 1.3-0.7 2.6-0.7 4-0.1 2.2-0.1 2.9-0.1 8.6 0 5.7 0 6.3 0.1 8.6 0 1.4 0.2 2.7 0.7 4 0.7 1.8 2.2 3.3 4 4 1.3 0.4 2.6 0.7 4 0.7 2.2 0.1 2.9 0.1 8.6 0.1 5.7 0 6.4 0 8.6-0.1 1.4 0 2.7-0.2 4-0.7 1.8-0.7 3.3-2.2 4-4 0.4-1.3 0.7-2.6 0.7-4 0.1-2.2 0.1-2.9 0.1-8.6 0-5.7 0-6.4-0.1-8.6 0-1.4-0.2-2.7-0.7-4-0.7-1.8-2.2-3.3-4-4-1.3-0.4-2.6-0.7-4-0.7-2.2-0.1-2.9-0.1-8.6-0.1h-1.9c-4.1 0-4.8 0-6.7 0.1zm22.6 6.1c0 1.5-1.2 2.6-2.6 2.6-1.5 0-2.6-1.2-2.6-2.6 0-1.5 1.2-2.6 2.6-2.6 1.4 0 2.6 1.1 2.6 2.6zm-3.1 11.4c0 6-5 10.9-11 10.9-6 0-10.9-4.9-10.9-11 0-6 4.9-10.9 11-10.9 6 0 10.9 4.9 10.9 11zm-18-0.1c0 4 3.2 7.1 7.1 7.1 3.9 0 7.1-3.2 7.1-7.1 0-3.9-3.2-7.1-7.1-7.1-3.9 0-7.1 3.2-7.1 7.1z"/>
	</g>
	<g id="pinterest">
		<path id="Layer" class="s10" d="m312.2 263.8c10.1 10.1 10.7 38.2 0 48.6-10.4 10-38.2 10.3-48.6 0-10.4-10.3-10.1-38.1 0-48.6 10.4-10.7 38.5-10.1 48.6 0z"/>
		<path id="Layer" class="s1" d="m276.3 318.7c-0.3-2.5-0.5-6.4 0.1-9.2 0.6-2.5 3.8-15.9 3.8-15.9 0 0-1-1.9-1-4.8 0-4.4 2.6-7.8 5.8-7.8 2.7 0 4 2 4 4.5 0 2.7-1.7 6.8-2.6 10.7-0.8 3.2 1.6 5.8 4.7 5.8 5.7 0 10.1-6 10.1-14.7 0-7.7-5.5-13-13.4-13-9.1 0-14.4 6.8-14.4 13.9 0 2.7 1.1 5.7 2.4 7.3 0.3 0.3 0.3 0.6 0.2 0.9-0.2 1-0.8 3.2-0.9 3.6-0.1 0.6-0.5 0.7-1.1 0.4-4-1.9-6.5-7.7-6.5-12.4 0-10.1 7.3-19.4 21.1-19.4 11.1 0 19.7 7.9 19.7 18.5 0 11-7 19.9-16.6 19.9-3.2 0-6.3-1.7-7.3-3.7 0 0-1.6 6.1-2 7.6-0.7 2.8-2.7 6.3-4 8.4-0.7 0-1.7-0.4-2.1-0.6z"/>
	</g>
	<g id="twitter">
		<path id="Layer" fill-rule="evenodd" class="s11" d="m365.5 331.1h6.9l-15.1 17.2 17.7 23.5h-13.8l-10.9-14.2-12.5 14.2h-6.9l16.1-18.5-17-22.3 14.3 0.1 9.8 12.9zm-2.4 36.6h3.7l-24.6-32.6h-4.2z"/>
	</g>
	<g id="whatsapp">
		<path id="Layer" fill-rule="evenodd" class="s12" d="m448 415.7c0 17.5-14.3 31.8-31.9 31.8v-0.1q-2 0.1-3.9-0.2-2-0.2-3.9-0.7-2-0.5-3.8-1.2-1.9-0.8-3.6-1.7l-16.9 4.4 4.5-16.4q-1-1.8-1.8-3.8-0.8-1.9-1.4-3.9-0.5-2-0.8-4-0.2-2.1-0.2-4.2c0-17.5 14.3-31.7 31.8-31.7 8.6 0 16.6 3.3 22.6 9.3 6 6 9.3 14 9.3 22.4zm-5.4 0c0-7-2.7-13.6-7.7-18.6-5-5-11.7-7.7-18.8-7.7-14.6 0-26.4 11.8-26.5 26.3q0 1.9 0.3 3.7 0.3 1.8 0.8 3.6 0.5 1.8 1.2 3.5 0.8 1.7 1.8 3.2l0.6 1-2.6 9.8 10-2.7 0.9 0.6q1.6 0.9 3.2 1.6 1.6 0.7 3.3 1.2 1.7 0.4 3.5 0.7 1.8 0.2 3.5 0.2c14.6 0 26.5-11.8 26.5-26.4zm-10.4 7.6c0.2 0.3 0.2 1.9-0.5 3.7-0.6 1.9-3.8 3.6-5.4 3.8-1.3 0.2-3.1 0.3-5-0.3q-0.5-0.2-1.1-0.4-0.6-0.2-1.2-0.4-0.5-0.2-1.1-0.4-0.5-0.2-1.1-0.5c-8-3.4-13.2-11.4-13.6-11.9-0.4-0.6-3.3-4.3-3.3-8.2 0-3.9 2.1-5.8 2.8-6.6 0.8-0.8 1.6-1 2.2-1q0.1 0 0.3 0 0.2 0 0.4 0 0.2 0 0.4 0 0.2 0 0.4 0c0.5 0 1.1-0.2 1.8 1.4 0.6 1.5 2.2 5.4 2.4 5.8 0.2 0.4 0.4 0.9 0.1 1.4-0.3 0.6-0.4 0.9-0.8 1.3-0.4 0.5-0.8 1.1-1.2 1.4-0.4 0.4-0.8 0.9-0.3 1.7 0.4 0.7 2 3.3 4.4 5.4 3 2.7 5.6 3.6 6.4 4 0.8 0.4 1.2 0.3 1.7-0.2 0.5-0.6 2-2.3 2.5-3.1 0.6-0.8 1.1-0.7 1.8-0.4 0.8 0.2 4.7 2.2 5.5 2.6 0.8 0.3 1.3 0.5 1.5 0.9z"/>
	</g>
	<g id="whatsapp-white">
		<path id="Layer" fill-rule="evenodd" class="s1" d="m512 479.7c0 17.5-14.3 31.8-31.9 31.8v-0.1q-2 0.1-3.9-0.2-2-0.2-3.9-0.7-2-0.5-3.8-1.2-1.9-0.8-3.6-1.7l-16.9 4.4 4.5-16.4q-1-1.8-1.8-3.8-0.8-1.9-1.4-3.9-0.5-2-0.8-4-0.2-2.1-0.2-4.2c0-17.5 14.3-31.7 31.8-31.7 8.6 0 16.6 3.3 22.6 9.3 6 6 9.3 14 9.3 22.4zm-5.4 0c0-7-2.7-13.6-7.7-18.6-5-5-11.7-7.7-18.8-7.7-14.6 0-26.4 11.8-26.5 26.3q0 1.9 0.3 3.7 0.3 1.8 0.8 3.6 0.5 1.8 1.2 3.5 0.8 1.7 1.8 3.2l0.6 1-2.6 9.8 10-2.7 0.9 0.6q1.6 0.9 3.2 1.6 1.6 0.7 3.3 1.2 1.7 0.4 3.5 0.7 1.8 0.2 3.5 0.2c14.6 0 26.5-11.8 26.5-26.4zm-10.4 7.6c0.2 0.3 0.2 1.9-0.5 3.7-0.6 1.9-3.8 3.6-5.4 3.8-1.3 0.2-3.1 0.3-5-0.3q-0.5-0.2-1.1-0.4-0.6-0.2-1.2-0.4-0.5-0.2-1.1-0.4-0.5-0.2-1.1-0.5c-8-3.4-13.2-11.4-13.6-11.9-0.4-0.6-3.3-4.3-3.3-8.2 0-3.9 2.1-5.8 2.8-6.6 0.8-0.8 1.6-1 2.2-1q0.1 0 0.3 0 0.2 0 0.4 0 0.2 0 0.4 0 0.2 0 0.4 0c0.5 0 1.1-0.2 1.8 1.4 0.6 1.5 2.2 5.4 2.4 5.8 0.2 0.4 0.4 0.9 0.1 1.4-0.3 0.6-0.4 0.9-0.8 1.3-0.4 0.5-0.8 1.1-1.2 1.4-0.4 0.4-0.8 0.9-0.3 1.7 0.4 0.7 2 3.3 4.4 5.4 3 2.7 5.6 3.6 6.4 4 0.8 0.4 1.2 0.3 1.7-0.2 0.5-0.6 2-2.3 2.5-3.1 0.6-0.8 1.1-0.7 1.8-0.4 0.8 0.2 4.7 2.2 5.5 2.6 0.8 0.3 1.3 0.5 1.5 0.9z"/>
	</g>
	<g id="youtube">
		<path id="Layer" class="s13" d="m568.2 519.8c10.1 10.1 10.7 38.2 0 48.5-10.4 10.1-38.3 10.3-48.5 0-10.2-10.3-10.1-38.1 0-48.5 10.4-10.6 38.4-10.2 48.5 0z"/>
		<path id="Layer" class="s1" d="m565.1 533.4c-0.5-1.9-2-3.3-3.9-3.9-3.5-0.8-17.2-0.8-17.2-0.8 0 0-13.5 0-16.9 0.8-2 0.5-3.6 2-4.3 3.9-0.6 3.5-0.9 7-0.8 10.5-0.1 3.5 0.2 7.1 0.8 10.5 0.7 1.9 2.3 3.4 4.3 3.9 3.5 0.9 16.9 0.8 16.9 0.8 0 0 13.5 0 16.9-0.8 1.9-0.5 3.5-2 4.1-3.9 0.6-3.5 1-7 0.9-10.5 0.2-3.5-0.1-7-0.8-10.5z"/>
		<path id="Layer" class="s13" d="m539.9 550.8l11-6.8-11-6.8z"/>
	</g>
</svg>