<svg xmlns="http://www.w3.org/2000/svg" xmlns:xlink="http://www.w3.org/1999/xlink" width="3289" height="3136" viewBox="0 0 3289 3136"><svg width="64" height="64" viewBox="0 0 64 64" id="apple" x="0" y="0"><path d="M56.2 46.8c-.9 2.1-2 4-3.2 5.8-1.7 2.4-3.1 4.1-4.2 5-1.7 1.5-3.4 2.3-5.3 2.4-1.4 0-3-.4-4.9-1.2-1.9-.8-3.7-1.2-5.3-1.2-1.7 0-3.5.4-5.5 1.2-1.9.8-3.5 1.2-4.7 1.2-1.8.1-3.6-.7-5.5-2.4-1.2-1-2.6-2.7-4.3-5.2-1.9-2.6-3.4-5.7-4.6-9.1-1.3-3.7-1.9-7.4-1.9-10.9 0-4 .9-7.5 2.6-10.4 1.4-2.3 3.2-4.2 5.5-5.5s4.7-2 7.4-2.1c1.4 0 3.4.4 5.7 1.3 2.4.9 3.9 1.3 4.5 1.3.5 0 2.2-.5 5-1.6 2.7-1 5-1.4 6.8-1.2 5 .4 8.8 2.4 11.4 6-4.5 2.7-6.7 6.6-6.7 11.5 0 3.8 1.4 7 4.2 9.5 1.2 1.2 2.6 2.1 4.2 2.7-.5 1-.8 2-1.2 2.9zM44.6 1.2c0 3-1.1 5.8-3.3 8.4-2.6 3.1-5.8 4.9-9.3 4.6 0-.4-.1-.7-.1-1.1 0-2.9 1.3-6 3.5-8.5 1.1-1.3 2.5-2.3 4.2-3.2C41.4.5 43 .1 44.6 0v1.2z"></path></svg><svg width="64" height="64" viewBox="0 0 64 64" id="assembly" x="64" y="64"><path fill="#2AACE2" d="M10.7 62c-1.2 1.3-2.9 2-4.7 2-1.5 0-2.9-.6-4-1.5-2.5-2.3-2.7-6.3-.4-8.8l.2-.2 37.1-37.4C37.7 12.3 38.7 8 41.6 5l1.8-1.8C47-.2 52.4-1 56.8 1.4l1.5 1.1-7.2 7.2 2.9 3 7.2-7.3L62.4 7c2.4 4.4 1.7 9.8-1.8 13.5l-1.8 1.8c-2.9 2.9-7.2 3.9-11.2 2.7L10.7 62"></path><path fill="#1450A0" d="M62 52.2l-10.7-11c-.5-.5-.8-1.1-1.1-1.7l-.8-2.3c-.5-1.5-1.8-2.7-3.4-3-1.4-.3-2.8.1-3.9.9L21.3 14.2c-.3-1-1.4-4.2-1.8-5.6-.1-.5-.5-.9-.9-1.1C15.9 5.6 6 .1 6 .1L.2 5.8l6.7 11.9c.3.5.7.8 1.2 1l6.3 2.3 20.9 20.9c-.9 1.2-1.1 2.8-.6 4.2l.2.6c.5 1.5 1.8 2.7 3.4 3l1 .2c.9.2 1.7.6 2.3 1.3l10.6 10.6c2.7 2.7 7 2.7 9.7 0 2.7-2.7 2.8-6.9.1-9.6z"></path></svg><svg width="64" height="64" viewBox="0 0 64 64" id="assembly-off" x="128" y="128"><path fill="#DDD" d="M10.7 62c-1.2 1.3-2.9 2-4.7 2-1.5 0-2.9-.6-4-1.5-2.5-2.3-2.7-6.3-.4-8.8l.2-.2 37.1-37.4C37.7 12.3 38.7 8 41.6 5l1.8-1.8C47-.2 52.4-1 56.8 1.4l1.5 1.1-7.2 7.2 2.9 3 7.2-7.3L62.4 7c2.4 4.4 1.7 9.8-1.8 13.5l-1.8 1.8c-2.9 2.9-7.2 3.9-11.2 2.7L10.7 62"></path><path fill="#BFBFBF" d="M62 52.2l-10.7-11c-.5-.5-.8-1.1-1.1-1.7l-.8-2.3c-.5-1.5-1.8-2.7-3.4-3-1.4-.3-2.8.1-3.9.9L21.3 14.2c-.3-1-1.4-4.2-1.8-5.6-.1-.5-.5-.9-.9-1.1C15.9 5.6 6 .1 6 .1L.2 5.8l6.7 11.9c.3.5.7.8 1.2 1l6.3 2.3 20.9 20.9c-.9 1.2-1.1 2.8-.6 4.2l.2.6c.5 1.5 1.8 2.7 3.4 3l1 .2c.9.2 1.7.6 2.3 1.3l10.6 10.6c2.7 2.7 7 2.7 9.7 0 2.7-2.7 2.8-6.9.1-9.6z"></path></svg><svg width="64" height="64" viewBox="0 0 64 64" id="battery" x="192" y="192"><path fill="#2AACE2" d="M43.8 64H20.3c-3.3 0-6-2.7-6-6V14c0-3.3 2.7-6 6-6h23.5c3.3 0 6 2.7 6 6v44c0 3.3-2.8 6-6 6z"></path><path fill="#5E2D91" d="M43 6.1H21V4c0-2.2 1.8-4 4-4h14c2.2 0 4 1.8 4 4v2.1z"></path><path fill="#FED204" d="M29 35.1l-5.8 18.3L41 35.1h-6.2l5.7-11.6H29l-6 11.6z"></path></svg><svg id="blue-logo" width="160.736" height="64" viewBox="0 0 160.736 64" x="256" y="256"><style id="style843">.st9{fill:#96d4ff}</style><g transform="matrix(.32 0 0 .32 -2.112 -1.568)" id="Layer_2"><g id="g863"><g id="g849"><path class="st9" d="M106.6 4.9c-55.2 0-100 44.8-100 100s44.8 100 100 100 100-44.8 100-100-44.8-100-100-100zm0 192c-50.7 0-92-41.3-92-92s41.3-92 92-92 92 41.3 92 92-41.3 92-92 92z" id="path845"></path><path class="st9" d="M145.9 101.8c-.8-.8-1.6-1.6-2.5-2.3 2.8-4.4 4.5-9.5 4.5-15.1 0-15.4-12.5-27.9-27.9-27.9H66.6v96.7h57.7c16.7 0 30.2-13.5 30.2-30.2.1-8.2-3.2-15.7-8.6-21.2zm-21.5 43.5H74.6V64.6H120c10.9 0 19.9 8.9 19.9 19.9 0 3.8-1.1 7.5-3.2 10.7C125 89.1 109.1 86.9 99 91c-6.2 2.5-9.5 7.1-9.5 13s4.3 11 11.4 13.5c3 1 6.3 1.6 9.7 1.6 3.5 0 7.1-.5 10.6-1.6 6.6-2 12.7-5.8 17.9-11.1 4.8 4.2 7.6 10.3 7.6 16.7-.1 12.2-10.1 22.2-22.3 22.2zm7.8-43.5c-9.5 9.1-21.2 10.7-28.7 8.1-2.9-1-6-3.1-6-5.9 0-1.6.5-4 4.5-5.6 2.4-1 5.6-1.5 9.1-1.5 6.7.1 14.7 1.8 21.1 4.9z" id="path847"></path></g><g id="g861"><path class="st9" id="rect851" d="M344.9 56.6h8v96.7h-8z"></path><path class="st9" d="M414.9 153.3h-26c-8.8 0-16-7.2-16-16l-.1-48.4h8l.1 48.4c0 4.4 3.6 8 8 8h26c2.1 0 4.1-.8 5.7-2.3 1.5-1.5 2.3-3.5 2.3-5.7l-.1-48.3h8l.1 48.3c0 4.3-1.7 8.3-4.7 11.3s-7 4.7-11.3 4.7z" id="path853"></path><g id="g857"><path class="st9" d="M508.9 123.9v-19c0-8.8-7.2-16-16-16h-26c-8.8 0-16 7.2-16 16v32.4c0 8.8 7.2 16 16 16H496c4.6 0 9-2 12-5.5l-6-5.3c-1.5 1.7-3.7 2.7-6 2.7h-29.1c-4.4 0-8-3.6-8-8v-13.3zm-50-19c0-4.4 3.6-8 8-8h26c4.4 0 8 3.6 8 8v11h-42z" id="path855"></path></g><path class="st9" d="M316.2 101.8c-.8-.8-1.6-1.6-2.5-2.3 2.8-4.4 4.5-9.5 4.5-15.1 0-15.4-12.5-27.9-27.9-27.9h-53.4v96.7h57.7c16.7 0 30.2-13.5 30.2-30.2.1-8.2-3.3-15.7-8.6-21.2zm-21.6 43.5h-49.7V64.6h45.4c10.9 0 19.9 8.9 19.9 19.9 0 3.8-1.1 7.5-3.2 10.7-11.6-6.1-27.6-8.2-37.7-4.2-6.2 2.5-9.5 7.1-9.5 13s4.3 11 11.4 13.5c3 1 6.3 1.6 9.7 1.6 3.5 0 7.1-.5 10.6-1.6 6.6-2 12.7-5.8 17.9-11.1 4.8 4.2 7.6 10.3 7.6 16.7-.1 12.2-10.1 22.2-22.4 22.2zm7.9-43.5c-9.5 9.1-21.2 10.7-28.7 8.1-2.9-1-6-3.1-6-5.9 0-1.6.5-4 4.5-5.6 2.4-1 5.6-1.5 9.1-1.5 6.7.1 14.6 1.8 21.1 4.9z" id="path859"></path></g></g></g></svg><svg width="64" height="64" viewBox="0 0 64 64" id="book" x="417" y="320"><path fill="#1450A0" d="M15.3 64H9.1C6.9 64 5 62.2 5 60V4c0-2.2 1.9-4 4.1-4h6.2v64z"></path><path fill="#2AACE2" d="M19.3 62v-2.3H59V0H15.3v64H59v-2z"></path><path fill="#1450A0" d="M21.5 32.5h31.8v-18H21.5z"></path></svg><svg width="64" height="64" viewBox="0 0 64 64" id="boy" x="481" y="384"><path fill="#1450A0" d="M19.8 33c3.6 2.4 7.8 3.7 12.2 3.7 4.3 0 8.5-1.2 12.2-3.5v28.3c0 1.4-1.1 2.5-2.5 2.5H22.2c-1.4 0-2.5-1.1-2.5-2.5l.1-28.5z"></path><path fill="#5F2E8F" d="M51.5 17c0-8.9-6.6-12-9.4-10.1C42.4 3.2 37.9 0 32 0 21.4 0 12.5 8.4 12.5 17s8.9 4.9 19.5 4.9 19.5 4 19.5-4.9"></path><path fill="#F599B8" d="M13.5 17.1v.5c0 1.7.3 3.4.8 5 2.3 6.7 9.4 11.7 17.7 11.7s15.4-4.9 17.7-11.6c.5-1.7.8-3.4.8-5.2V17l-37 .1z"></path><path fill="#5F2E8F" d="M28.9 23.6c0 1.2-1 2.2-2.2 2.2-1.2 0-2.2-1-2.2-2.2 0-1.2 1-2.2 2.2-2.2 1.1-.1 2.1.7 2.2 1.8v.4M41 23.6c0 1.2-1 2.2-2.2 2.2-1.2 0-2.2-1-2.2-2.2 0-1.2 1-2.2 2.2-2.2 1.2-.1 2.1.8 2.2 2v.2"></path></svg><svg width="64" height="64" viewBox="0 0 64 64" id="calendar" x="545" y="448"><path fill="#2AACE2" d="M62.9 26.5v33.1c0 2.4-2 4.4-4.4 4.4h-53c-2.4 0-4.4-2-4.4-4.4V26.5h61.8z"></path><path fill="#BED731" d="M51.9 8.8h6.6c2.4 0 4.4 2 4.4 4.4v13.2H1.1V13.2c0-2.4 2-4.4 4.4-4.4h6.6v6.6c0 2.4 2 4.4 4.4 4.4s4.4-2 4.4-4.4V8.8H43v6.6c0 2.4 2 4.4 4.4 4.4s4.4-2 4.4-4.4V8.8z"></path><path fill="#1450A0" d="M16.6 0c1.2 0 2.2 1 2.2 2.2v13.2c0 1.2-1 2.2-2.2 2.2-1.2 0-2.2-1-2.2-2.2V2.2C14.3 1 15.3 0 16.6 0zM47.4 0c1.2 0 2.2 1 2.2 2.2v13.2c0 1.2-1 2.2-2.2 2.2s-2.2-1-2.2-2.2V2.2c0-1.2 1-2.2 2.2-2.2z"></path></svg><svg width="64" height="64" viewBox="0 0 64 64" id="cash" x="609" y="512"><path fill="#6DA10C" d="M59 44V18c0-1.1-.9-2-2-2H9v-6c0-1.1.9-2 2-2h51c1.1 0 2 .9 2 2v32c0 1.1-.9 2-2 2h-3z"></path><path fill="#BED731" d="M2 18h53c1.1 0 2 .9 2 2v34c0 1.1-.9 2-2 2H2c-1.1 0-2-.9-2-2V20c0-1.1.9-2 2-2z"></path><path fill="#6DA10C" d="M26.4 45.9c-1.2-.3-2.2-.8-3-1.4-.9-.7-1.4-1.9-.8-2.9.6-1 1.9-1.3 3-.8 2.3 1.2 4.8 1.6 4.9-.2.2-3.2-7.7-1.5-8.4-6.1-.6-4 1.9-5.6 3.8-6.2.2-.1.4-.1.6-.2v-1.2c0-1.1 1-2 2.2-2h.1c1.2 0 2.2 1 2.1 2.2v1c1 .3 1.9.8 2.6 1.3.9.7 1.4 1.9.8 2.9-.6 1-1.9 1.3-3 .8-2.3-1.2-4.6-1.6-4.9.2-.5 2.8 7.3.8 8.5 6.2.8 3.7-2 5.5-3.8 6.1-.1 0-.1 0-.2.1v1.2c0 1.2-.9 2.1-2.1 2.2h-.1c-1.2 0-2.1-.9-2.2-2l-.1-1.2z"></path></svg><svg viewBox="0 0 64 64" width="64" height="64" id="click-collect" x="673" y="576"><path fill="#B986EE" d="M59 41.6l-8-2.1V31c0-1.7-1.3-3-3-3H16c-1.7 0-3 1.3-3 3v28H5V20h.9c1.8 0 3.5-.8 4.7-2 1.2 1.2 2.9 2 4.7 2h1.2c1.8 0 3.5-.8 4.7-2 1.2 1.2 2.9 2 4.7 2h1.2c1.8 0 3.5-.8 4.7-2 1.2 1.2 2.9 2 4.7 2h1.2c1.8 0 3.5-.8 4.7-2 1.2 1.2 2.9 2 4.7 2h1.2c1.8 0 3.5-.8 4.7-2 1.2 1.2 2.9 2 4.7 2H59v21.6z"></path><path fill="#2AACE2" d="M33 30v29H15V32c0-1.1.9-2 2-2h16zm16 9l-7.2-1.9c-.6-.2-1.3-.2-1.9 0-2.1.5-3.3 2.6-2.8 4.7L41.6 59H33V30h14c1.1 0 2 .9 2 2v7z"></path><path fill="#1450A0" d="M2.2 5C1 5 0 6 0 7.2v6.3C0 16 2.1 18 4.7 18h1.2c2.6 0 4.7-2 4.7-4.6 0 2.5 2.1 4.6 4.7 4.6h1.2c2.6 0 4.7-2 4.7-4.6 0 2.5 2.1 4.6 4.7 4.6h1.2c2.6 0 4.7-2 4.7-4.6 0 2.5 2.1 4.6 4.7 4.6h1.2c2.6 0 4.7-2 4.7-4.6 0 2.5 2.1 4.6 4.7 4.6h1.2c2.6 0 4.7-2 4.7-4.6 0 2.5 2.1 4.6 4.7 4.6h1.2c2.6 0 4.7-2 4.7-4.6V7.2C64 6 63 5 61.8 5H2.2zM55.8 49.5l7.8 7.8c.6.6.6 1.5 0 2.1l-4.2 4.2c-.6.6-1.5.6-2.1 0l-7.8-7.8-1.9 5.1c-.4 1-1.4 1.5-2.4 1.1-.6-.2-1-.7-1.2-1.3l-5.1-19.4c-.3-1 .3-2 1.3-2.3.3-.1.6-.1.9 0l19.4 5.1c1 .3 1.6 1.3 1.3 2.3-.2.6-.6 1.1-1.2 1.3l-4.8 1.8z"></path></svg><svg viewBox="0 0 64 64" width="64" height="64" id="credit-card" x="737" y="640"><path fill="#2AACE2" d="M4 8h56c2.2 0 4 1.8 4 4v40c0 2.2-1.8 4-4 4H4c-2.2 0-4-1.8-4-4V12c0-2.2 1.8-4 4-4z"></path><path fill="#1450A0" d="M50 42.5h6c1.1 0 2 .9 2 2v1c0 1.1-.9 2-2 2h-6c-1.1 0-2-.9-2-2v-1c0-1.1.9-2 2-2zM36 42.5h6c1.1 0 2 .9 2 2v1c0 1.1-.9 2-2 2h-6c-1.1 0-2-.9-2-2v-1c0-1.1.9-2 2-2zM22 42.5h6c1.1 0 2 .9 2 2v1c0 1.1-.9 2-2 2h-6c-1.1 0-2-.9-2-2v-1c0-1.1.9-2 2-2zM8 42.5h6c1.1 0 2 .9 2 2v1c0 1.1-.9 2-2 2H8c-1.1 0-2-.9-2-2v-1c0-1.1.9-2 2-2z"></path><path fill="#EBEBEB" d="M0 19h64v10H0z"></path></svg><svg width="64" height="64" viewBox="0 0 64 64" id="delivery" x="801" y="704"><title>delivery</title><path fill="#2AACE2" d="M25.9 53.3l38-10.2-1.5-5.4-38.1 10.2L13.6 8.1l-1.5-5.4-10 2.7C.6 5.8-.3 7.3.1 8.8s1.9 2.4 3.4 2L8 9.6l10.7 39.8.2.7c3-.8 5.9.6 7 3.2"></path><path fill="#1450A0" d="M20.7 58.2c-1.4 0-2.5-1.1-2.6-2.5 0-1.1.7-2.2 1.8-2.5.2-.1.5-.1.7-.1 1.4 0 2.5 1.1 2.5 2.5.1 1.5-1 2.6-2.4 2.6m5.2-4.9c-1.2-2.9-4.6-4.3-7.5-3.1-2.9 1.2-4.3 4.6-3.1 7.5s4.6 4.3 7.5 3.1c2.1-.9 3.5-3 3.5-5.3.1-.7-.1-1.5-.4-2.2"></path><path fill="#FFF" d="M22.7 54.2c-.5-.6-1.2-1-2-1-.3 0-.5 0-.7.1-1.3.4-2.1 1.8-1.7 3.2.4 1.3 1.8 2.1 3.2 1.7 1.1-.3 1.8-1.3 1.8-2.4-.1-.6-.2-1.1-.6-1.6"></path><path fill="#F37023" d="M25.6 45.8l30.6-8.2-8.3-30.8-13 3.5 2 7.2-5.5 1.5-1.9-7.3L17.4 15z"></path><path fill="#FDDB00" d="M34.9 10.3l-5.4 1.4 5.4-1.4z"></path><path fill="#FED204" d="M36.9 17.5l-2-7.2-5.4 1.4 1.9 7.3z"></path></svg><svg width="64" height="64" viewBox="0 0 64 64" id="email" x="865" y="768"><title>CE0E6DFA-CF8A-4A06-9999-4B222BCE4F47</title><g fill="none" fill-rule="evenodd"><path d="M4 8h56a4 4 0 0 1 4 4v40a4 4 0 0 1-4 4H4a4 4 0 0 1-4-4V12a4 4 0 0 1 4-4z" fill="#BED731"></path><path d="M4 8h56.16a4 4 0 0 1 2.584 7.054l-28.08 23.76a4 4 0 0 1-5.167 0l-28.08-23.76A4 4 0 0 1 4 8z" fill="#2AACE2"></path></g></svg><svg width="64" height="64" viewBox="0 0 64 64" id="free-gift" x="929" y="832"><g fill="none" fill-rule="evenodd"><path fill="#FED204" d="M38.298 16H55a4 4 0 0 1 4 4v7h-2v32.765C57 62.104 55.21 64 53 64H11c-2.21 0-4-1.896-4-4.235V27H5v-7a4 4 0 0 1 4-4h16.695c-3.62-1.015-7.901-2.437-9.422-3.833-1.432-1.315-2.24-3.08-2.272-4.972-.032-1.89.715-3.68 2.102-5.038C17.522.766 19.427 0 21.468 0c1.95 0 3.795.709 5.195 1.993 2.008 1.845 4.229 8.274 5.333 11.8 1.106-3.526 3.326-9.955 5.337-11.8C38.735.709 40.579 0 42.528 0c2.043 0 3.948.766 5.37 2.157 1.386 1.357 2.133 3.148 2.101 5.038-.032 1.893-.84 3.657-2.274 4.972-1.521 1.396-5.804 2.818-9.427 3.833zm-2.85-2.437c3.624-.89 8.473-2.334 9.624-3.392a3.792 3.792 0 0 0 1.256-2.747 3.782 3.782 0 0 0-1.16-2.784 4.205 4.205 0 0 0-2.966-1.192 4.236 4.236 0 0 0-2.868 1.102c-1.151 1.058-2.832 5.605-3.886 9.013zM17.666 7.425a3.797 3.797 0 0 0 1.256 2.745c1.151 1.058 6 2.501 9.622 3.391-1.054-3.406-2.733-7.952-3.885-9.01a4.232 4.232 0 0 0-2.869-1.102c-1.127 0-2.18.424-2.962 1.192a3.789 3.789 0 0 0-1.162 2.784z"></path><path fill="#1450A0" d="M34.554 51.945a3.122 3.122 0 1 1-6.243 0 3.122 3.122 0 0 1 6.243 0zm-3.017-5.089a2.899 2.899 0 0 1-2.896-2.814l-.09-3.13c0-1.325 1.058-2.575 2.105-2.91 2.844-.912 5.6-2.779 4.445-4.833-1.155-2.055-3.741-1.52-6.506.487-1.296.94-3.098.701-4.058-.58-.96-1.28-.55-2.923.58-4.058 2.035-2.046 5.172-3.664 9.797-2.763 2.51.489 6.086 2.451 6.086 7.713 0 4.638-3.724 7.452-6.596 8.295l.032 1.61a2.899 2.899 0 0 1-2.9 2.983z"></path></g></svg><svg width="64" height="64" viewBox="0 0 64 64" id="free-gift-off" x="993" y="896"><g fill="none" fill-rule="evenodd"><path fill="#DDD" d="M38.298 16H55a4 4 0 0 1 4 4v7h-2v32.765C57 62.104 55.21 64 53 64H11c-2.21 0-4-1.896-4-4.235V27H5v-7a4 4 0 0 1 4-4h16.695c-3.62-1.015-7.901-2.437-9.422-3.833-1.432-1.315-2.24-3.08-2.272-4.972-.032-1.89.715-3.68 2.102-5.038C17.522.766 19.427 0 21.468 0c1.95 0 3.795.709 5.195 1.993 2.008 1.845 4.229 8.274 5.333 11.8 1.106-3.526 3.326-9.955 5.337-11.8C38.735.709 40.579 0 42.528 0c2.043 0 3.948.766 5.37 2.157 1.386 1.357 2.133 3.148 2.101 5.038-.032 1.893-.84 3.657-2.274 4.972-1.521 1.396-5.804 2.818-9.427 3.833zm-2.85-2.437c3.624-.89 8.473-2.334 9.624-3.392a3.792 3.792 0 0 0 1.256-2.747 3.782 3.782 0 0 0-1.16-2.784 4.205 4.205 0 0 0-2.966-1.192 4.236 4.236 0 0 0-2.868 1.102c-1.151 1.058-2.832 5.605-3.886 9.013zM17.666 7.425a3.797 3.797 0 0 0 1.256 2.745c1.151 1.058 6 2.501 9.622 3.391-1.054-3.406-2.733-7.952-3.885-9.01a4.232 4.232 0 0 0-2.869-1.102c-1.127 0-2.18.424-2.962 1.192a3.789 3.789 0 0 0-1.162 2.784z"></path><path fill="#FFF" d="M34.554 51.945a3.122 3.122 0 1 1-6.243 0 3.122 3.122 0 0 1 6.243 0zm-3.017-5.089a2.899 2.899 0 0 1-2.896-2.814l-.09-3.13c0-1.325 1.058-2.575 2.105-2.91 2.844-.912 5.6-2.779 4.445-4.833-1.155-2.055-3.741-1.52-6.506.487-1.296.94-3.098.701-4.058-.58-.96-1.28-.55-2.923.58-4.058 2.035-2.046 5.172-3.664 9.797-2.763 2.51.489 6.086 2.451 6.086 7.713 0 4.638-3.724 7.452-6.596 8.295l.032 1.61a2.899 2.899 0 0 1-2.9 2.983z"></path></g></svg><svg width="64" height="64" viewBox="0 0 64 64" id="girl" x="1057" y="960"><title>girl</title><path fill="#EF5094" d="M55.1 63.5c1.3 0 1.9-1 1.2-2.1L40.9 34.7c-2.8 1.3-5.9 2-9 1.9-3.1 0-6.2-.6-9-1.9L7.5 61.4c-.7 1.2-.1 2.1 1.2 2.1h46.4z"></path><path fill="#F599B8" d="M13.7 17.4v.5c0 1.7.3 3.4.8 5 2.3 6.6 9.2 11.5 17.5 11.5S47.2 29.6 49.5 23c.5-1.6.8-3.4.8-5.1v-.5H13.7z"></path><path fill="#5F2E8F" d="M29 23.7c0 1.2-1 2.2-2.2 2.2s-2.2-1-2.2-2.2 1-2.2 2.2-2.2c1.2 0 2.2 1 2.2 2.2M40.9 23.7c0 1.2-1 2.2-2.2 2.2-1.2 0-2.2-1-2.2-2.2s1-2.2 2.2-2.2c1.2 0 2.2 1 2.2 2.2"></path><path fill="#5F2E8F" d="M62.4 25.2c-2-2.5-6-4.1-7.8-3.8.1-.3.1-.6.2-.9 0-1.8-1.5-3.2-3.2-3.2h-.2C50.9 8.2 42.4.5 32 .5S13.1 8.2 12.8 17.2h-.1c-1.8 0-3.2 1.5-3.2 3.2 0 .3.1.6.2.9-1.8-.3-6 1.3-7.9 3.8C-.5 28 .2 33 .7 33.5c.5.4 6.1.1 8.4-2.8 1.6-2.2 2.3-5 2-7.7.5.4 1.2.6 1.8.6.7 0 1.4-.2 1.9-.6-.5-1.6-.8-3.3-.8-5v-.7h36.5v.7c0 1.6-.3 3.3-.8 4.8.6.5 1.3.7 2 .8.6 0 1.2-.2 1.7-.5-.3 2.7.5 5.4 2 7.6 2.3 2.9 7.9 3.3 8.4 2.8s.9-5.4-1.4-8.3"></path></svg><svg viewBox="0 0 64 64" width="64" height="64" id="heart" x="1121" y="1024"><path fill="#de004d" d="M31.5 10.7C24.6 3.4 0 2.1 0 25c0 19.7 31.5 34.7 31.5 34.7S63 44.7 63 25C63 2.1 38.4 3.4 31.5 10.7z"></path></svg><svg viewBox="0 0 64 64" width="64" height="64" id="info" x="1185" y="1088"><path fill="#BED731" d="M29.4 5.9L.4 56.1c-1.2 2 .3 4.5 2.6 4.5h58c2.3 0 3.8-2.5 2.6-4.5l-29-50.2c-1.2-2-4-2-5.2 0z"></path><path fill="#FFF" d="M29.2 38.6c0-1.6 1.2-2.6 2.8-2.6s2.8 1 2.8 2.6V48c0 1.5-1.3 2.6-2.8 2.6s-3-1-3-2.6l.2-9.4zM29 31c0-1.6 1.4-3 3-3s3 1.3 3 3-1.4 3-3 3-3-1.3-3-3"></path></svg><svg viewBox="0 0 64 64" width="64" height="64" id="info-error" x="1249" y="1152"><circle fill="#DE004D" cx="32" cy="32" r="32"></circle><path fill="#FFF" d="M29.2 20.6c0-1.6 1.2-2.6 2.8-2.6s2.8 1 2.8 2.6v14.7c0 1.5-1.3 2.6-2.8 2.6s-2.8-1-2.8-2.6V20.6zM29 43c0-1.6 1.4-3 3-3s3 1.3 3 3-1.4 3-3 3-3-1.3-3-3"></path></svg><svg viewBox="0 0 64 64" width="64" height="64" id="info-warning" x="1313" y="1216"><circle fill="#FFCC4D" cx="32" cy="32" r="32"></circle><path d="M29.2 32.2c0-1.6 1.2-2.6 2.8-2.6s2.8 1 2.8 2.6v9.4c0 1.5-1.3 2.6-2.8 2.6s-3-1-3-2.6l.2-9.4zM29 22.9c0-1.6 1.4-3 3-3s3 1.3 3 3-1.4 3-3 3-3-1.3-3-3"></path></svg><svg width="64" height="64" viewBox="0 0 64 64" id="lorry" x="1377" y="1280"><g fill="none" fill-rule="evenodd" transform="translate(0 8)"><path fill="#45CAB9" d="M24 42a9 9 0 0 0-18 0H2a2 2 0 0 1-2-2V2a2 2 0 0 1 2-2h35a2 2 0 0 1 2 2v38a2 2 0 0 1-2 2H24z"></path><path fill="#B986EE" d="M61 42a9 9 0 0 0-18 0 2 2 0 0 1-2-2V11a2 2 0 0 1 2-2h8.523a2 2 0 0 1 1.911 1.412l3.467 11.265a1 1 0 0 0 .374.52l5.887 4.205A2 2 0 0 1 64 28.029V40a2 2 0 0 1-2 2h-1z"></path><circle cx="52" cy="42" r="7" fill="#2AACE2"></circle><circle cx="15" cy="42" r="7" fill="#2AACE2"></circle></g></svg><svg width="64" height="64" viewBox="0 0 64 64" id="mask" x="1441" y="1344"><path fill="#1450A0" d="M61.4 31.9L49 40.5c-1 .8-2.5 1.7-2.6 5.6-.1 1.6-.6 13-.6 14.5s-.7 5.9-5.6 1.5c0 0-8.2-7.3-9.4-8.4-1.9-2.1-4.9-2.7-7.5-1.6l-12.9 5.2s-7.8 3.2-4.9-3.9C8.4 46.7 10.3 41 11 39.2c.7-2.2.2-4.7-1.2-6.5-.7-.9-6.9-9.2-8.2-11.2 0 0-5.1-6.1 3.4-5.7 0 0 14.5.3 14.7.4 2 0 3.9-1.1 4.9-2.9C27 9.6 34 .7 32.5 2.6c1.2-1.6 4.1-5.4 5.9 1 0 0 2.6 8.4 3.9 12 .9 2.4 1.4 4.1 5.7 5.4l13.3 4.9c-.2-.1 5.9 1.9.1 6"></path></svg><svg width="120" height="64" viewBox="0 0 120 64" id="norton" x="1505" y="1408"><path fill="#FFF" d="M22.488 9.809c-10.145 0-18.4 8.254-18.4 18.4 0 10.146 8.254 18.4 18.4 18.4h76.693c10.145 0 18.399-8.255 18.399-18.4 0-10.146-8.255-18.4-18.399-18.4H22.488z"></path><path fill="#C7C8CA" d="M99.181 48.177H22.488c-11.01 0-19.967-8.958-19.967-19.968S11.479 8.242 22.488 8.242h76.693c11.01 0 19.967 8.957 19.967 19.967s-8.957 19.968-19.967 19.968M22.488 9.809c-10.145 0-18.4 8.254-18.4 18.4 0 10.146 8.254 18.4 18.4 18.4h76.693c10.145 0 18.399-8.255 18.399-18.4 0-10.146-8.255-18.4-18.399-18.4H22.488z"></path><path d="M89.982 17.035a5.393 5.393 0 1 0 .003 10.785 5.393 5.393 0 0 0-.003-10.785m0 8.159a2.767 2.767 0 1 1 0-5.534 2.767 2.767 0 0 1 0 5.534M65.253 17.035a5.393 5.393 0 1 0 .003 10.785 5.393 5.393 0 0 0-.003-10.785m0 8.159a2.766 2.766 0 1 1 .001-5.531 2.766 2.766 0 0 1-.001 5.531"></path><path d="M84.243 25.344c-.341.099-.862.197-1.061.197-.921 0-1.122-.318-1.122-1.2V19.36h2.205v-2.082H82.06v-2.943h-2.48l-.521 2.943H77.33v.002h-.14c-1.413.007-2.479.869-3.162 2.219l-.862-2.221h-1.779v10.346h3.04v-4.501c0-2.269 1.341-3.718 2.929-3.763h1.663v5.143c0 2.421 1.241 3.321 3.262 3.321 1.043 0 1.842-.22 2.322-.379l-.36-2.101zM99.057 20.552v7.072h-2.955V17.278h1.793l.601 1.581"></path><path d="M98.483 18.869c.899-1.043 2.128-1.832 3.568-1.832 2.462 0 3.475 1.963 3.475 3.783v6.805h-3.043v-6.717c0-.887-.738-1.368-1.539-1.368-.852 0-1.4.488-1.882 1.009M48.004 13.534h3.387l4.652 8.86v-8.86h2.806v14.092H55.78l-4.969-9.742v9.742h-2.807z"></path><path fill="#A7A9AC" d="M114.504 8.242v.505h-.738v2.482h-.576V8.747h-.725v-.505zM114.918 11.229V8.242h.779l.518 1.956.526-1.956h.788v2.987h-.475V8.892h-.014l-.603 2.337h-.422l-.609-2.337h-.013v2.337zM47.158 40.115l.703-1.094a4.186 4.186 0 0 0 2.474.814c1.016 0 1.643-.46 1.643-1.26 0-.92-.793-1.163-2.095-1.616-1.168-.41-2.317-1-2.317-2.654 0-1.551 1.223-2.395 2.868-2.395 1.094 0 1.899.215 2.548.598l-.563 1.164a4.196 4.196 0 0 0-1.959-.475c-.917 0-1.466.346-1.466 1.073 0 .854.637 1.071 1.835 1.465 1.25.405 2.625.983 2.625 2.816 0 1.551-1.109 2.574-3.098 2.574-1.475-.002-2.559-.512-3.198-1.01M56.123 32.051h5.326v1.238h-3.811v2.444h3.01v1.211h-3.01v2.825h4.042v1.236h-5.557zM63.848 36.536c0-2.613 1.251-4.624 3.748-4.624 1.118 0 2.002.354 2.625 1.079l-.884 1.023c-.534-.523-.988-.779-1.716-.779-1.466 0-2.143 1.2-2.143 3.416 0 2.08.714 3.134 2.156 3.134.801 0 1.363-.421 1.857-.943l.892.994c-.649.766-1.462 1.288-2.762 1.288-2.575-.001-3.773-1.964-3.773-4.588M72.852 37.578v-5.527h1.527v5.774c0 1.231.305 2.037 1.604 2.037 1.288 0 1.607-.806 1.607-2.037v-5.774h1.542v5.527c0 2.219-.854 3.545-3.161 3.545-2.268 0-3.119-1.326-3.119-3.545M88.478 41.007h-1.657l-1.719-3.798h-1.415v3.798h-1.516v-8.956h2.921c1.808 0 3.22.649 3.22 2.611 0 1.339-.803 2.011-1.696 2.33l1.862 4.015zm-3.441-4.968c1.135 0 1.719-.369 1.719-1.403 0-.994-.596-1.349-1.63-1.349h-1.439v2.752h1.35zM91.071 32.051h5.325v1.238h-3.811v2.444h3.005v1.211h-3.005v2.825h4.039v1.236h-5.553zM99.185 32.051h2.236c2.919 0 4.322 1.58 4.322 4.445 0 2.919-1.428 4.511-4.245 4.511h-2.313v-8.956zm2.148 7.718c2.091 0 2.805-.965 2.805-3.273 0-2.026-.561-3.209-2.617-3.209h-.814v6.482h.626z"></path><path fill="#FFC20E" d="M22.397 49.753C10.518 49.753.852 40.087.852 28.208c0-11.879 9.666-21.543 21.545-21.543 11.877 0 21.541 9.664 21.543 21.543-.002 11.879-9.666 21.545-21.543 21.545m0-36.273a14.648 14.648 0 0 0-10.416 4.314 14.636 14.636 0 0 0-4.314 10.414c0 3.931 1.532 7.63 4.314 10.415a14.654 14.654 0 0 0 10.416 4.314 14.656 14.656 0 0 0 10.416-4.316 14.654 14.654 0 0 0 4.312-10.413 14.66 14.66 0 0 0-4.314-10.416 14.653 14.653 0 0 0-10.414-4.312M45.864 3.348h1.68v1.68h-1.68zM45.864 0h1.68v1.683h-1.68zM41.138 5.016h1.569v1.64h-1.569z"></path><path d="M38.028 8.236h1.582v1.569h-1.582zM42.706 6.656h1.759v1.58h-1.759zM36.453 6.733h1.575v1.503h-1.575zM41.138 8.236h1.569v1.569h-1.569zM44.202 1.683h1.662v1.665h-1.662zM41.138 3.348h3.064v1.668h-3.064zM39.61 5.016h1.527v3.22H39.61z"></path><path d="M39.611 9.805v1.581h-1.582V9.805h-2.625v1.139h-1.407v1.405h1.571v1.566h-1.571v-1.566h-1.67v2.456h-1.579v1.567h-1.047v1.574h-1.152c-1.294 1.925-4.538 7.924-5.517 10.366-3.535-4.918-6.279-6.868-8.44-7.573-1.165-.351-2.57.918-.634 2.916 4.447 4.89 5.847 8.939 7.199 12.169.715 1.703 3.92 1.968 4.564.233 1.369-3.665 3.353-7.784 5.703-11.166v-1.752h1.254v-1.581h1.319v-1.832h1.575V17.96h-1.593v-1.605h1.593v1.605h1.559l-.003-1.589h1.249v-1.918h1.407v-1.319h1.354v-3.33h-1.527z"></path><g fill="#A7A9AC"><path d="M6.109 57.139h1.18v.859c.38-.537.916-.966 1.745-.966 1.218 0 2.398.966 2.398 2.671v.019c0 1.707-1.17 2.671-2.398 2.671-.848 0-1.384-.428-1.745-.906v2.36h-1.18v-6.708zm4.124 2.583v-.019c0-.994-.673-1.647-1.472-1.647s-1.501.663-1.501 1.647v.019c0 .994.702 1.649 1.501 1.649.808 0 1.472-.635 1.472-1.649M12.392 59.742v-.02c0-1.471 1.17-2.69 2.749-2.69 1.579 0 2.739 1.199 2.739 2.671v.019c0 1.463-1.17 2.681-2.758 2.681-1.569 0-2.73-1.198-2.73-2.661m4.31 0v-.02c0-.906-.653-1.657-1.579-1.657-.946 0-1.55.741-1.55 1.637v.019c0 .897.653 1.658 1.569 1.658.955.001 1.56-.75 1.56-1.637M18.45 57.139h1.21l1.032 3.53 1.141-3.549h1.004l1.15 3.549 1.053-3.53h1.179l-1.686 5.186H23.48l-1.15-3.519-1.16 3.519h-1.052zM26.825 59.732v-.02c0-1.472 1.044-2.681 2.515-2.681 1.638 0 2.466 1.287 2.466 2.769 0 .107-.01.214-.019.331h-3.783c.127.838.721 1.306 1.481 1.306.575 0 .985-.214 1.394-.614l.692.614c-.487.585-1.16.965-2.105.965-1.49.001-2.641-1.082-2.641-2.67m3.812-.38c-.078-.76-.526-1.354-1.306-1.354-.722 0-1.228.556-1.335 1.354h2.641zM33.035 57.139h1.18v1.16c.321-.769.916-1.295 1.822-1.257v1.248h-.067c-1.034 0-1.755.673-1.755 2.038v1.959h-1.18v-5.148zM36.722 59.732v-.02c0-1.472 1.044-2.681 2.516-2.681 1.638 0 2.466 1.287 2.466 2.769 0 .107-.01.214-.019.331h-3.783c.127.838.722 1.306 1.481 1.306.576 0 .985-.214 1.394-.614l.692.614c-.488.585-1.16.965-2.105.965-1.491.001-2.642-1.082-2.642-2.67m3.812-.38c-.078-.76-.526-1.354-1.306-1.354-.722 0-1.228.556-1.335 1.354h2.641zM42.661 59.722v-.019c0-1.705 1.16-2.671 2.388-2.671.848 0 1.384.429 1.755.906V55.17h1.18v7.117h-1.18v-.858c-.38.536-.916.964-1.755.964-1.209 0-2.388-.965-2.388-2.671m4.163 0v-.019c0-.994-.702-1.647-1.492-1.647-.809 0-1.481.624-1.481 1.647v.019c0 .994.682 1.649 1.481 1.649.79 0 1.492-.664 1.492-1.649M53.555 61.486v.8h-1.18V55.17h1.18v2.828c.38-.537.916-.966 1.745-.966 1.218 0 2.398.966 2.398 2.671v.019c0 1.707-1.17 2.671-2.398 2.671-.848 0-1.384-.429-1.745-.907m2.944-1.764v-.019c0-.994-.673-1.647-1.472-1.647-.8 0-1.501.663-1.501 1.647v.019c0 .994.702 1.649 1.501 1.649.809 0 1.472-.635 1.472-1.649M58.502 63.563l.399-.877c.215.118.448.195.692.195.332 0 .536-.147.731-.595l-2.144-5.148h1.257l1.463 3.821 1.336-3.821h1.228l-2.047 5.294c-.409 1.053-.867 1.443-1.696 1.443a2.394 2.394 0 0 1-1.219-.312"></path></g><g fill="#010101"><path d="M68.941 62.251c-1.557 0-2.553-.497-3.008-.79l-.042-.036.032-.044.646-.852.042-.044.053.036a4.348 4.348 0 0 0 2.256.621c.921 0 1.462-.337 1.462-.923 0-.648-.625-.826-1.758-1.163l-.138-.044c-1.144-.328-2.192-.817-2.192-2.113 0-1.163 1.07-1.918 2.722-1.918.974 0 1.737.151 2.394.471l.053.027-.032.044-.519.897-.021.053-.064-.027a4.493 4.493 0 0 0-1.79-.364c-.583 0-1.292.133-1.292.781 0 .63.551.781 1.652 1.092 1.197.328 2.478.799 2.478 2.237 0 1.287-1.102 2.059-2.934 2.059M73.051 64c-.286 0-.551-.027-.868-.089l-.064-.009.011-.053.148-.843.011-.053h.064l.095.009c.159.018.275.027.445.027.583 0 .953-.178 1.197-.595l-2.171-5.335-.032-.071h1.61l.021.036 1.26 3.773 1.112-3.773.011-.036h1.525l-.021.071-1.928 5.282C75.073 63.476 74.3 64 73.051 64M86.247 62.162h-1.546v-3.453c0-.435-.106-.719-.625-.719-.35 0-.763.178-1.197.515v3.658h-1.546V58.71c0-.435-.106-.719-.625-.719-.371 0-.816.195-1.197.533v3.631h-1.546v-5.158h.974l.011.036.275.701c.635-.577 1.292-.852 1.981-.852.879 0 1.239.399 1.44.781.434-.373 1.101-.781 1.928-.781 1.377 0 1.673.994 1.673 1.829v3.451M90.41 59.712c-1.006.169-1.515.32-1.716.533-.127.124-.159.222-.159.435 0 .382.244.586.72.586.392 0 .816-.133 1.165-.364v-1.19h-.01zm-1.483 2.539c-1.133 0-1.928-.613-1.928-1.491 0-.559.233-.959.741-1.243.508-.293 1.366-.506 2.68-.666v-.133c0-.568-.244-.781-.9-.781-.561 0-1.133.195-1.663.408l-.053.027-.032-.044-.498-.781-.032-.044.053-.027c.784-.399 1.504-.586 2.351-.586 1.515 0 2.32.657 2.32 1.909v3.365h-.985l-.011-.036-.265-.497c-.38.292-.984.62-1.778.62M98.332 62.162h-1.546v-3.453c0-.506-.212-.719-.699-.719-.413 0-.9.204-1.271.542v3.631H93.27v-5.158h.974l.021.036.275.71c.635-.577 1.313-.861 2.055-.861 1.165 0 1.758.613 1.758 1.829v3.444M101.562 62.251c-1.218 0-1.801-.506-1.801-1.536v-2.788h-.9v-.923h.932l.275-1.403.011-.044h1.229v1.447h1.303v.923h-1.303v2.708c0 .444.095.604.593.604.148 0 .392-.036.635-.098l.074-.018.011.062.18.817.011.044-.053.018a3.75 3.75 0 0 1-1.197.187M104.666 59.126h2.097c-.032-.852-.371-1.269-1.017-1.269-.646 0-.996.417-1.08 1.269m1.175 3.125c-1.726 0-2.796-1.012-2.796-2.637 0-1.651 1.059-2.716 2.69-2.716 1.652 0 2.605.994 2.605 2.725v.364h-3.696c.085.834.487 1.207 1.303 1.207.667 0 1.112-.204 1.578-.453l.053-.027.032.044.561.746.032.044-.042.027c-.572.365-1.144.676-2.32.676M111.772 62.251c-2.055 0-2.786-1.358-2.786-2.637 0-1.252.731-2.716 2.786-2.716.847 0 1.44.169 1.981.568l.042.036-.032.044-.646.781-.042.044-.053-.036a2.116 2.116 0 0 0-1.239-.355c-.794 0-1.197.55-1.197 1.633 0 1.065.402 1.58 1.239 1.58.54 0 .9-.178 1.271-.435l.053-.036.042.044.667.728.032.036-.042.036c-.55.454-1.207.685-2.076.685"></path></g></svg><svg width="64" height="64" viewBox="0 0 64 64" id="page" x="1625" y="1472"><path fill="#EBEBEB" d="M8 15.6L23.6 0H54c1.1 0 2 .9 2 2v60c0 1.1-.9 2-2 2H10c-1.1 0-2-.9-2-2V15.6z"></path><path fill="#DBDBDB" d="M23.6 0v13.6c0 1.1-.9 2-2 2H8L23.6 0z"></path><path fill="#B9B9B9" d="M17 26h30c.6 0 1-.4 1-1v-3c0-.6-.4-1-1-1H17c-.6 0-1 .4-1 1v3c0 .6.4 1 1 1zM17 35h18c.6 0 1-.4 1-1v-3c0-.6-.4-1-1-1H17c-.6 0-1 .4-1 1v3c0 .6.4 1 1 1z"></path></svg><svg width="64" height="64" viewBox="0 0 64 64" id="pay" x="1689" y="1536"><title>9B3ED3A5-AB7F-4766-947A-771883073D03</title><g transform="translate(0 3)" fill="none" fill-rule="evenodd"><path d="M58.533 32.067l-31.545 8.665a5.289 5.289 0 0 1-6.5-3.7l-5.955-21.675a5.29 5.29 0 0 1 3.7-6.502L49.778.19a5.29 5.29 0 0 1 6.5 3.7l5.955 21.676a5.29 5.29 0 0 1-3.7 6.501" fill="#5E2D91"></path><path d="M48.304 42.013l-1.723-6.665-10.224 2.573 6.32-6.724a4.264 4.264 0 0 0 .496-5.356 4.35 4.35 0 0 0-4.661-1.705 4.313 4.313 0 0 0-1.434.66L24.013 34.16c-2.146 1.322-3.717 1.322-4.352-.13l-4.174-15.194c-.8.19-1.389.332-1.478.355a9.548 9.548 0 0 0-5.024 3.213L.39 32.982a1.727 1.727 0 0 0-.331 1.54l5.938 22.136a1.553 1.553 0 0 0 1.93 1.084l4.145-1.078 3.002-.78a26.808 26.808 0 0 0 13.23-8.079 3.868 3.868 0 0 0 4.364 1.864 3.816 3.816 0 0 0 2.545-2.187 3.875 3.875 0 0 0 4.152 1.533 3.794 3.794 0 0 0 2.843-3.346 3.883 3.883 0 0 0 3.306.662 3.775 3.775 0 0 0 2.79-4.318" fill="#F5ABC3"></path></g></svg><svg width="64" height="64" viewBox="0 0 64 64" id="pencil" x="1753" y="1600"><path fill="#EF5094" d="M39.9 8H24.1V2c0-1.1.9-2 2-2H38c1.1 0 2 .9 2 2v6z"></path><path fill="#1450A0" d="M27.3 58.3L32 64l4.8-5.7h-9.5z"></path><path fill="#FFEFB7" d="M24.1 54.4l3.2 3.9h9.4l3.2-3.9H24.1z"></path><path fill="#FED204" d="M24.1 53.9h15.8V10.3H24.1z"></path></svg><svg viewBox="0 0 64 64" width="64" height="64" id="pencil-big" x="1817" y="1664"><path d="M17.7 56.3L15 48.5l-7.4-2.4-1.3-6.3-6.2-1.3v15.2l10.1 10.1h15.2l-1.2-6.2-6.5-1.3z" fill="#fed204"></path><path d="M.1 53.8v10.1h10.1C10.1 63.9.1 53.8.1 53.8z" fill="#1450a0"></path><path d="M0 38.6l6.3 1.3 1.3 6.3 7.4 2.4 2.7 7.8 6.4 1.3 1.2 6.2v.1l30.1-30.1L30.2 8.5 0 38.6z" fill="#e67700"></path><path d="M63 21.2L42.9 1c-1.4-1.4-3.6-1.4-5 0l-6.1 6.1L57 32.4l6.1-6.1c1.3-1.4 1.2-3.6-.1-5.1" fill="#ef5094"></path></svg><svg viewBox="0 0 64 64" width="64" height="64" id="phone" x="1881" y="1728"><path fill="#2AACE2" d="M50.5 19.3c0-4.9-4.9-4.9-18.5-4.9s-18.5 0-18.5 4.9v1.3c0 1.2 0 2.5-2.5 2.5H2.5C0 23 0 21.8 0 20.6v-1.3C0 7 12.3 7 32 7c18.5 0 32 0 32 12.3v1.3c0 1.2 0 2.5-2.5 2.5h-8.6c-2.5 0-2.5-1.2-2.5-2.5l.1-1.3z"></path><path fill="#B986EE" d="M43.1 17.6c1.2 0 2.5 0 3.7 2.5 8.6 22.2 8.6 22.2 8.6 27.1v4.9c0 3.7-1.2 4.9-3.7 4.9H12.3c-2.5 0-3.7-1.2-3.7-4.9v-4.9c0-4.9 0-4.9 8.6-27.1 1.2-2.5 2.5-2.5 3.7-2.5h22.2zM32 39.8c6.2 0 11.1-3.7 11.1-8.6s-4.9-8.6-11.1-8.6-11.1 3.7-11.1 8.6 4.9 8.6 11.1 8.6z"></path><path fill="#45CAB9" d="M32 26.2c-4.9 0-7.4 2.5-7.4 4.9 0 2.5 2.5 4.9 7.4 4.9s7.4-2.5 7.4-4.9-2.5-4.9-7.4-4.9"></path></svg><svg width="64" height="64" viewBox="0 0 64 64" id="pin" x="1945" y="1792"><path fill="#DE004D" d="M31.9 0c-28.1 0-35.4 40.1 0 64C67.8 39.4 60 0 31.9 0zm.1 13.5c6 0 10.8 4.8 10.8 10.8 0 6-4.8 10.8-10.8 10.8-6 0-10.8-4.8-10.8-10.8 0-6 4.8-10.8 10.8-10.8z"></path></svg><svg width="64" height="64" viewBox="0 0 64 64" id="present" x="2009" y="1856"><path fill="#33ade0" d="M57 28v31.8c0 2.3-1.8 4.2-4 4.2H11c-2.2 0-4-1.9-4-4.2V28h50z"></path><path fill="#bed742" d="M59 20v6H5v-6c0-2.2 1.8-4 4-4h46c2.2 0 4 1.8 4 4z"></path><path fill="#33ade0" d="M47.9 2.2C46.5.8 44.6 0 42.5 0c-1.9 0-3.8.7-5.2 2-2 1.8-4.2 8.3-5.3 11.8-1.1-3.5-3.3-10-5.3-11.8-1.4-1.3-3.2-2-5.2-2s-3.9.8-5.4 2.2c-1.4 1.4-2.1 3.1-2.1 5s.8 3.7 2.3 5c1.5 1.4 5.8 2.8 9.4 3.8h12.6c3.6-1 7.9-2.4 9.4-3.8 1.4-1.3 2.2-3.1 2.3-5 0-1.9-.7-3.7-2.1-5zm-28.8 7.9c-1-.7-1.4-1.6-1.4-2.7 0-1 .4-2 1.2-2.8.8-.8 1.8-1.2 3-1.2 1.1 0 2.1.4 2.9 1.1 1.2 1.1 2.8 5.6 3.9 9-3.6-.9-8.5-2.3-9.6-3.4zm26 .1c-1.2 1-6 2.5-9.7 3.4 1.1-3.4 2.7-8 3.9-9 .8-.7 1.8-1.1 2.9-1.1 1.1 0 2.2.4 3 1.2s1.2 1.7 1.2 2.8c0 1-.5 2-1.3 2.7z"></path><path fill="#fdd130" d="M40.3 45.9s-3.4 2.3-3.5 2.4c-.3.2-.7.5-.7 1.6 0 .5-.2 3.6-.2 4s-.2 1.6-1.6.4c0 0-2.3-2-2.7-2.3-.1-.1-.9-1-2.1-.4L26 52.9s-2.2.9-1.4-1.1c.8-1.9 1.3-3.5 1.5-4s.1-1.3-.3-1.8c-.2-.2-1.9-2.5-2.3-3.1 0 0-1.4-1.7.9-1.6l4.1.1c.1 0 .8.1 1.4-.8.7-1.1 2.6-3.5 2.2-3 .3-.4 1.1-1.5 1.7.3 0 0 .7 2.3 1.1 3.3.2.7.4 1.1 1.6 1.5l3.7 1.3c0 .2 1.7.7.1 1.9"></path></svg><svg width="64" height="64" viewBox="0 0 64 64" id="present-off" x="2073" y="1920"><path fill="#DDD" d="M57 28v31.8c0 2.3-1.8 4.2-4 4.2H11c-2.2 0-4-1.9-4-4.2V28h50z"></path><path fill="#BFBFBF" d="M59 20v6H5v-6c0-2.2 1.8-4 4-4h46c2.2 0 4 1.8 4 4z"></path><path fill="#DDD" d="M47.9 2.2C46.5.8 44.6 0 42.5 0c-1.9 0-3.8.7-5.2 2-2 1.8-4.2 8.3-5.3 11.8-1.1-3.5-3.3-10-5.3-11.8-1.4-1.3-3.2-2-5.2-2s-3.9.8-5.4 2.2c-1.4 1.4-2.1 3.1-2.1 5s.8 3.7 2.3 5c1.5 1.4 5.8 2.8 9.4 3.8h12.6c3.6-1 7.9-2.4 9.4-3.8 1.4-1.3 2.2-3.1 2.3-5 0-1.9-.7-3.7-2.1-5zm-28.8 7.9c-1-.7-1.4-1.6-1.4-2.7 0-1 .4-2 1.2-2.8.8-.8 1.8-1.2 3-1.2 1.1 0 2.1.4 2.9 1.1 1.2 1.1 2.8 5.6 3.9 9-3.6-.9-8.5-2.3-9.6-3.4zm26 .1c-1.2 1-6 2.5-9.7 3.4 1.1-3.4 2.7-8 3.9-9 .8-.7 1.8-1.1 2.9-1.1 1.1 0 2.2.4 3 1.2s1.2 1.7 1.2 2.8c0 1-.5 2-1.3 2.7z"></path><path fill="#FFF" d="M40.3 45.9s-3.4 2.3-3.5 2.4c-.3.2-.7.5-.7 1.6 0 .5-.2 3.6-.2 4s-.2 1.6-1.6.4c0 0-2.3-2-2.7-2.3-.1-.1-.9-1-2.1-.4L26 52.9s-2.2.9-1.4-1.1c.8-1.9 1.3-3.5 1.5-4s.1-1.3-.3-1.8c-.2-.2-1.9-2.5-2.3-3.1 0 0-1.4-1.7.9-1.6l4.1.1c.1 0 .8.1 1.4-.8.7-1.1 2.6-3.5 2.2-3 .3-.4 1.1-1.5 1.7.3 0 0 .7 2.3 1.1 3.3.2.7.4 1.1 1.6 1.5l3.7 1.3c0 .2 1.7.7.1 1.9"></path></svg><svg width="64" height="64" viewBox="0 0 64 64" id="present-purple" x="2137" y="1984"><path fill="#B986EE" d="M57 28v31.8c0 2.3-1.8 4.2-4 4.2H11c-2.2 0-4-1.9-4-4.2V28h50z"></path><path fill="#2AACE2" d="M59 20v6H5v-6c0-2.2 1.8-4 4-4h46c2.2 0 4 1.8 4 4z"></path><path fill="#1450A0" d="M47.9 2.2C46.5.8 44.6 0 42.5 0c-1.9 0-3.8.7-5.2 2-2 1.8-4.2 8.3-5.3 11.8-1.1-3.5-3.3-10-5.3-11.8-1.4-1.3-3.2-2-5.2-2s-3.9.8-5.4 2.2c-1.4 1.4-2.1 3.1-2.1 5s.8 3.7 2.3 5c1.5 1.4 5.8 2.8 9.4 3.8h12.6c3.6-1 7.9-2.4 9.4-3.8 1.4-1.3 2.2-3.1 2.3-5 0-1.9-.7-3.7-2.1-5zm-28.8 7.9c-1-.7-1.4-1.6-1.4-2.7 0-1 .4-2 1.2-2.8.8-.8 1.8-1.2 3-1.2 1.1 0 2.1.4 2.9 1.1 1.2 1.1 2.8 5.6 3.9 9-3.6-.9-8.5-2.3-9.6-3.4zm26 .1c-1.2 1-6 2.5-9.7 3.4 1.1-3.4 2.7-8 3.9-9 .8-.7 1.8-1.1 2.9-1.1 1.1 0 2.2.4 3 1.2s1.2 1.7 1.2 2.8c0 1-.5 2-1.3 2.7zM40.3 45.9s-3.4 2.3-3.5 2.4c-.3.2-.7.5-.7 1.6 0 .5-.2 3.6-.2 4s-.2 1.6-1.6.4c0 0-2.3-2-2.7-2.3-.1-.1-.9-1-2.1-.4L26 52.9s-2.2.9-1.4-1.1c.8-1.9 1.3-3.5 1.5-4s.1-1.3-.3-1.8c-.2-.2-1.9-2.5-2.3-3.1 0 0-1.4-1.7.9-1.6l4.1.1c.1 0 .8.1 1.4-.8.7-1.1 2.6-3.5 2.2-3 .3-.4 1.1-1.5 1.7.3 0 0 .7 2.3 1.1 3.3.2.7.4 1.1 1.6 1.5l3.7 1.3c0 .2 1.7.7.1 1.9"></path></svg><svg viewBox="0 0 64 64" width="64" height="64" id="printer" x="2201" y="2048"><path fill="#DDD" d="M14 40c0-.5.4-1.1 1.1-1.1H48c1.1 0 2 .9 2 2V62c0 1.1-.9 2-2 2H16c-1.1 0-2-.9-2-2V40z"></path><path fill="#B9B9B9" d="M18.9 60c-.5 0-.9-.4-.9-1.1v-1.1c0-.5.4-1.1.9-1.1h26.3c.5 0 .9.4.9 1.1v1.1c0 .5-.4 1.1-.9 1.1H18.9zM34.8 53.1c-.4 0-.8-.4-.8-1.1v-1.1c0-.5.4-1.1.8-1.1h10.5c.4 0 .8.4.8 1.1V52c0 .5-.4 1.1-.8 1.1H34.8zM34.8 46c-.4 0-.8-.4-.8-1.1V44c0-.5.4-1.1.8-1.1h10.5c.4 0 .8.4.8 1.1v1.1c0 .5-.4 1.1-.8 1.1H34.8V46z"></path><path fill="#DDD" d="M49.1 8c.5 0 1.1.4 1.1 1.1v8h-36v-16c0-.5.4-1.1 1.1-1.1h26c.5 0 1.1.4 1.1 1.1v4c0 1.6 1.3 3.1 3.1 3.1h3.7V8z"></path><path fill="#B9B9B9" d="M41.7.3l8 8c.4.4.4 1.1 0 1.5-.1.1-.4.3-.7.3h-6.9C40.9 10 40 9.1 40 8V1.1c0-.7.4-1.1 1.1-1.1.2 0 .4.1.6.3z"></path><path fill="#B986EE" d="M52 49.1V40c0-1.6-1.3-3.1-3.1-3.1H15.1c-1.8.2-3.1 1.5-3.1 3.1v9.1H4c-2.3 0-4-1.7-4-4v-22c0-2.3 1.7-4 4-4h56c2.3 0 4 1.7 4 4v22c0 2.3-1.7 4-4 4h-8z"></path><circle fill="#BED731" cx="10" cy="27.1" r="2"></circle><circle fill="#FED204" cx="16" cy="27.1" r="2"></circle></svg><svg width="64" height="64" viewBox="0 0 64 64" id="returns" x="2265" y="2112"><path fill="#45CAB9" d="M32.17 12.072c13.177.091 23.83 10.801 23.83 24 0 13.254-10.745 24-24 24s-24-10.746-24-24a3 3 0 0 1 6 0c0 9.94 8.059 18 18 18s18-8.06 18-18c0-9.885-7.966-17.908-17.828-18l1.95 1.95a3 3 0 1 1-4.243 4.242l-7.071-7.071a3 3 0 0 1 0-4.243l7.07-7.072a3 3 0 1 1 4.243 4.243l-1.95 1.95z"></path></svg><svg width="64" height="64" viewBox="0 0 64 64" id="samsung-pay" x="2329" y="2176"><path fill="#3056D3" d="M62.8 19.7C60.8 9 54.3 2.9 43.6 1 35.9-.3 28.3-.3 20.5 1 10.3 2.7 3.5 8.6 1.4 19c-1.7 8.3-1.9 16.7-.1 25 2 10.6 8.5 17 19.2 19 7.7 1.3 15.3 1.3 23.1 0 10.3-1.7 17.2-8.2 19.3-18.6 1.5-8.3 1.5-16.5-.1-24.7z"></path><path fill="#FFF" d="M17.9 38.7h-1.5V36h1.3c2.4 0 4.3-1.9 4.3-4.3s-1.6-3.6-2.5-4.1c-.4-.3-.8-.3-1.2-.3h-5.1v15.5h-2.8v-15c0-1.9 1.5-3.3 3.3-3.3h4.9c3.7.4 6.3 3.2 6.3 7.1.1 4.1-2.9 7.1-7 7.1zM40.5 38.8h-2.8v-6.9-.4c-.3-2.3-2.1-4.1-4.5-4.1-2.5 0-4.5 2-4.5 4.5s2 4.3 4.5 4.3h.9v2.7H33c-4.1-.1-7.5-2.9-7.5-7.1.1-4.3 3.5-7.6 7.6-7.6s7.5 3.3 7.5 7.5c.1.2-.1 7.1-.1 7.1zM40.9 25.1h2.8l3.6 7-1.4 3zM47.2 43.4h-2.8l8.8-18.3H56z"></path></svg><svg width="64" height="64" viewBox="0 0 64 64" id="secure" x="2393" y="2240"><path d="M31.303.046c0 25.167.015 46.478.046 63.93 0 .188.25.032.372 0C47.008 60.156 59.07 43.62 59.07 24.559c0-5.5-.773-11.024-2.256-15.837a.759.759 0 0 0-.488-.488L31.767.046A.67.67 0 0 0 31.535 0a.86.86 0 0 0-.232.046z" fill-rule="evenodd" fill="#2aace2"></path><path d="M31.767.046c0 25.167-.015 46.478-.046 63.93 0 .188-.25.032-.372 0C16.062 60.156 4 43.62 4 24.559c0-5.5.773-11.024 2.256-15.837a.759.759 0 0 1 .488-.488L31.303.046A.67.67 0 0 1 31.535 0a.86.86 0 0 1 .232.046z" fill="#1450a0" fill-rule="evenodd"></path></svg><svg width="64" height="64" viewBox="0 0 64 64" id="size-guide" x="2457" y="2304"><path fill="#2AACE2" d="M24 8c13.3 0 24 10.7 24 24v20c0 2.2-1.8 4-4 4H24C10.7 56 0 45.3 0 32S10.7 8 24 8z"></path><circle fill="#FFF" cx="24" cy="32" r="16"></circle><circle fill="#FED204" cx="24" cy="32" r="12"></circle><path fill="#1450A0" d="M64 52v4h-5v-4H48v-5h16v5z"></path></svg><svg viewBox="0 0 64 64" width="64" height="64" id="store" x="2521" y="2368"><path fill="#2AACE2" d="M33 30v29H15V32c0-1.1.9-2 2-2h16zm0 0h14c1.1 0 2 .9 2 2v27H33V30z"></path><path fill="#1450A0" d="M2.2 5C1 5 0 6 0 7.2v6.3C0 16 2.1 18 4.7 18h1.2c2.6 0 4.7-2 4.7-4.6 0 2.5 2.1 4.6 4.7 4.6h1.2c2.6 0 4.7-2 4.7-4.6 0 2.5 2.1 4.6 4.7 4.6h1.2c2.6 0 4.7-2 4.7-4.6 0 2.5 2.1 4.6 4.7 4.6h1.2c2.6 0 4.7-2 4.7-4.6 0 2.5 2.1 4.6 4.7 4.6h1.2c2.6 0 4.7-2 4.7-4.6 0 2.5 2.1 4.6 4.7 4.6h1.2c2.6 0 4.7-2 4.7-4.6V7.2C64 6 63 5 61.8 5H2.2z"></path><path fill="#B986EE" d="M59 20v39h-8V31c0-1.7-1.3-3-3-3H16c-1.7 0-3 1.3-3 3v28H5V20h.9c1.8 0 3.5-.8 4.7-2 1.2 1.2 2.9 2 4.7 2h1.2c1.8 0 3.5-.8 4.7-2 1.2 1.2 2.9 2 4.7 2h1.2c1.8 0 3.5-.8 4.7-2 1.2 1.2 2.9 2 4.7 2h1.2c1.8 0 3.5-.8 4.7-2 1.2 1.2 2.9 2 4.7 2h1.2c1.8 0 3.5-.8 4.7-2 1.2 1.2 2.9 2 4.7 2H59z"></path></svg><svg viewBox="0 0 64 64" width="64" height="64" id="success" x="2585" y="2432"><circle fill="#BED731" cx="32" cy="32" r="32"></circle><path fill="#FFF" d="M21.2 29.6c-1.2-1.2-3.2-1.2-4.4 0-1.2 1.2-1.2 3.2 0 4.4l8.7 8.7c1.2 1.2 3.2 1.2 4.4 0L47 25.6c1.2-1.2 1.2-3.2 0-4.4-1.2-1.2-3.2-1.2-4.4 0L27.9 36.1l-6.7-6.5z"></path></svg><svg width="64" height="64" viewBox="0 0 64 64" id="success-rounded" x="2649" y="2496"><path fill="#BED731" d="M56.2 7.8C66.3 18 66.9 46 56.2 56.4c-10.4 10-38.1 10.3-48.5 0s-10.1-38.1 0-48.5C18.1-2.9 46.1-2.3 56.2 7.8"></path><path fill="#FFF" d="M21.3 29.6c-1.2-1.2-3.2-1.2-4.4 0s-1.2 3.2 0 4.4l8.7 8.7c1.2 1.2 3.2 1.2 4.4 0l17.1-17.1c1.2-1.2 1.2-3.2 0-4.4-1.2-1.2-3.2-1.2-4.4 0L28 36.1l-6.7-6.5z"></path></svg><svg width="64" height="64" viewBox="0 0 64 64" id="surprise" x="2713" y="2560"><path fill="#5E2D91" d="M64 15.5C64 9 58.7 3.8 52.2 3.8c-4.3 0-8.1 2.3-10.2 5.8-3.1-1.3-6.5-2-10.1-2s-7 .7-10.1 2c-2-3.5-5.8-5.8-10.2-5.8C5.3 3.8 0 9 0 15.5c0 4.7 2.8 8.8 6.8 10.7-.7 2.4-1.1 5-1.1 7.7 0 14.5 11.8 26.3 26.3 26.3s26.3-11.8 26.3-26.3c0-2.7-.4-5.3-1.1-7.7 4-1.9 6.8-5.9 6.8-10.7z"></path><path fill="#FFF" d="M31.7 41.4c-1.8 0-3.2-1.4-3.2-3.2v-4.3c0-1.4.9-2.6 2.1-3 3.2-1.1 5-2.8 5-4.6 0-1.3-.9-2.5-2.2-3-1.4-.5-3 .2-4.4 2-1.1 1.4-3.1 1.6-4.5.5s-1.6-3.1-.5-4.5c3.2-4 7.5-5.6 11.6-4.1 3.8 1.3 6.5 5 6.5 9 0 2-.7 6.7-7.1 9.8v2.1c-.1 1.9-1.5 3.3-3.3 3.3z"></path><circle fill="#FFF" cx="31.5" cy="46.8" r="3.2"></circle></svg><svg width="64" height="64" viewBox="0 0 64 64" id="tag" x="2777" y="2624"><path fill="#DE004D" d="M39.9 4.3h-4v5.5c2.5 2.2 2.7 6 .5 8.4-2.2 2.5-6 2.7-8.4.5s-2.7-6-.5-8.4c.1-.2.3-.3.5-.5V4.3h-4L8.1 20.2V60c0 2.2 1.8 4 4 4h39.8c2.2 0 4-1.8 4-4V20.2l-16-15.9z"></path><path fill="#1450A0" d="M32 0c-1.1 0-2 .9-2 1.9v13.6c0 1.1.9 1.9 1.9 1.9 1.1 0 1.9-.9 1.9-1.9V1.9C33.9.9 33.1 0 32 0"></path></svg><svg width="64" height="64" viewBox="0 0 64 64" id="thumbs-down" x="2841" y="2688"><path fill="#2AACE2" d="M17.2 8.4v26.8c0 1.1-.9 2-2 2H2c-1.1 0-2-.9-2-2V8.4c0-1.1.9-2 2-2h13.2c1.1 0 2 .9 2 2"></path><path fill="#F599B8" d="M19.2 35.4V8.6c0-1.2.3-1 1.5-1.4C27 4.8 33.2 2.4 39.9 1.4c7-1 18.1-2.3 19.2 7.3.3 2.7 2.2 4.9 2.4 7.6 0 2 .3 4 .8 5.9.4.9.6 1.9.8 2.9 0 1.1-.1 2.2-.4 3.2 0 .6.1 1.2.4 1.8.9 2 1.1 4.2.5 6.3-1.2 4.1-4.7 5.3-8.5 5.5-1.8.1-3.5.1-5.3.1-.6 0-3.5-.2-3.9.7-.2.5.6 1.5.8 1.9.5.9.9 1.9 1.3 3 .6 2 .9 4.2.8 6.3-.2 4.7-2.2 8.6-7.3 9.3-2 .3-4.1.1-5.2-1.8-.8-1.8-1.3-3.8-1.4-5.8-1-4.4-3.1-8.5-6.1-11.8-2.6-3.5-5.9-6.3-9.6-8.4"></path></svg><svg width="64" height="64" viewBox="0 0 64 64" id="thumbs-up" x="2905" y="2752"><path fill="#2AACE2" d="M17.2 55.6V28.8c0-1.1-.9-2-2-2H2c-1.1 0-2 .9-2 2v26.8c0 1.1.9 2 2 2h13.2c1.1 0 2-.9 2-2"></path><path fill="#F599B8" d="M19.2 28.6v26.8c0 1.2.3 1 1.5 1.4 6.3 2.4 12.5 4.7 19.2 5.7 7 1 18.1 2.3 19.2-7.3.3-2.7 2.2-4.9 2.4-7.6 0-2 .3-4 .8-5.9.4-.9.6-1.9.8-2.9 0-1.1-.1-2.2-.4-3.2 0-.6.1-1.2.4-1.8.9-2 1.1-4.2.5-6.3-1.2-4.1-4.7-5.3-8.5-5.5h-5.2c-.6 0-3.5.2-3.9-.7-.2-.5.6-1.5.8-1.9.5-1 .9-2 1.3-3 .6-2 .9-4.2.8-6.3-.2-4.7-2.2-8.6-7.3-9.3-2-.3-4.1-.1-5.2 1.8-.8 1.9-1.2 3.8-1.4 5.8-1 4.4-3.1 8.5-6.1 11.8-2.6 3.5-5.9 6.4-9.7 8.4"></path></svg><svg viewBox="0 0 64 64" height="64" width="64" id="tooltip" x="2969" y="2816"><path d="M31.967 0C14.31 0 0 14.318 0 31.983 0 49.65 14.31 64 32 64s32-14.318 32-32.017C63.967 14.318 49.656 0 31.967 0zm4.969 48.787c0 2.751-2.22 4.972-4.97 4.972a4.964 4.964 0 0 1-4.968-4.972V32.215c0-2.75 2.22-4.971 4.969-4.971 2.75 0 4.969 2.22 4.969 4.971zm-4.97-27.078a5.734 5.734 0 0 1 0-11.468c3.181 0 5.732 2.552 5.732 5.734a5.734 5.734 0 0 1-5.731 5.734z" stroke-width=".331" fill="#205ba4"></path></svg><svg width="64" height="64" viewBox="0 0 64 64" id="user" x="3033" y="2880"><path fill="#F599B8" d="M48.3 31.6s0-.1.1-.1c.2-.3.4-.7.6-1l.2-.3c.2-.3.3-.7.5-1 .1-.1.1-.3.2-.4.1-.3.3-.6.4-.9.1-.3.1-.4.2-.6.1-.2.2-.6.3-.9s.1-.5.2-.8.1-.5.2-.7c0-.3.1-.7.1-1 0-.4.1-.4.1-.6 0-.5.1-1.1.1-1.6v-1.1c-8.7-1-16-6.9-18.8-15.1-2.4.7-4.6 2-6.3 3.8l-.2.2c-.2.2-.5.5-.7.8-.1.1-.2.2-.2.3-.2.3-.4.5-.6.8l-.2.4c-.6.8-1 1.7-1.4 2.6-.1.3-.2.5-.3.7-.1.3-.2.4-.2.6-.1.2-.2.5-.3.8-.1.3-.1.4-.2.6-.1.2-.1.6-.2.9l-.1.6c-.1.3-.1.7-.1 1l-.1.5c0 .5-.1 1-.1 1.6 0 .5 0 1.1.1 1.6 0 .2.1.4.1.6 0 .2.1.7.1 1 .1.3.1.5.2.7s.1.5.2.8c.1.3.2.6.3.8.1.3.1.4.2.6.1.2.2.6.4.9l.2.4c.2.3.3.6.5 1l.2.3c.2.3.4.7.6 1l.1.2c.2.4.5.7.7 1 2.7 3.6 6.9 5.8 11.4 5.8 4.5-.1 8.7-2.2 11.4-5.8-.4-.2-.1-.6.1-1"></path><path fill="#5F2E8F" d="M36.1 0C25.3 0 16.6 9.7 16.6 21.7c0 3.8.9 7.6 2.7 11h5.4c-.3-.3-.5-.7-.7-1l-.1-.2c-.2-.3-.4-.7-.6-1l-.2-.3c-.2-.3-.3-.6-.5-1-.1-.1-.1-.3-.2-.4-.1-.2-.2-.6-.4-.9-.1-.3-.1-.4-.2-.6-.1-.2-.2-.6-.3-.8-.1-.3-.1-.5-.2-.8-.1-.3-.1-.5-.2-.7-.1-.3-.1-.7-.1-1s-.1-.4-.1-.6c0-.5-.1-1.1-.1-1.6s0-1.1.1-1.6l.1-.5c0-.3.1-.7.1-1l.1-.6c.1-.3.1-.6.2-.9.1-.3.1-.4.2-.6.1-.2.2-.5.3-.8.1-.3.1-.4.2-.6.1-.2.2-.5.3-.7.4-.9.9-1.8 1.4-2.6l.2-.4c.2-.3.4-.5.6-.8.1-.1.2-.2.2-.3.2-.3.5-.5.7-.8l.5-.3c.4-.4.8-.8 1.3-1.2l.3-.3c.4-.3.8-.6 1.2-.8l.2-.1c1-.6 2.2-1.1 3.3-1.5 2.8 8.3 10.2 14.2 18.8 15.2v1.1c0 .6 0 1.1-.1 1.6 0 .2 0 .4-.1.6-.1.2-.1.7-.1 1-.1.3-.1.5-.2.8-.1.3-.1.5-.2.7-.1.2-.2.6-.3.9-.1.3-.1.4-.2.6s-.2.6-.4.9c-.1.1-.1.3-.2.4-.2.3-.3.7-.5 1l-.2.3c-.2.4-.4.7-.6 1l-.1.1c-.2.4-.5.7-.8 1.1h5.4c1.8-3.4 2.7-7.2 2.7-11C55.6 9.7 46.9 0 36.1 0"></path><path fill="#5F2E8F" d="M41.4 28.4c-2.2 2.9-6.3 3.5-9.2 1.3-.5-.4-.9-.8-1.3-1.3-.2-.3-.7-.4-1-.2-.3.2-.4.7-.2 1 2.7 3.6 7.7 4.3 11.3 1.6.6-.5 1.1-1 1.6-1.6.2-.3.2-.8-.2-1-.3-.2-.8-.2-1 .2"></path><path fill="#2AACE2" d="M63.4 57.7c-2.1-8.9-8.1-16.3-16.2-20.4-3.1 2.7-7 4.2-11.1 4.2-5.2 0-10.1-2.4-13.4-6.5C11.5 38.1 2.9 46.8.5 57.7c-.6 2.8 1.1 5.5 3.9 6.1.4.2.8.2 1.2.2h52.9c2.8 0 5.2-2.3 5.2-5.1-.1-.4-.1-.8-.3-1.2"></path></svg><svg width="64" height="64" viewBox="0 0 64 64" id="warning" x="3097" y="2944"><path fill="#FFCC4D" d="M3.9 60C.6 60-.9 57.9.6 55.1L29.2 5.9c1.6-2.6 4.1-2.6 5.6 0L63.3 55c1.6 2.6.1 4.9-3.3 4.9.1.1-56.1.1-56.1.1z"></path><path fill="#231F20" d="M29.2 24.6c0-1.6 1.2-2.6 2.8-2.6 1.6 0 2.8 1 2.8 2.6v14.7c0 1.5-1.3 2.6-2.8 2.6s-2.8-1-2.8-2.6V24.6zM29 47c0-1.6 1.4-3 3-3s3 1.3 3 3-1.4 3-3 3-3-1.3-3-3"></path></svg><svg width="64" height="64" viewBox="0 0 64 64" id="warranty" x="3161" y="3008"><path fill="#BED731" d="M32.1 0h-.2L7.3 8.2c-.2.1-.4.3-.5.5C5.3 13.5 4.5 19 4.5 24.5c0 19.1 12.1 35.7 27.3 39.5h.4c15.3-3.8 27.3-20.4 27.3-39.5 0-5.5-.8-11-2.3-15.8-.1-.2-.3-.4-.5-.5L32.3 0h-.2"></path><path fill="#FFF" d="M29.5 34.7h-9c-1.4 0-2.5-1.1-2.5-2.5s1.1-2.5 2.5-2.5h9.2v-9.2c0-1.4 1.1-2.5 2.5-2.5s2.5 1.1 2.5 2.5v9h9c1.4 0 2.5 1.1 2.5 2.5s-1.1 2.5-2.5 2.5h-9.2v9.2c0 1.4-1.1 2.5-2.5 2.5s-2.5-1.1-2.5-2.5v-9z"></path></svg><svg width="64" height="64" viewBox="0 0 64 64" id="warranty-off" x="3225" y="3072"><path fill="#DDD" d="M32.1 0h-.2L7.3 8.2c-.2.1-.4.3-.5.5C5.3 13.5 4.5 19 4.5 24.5c0 19.1 12.1 35.7 27.3 39.5h.4c15.3-3.8 27.3-20.4 27.3-39.5 0-5.5-.8-11-2.3-15.8-.1-.2-.3-.4-.5-.5L32.3 0h-.2"></path><path fill="#FFF" d="M29.5 34.7h-9c-1.4 0-2.5-1.1-2.5-2.5s1.1-2.5 2.5-2.5h9.2v-9.2c0-1.4 1.1-2.5 2.5-2.5s2.5 1.1 2.5 2.5v9h9c1.4 0 2.5 1.1 2.5 2.5s-1.1 2.5-2.5 2.5h-9.2v9.2c0 1.4-1.1 2.5-2.5 2.5s-2.5-1.1-2.5-2.5v-9z"></path></svg></svg>