<svg xmlns="http://www.w3.org/2000/svg" width="112" height="73" viewBox="0 0 112 73">
    <g fill="none" fill-rule="evenodd">
        <path fill="#E65D00" d="M94.608 17.662c0 5.766-3.419 10.723-8.334 12.986a30.754 30.754 0 0 0-1.658-4.488c3.096-1.576 5.222-4.785 5.222-8.498 0-5.268-4.269-9.537-9.535-9.537-3.355 0-6.299 1.736-8 4.355a30.878 30.878 0 0 0-4.286-2.12c2.495-4.188 7.057-7.005 12.286-7.005 7.901 0 14.305 6.407 14.305 14.307zM23.083 17.662a9.537 9.537 0 0 1 9.537-9.537 9.525 9.525 0 0 1 7.999 4.353 31.092 31.092 0 0 1 4.286-2.119C42.41 6.172 37.85 3.355 32.62 3.355c-7.902 0-14.307 6.407-14.307 14.307 0 5.766 3.419 10.721 8.334 12.986.44-1.548.996-3.048 1.659-4.488-3.097-1.576-5.223-4.785-5.223-8.498"/>
        <path fill="#FED204" d="M32.62 8.125a9.537 9.537 0 0 0-9.537 9.537c0 3.713 2.126 6.922 5.223 8.498A31.12 31.12 0 0 1 40.62 12.48a9.524 9.524 0 0 0-7.999-4.355M84.616 26.16c3.097-1.576 5.223-4.785 5.223-8.497 0-5.268-4.27-9.537-9.535-9.537a9.525 9.525 0 0 0-8 4.354 31.111 31.111 0 0 1 12.312 13.68"/>
        <path fill="#E65D00" d="M56.462 65.346c-11.852 0-21.46-6.939-21.46-15.498 0-8.557 9.608-15.496 21.46-15.496 11.85 0 21.457 6.939 21.457 15.496 0 8.559-9.607 15.498-21.457 15.498M44.54 24.815c1.975 0 3.576 2.135 3.576 4.767 0 2.633-1.601 4.77-3.576 4.77-1.976 0-3.576-2.137-3.576-4.77 0-2.632 1.6-4.767 3.576-4.767m23.842 0c1.976 0 3.576 2.135 3.576 4.767 0 2.633-1.6 4.77-3.576 4.77-1.977 0-3.576-2.137-3.576-4.77 0-2.632 1.599-4.767 3.576-4.767m3.922-12.334a30.656 30.656 0 0 0-4.286-2.121 30.913 30.913 0 0 0-11.556-2.235c-4.087 0-7.984.799-11.557 2.235a30.867 30.867 0 0 0-4.286 2.119A31.13 31.13 0 0 0 28.306 26.16a30.84 30.84 0 0 0-1.658 4.489 30.978 30.978 0 0 0-1.182 8.47c0 17.12 13.877 30.995 30.996 30.995 17.117 0 30.994-13.875 30.994-30.995 0-2.939-.418-5.777-1.182-8.47a30.723 30.723 0 0 0-1.658-4.489 31.113 31.113 0 0 0-12.312-13.679"/>
        <path fill="#1450A0" d="M40.964 29.582c0 2.633 1.6 4.77 3.576 4.77 1.975 0 3.576-2.137 3.576-4.77 0-2.633-1.601-4.768-3.576-4.768-1.976 0-3.576 2.135-3.576 4.768M68.382 34.352c1.977 0 3.576-2.137 3.576-4.77 0-2.632-1.6-4.767-3.576-4.767-1.977 0-3.576 2.135-3.576 4.767 0 2.633 1.599 4.77 3.576 4.77"/>
        <path fill="#FED204" d="M73.044 47.955a16.71 16.71 0 0 1-3.88 5.344 18.088 18.088 0 0 1-5.72 3.584 19.03 19.03 0 0 1-6.982 1.308c-2.418 0-4.766-.439-6.98-1.308a18 18 0 0 1-5.723-3.584 16.79 16.79 0 0 1-3.881-5.342c-.27-.6-.008-1.305.59-1.58a1.2 1.2 0 0 1 1.582.588 14.403 14.403 0 0 0 3.33 4.588 15.6 15.6 0 0 0 4.973 3.107 16.52 16.52 0 0 0 4.916 1.088v-9.602c-2.053-.4-3.577-1.787-3.577-3.45 0-1.975 2.137-3.577 4.77-3.577 2.633 0 4.768 1.602 4.768 3.576 0 1.664-1.524 3.051-3.577 3.451v9.602a16.558 16.558 0 0 0 4.92-1.088 15.598 15.598 0 0 0 4.969-3.107 14.355 14.355 0 0 0 3.332-4.584c.274-.6.983-.86 1.578-.592.6.273.863.98.592 1.578M56.462 34.351c-11.852 0-21.46 6.94-21.46 15.497 0 8.558 9.608 15.498 21.46 15.498 11.85 0 21.457-6.94 21.457-15.498 0-8.557-9.607-15.497-21.457-15.497"/>
        <path fill="#1450A0" d="M72.452 46.377a1.196 1.196 0 0 0-1.578.592 14.344 14.344 0 0 1-3.332 4.584 15.609 15.609 0 0 1-4.969 3.107 16.558 16.558 0 0 1-4.92 1.088v-9.6c2.053-.402 3.576-1.789 3.576-3.453 0-1.974-2.134-3.576-4.767-3.576-2.633 0-4.77 1.602-4.77 3.576 0 1.664 1.524 3.051 3.576 3.452v9.601a16.533 16.533 0 0 1-4.916-1.088 15.607 15.607 0 0 1-4.972-3.107 14.392 14.392 0 0 1-3.33-4.588 1.2 1.2 0 0 0-1.582-.588c-.598.275-.86.98-.59 1.58A16.775 16.775 0 0 0 43.76 53.3a18.006 18.006 0 0 0 5.722 3.584 19.028 19.028 0 0 0 6.981 1.308c2.418 0 4.767-.439 6.982-1.308a18.088 18.088 0 0 0 5.721-3.584 16.71 16.71 0 0 0 3.88-5.344 1.193 1.193 0 0 0-.593-1.578"/>
    </g>
</svg>
