<svg width="40" height="40" xmlns="http://www.w3.org/2000/svg">

 <g>
  <title>background</title>
  <rect fill="none" id="canvas_background" height="40" width="40" y="-1" x="-1"/>
 </g>
 <g>
  <title>Layer 1</title>
  <svg y="0" x="0" id="svg_15" viewBox="0 0 65 65" height="40" width="40">
   <path id="svg_37" d="m46.662,38.352c-0.796,-0.396 -4.71,-2.313 -5.44,-2.578c-0.73,-0.264 -1.261,-0.396 -1.792,0.397c-0.531,0.793 -2.057,2.578 -2.521,3.107c-0.465,0.529 -0.929,0.595 -1.726,0.198c-0.796,-0.397 -3.361,-1.233 -6.402,-3.933c-2.368,-2.101 -3.966,-4.696 -4.43,-5.49c-0.464,-0.793 -0.05,-1.222 0.349,-1.616c0.359,-0.356 0.797,-0.926 1.195,-1.389c0.398,-0.463 0.53,-0.793 0.796,-1.321c0.265,-0.53 0.133,-0.992 -0.067,-1.389c-0.199,-0.397 -1.791,-4.297 -2.455,-5.884c-0.646,-1.545 -1.302,-1.335 -1.791,-1.36a31.651,31.651 0 0 0 -1.527,-0.028c-0.53,0 -1.393,0.198 -2.122,0.991c-0.73,0.794 -2.787,2.711 -2.787,6.611s2.853,7.669 3.251,8.197c0.398,0.53 5.614,8.534 13.602,11.966a45.9,45.9 0 0 0 4.54,1.669c1.906,0.603 3.642,0.518 5.014,0.314c1.53,-0.227 4.711,-1.917 5.374,-3.768c0.664,-1.851 0.664,-3.437 0.465,-3.768c-0.2,-0.33 -0.73,-0.53 -1.527,-0.926m-14.526,19.742l-0.011,0a26.546,26.546 0 0 1 -13.48,-3.674l-0.967,-0.571l-10.025,2.616l2.675,-9.726l-0.63,-0.998a26.208,26.208 0 0 1 -4.049,-14.028c0.006,-14.533 11.887,-26.357 26.497,-26.357c7.074,0.003 13.724,2.748 18.725,7.73c5,4.983 7.753,11.605 7.75,18.649c-0.007,14.534 -11.888,26.358 -26.487,26.358m22.542,-48.793c-6.015,-5.994 -14.017,-9.297 -22.542,-9.3c-17.563,0 -31.859,14.226 -31.866,31.711a31.543,31.543 0 0 0 4.253,15.855l-4.52,16.434l16.893,-4.41a31.954,31.954 0 0 0 15.228,3.86l0.013,0c17.563,0 31.859,-14.227 31.866,-31.713c0.003,-8.474 -3.308,-16.442 -9.325,-22.436" fill-rule="evenodd" fill="#25D366"/>
  </svg>
 </g>
</svg>