<svg version="1" xmlns="http://www.w3.org/2000/svg" width="933.333" height="933.333" viewBox="0 0 700.000000 700.000000"><path d="M279.9.4c-.4.3-9.6 1.2-21.4 2.1-2.2.2-5.8.6-8 .9-2.2.4-6.9 1.1-10.5 1.7-62 9.5-112.9 36.6-149.3 79.4-3.7 4.4-7.2 8.6-7.8 9.3-7.9 9.7-24.5 39.2-28 49.7-.7 2.2-1.6 4.4-2 5-1.9 2.8-8.6 28.1-10.4 39-3.4 20.2-3.3 47.1.1 64.9 2.3 12.1 5.4 24.4 7.4 29.1.5 1.1 2 5.3 3.5 9.3 10.2 27.6 32.7 58.5 58 79.7 3.3 2.7 6.2 5.2 6.5 5.5.3.3 4.5 3.5 9.4 7 9.6 7 11.7 10 10.9 15.9-.7 5-4.4 14.5-8.9 22.7-14.3 26.4-23.8 42.6-32.7 55.9-6.1 9.1-18.9 26.3-22.3 30-1.1 1.1-3.2 3.6-4.7 5.5-7.6 9.4-24.9 25.6-40.2 37.8C5 570.2 0 576.1 0 585.3c0 10.8 4.4 17.2 27.4 40.2 24 23.9 35.8 34.2 53 45.9 25.7 17.5 59.2 28.8 75.1 25.4 15.9-3.4 39.7-22.3 62-49.2 2.2-2.6 4.5-5.3 5.1-5.9 2.3-2.6 23.5-30.9 30.1-40.2 18.9-27 38.1-56.8 58.7-91.3 11.4-19 19.1-29.1 26.7-34.8 6.6-5 10.4-6.6 16.1-6.6 11.4-.2 18.5 9.8 21.5 30.7 1.4 9.2.7 36.1-1.2 48.5-.2 1.4-.7 5.9-1 10-.3 4.1-.8 8.6-1 10-.2 1.4-.7 5.4-1.1 9-.3 3.6-.8 7.6-.9 9-.2 1.4-.6 5.2-.9 8.5-1 10.1-1.8 17.9-2.1 19.7-.2.9-.7 4.9-1 8.9-.4 4-.9 8.2-1.1 9.3-.2 1.2-.4 7.1-.5 13.2 0 16.2 3.4 24.6 12.5 29.9 8.6 5 24.7 6.2 55.1 4.1 12.5-.9 26.2-1.9 30.5-2.1 5.7-.4 20.2-1.5 26-2 2.5-.2 7.4-.7 11-1 3.6-.3 8.1-.8 10-1 1.9-.2 6-.7 9-1 3-.3 6.2-.8 7-1 .8-.2 3.1-.7 5-1 16-2.7 24.4-7.2 29.6-16.1 2.3-4 9.3-24 13.9-39.9 1.3-4.4 3.4-11.9 4.8-16.6 6.6-21.9 17.4-69.7 21.6-94.9 1.6-9.3 2-11.9 3.1-17.5 1.2-6.2 2.1-12 3.4-21 .3-2.2 1.5-9.6 2.5-16.5 1.1-6.9 2.3-15.2 2.7-18.5.3-3.3.8-6.7.9-7.5.2-.8.6-4.4 1-8 .4-3.6.8-7.2 1-8 .2-.8.6-4.4 1-8 .3-3.6.8-7.6 1-9 .2-1.4.6-4.9.9-7.8.3-2.8.9-7.6 1.2-10.5.9-7 1.1-9.9 1.8-18.7.4-4.1.8-9.1 1.1-11 .9-7.1 1.5-13.7 2-21.5.4-4.4.8-10 1-12.5.2-2.5.6-8.3 1-13 .3-4.7.8-11 1-14 1.5-19.9 2.3-31.3 3-45 .3-6.3.8-14.9 1-19 1.2-18.7 2.8-67.6 2.8-81.1-.1-19.4-4.2-30.6-15.2-41.9-6.4-6.5-13.4-11.9-21-16.2-7.7-4.5-43.3-21.8-44.6-21.8-.3 0-3.3-1.3-6.7-2.9-26.9-12.3-73.8-27.9-107.9-36-18.9-4.5-40.7-8.7-49.9-9.7-3-.3-5.7-.7-6-.9-.7-.4-12.6-1.8-25.5-3-3.8-.4-8.1-.9-9.5-1.2-2.7-.5-67.6-1.4-68.1-.9zm91.7 98.1c3.3 3.3 3.9 5 15.1 38 9.7 28.7 12.8 36.3 16.6 40.3 3.2 3.4 9.1 6.7 17.7 9.7 19.9 7 35.7 12.7 37.5 13.5 1.1.4 5.6 2 10 3.5 17.6 6 24.7 12.8 21.6 20.4-2 4.6-7.4 9.1-28.6 23.7-28.6 19.6-38.7 26.8-41.2 29.6-4.6 4.9-5.9 10.6-6.8 29.3-.2 6-.7 16.8-1 24-1.3 29.5-1.6 33.8-2.9 36.9-3.1 7.3-7.9 8.4-16.1 3.7-2.7-1.6-14.8-11.5-26.8-22-33.1-28.9-32.4-28.5-43.1-28.4-5.3 0-8.7 1.1-25.1 7.7-10.4 4.2-20.9 8.6-23.2 9.6-2.4 1.1-4.6 2-5 2-.5 0-2.1.7-3.6 1.5-5.7 3-20.5 7.5-24.5 7.5-11.6 0-13.3-6.1-6.7-22.8 1.9-4.9 3.5-9.2 3.5-9.7 0-.4.7-2.1 1.5-3.8 2.6-5.8 10.2-26 14.5-38.6 3.8-11.1 4.2-13.2 3.8-19.2-.5-6.5-2.7-12.3-6.2-16.6-10.3-12.3-37.7-49.6-40.7-55.2-4.8-9.3-1.1-16.3 9.4-17.6 2.9-.4 19.3-.4 36.3 0 17 .4 33.4.6 36.4.6 12.9-.4 17.2-3.3 27.8-18.9 11.1-16.3 32.2-43.2 37.7-48.1 4.5-3.9 8.6-4.1 12.1-.6z"/></svg>