<?xml version="1.0" encoding="UTF-8"?>
<svg enable-background="new 0 0 155 44" version="1.1" viewBox="0 0 155 44" xml:space="preserve" xmlns="http://www.w3.org/2000/svg">
<path d="m152.6 23.1c-0.8-1.2-1.7-2.2-2.8-3 0.4-0.2 0.8-0.5 1.1-0.8 1.6-1.6 2.5-4.2 1-5.9-4-4.7-10.7-5.3-14.7-3.2-1.5 0.8-2.8 1.9-3.8 3.2-0.6-1.3-1.9-2.2-3.3-2.2-0.8 0-1.6 0-2.4 0.1-1.9 0.1-3.3 1.6-3.5 3.5-0.3-0.6-0.8-1.2-1.5-1.5-0.8-0.4-1.6-0.7-2.4-1l-1-0.4c-1.9-0.9-4.1-0.2-5.2 1.7-1 1.5-1.8 3.2-2.3 4.9 0.3-4.3 0.4-7.4 0.4-7.7v0.1c0.2-3-0.9-4.9-3.7-6.3-9.4-4.8-18.2-4.9-23.3-3.4-5.3 1.5-9.3 5.9-10.3 11.3-4.5-2.6-8.6-2.3-11.4-0.9 0.1-0.7-0.1-1.4-0.4-1.9-0.7-0.9-1.8-1.4-2.9-1.3-1.6-0.1-3.1-0.1-3.8-0.1h-0.3c-1.5-0.2-3 0.5-3.7 1.8-0.8 1.6-1.8 3.4-2.6 4.7l-3.8-4.7-0.1-0.1v-0.1c-1-1.3-2.3-1.5-4.1-0.8-1.2 0.5-3 1.3-4.1 1.8-0.9 0.4-1.6 1.2-1.9 2.1-0.1 0.3-0.1 0.6-0.1 0.9-1.1-0.5-2.2-0.8-3.4-1-1.8-0.3-3.7-0.1-5.5 0.5-0.1-1.5-0.3-3-0.8-4.4-0.6-1.7-2.5-2.7-4.3-2.2-5.8 1.1-11.8 1.5-17.7 1.4-2.9 0-3.6 1.8-3.8 2.5-0.2 2.5-0.2 4.9-0.1 7.3 0.4 3 3.2 3 4.1 2.9 1.3 0 2.3-0.1 3.1-0.1h0.3c0.4 4.5 1.1 9 2.2 13.4v0.1c0.8 3.5 3.6 3.2 4.5 3 1-0.2 4.5-1.2 5.8-1.7 1.2-0.5 2-1.6 2-2.9v-0.3c0.7 0.7 1.5 1.4 2.4 1.9 2.7 1.5 5.9 2 8.8 1.2 1.7-0.5 3.4-1.3 4.8-2.4 0.2 0.4 0.5 0.9 0.8 1.2 0.5 0.7 3.4 3.9 6.3 4.3 0.7 0.1 1.5 0 2.2-0.3h0.1c2.1-0.9 5-4.5 8.8-10.8l0.5-0.8c-0.2 0.5-0.3 0.9-0.4 1.4-0.2 1.3 0.3 2.5 1.3 3.3l0.2 0.2c2.7 2.7 6.3 4.3 10.2 4.4 1.5 0 3-0.2 4.4-0.7 0.1 1 0.5 2 1.2 2.7 0.3 0.4 3.4 3.7 5.9 4.9 3.4 1.5 5 1.2 7.6-1.3 2.4-2.6 4.5-5.5 6.3-8.6-0.1 1.4-0.3 3.4-0.4 4-0.2 1.6-0.3 3.3 0.8 4.5 0.9 0.9 2.2 1.4 3.5 1.3h0.1c0.2 0 4.9-0.3 6.6-0.5 3-0.4 3.7-1.4 4.4-3.5l0.2-0.5c0.9-3 1.6-6.1 2.1-9.2 0.6 2.4 2 4.4 4.1 5.7 3.4 2 7.6 1.8 10.9-0.3 1.5-0.9 2.8-2.1 3.9-3.5 0.1 0.2 0.2 0.3 0.3 0.5l0.1 0.1c2.8 3.5 6.9 5.6 11.3 5.8 2.2 0.2 6.3 0 9.2-2.7 1.6-1.5 2.6-3.4 3.1-5.5 0.3-2.2 0-4.4-1.1-6.1zm-64.3-11.3z" fill="#FFFFFF"/>
<path d="m107.5 6.6c-8.4-4.3-16.6-4.8-21.8-3.3-9.5 2.9-12.4 15-3.6 20.9 0.5 0.4 0.2 1.1-0.5 2.3-1.2 2.5-2.9 4.8-5.1 6.6-1.6 1.3-2.7 1.8-1.3 3.4 0 0 3 3.3 5.2 4.3 2.7 1.2 3.3 1 5.3-0.9 1.2-1.2 3.7-4.3 6.7-9.4 1.5-2.6 3.6-2.7 3.3 1.7 0 0-0.4 4.2-0.5 5-0.3 2.5-0.1 3.3 2.2 3.4 0 0 4.8-0.3 6.4-0.5 2.3-0.3 2.2-0.7 2.8-2.5 3.3-9.9 3.5-26.8 3.5-26.8 0.1-2.2-0.6-3.2-2.6-4.2m-6.1 9.1l-3 2.1c-0.4 0.3-0.7 0.8-0.6 1.4 0 0.4-0.1 3.2-0.1 3.5s-0.2 1.4-1.4 0.4l-2.3-2c-0.5-0.6-1.3-0.7-1.9-0.4l-3.2 1.3s-1.9 0.8-1.2-0.9 1.2-3.1 1.3-3.5c0.2-0.5 0.1-1.1-0.3-1.6-0.2-0.2-1.7-2.2-2-2.7 0 0-1.3-1.5 0.8-1.4l3.6 0.1c0.5 0 1-0.3 1.2-0.7 0.6-0.9 2.3-3.1 1.9-2.6 0.3-0.4 1-1.3 1.4 0.2 0 0 0.7 2.1 1 2.9 0.1 0.7 0.7 1.2 1.3 1.3l3.3 1.2c0.1-0.1 1.6 0.4 0.2 1.4" fill="#0061AF"/>
<path d="m38.8 19.7c-1.5-2.5-4-4.2-6.8-4.6-3.6-0.6-7.3 1-9.4 4-1.5 2.1-2 4.9-1.4 7.4 1.1 5 6.1 8.1 11.1 7 0.1 0 0.2-0.1 0.4-0.1 4.3-1.3 6.7-3.8 7.4-7.8 0.3-2-0.2-4.1-1.3-5.9m-10.4 8.5c-1.2-0.4-2.1-2.3-1.7-4.4s1.9-3.6 3.3-3.1c1.2 0.4 2 2.4 1.6 4.5s-1.9 3.4-3.2 3" fill="#F58220"/>
<path d="m116 14.9c-2.1 3.4-3.3 7.2-3.4 11.2-0.2 2.7 1.1 5.3 3.4 6.8 2.7 1.5 6.1 1.4 8.7-0.3 6.3-3.8 7-13.2 6.9-17.5 0-0.8-0.6-1.6-1.5-1.6h-0.1c-0.7 0-1.4 0-2.1 0.1-0.9 0.1-1.6 0.9-1.5 1.8v0.3c0 4-0.3 7.5-2 9.7-1.1 1.4-2.5 2-3.3 1.6-0.9-0.5-1.3-1.5-1.2-2.5 0.3-2.2 1-4.3 2.2-6.2l0.3-0.6c0.5-0.8 0.2-1.8-0.5-2.3-0.4-0.2-1.3-0.6-2.1-0.9l-1-0.4c-1.1-0.5-2.3-0.1-2.8 0.8z" fill="#72BF44"/>
<path d="m138.2 12.2c-2.5 1.2-4.2 3.6-4.4 6.3-0.4 3.9 4.8 6.5 6.1 7.2 1.5 0.8 1.5 1.8 1.2 2.3-0.6 0.9-2.3 0.6-3.6 0.1s-2.4-1.4-3.2-2.5c-0.7-0.8-2.7 1.4-3 3-0.1 0.7 0.1 1 0.6 1.7 1.1 1.6 4.6 4.5 9.7 4.9 1.4 0.1 5.1 0.2 7.5-2.1 1.2-1.2 2.1-2.7 2.5-4.3 0.4-1.5 0.1-3.1-0.8-4.5-1.4-2.1-3.7-3.6-6.3-4.8-3.8-1.8-3-2.8-2.2-3.3s3.5-0.1 5.6 1.9c1.1 1 3.3-2.1 2.3-3.2-3.4-4-9.1-4.3-12-2.7z" fill="#ED145B"/>
<path d="m61.1 12.4c-2.1 6.8-11 22.4-14.5 23.8-0.3 0.2-0.7 0.3-1.1 0.2-1.8-0.3-4.2-2.7-4.9-3.6-0.3-0.4-1-1.3-0.5-1.8 2.2-1.8 4.9-4.6 5-6.2 0-0.3 0-0.6-0.2-0.9s-5.8-8-6.4-8.9c-1-1.4-1-1.7 0.1-2.3s2.8-1.3 4-1.8 1.4-0.1 1.7 0.3l5.1 6.6c0.3 0.2 0.7 0.2 0.9 0l0.1-0.1c0.6-0.8 3.4-5.9 3.8-6.7s1.3-0.6 2.2-0.7 2.3 0 3.7 0.1 1.5 0.7 1 2z" fill="#72BF44"/>
<path d="m63.6 14.1c-2.1 1.2-3.4 3.4-3.4 5.8-0.1 3.4 4.4 5.6 5.5 6.1 1.3 0.6 1.6 1.3 1.3 1.9-0.4 0.8-1.2 1-2.1 0.8-1.7-0.4-3-1.9-4.4-2.7-0.8-0.4-1.9 1.1-2.1 2.4-0.1 0.5 0.1 1.1 0.6 1.4 2.4 2.4 5.6 3.9 9 4 1.2 0 4.4-0.2 6.4-2.4 1-1 1.6-2.3 1.8-3.7 0.1-1.4-0.2-2.7-1-3.8-1.1-1.5-2.6-2.6-4.3-3.2-3.7-1.6-2.5-3.2-1.7-3.5s2.1-0.1 4.3 1.3c1.2 0.7 2.8-2.2 1.8-2.9-4.8-3.7-9.3-3.2-11.7-1.5z" fill="#ED145B"/>
<path d="m4 10.4c6 0.1 12.1-0.4 18-1.5 1.6-0.3 1.8 0.6 2 1.1 0.3 1.1 0.5 2.3 0.6 3.4 0 0.6 0.3 1.5-0.7 1.8-3.1 0.9-3.9 1.2-5.9 1.8-0.9 0.3-0.9 0.7-0.9 1.4 0.3 4.3 1.1 8.5 2.4 12.6 0.4 1.3 0.6 2.2-0.3 2.5-1.2 0.5-4.5 1.4-5.4 1.6-1.6 0.3-1.8-0.8-1.9-1.5-1-4.3-1.7-8.7-2.1-13.1-0.1-1.1-0.4-2.1-1.4-2s-2.1 0.1-4.3 0.2c-1.2 0-1.8 0-1.9-1.1-0.1-2.1-0.1-4.3 0.1-6.4 0.2-0.7 1-0.8 1.7-0.8z" fill="#ED145B"/>
<path d="m153.4 14.2c-0.8 0-1.5-0.7-1.5-1.5s0.7-1.5 1.5-1.5 1.5 0.7 1.5 1.5-0.6 1.5-1.5 1.5zm0-2.8c-0.7 0-1.3 0.6-1.3 1.3s0.6 1.3 1.3 1.3 1.3-0.6 1.3-1.3-0.5-1.3-1.3-1.3zm0 1.2c0.1 0 0.2 0 0.2-0.1 0 0 0.1-0.1 0.1-0.2s0-0.1-0.1-0.2h-0.2-0.2v0.4h0.2m-0.2 0.4v0.6h-0.4v-1.6h0.6c0.2 0 0.4 0 0.5 0.1s0.2 0.2 0.2 0.3 0 0.2-0.1 0.3-0.1 0.1-0.2 0.2c0.1 0 0.1 0 0.2 0.1 0 0 0.1 0.1 0.1 0.2l0.2 0.5h-0.4l-0.2-0.4c0-0.1-0.1-0.1-0.1-0.2h-0.2-0.2" fill="#FFFFFF"/>
</svg>
