<?xml version="1.0" encoding="UTF-8"?>
<svg width="216px" height="216px" viewBox="0 0 216 216" version="1.1" xmlns="http://www.w3.org/2000/svg" xmlns:xlink="http://www.w3.org/1999/xlink">
    <!-- Generator: Sketch 51.2 (57519) - http://www.bohemiancoding.com/sketch -->
    <title>disney</title>
    <desc>Created with Sketch.</desc>
    <defs>
        <polygon id="path-1" points="0 0.550339869 81.3235919 0.550339869 81.3235919 67.3298052 0 67.3298052"></polygon>
        <polygon id="path-3" points="0.565333538 0.214113056 32.4038461 0.214113056 32.4038461 52.920228 0.565333538 52.920228"></polygon>
    </defs>
    <g id="disney" stroke="none" stroke-width="1" fill="none" fill-rule="evenodd">
        <g transform="translate(8.000000, 64.000000)">
            <g id="Group-3" transform="translate(0.000000, 0.446574)">
                <g id="Fill-1-Clipped">
                    <mask id="mask-2" fill="white">
                        <use xlink:href="#path-1"></use>
                    </mask>
                    <g id="path-1"></g>
                    <path d="M30.3121154,55.3786539 C24.6794231,53.4036539 17.4178846,49.2248077 14.0063461,44.3132693 C13.0928846,42.9805769 12.8928846,41.8305769 15.5044231,40.8325 C20.1217307,39.0575 27.5351923,38.5921154 30.9775,38.6132693 C30.7505769,43.1190384 30.4159616,49.9882693 30.3121154,55.3786539 M80.7390384,38.0786539 C79.1544231,31.7690384 73.3659616,23.7459616 64.8505769,17.1401923 C49.6582693,5.3825 24.4909616,-3.52903846 3.85826923,2.47673077 C2.50442307,2.82288461 0.137115384,5.99596154 0.00442307693,7.64211539 C-0.139807693,9.59788463 3.25634616,10.3363461 5.90057693,9.82480769 C6.57173077,9.65365389 7.91403846,9.56711537 7.59673077,8.5075 C6.59480769,7.12480769 4.81211539,7.65942307 3.86596154,6.91519231 C4.20442307,6.28057693 5.18326923,6.26134616 5.90057693,5.94596154 C19.1698077,3.94211539 29.1640384,6.02673077 40.6255769,10.6978846 C53.1544231,16.0498077 67.8275,23.3305769 73.0582693,37.2075 C74.6448077,42.3055769 73.5640384,49.3113461 69.0832693,52.6113461 C60.7890384,58.9825 47.6467307,59.6325 37.5044231,57.4075 C37.2967307,51.0382693 37.7563461,45.2075 37.7198077,38.4440384 C44.9332693,38.5594231 55.3101923,39.8863461 56.9467307,42.8113461 C57.2255769,43.3151923 56.7101923,44.2267307 55.9486539,44.6190384 C54.4178846,45.3940384 52.9294231,46.2728846 53.2544231,46.8171154 C53.6717307,47.5536539 56.8313461,48.8536539 58.1948077,48.2325 C60.0101923,47.4055769 61.6928846,45.5901923 62.3736539,43.6017307 C63.0005769,41.8036539 62.2275,39.3075 60.9121154,38.0440384 C55.9525,33.2344231 42.1890384,32.0344231 37.8525,32.2267307 C37.8525,32.2267307 37.6275,25.8344231 37.4659616,23.5825 C37.1948077,19.8132693 34.3698077,17.1017307 33.8255769,18.3632693 C31.9159616,22.8805769 31.5678846,29.4459616 31.3255769,32.3421154 C29.4082693,32.6709616 25.8390384,33.0959616 20.9698077,34.8555769 C18.2294231,35.8344231 14.9409616,37.0882693 12.4678846,39.3825 C11.2601923,40.5036539 10.9621154,42.7075 11.4448077,44.0132693 C13.2371154,48.7594231 22.5390384,56.5286539 30.3198077,60.1171154 C30.6159616,62.4671154 30.5794231,65.9728846 32.1063461,66.6901923 C33.3140384,67.2632693 34.3563461,67.5517307 35.7871154,67.1267307 C37.3832693,66.6671154 37.4601923,63.6151923 37.5428846,62.7613461 C49.3178846,65.9959616 63.1063461,65.5055769 73.0640384,58.6075 C81.0467307,52.5844231 82.3025,44.3305769 80.7390384,38.0786539" id="Fill-1" fill="#231F20" fill-rule="nonzero" mask="url(#mask-2)"></path>
                </g>
            </g>
            <path d="M90.1942307,37.460228 C91.1115384,44.7525356 91.1673077,58.8813818 90.3538461,60.612151 C89.7230769,61.8756125 87.7711539,61.8986894 86.4769231,61.487151 C83.7711539,60.7736894 84.4730769,57.4256125 84.1980769,55.0775356 C84.325,48.3179202 84.4519231,41.4333048 85.7442307,35.0506125 C85.9961539,33.8275356 86.4096154,33.3659971 87.4596154,33.385228 C88.4711539,33.4025356 89.9884616,35.7909971 90.1942307,37.460228" id="Fill-4" fill="#231F20" fill-rule="nonzero"></path>
            <path d="M97.5175,53.8158048 C98.6617306,56.0523433 105.119423,56.5158048 107.754039,56.1773433 C113.480961,55.4542664 116.696346,53.2638818 117.104039,51.5081125 C117.730961,48.9042664 113.719423,48.067728 110.875193,47.4234971 C105.811731,46.267728 101.2175,46.9754202 96.1886537,45.7638818 C94.8578843,45.4465741 94.2540389,44.6408048 94.1251926,43.4773433 C93.8271157,40.9792664 94.6617306,38.2311894 96.4021157,36.9100356 C101.4175,33.0773433 117.148269,32.2811894 122.136731,34.8811894 C123.038654,35.3561894 122.654039,36.7504202 122.098269,37.4888818 C120.973269,39.0138818 118.675193,38.5504202 116.679039,38.7350356 C110.904039,39.2619587 104.923269,38.7542664 99.6867306,40.5542664 C98.8386537,40.8504202 98.9828843,42.3638818 100.686731,42.6331125 C107.613654,43.692728 118.223269,43.019651 120.450193,47.9504202 C121.590577,50.4523433 121.282884,55.8158048 119.461731,57.6581125 C115.409807,61.7638818 107.596346,61.5158048 104.232884,60.8215741 C101.950193,60.3484971 96.3848074,58.4119587 94.8578843,53.5984971 C94.5540389,51.8042664 95.2021157,50.4215741 96.3232694,49.5869587 C99.3175,47.3465741 102.975193,47.9581125 106.963654,48.5158048 C109.319423,48.8465741 113.032884,50.2869587 113.311731,50.8754202 C113.848269,51.9542664 113.559807,52.9965741 108.975193,53.5254202 C104.252116,53.9504202 101.794423,49.6311894 98.2925,51.3484971 C97.6444231,51.6619587 97.2348074,53.2754202 97.5175,53.8158048" id="Fill-6" fill="#231F20" fill-rule="nonzero"></path>
            <path d="M130.179807,36.3390741 C133.768269,39.735228 137.606731,47.787151 140.389423,51.8640741 C140.902884,52.635228 141.785577,52.1506125 141.793269,51.3698433 C141.906731,44.2236894 139.054807,38.5909971 138.179807,31.9659971 C138.102884,31.3429202 137.789423,29.9929202 138.510577,29.8929202 C140.135577,29.6756125 141.606731,31.7506125 142.608654,32.9909971 C146.125961,37.3506125 147.908654,45.8929202 147.025961,52.4986894 C146.749039,54.6198433 145.591346,59.1083048 143.639423,59.9294587 C142.656731,60.3275356 140.333654,60.5775356 139.547116,60.0159971 C136.056731,57.5159971 131.550961,45.0890741 130.158654,45.1967664 C129.810577,45.2179202 129.527884,45.7063818 129.414423,46.7583048 C128.9875,50.2313818 128.602884,59.5083048 128.602884,59.5083048 C128.329807,61.6833048 126.724039,61.462151 125.979807,61.462151 C124.620193,61.4333048 123.577884,60.6583048 123.452884,59.9294587 C122.979807,56.837151 123.164423,52.4159971 123.541346,49.237151 C124.029807,45.2736894 125.3125,40.0813818 126.883654,37.1140741 C127.658654,35.6063818 129.347116,35.5467664 130.179807,36.3390741" id="Fill-8" fill="#231F20" fill-rule="nonzero"></path>
            <path d="M153.025577,45.6238818 L155.056346,40.9354202 C153.646731,40.6161894 150.598654,39.3219587 150.062116,36.8950356 C150.071731,36.5258048 152.171731,35.927728 153.035193,35.8392664 C159.533269,35.1469587 163.998654,34.529651 169.694807,34.8200356 C170.917884,34.8719587 174.260193,38.6911894 173.389039,40.0969587 C172.785193,41.0854202 168.010193,40.9431125 166.096731,40.8661894 C164.250577,40.7854202 160.721731,41.1161894 160.721731,41.1161894 L159.010193,45.5834971 C161.792884,45.4931125 166.246731,45.0623433 167.448654,45.8334971 C167.958269,46.1565741 168.0025,48.4334971 167.748654,48.9758048 C167.162116,50.2950356 164.062116,49.8642664 162.223654,49.8584971 C160.271731,49.8623433 157.075577,50.0065741 157.075577,50.0065741 C157.225577,49.7411894 154.706346,54.8469587 155.248654,55.9488818 C155.710193,56.8892664 164.967884,54.3123433 167.2525,54.7258048 C168.7525,54.9911894 169.767884,57.4661894 168.833269,58.277728 C164.546731,62.0681125 157.556346,65.1623433 153.690961,63.9834971 C150.110193,62.877728 148.519807,59.2065741 149.2525,56.2892664 C149.814039,53.9931125 151.154423,49.8411894 151.154423,49.8411894 C151.048654,49.7911894 150.483269,49.4450356 150.250577,46.802728 C150.162116,45.7873433 153.035193,45.6065741 153.025577,45.6238818" id="Fill-10" fill="#231F20" fill-rule="nonzero"></path>
            <g id="Group-14" transform="translate(167.307693, 34.064807)">
                <g id="Fill-12-Clipped">
                    <mask id="mask-4" fill="white">
                        <use xlink:href="#path-3"></use>
                    </mask>
                    <g id="path-3"></g>
                    <path d="M24.6903846,19.5406125 C22.2326923,21.5233048 19.0288461,23.0483048 16.4884616,22.7675356 C17.8980769,20.4079202 19.4596154,17.6309971 21.3865384,15.0733048 C22.7615384,13.2463818 25.5884616,9.90022796 27.8365384,8.67522796 C28.5076923,8.30407407 28.9865384,9.12715102 28.9557693,10.2790741 C28.8673077,14.002151 27.4,17.2059971 24.6903846,19.5406125 M30.5384616,4.63868946 C29.5923077,3.56945869 27.5923077,2.73484331 25.9769231,3.31368946 C21.8076923,4.81176638 19.3865384,7.802151 16.2153846,11.1675356 C14.1480769,13.4848433 11.9519231,17.2175356 10.4692307,19.2694587 C9.97307694,18.8559971 9.78461537,17.5156125 9.82884611,16.4829202 C10.5884616,10.4348433 17.1211539,5.81176638 16.4211539,0.488689463 C16.2826923,-0.567079772 13.7769231,1.71368946 13.1019231,2.40792023 C8.77692307,7.14445869 4.92115384,13.1117664 5.74038461,19.9636894 C6.01538461,22.3290741 7.36923077,24.5886894 7.36923077,24.5886894 C7.36923077,24.5886894 2.57307693,33.952151 1.16346154,40.3098433 C0.453846154,43.525228 0.261538461,46.7425356 1.22115384,49.0636894 C2.21538461,51.2675356 6.01153846,54.1329202 6.37884616,52.375228 C8.05192307,44.3079202 10.6711539,36.225228 13.2173077,28.7906125 C13.2173077,28.7906125 14.8192307,29.325228 16.6807693,29.1656125 C23.4596154,28.5713818 29.7923077,22.7944587 31.6230769,15.7040741 C32.7365384,11.7059971 32.8923077,7.727151 30.5384616,4.63868946" id="Fill-12" fill="#231F20" fill-rule="nonzero" mask="url(#mask-4)"></path>
                </g>
            </g>
            <path d="M95.0488463,23.7244587 C91.8046154,24.9244587 87.8796154,24.4148433 86.8430769,23.980228 C89.6430769,19.3398433 94.7315389,15.2283048 98.1738463,14.6725356 C100.054616,14.3686894 101.656539,14.3936894 102.037307,15.7936894 C102.612307,17.9436894 100.850769,21.5590741 95.0488463,23.7244587 M82.2988461,21.5879202 C81.5738461,20.855228 81.8103846,19.2475356 82.2161539,18.5359971 C82.5507693,17.8763818 83.1911539,16.9533048 83.8930769,16.2859971 C84.9296154,15.3129202 86.0026923,14.5879202 87.3180769,13.9783048 C87.9796154,13.6725356 89.4257693,13.3456125 90.2853846,13.6379202 C87.2353846,15.5244587 84.0911539,18.8456125 82.2988461,21.5879202 M104.512307,12.307151 C103.595,11.4783048 101.968077,11.282151 100.648846,11.3936894 C100.039231,7.78407407 92.6565389,8.132151 89.7757693,8.8206125 C84.3065384,10.1244587 80.6642307,13.6129202 78.6546154,17.3783048 C77.2334616,20.0744587 77.9430769,24.0994587 79.8757693,25.305228 C79.5623077,26.007151 79.5430769,27.1898433 79.6584616,27.8283048 C79.9026923,29.3186894 81.2411539,30.7167664 82.2603846,30.7379202 C83.2238461,30.7417664 84.0661539,28.5206125 84.4065384,28.2013818 C86.8988461,28.8763818 89.6796154,29.432151 92.7161537,28.7533048 C98.7180769,27.4033048 103.231539,23.3263818 105.050769,19.2879202 C106.154616,16.8475356 106.306539,13.9436894 104.512307,12.307151" id="Fill-15" fill="#231F20" fill-rule="nonzero"></path>
        </g>
    </g>
</svg>