<?xml version="1.0" encoding="UTF-8"?>
<svg width="216px" height="216px" viewBox="0 0 216 216" version="1.1" xmlns="http://www.w3.org/2000/svg" xmlns:xlink="http://www.w3.org/1999/xlink">
    <!-- Generator: Sketch 51.2 (57519) - http://www.bohemiancoding.com/sketch -->
    <title>hotWheels</title>
    <desc>Created with Sketch.</desc>
    <defs>
        <polygon id="path-1" points="0 0.0183526304 215.972566 0.0183526304 215.972566 63.1882016 0 63.1882016"></polygon>
    </defs>
    <g id="hotWheels" stroke="none" stroke-width="1" fill="none" fill-rule="evenodd">
        <g transform="translate(0.000000, 76.000000)">
            <g id="Group-3" transform="translate(0.000000, 0.029003)">
                <g id="Fill-1-Clipped">
                    <mask id="mask-2" fill="white">
                        <use xlink:href="#path-1"></use>
                    </mask>
                    <g id="path-1"></g>
                    <path d="M213.491386,20.7606762 C210.874804,15.2291173 206.389773,10.672958 200.164238,7.21805151 C193.313572,3.41796346 184.518525,1.08480211 174.023293,0.285226502 C172.161595,0.108023773 170.105672,0.0183526304 167.915053,0.0183526304 C150.658635,0.0183526304 125.829428,5.5164869 103.922569,10.3676672 C101.783917,10.8417451 99.6707966,11.31007 97.591957,11.7663183 C75.4915864,16.6239648 61.1907508,18.7898129 51.2234657,18.7898129 C50.456554,18.7898129 49.7055225,18.7754066 48.9927653,18.7503975 C44.3187402,18.4294167 40.2106988,17.3644887 36.716377,15.581621 C33.019368,13.9401065 28.6067015,10.1991178 28.6067015,10.1991178 C28.6067015,10.1991178 28.6475908,14.5733198 30.6201657,17.6332644 C31.1980834,18.561451 31.8469392,19.4968646 32.3965197,20.236818 C32.57125,20.4726445 32.7415111,20.6962518 32.9044976,20.9063562 C30.584554,21.0885512 28.2391259,21.2323768 25.9422894,21.2323768 C22.9088278,21.2323768 20.2703757,20.9787207 17.8764034,20.4572873 C13.7642256,19.5795466 10.3764061,18.3773066 7.62664953,16.8179987 C3.74288109,14.7012177 1.20294361,11.8836135 0.334426766,10.8309047 L-9.50913495e-06,10.5193379 C-9.50913495e-06,11.299705 0.111294915,16.182836 2.80984477,20.2116188 L2.80166692,20.2096694 C5.96207546,25.0199604 10.0117308,29.3847959 14.4919121,32.7552613 C14.7516066,32.9512446 15.0167688,33.1365776 15.2838329,33.3230993 L15.269902,33.3402157 C15.380731,33.4269866 15.497313,33.4954999 15.6156541,33.5553599 C20.934351,37.1633634 27.6206042,39.0647625 35.0546557,39.0647625 C40.0529423,39.0647625 45.3870915,38.1988607 50.482086,36.5592481 C50.8340191,36.4698622 52.740458,36.0592102 53.5958047,35.9349258 C54.0585668,35.9690636 54.7427966,36.1020013 55.0603541,36.5686146 C55.4671549,37.1657882 55.4003057,38.3666494 54.8773984,39.8660497 C53.7344954,42.759109 51.5533376,44.7234585 49.4382207,44.7643002 C48.0508379,44.7604966 47.3526773,44.2838037 46.2975436,43.5630112 C44.9769625,42.6624486 43.3330708,41.5399903 40.3724968,41.5399903 C40.2638074,41.5399903 40.1529784,41.5419397 40.0402476,41.544317 C39.7921543,41.5380885 39.5403999,41.5349029 39.2898818,41.5349029 C37.0320328,41.5349029 34.9991223,41.7782417 33.0335842,42.0145912 C31.1942322,42.2321602 29.4580068,42.4405529 27.6378633,42.4405529 C25.77374,42.4405529 23.3744902,42.248516 20.2285355,41.0928232 C15.5747649,39.5278098 10.753158,37.3057152 10.753158,37.3057152 C10.753158,37.3057152 12.1837598,40.9726753 15.3643753,44.3335364 C17.6117167,46.4438512 21.3760028,49.6287458 26.8546434,52.799234 C36.1663211,58.1860163 46.9476357,61.5565292 58.8984312,62.8154911 C61.2592641,63.063109 63.8967653,63.1882016 66.7381424,63.1882016 C71.8487319,63.1882016 76.4250981,62.7873916 78.697924,62.5491402 C103.927418,59.8974704 123.51481,51.3546062 140.794287,43.8161444 L140.805793,43.8111046 L140.825001,43.803212 C160.349918,35.0079278 174.850303,30.4560475 185.153165,29.8846436 L185.179077,29.8834074 L185.205085,29.8800317 C186.249426,29.7963989 187.287062,29.7550341 188.289991,29.7550341 C196.926377,29.7550341 203.367342,32.8336641 205.964715,38.203853 C206.704241,39.7321136 207.114797,41.4221721 207.194579,43.2069892 C207.365268,45.2384257 207.280732,47.358107 207.148507,49.0108897 C207.120123,49.2490936 206.786922,51.9813533 206.436891,53.0065331 C206.436891,53.0065331 209.912195,49.9631345 212.013333,46.2892327 L211.982096,46.2981713 C212.184545,45.9839419 212.38457,45.662961 212.577748,45.3266229 C214.247219,42.1535197 215.337727,38.7286621 215.766589,35.2502206 C216.38687,30.2281611 215.600226,25.216847 213.491386,20.7606762" id="Fill-1" fill="#FEFEFE" fill-rule="nonzero" mask="url(#mask-2)"></path>
                </g>
            </g>
            <path d="M173.847346,2.35621149 C155.520628,0.604391107 124.023472,8.08413401 98.0318686,13.7974125 C77.1963555,18.3760134 60.2565448,21.2587076 48.8840949,20.8242828 C42.5055574,20.3925205 36.2331418,18.5659108 31.2106069,14.4611976 C32.0027654,16.4339628 35.8668024,21.9946196 37.5152585,22.608149 C30.8665664,23.1557801 24.0281671,23.9243559 17.4400007,22.4891422 C12.1777405,21.3663986 6.56188316,19.4457911 2.40601083,15.5822295 C5.61325186,21.5570567 10.316993,27.0787261 15.7250282,31.1475899 C25.3933936,38.4230766 38.8395957,38.1912914 49.8904467,34.6256035 C50.0952734,34.558992 52.5733064,34.0180649 53.5157568,33.9067605 C56.3561354,34.0082229 58.4258462,35.9913055 56.7987856,40.6095595 C55.4383137,44.0812496 52.6603626,46.7940156 49.4553087,46.8427974 C45.1994002,46.8427974 44.9089437,43.4653429 40.0449736,43.6228142 C31.5295908,43.3977805 26.0644057,47.1548397 14.6378488,40.7720706 C16.9565563,43.0708089 30.3741834,57.7769713 59.113214,60.8068195 C66.4364841,61.5740165 74.6559426,60.9407556 78.4834645,60.5395177 C103.40239,57.9212249 122.836827,49.4433081 139.982606,41.9630422 C154.528207,35.4116762 171.979894,28.5913442 185.040739,27.8675089 C196.0013,26.9837774 204.512642,30.5237431 207.809173,37.3404615 C209.28328,40.3876638 209.628509,43.8684827 208.887129,47.4793865 C219.826628,31.8618685 215.001122,5.48609571 173.847346,2.35621149" id="Fill-4" fill="#E31618" fill-rule="nonzero"></path>
            <path d="M16.5228874,31.7469602 C16.7913874,31.9594602 16.7808874,31.9339602 16.5228874,31.7469602" id="Fill-6" fill="#E2171B" fill-rule="nonzero"></path>
            <path d="M99.1495628,34.7691059 C98.9072225,43.4905516 96.5844262,51.823359 90.2124024,53.2215347 C84.2755642,54.2047792 81.1161541,44.7993414 81.9017988,38.4095831 C82.2864433,29.571698 85.5535919,23.3105507 90.6677473,21.903484 C95.5198785,20.5838538 99.3666564,26.1036214 99.1495628,34.7691059 Z M90.7425366,27.0690839 C89.186129,27.4064204 88.2831415,31.5329571 88.1035615,37.3834999 C87.9254554,43.2415074 88.3536042,48.4407695 90.4643469,48.002018 C92.5696218,47.5442958 92.7419749,42.1041197 92.8852776,36.2495355 C93.0463623,30.3994682 92.2227286,26.7373577 90.7425366,27.0690839 Z M94.8472498,19.7258921 C100.535472,18.1732881 105.319613,21.2043724 107.173846,25.4828651 L107.175273,25.4848144 C107.412098,26.014188 107.66718,26.1264909 107.929204,26.1298191 C108.4475,26.1350966 111.866604,25.5261316 113.017685,24.1120757 C113.017685,24.1120757 114.174519,28.363182 109.166818,30.9060198 C109.166818,30.9060198 108.461954,31.2502505 108.456914,31.9996179 C108.452587,32.7159886 108.079259,36.3565133 107.884749,37.3619142 C107.79912,37.8090337 107.428929,38.7689808 108.310236,38.8060189 C109.038921,38.8351169 111.20881,38.3028431 112.564718,34.5697944 C112.607984,34.3378191 112.576271,34.5859124 112.576271,34.5859124 C111.571821,42.8172098 106.471834,48.944516 101.359153,50.5953018 C97.7857152,51.749996 98.2622179,49.4005265 98.8803117,47.9573251 C101.007172,42.4128338 101.053339,39.6798609 101.368519,36.157915 C101.696917,32.4861528 100.817513,21.62867 94.8472498,19.7258921 Z M88.8998089,18.7928558 C83.9332353,21.9561171 80.2215822,29.9460726 79.7749381,38.3184856 C79.685267,40.0200502 78.8409509,51.9350913 87.7982707,55.9698173 C81.9368875,56.8891605 75.7293718,57.5728673 72.5934493,57.6784187 C72.5934493,57.6784187 73.4212195,55.037827 73.6120678,50.0192859 C73.7693013,45.8775822 73.1319991,42.4262892 71.622519,42.6481849 C70.5048153,42.8131208 69.2081021,46.7387295 69.1169571,50.1894994 C68.9952877,54.7459441 69.9042659,57.7212098 69.9042659,57.7212098 C66.3936359,57.8123073 60.4637394,57.806792 52.5442941,56.3653022 C53.6261008,56.1934246 62.2131825,51.4417574 63.3683522,40.7703685 C64.6557464,28.8865648 54.195175,25.7841145 49.4302426,23.7959921 C56.2532846,24.0087114 61.0162201,23.606998 70.9406665,22.1364578 C70.9406665,22.1364578 69.7244482,24.055116 69.7061906,29.4222144 C69.6881708,34.3294035 70.7392155,36.9291534 71.7092424,36.9152225 C72.8538569,36.8981536 73.9291499,34.3519877 74.120759,29.1399833 C74.3181686,23.7916654 73.4053392,21.7503394 73.4053392,21.7503394 C77.9896456,20.9305569 81.0968981,20.5119648 88.8998089,18.7928558 Z M165.691731,18.5914048 C168.101679,16.3320343 170.860517,14.3571297 171.882701,11.4669232 C172.906835,8.57481488 172.888578,6.60204975 170.855667,5.33029804 C168.943998,4.13737706 165.438884,4.21169095 162.097136,8.11466784 C158.443013,12.3812265 157.749702,19.7695866 158.797894,23.3570029 C159.697981,26.4399595 161.460594,29.2813366 164.837859,28.616125 C170.75953,27.4503526 170.55185,18.8986449 170.55185,18.8986449 C170.55185,18.8986449 168.341975,22.8256799 166.338971,22.9526269 C164.234837,23.086991 163.731994,20.4297583 165.691731,18.5914048 Z M163.864694,16.6337592 C163.864694,16.6337592 163.789667,14.0352454 164.816701,11.555168 C165.845542,9.07561347 167.368858,7.71870746 168.381438,8.61570416 C169.35175,9.47946643 168.582413,11.1705234 167.752551,12.2025974 C166.92364,13.2331974 166.406248,13.7265314 165.336042,14.6835307 C164.268547,15.6415761 163.864694,16.6337592 163.864694,16.6337592 Z M178.36118,17.1182021 C180.334516,15.2430007 182.597214,13.5979203 183.421323,11.2065631 C184.248285,8.81235307 184.220376,7.18457935 182.536593,6.14356681 C180.95375,5.16731147 178.031355,5.31156505 175.299381,8.55127977 C172.311563,12.0926718 171.676924,18.2747506 172.52124,21.2457372 C173.373306,24.2416377 174.95225,26.1786485 177.955425,25.3848259 C182.524041,24.1750737 183.728041,17.3265948 183.728041,17.3265948 C183.728041,17.3265948 181.146073,20.4405987 179.002619,20.6124763 C176.985065,20.7740841 176.756228,18.6474136 178.36118,17.1182021 Z M176.841858,15.5117764 C176.841858,15.5117764 176.76393,13.365422 177.59674,11.3133031 C178.428552,9.26123179 179.676721,8.13368611 180.518137,8.86883733 C181.323989,9.57688752 180.699856,10.9791521 180.020952,11.8333101 C179.343046,12.6874682 178.919937,13.0980726 178.04386,13.8933691 C177.168782,14.6919938 176.841858,15.5117764 176.841858,15.5117764 Z M191.463389,8.2041488 C190.050664,7.62328329 186.002293,6.42437156 185.263766,6.33379705 C187.054336,11.1942963 186.175359,20.8646586 182.805845,24.9220163 C186.631179,24.4789857 190.351724,24.5852027 193.826076,25.1903165 L194.026101,18.0511908 C192.700052,21.3063104 185.295431,25.4576659 191.463389,8.2041488 Z M201.521058,27.0352313 C200.825798,27.1508149 200.009344,27.0726973 199.155376,26.8068219 C197.81202,26.3882773 196.866812,25.9973568 195.717633,25.5684948 L195.802217,20.9680704 C196.358074,22.1374088 198.092825,23.5322087 199.053485,23.4022188 C199.31028,23.3687942 199.528514,23.1732864 199.57663,22.9300427 C199.653512,22.5461114 199.44103,22.0496394 198.978506,21.5370971 C198.512083,21.0236038 197.674518,20.1751988 196.961,19.3845142 C193.791463,15.8702232 195.126165,13.4733506 195.861887,12.838711 C196.913882,11.9313969 198.201514,12.1381255 198.730365,12.2480511 C200.677693,12.6521418 202.201865,14.2782514 202.920185,15.8877676 C203.338539,16.8306458 203.617395,17.859344 203.449083,18.9630218 C203.020126,17.8439868 200.229623,14.7248954 199.233303,15.9671213 C198.56405,16.8001215 200.148795,18.0014105 201.790262,19.4544539 C204.00299,21.4144768 204.276092,22.868899 203.731742,24.9477385 C203.425072,26.120405 202.661489,26.8421484 201.521058,27.0352313 Z M162.320315,4.65281972 C162.320315,4.65281972 160.803798,4.70787761 156.738976,5.10336254 C152.759783,5.49085978 152.117441,5.66278494 152.117441,5.66278494 C152.766487,10.2307832 152.073224,16.9907797 150.201874,17.4324314 C148.655546,17.7971068 147.818932,10.1228545 149.135424,6.06307198 C149.135424,6.06307198 143.333948,6.87443892 138.939302,7.77091261 C147.669924,17.1359842 143.767613,29.9686568 139.046993,39.0973788 C141.794324,37.8575778 146.577467,35.6766102 149.248868,34.5810627 C147.974787,29.9751706 148.867171,23.7427885 150.483629,23.2179793 C151.896259,22.7581175 153.222355,30.0356962 151.898161,33.42014 C154.347381,32.3645785 157.619855,31.1016703 161.193293,29.8652925 C156.525496,27.7915404 152.654993,13.5363487 162.320315,4.65281972 Z M106.382163,14.8489897 C106.382163,14.8489897 117.360365,16.7037464 117.968093,30.3271037 C118.548911,43.3282782 112.157964,50.2298657 112.157964,50.2298657 C115.19,49.1172969 115.590001,49.0586256 118.670105,47.8214871 C122.005054,46.4788448 125.346707,45.0498596 125.346707,45.0498596 C125.346707,45.0498596 124.376442,42.5049298 125.526524,38.2076566 C126.772744,33.556501 128.554661,32.2241285 128.554661,32.2241285 C128.554661,32.2241285 128.127701,34.1123099 129.484607,37.6522756 C130.826964,41.1490222 132.373292,42.057002 132.373292,42.057002 L137.499761,39.7556011 C137.499761,39.7556011 135.905317,36.2593775 138.310368,30.9997323 C140.342327,26.5541642 142.843515,21.1517394 140.784645,14.642689 C139.311394,9.97907638 137.227562,8.07021263 137.227562,8.07021263 L128.140205,9.92639577 C128.140205,9.92639577 133.727297,11.1174149 134.541755,18.5115281 C134.968715,22.3869285 132.98877,25.6920185 132.98877,25.6920185 C132.98877,25.6920185 133.185847,23.9556029 131.784724,21.9712842 C130.451971,20.0816764 129.162437,19.6301827 129.162437,19.6301827 C129.162437,19.6301827 129.034539,22.2676839 127.483409,25.1686832 C126.288111,27.4029971 124.732179,28.6141757 124.732179,28.6141757 C124.732179,28.6141757 125.984247,23.7841532 124.73893,18.8837156 C123.252272,13.0382126 119.647121,11.800884 119.647121,11.800884 L106.382163,14.8489897 Z" id="Fill-8" fill="#FDEA00" fill-rule="nonzero"></path>
            <path d="M205.636831,28.7937652 C205.695454,28.6589256 205.777138,28.5418206 205.878172,28.4437339 C205.981061,28.3437454 206.099307,28.2656278 206.235906,28.2088583 C206.371459,28.152897 206.515665,28.1242745 206.668619,28.1242745 C206.820528,28.1242745 206.964876,28.152897 207.100334,28.2088583 C207.23408,28.2656278 207.353325,28.3437454 207.453266,28.4437339 C207.555299,28.5418206 207.635984,28.6589256 207.694655,28.7937652 C207.754325,28.9286523 207.784088,29.0738567 207.784088,29.2310903 C207.784088,29.3909389 207.754325,29.5398044 207.694655,29.6756424 C207.635984,29.8119083 207.555299,29.9292034 207.453266,30.0292395 C207.353325,30.1294658 207.23408,30.2078686 207.100334,30.262879 C206.964876,30.3186976 206.820528,30.3456085 206.668619,30.3456085 C206.515665,30.3456085 206.371459,30.3186976 206.235906,30.262879 C206.099307,30.2078686 205.981061,30.1294658 205.878172,30.0292395 C205.777138,29.9292034 205.695454,29.8119083 205.636831,29.6756424 C205.57621,29.5398044 205.54735,29.3909389 205.54735,29.2310903 C205.54735,29.0738567 205.57621,28.9286523 205.636831,28.7937652 Z M205.819501,29.610695 C205.86562,29.7258506 205.930996,29.8263146 206.011823,29.9123723 C206.094553,29.9970036 206.192592,30.0640905 206.30518,30.1128724 C206.416675,30.1617018 206.537869,30.1862354 206.668619,30.1862354 C206.798467,30.1862354 206.91676,30.1617018 207.028302,30.1128724 C207.139797,30.0640905 207.236933,29.9970036 207.317665,29.9123723 C207.401393,29.8263146 207.465865,29.7258506 207.511937,29.610695 C207.559102,29.4943031 207.581259,29.3674037 207.581259,29.2310903 C207.581259,29.0976296 207.559102,28.9745338 207.511937,28.8587126 C207.465865,28.7445079 207.401393,28.6447095 207.317665,28.5608389 C207.236933,28.4752567 207.139797,28.4094059 207.028302,28.361052 C206.91676,28.3122701 206.798467,28.2886875 206.668619,28.2886875 C206.537869,28.2886875 206.416675,28.3122701 206.30518,28.361052 C206.192592,28.4094059 206.094553,28.4752567 206.011823,28.5608389 C205.930996,28.6447095 205.86562,28.7445079 205.819501,28.8587126 C205.772431,28.9745338 205.749276,29.0976296 205.749276,29.2310903 C205.749276,29.3674037 205.772431,29.4943031 205.819501,29.610695 Z M206.736895,28.5856102 C206.892702,28.5856102 207.006099,28.61661 207.081126,28.6776586 C207.155249,28.7392303 207.192668,28.8327051 207.192668,28.9572748 C207.192668,29.0738567 207.159956,29.1596767 207.093678,29.2142591 C207.028302,29.269317 206.946476,29.3015054 206.849436,29.3113949 L207.222574,29.8847482 L207.005195,29.8847482 L206.651265,29.326039 L206.436882,29.326039 L206.436882,29.8847482 L206.233957,29.8847482 L206.233957,28.5856102 L206.736895,28.5856102 Z M206.647462,29.162577 C206.692677,29.162577 206.736895,29.1611031 206.777261,29.1582503 C206.816724,29.1551123 206.853239,29.1462213 206.885951,29.1330036 C206.91676,29.118835 206.943624,29.0976296 206.960978,29.0690546 C206.980186,29.0394812 206.98979,29.0000659 206.98979,28.9478607 C206.98979,28.9041662 206.981185,28.8697432 206.964876,28.844544 C206.947475,28.8185365 206.926317,28.7988526 206.898455,28.7849217 C206.872495,28.7707055 206.841733,28.761339 206.806169,28.7562992 C206.771508,28.7519725 206.737846,28.7481213 206.704231,28.7481213 L206.436882,28.7481213 L206.436882,29.162577 L206.647462,29.162577 Z" id="Fill-10" fill="#FDEA00" fill-rule="nonzero"></path>
        </g>
    </g>
</svg>