<?xml version="1.0" encoding="UTF-8"?>
<svg width="216px" height="216px" viewBox="0 0 216 216" version="1.1" xmlns="http://www.w3.org/2000/svg" xmlns:xlink="http://www.w3.org/1999/xlink">
    <!-- Generator: Sketch 51.2 (57519) - http://www.bohemiancoding.com/sketch -->
    <title>lego</title>
    <desc>Created with Sketch.</desc>
    <defs></defs>
    <g id="lego" stroke="none" stroke-width="1" fill="none" fill-rule="evenodd">
        <g transform="translate(32.000000, 32.000000)" fill-rule="nonzero">
            <polygon id="Fill-6-path" fill="#000000" points="0 152 152 152 152 0 0 0"></polygon>
            <polygon id="Fill-6" fill="#E83330" points="1.80952381 150.190476 150.190476 150.190476 150.190476 1.80952381 1.80952381 1.80952381"></polygon>
            <path d="M145.442605,68.3880388 C144.762247,73.8539604 141.067232,83.9884841 139.101938,88.0393283 C133.832051,98.8953935 126.79126,107.235948 113.228592,107.235948 C105.98188,107.235948 100.023399,104.923063 96.5375976,100.48509 C91.434094,104.954362 85.1181376,107.2969 78.317859,107.2969 C73.0743303,107.2969 68.4469121,105.786277 64.9149845,102.987421 C61.0156968,105.73356 55.7589893,107.267247 49.9306498,107.267247 C45.0610705,107.267247 40.6807554,105.927949 37.2559058,103.456917 C33.4604016,105.975722 28.4903336,107.226064 22.6570521,107.086038 C12.9491932,106.858704 6.24610855,100.699246 6.05501546,91.7607017 C5.79802818,79.8882192 15.8007635,58.1497319 20.5154915,50.6246175 C24.0408297,44.8275776 29.4227362,41.7124307 36.0220375,41.7124307 C43.1830866,41.7124307 45.7776696,43.75515 47.0543692,46.3612645 C52.5795955,41.6663048 59.9037328,41.3961387 65.1176091,41.3961387 C70.8734649,41.3961387 74.4844656,42.9298256 77.5567814,45.3695572 C81.7987187,42.8227475 86.663356,41.5032167 92.4653378,41.5032167 C99.8734903,41.5032167 105.382243,43.2263494 109.222225,47.0251483 C113.699734,43.3004803 119.308976,41.5954686 125.588691,41.5954686 C133.891356,41.5954686 139.353983,44.592006 142.561382,49.0563361 C147.083369,55.3475823 146.276166,61.6882489 145.442605,68.3880388 Z" id="Fill-4" fill="#E7E21F"></path>
            <path d="M125.509124,45.3537426 C117.638065,45.3537426 112.203443,48.4721844 108.518311,52.8327312 C107.893964,51.5280266 107.42282,50.9563946 106.758937,50.2035537 C103.747573,46.7935303 98.8977625,45.2021861 92.3940074,45.2021861 C86.0418092,45.2021861 80.7455651,47.187248 77.0670229,50.3139264 C75.1577394,47.2070162 70.6077468,45.1511181 65.1187622,45.1511181 C57.9445342,45.1511181 50.1294855,46.1658883 45.4938305,53.6382874 C45.3818104,50.9465105 45.1380019,49.5231964 43.6306728,47.9236154 C41.7889307,45.9764426 38.8171035,45.4707048 35.91776,45.4707048 C30.6379895,45.4707048 26.6678656,47.7737061 23.8097059,52.4703132 C19.6633151,59.0926775 9.61115917,80.8855275 9.83684672,91.4401265 C9.98510862,98.2568787 14.5565167,103.172584 22.745515,103.365324 C29.1405444,103.515233 34.1567382,101.808574 37.3493108,98.5847018 C40.2124126,101.696554 44.5828436,103.52347 49.8115461,103.52347 C55.6332962,103.52347 61.4912881,101.77398 64.9507321,97.953765 C67.8665492,101.536761 72.4527835,103.614075 78.350312,103.589364 C86.0582827,103.549828 92.8322036,99.8959962 97.2537024,94.2900494 C99.6819024,100.897588 105.838065,103.52347 112.559271,103.52347 C127.293208,103.52347 133.764015,93.390594 139.155806,77.3733681 C140.369906,73.7623675 141.990903,67.7379929 142.259422,62.6789678 C142.707503,54.2576926 139.145923,45.3537426 125.509124,45.3537426" id="Fill-9-path" fill="#000000"></path>
            <path d="M145.373416,41.4368284 C143.358702,41.4368284 141.731115,43.0644144 141.731115,45.0890128 C141.731115,47.1086692 143.358702,48.7346079 145.373416,48.7346079 C147.398015,48.7346079 149.028895,47.1086692 149.028895,45.0890128 C149.028895,43.0644144 147.398015,41.4368284 145.373416,41.4368284 Z M145.373416,42.1583695 C146.999355,42.1583695 148.317238,43.4680162 148.317238,45.0890128 C148.317238,46.7067148 146.999355,48.0245982 145.373416,48.0245982 C143.757361,48.0245982 142.454304,46.7067148 142.454304,45.0890128 C142.454304,43.4680162 143.757361,42.1583695 145.373416,42.1583695 Z M147.234926,46.991707 L146.79673,46.2306294 C146.416191,45.5667455 146.307466,45.4613148 145.984584,45.3542369 L145.984584,45.3278792 C146.625405,45.2521009 147.005944,44.838615 147.005944,44.2735724 C147.005944,43.6706408 146.625405,43.2126763 145.81326,43.2126763 L143.927039,43.2126763 L143.927039,46.991707 L144.707884,46.991707 L144.707884,45.4448414 L144.851204,45.4448414 C145.185617,45.4448414 145.320701,45.4810832 145.470609,45.6342871 C145.622166,45.7841964 145.851149,46.1087251 145.984584,46.3788913 L146.289345,46.991707 L147.234926,46.991707 Z M144.707884,44.838615 L144.707884,43.8040764 L145.4146,43.8040764 C145.928574,43.8040764 146.192151,43.9852855 146.192151,44.3213457 C146.192151,44.5849224 146.024121,44.838615 145.498614,44.838615 L144.707884,44.838615 Z" id="Fill-8" fill="#000000"></path>
            <path d="M136.910462,68.6753374 C135.615642,75.1247295 132.701472,82.7536273 129.540199,88.4402942 C124.379038,97.7181936 118.110855,99.0163091 112.639991,98.9520623 C107.172423,98.8878155 101.001434,96.8648642 100.95366,88.4238208 C100.924008,82.3681464 103.536712,73.8084934 105.755698,68.2058415 C109.623686,58.0416654 113.577336,49.7521787 126.072518,49.9004406 C140.643368,50.0734127 138.043842,63.0347963 136.910462,68.6753374 Z M126.520599,62.3231392 C126.565078,61.1881122 126.377279,59.8685813 124.547068,59.843871 C123.298374,59.8273975 122.209473,60.0712059 121.22765,61.5818298 C119.021842,64.4432842 112.57904,82.050207 112.691059,85.5590717 C112.732244,86.8225924 113.430722,87.9263197 114.982529,87.9296145 C116.766614,87.9296145 117.758321,86.6990408 118.633067,85.2098325 C120.662607,81.7767462 126.365748,66.2125427 126.520599,62.3231392 Z M90.6379277,59.6313623 C88.5293142,59.6313623 87.1521259,60.9706614 86.1258242,62.4071543 C83.8656542,65.581606 78.9730119,78.2925919 78.2119342,83.5147049 C77.6880755,87.0927585 79.2349412,87.8241838 80.9201846,87.8241838 C83.6284351,87.8241838 86.6645091,84.9577873 87.700695,80.2282332 C87.700695,80.2282332 82.5461233,80.1013868 83.9694374,75.5299787 C85.3499204,71.0936535 87.9675663,70.1315986 92.3099922,69.9553317 C100.864703,69.6027979 100.021258,75.9286384 99.3359588,79.2941833 C97.1120299,90.2309684 89.3266337,99.0196036 78.3140701,99.0196036 C70.7724822,99.0196036 66.0923486,94.8501499 66.0923486,87.1603 C66.0923486,81.6811996 68.8104832,73.0803629 70.9652227,68.0476955 C75.551457,57.3398925 80.3600842,49.837841 92.6114581,49.837841 C99.9619529,49.837841 105.76064,52.4785499 104.912253,59.3677856 C104.287905,64.4218687 101.757569,67.3887537 97.1630979,67.7462296 C95.874867,67.8483656 90.6181594,67.7132825 92.364355,62.7399199 C92.9722287,60.9970191 93.2242739,59.6313623 90.6379277,59.6313623 Z M52.3072879,78.5841736 C51.8031974,79.9432408 50.8460846,82.8046952 50.0767701,85.8341798 C52.5774539,85.2131273 54.4537905,84.774931 57.6694261,84.8523566 C61.3314947,84.9396664 63.6723851,86.4585271 63.6723851,89.4946011 C63.6723851,96.8302694 55.5591653,98.9883043 49.9285082,98.9883043 C43.7459875,98.9883043 38.3163078,95.4679077 38.3163078,88.7121077 C38.3163078,80.7833915 42.6109605,68.770884 46.6436838,60.7696842 C51.5956308,50.9366264 56.6546559,49.6302744 65.364218,49.6302744 C69.1943167,49.6302744 73.6026368,51.2677446 73.6026368,54.8787452 C73.6026368,59.8932916 69.3606995,61.8025753 65.1517093,62.043089 C63.3527984,62.145225 60.5901853,62.2440663 58.9312995,62.1303988 C58.9312995,62.1303988 57.5310483,64.2653699 56.0418401,68.0658164 C63.8338259,66.9686783 67.1417133,68.7362895 65.8254773,73.2467456 C64.0479819,79.3353671 58.7682114,79.7373215 52.3072879,78.5841736 Z M27.483306,85.6249658 C35.1039669,84.2971982 37.0247821,87.0548693 36.7826209,89.6099159 C36.0660218,97.2470507 29.054882,98.957004 22.9695552,98.8120371 C18.5546457,98.7115482 14.5878165,96.6869497 14.4757964,91.5603833 C14.2830559,82.5971286 23.4275197,61.856938 27.7287617,54.9808812 C29.7187657,51.7174723 32.1403766,50.1080071 36.0034223,50.1080071 C39.6638436,50.1080071 40.5698885,51.9826963 40.5155258,54.2346296 C40.372206,60.2375887 30.6692892,78.4919217 27.483306,85.6249658 Z" id="Combined-Shape" fill="#FFFFFF"></path>
        </g>
    </g>
</svg>