<?xml version="1.0" encoding="UTF-8"?>
<svg width="216px" height="216px" viewBox="0 0 216 216" version="1.1" xmlns="http://www.w3.org/2000/svg" xmlns:xlink="http://www.w3.org/1999/xlink">
    <!-- Generator: Sketch 51.2 (57519) - http://www.bohemiancoding.com/sketch -->
    <title>littleTikes</title>
    <desc>Created with Sketch.</desc>
    <defs></defs>
    <g id="littleTikes" stroke="none" stroke-width="1" fill="none" fill-rule="evenodd">
        <g transform="translate(0.000000, 59.000000)" fill-rule="nonzero">
            <g id="Group-5" transform="translate(0.000000, 0.055411)">
                <path d="M166.690611,0.396530526 C193.381389,0.389709474 215.022316,22.0238147 215.017768,48.7077726 C215.022316,75.3985516 193.381389,97.0417516 166.690611,97.0303832 L48.3112421,97.0303832 C21.6318316,97.0417516 0,75.3985516 0,48.7077726 C0,22.0238147 21.6318316,0.389709474 48.3112421,0.396530526 L166.690611,0.396530526" id="Fill-1" fill="#CE181F"></path>
                <path d="M166.322046,97.7675116 C193.274299,97.7675116 215.106215,75.9355958 215.106215,48.9947116 C215.106215,22.0447326 193.274299,0.219637895 166.322046,0.219637895 L48.82032,0.219637895 C21.8839832,0.219637895 0.0520673684,22.0447326 0.0520673684,48.9947116 C0.0520673684,75.9355958 21.8839832,97.7675116 48.82032,97.7675116 L166.322046,97.7675116" id="Fill-3" fill="#DF231B"></path>
            </g>
            <g id="Group-39" transform="translate(17.915789, 17.971200)">
                <path d="M148.097718,62.0196716 C165.193549,62.0196716 179.060749,48.1547453 179.060749,31.0429979 C179.060749,13.9448926 165.193549,0.08224 148.097718,0.08224 L31.2303495,0.08224 C14.1254232,0.08224 0.26504421,13.9448926 0.26504421,31.0429979 C0.26504421,48.1547453 14.1254232,62.0196716 31.2303495,62.0196716 L148.097718,62.0196716 Z" id="Fill-9" fill="#FFFFFF"></path>
                <path d="M18.4665684,18.0093305 C17.8845053,18.0093305 17.4161263,18.4686147 17.4161263,19.0711411 L17.4161263,42.9652884 C17.4161263,43.5473516 17.8845053,44.0293726 18.4665684,44.0293726 L23.2117474,44.0293726 C23.7960842,44.0293726 24.2667368,43.5473516 24.2667368,42.9652884 L24.2667368,19.0711411 C24.2667368,18.4686147 23.7960842,18.0093305 23.2117474,18.0093305 L18.4665684,18.0093305 Z" id="Fill-11" fill="#0054A1"></path>
                <path d="M36.9513937,20.3007495 C36.3602358,20.3007495 35.8895832,20.7782232 35.8895832,21.36256 L35.8895832,25.4983916 C35.3211621,25.5120337 34.8618779,25.9895074 34.8618779,26.5556547 L34.8618779,29.8888758 C34.8618779,30.4663916 35.3325305,30.9370442 35.9236884,30.9370442 L35.9600674,30.9370442 L35.9600674,38.4356547 C35.9600674,42.3259284 38.1109726,44.3176758 42.3559411,44.3176758 L44.4954779,44.1266863 C45.0457095,44.0789389 45.4390568,43.6332968 45.4390568,43.0807916 L45.4390568,39.1063916 C45.4390568,38.8062653 45.2844463,38.5402442 45.0843621,38.3469811 C44.8774568,38.1491705 44.5500463,38.0445811 44.2681095,38.0445811 L44.2999411,38.0445811 C42.9516463,38.0445811 42.82432,37.6216758 42.82432,36.5007495 L42.82432,30.9370442 L43.9156884,30.9370442 C44.5000253,30.9370442 44.9888674,30.4663916 44.9888674,29.8888758 L44.9888674,26.5556547 C44.9888674,25.9690442 44.5000253,25.4938442 43.9156884,25.4938442 L42.7515621,25.4938442 L42.7515621,21.36256 C42.7515621,20.7782232 42.2672674,20.3007495 41.6852042,20.3007495 L36.9513937,20.3007495 Z" id="Fill-13" fill="#0054A1"></path>
                <path d="M48.6017516,20.3007495 C48.0014989,20.3007495 47.5353937,20.7782232 47.5353937,21.36256 L47.5353937,25.4983916 C46.9601516,25.5120337 46.5008674,25.9895074 46.5008674,26.5556547 L46.5008674,29.8888758 C46.5008674,30.4663916 46.9783411,30.9370442 47.5740463,30.9370442 L47.6036042,30.9370442 L47.6036042,38.4356547 C47.6036042,42.3259284 49.7636042,44.3176758 53.9858358,44.3176758 L56.1140042,44.1266863 C56.6756042,44.0789389 57.0644042,43.6332968 57.0644042,43.0807916 L57.0644042,39.1063916 C57.0644042,38.8062653 56.90752,38.5402442 56.7028884,38.3469811 C56.5028042,38.1491705 56.1913095,38.0445811 55.8957305,38.0445811 L55.9412042,38.0445811 C54.5860884,38.0445811 54.4519411,37.6216758 54.4519411,36.5007495 L54.4519411,30.9370442 L55.5546779,30.9370442 C56.1321937,30.9370442 56.6028463,30.4663916 56.6028463,29.8888758 L56.6028463,26.5556547 C56.6028463,25.9690442 56.1321937,25.4938442 55.5546779,25.4938442 L54.3860042,25.4938442 L54.3860042,21.36256 C54.3860042,20.7782232 53.9085305,20.3007495 53.3310147,20.3007495 L48.6017516,20.3007495 Z" id="Fill-15" fill="#0054A1"></path>
                <path d="M59.9590316,18.0093305 C59.3746947,18.0093305 58.8972211,18.4686147 58.8972211,19.0711411 L58.8972211,42.9652884 C58.8972211,43.5473516 59.3746947,44.0293726 59.9590316,44.0293726 L64.7042105,44.0293726 C65.2885474,44.0293726 65.7546526,43.5473516 65.7546526,42.9652884 L65.7546526,19.0711411 C65.7546526,18.4686147 65.2885474,18.0093305 64.7042105,18.0093305 L59.9590316,18.0093305 Z" id="Fill-17" fill="#0054A1"></path>
                <path d="M74.0763368,34.8464168 L74.0422316,34.7600168 C73.9330947,34.4939958 73.8034947,34.2393432 73.8034947,33.5549642 C73.8034947,32.0247747 74.8994105,30.3718063 76.6797053,30.3718063 C77.4345684,30.3718063 78.1985263,30.4854905 78.8215158,31.2949221 C78.8215158,31.2949221 75.3586947,33.9028379 74.0831579,34.8532379 L74.0763368,34.8464168 Z M67.2052632,34.9873853 C67.2052632,40.3078063 71.4047579,44.3163116 76.9889263,44.3163116 C79.9901895,44.3163116 82.3616421,43.6569432 84.6830737,42.2017853 C85.1787368,41.8948379 85.3333474,41.2422905 85.0332211,40.7534484 L83.0778526,37.5270905 C82.9232421,37.2838063 82.6822316,37.1201011 82.3934737,37.0518905 C82.1115368,36.9973221 81.8159579,37.0518905 81.5681263,37.2133221 C80.4881263,37.9568168 79.4376842,38.2887747 78.1780632,38.2887747 C77.3390737,38.2887747 76.6160421,38.1750905 76.2136,37.9704589 C78.244,36.4379958 84.9718316,31.3654063 84.9718316,31.3654063 C85.2446737,31.1539537 85.3970105,30.8401853 85.3970105,30.5195958 L85.2742316,30.02848 C83.5621474,26.7839326 80.4562947,24.9263326 76.7501895,24.9263326 C71.1205474,24.9263326 67.2052632,29.0712589 67.2052632,34.9873853 Z" id="Fill-19" fill="#0054A1"></path>
                <path d="M32.2330442,25.2078147 L27.5060547,25.2078147 C26.9285389,25.2078147 26.4374232,25.6830147 26.4374232,26.2832674 L26.4374232,42.9675621 C26.4374232,43.5473516 26.9285389,44.0316463 27.5060547,44.0316463 L32.2330442,44.0316463 C32.8173811,44.0316463 33.2880337,43.5473516 33.2880337,42.9675621 L33.2880337,26.2832674 C33.2880337,25.6830147 32.8173811,25.2078147 32.2330442,25.2078147" id="Fill-21" fill="#0054A1"></path>
                <path d="M29.8881937,24.2728758 C31.7730779,24.2728758 33.3282779,22.7426863 33.3282779,20.8396126 C33.3282779,18.9388126 31.7730779,17.3949811 29.8881937,17.3949811 C27.9828463,17.3949811 26.4367411,18.9388126 26.4367411,20.8396126 C26.4367411,22.7426863 27.9828463,24.2728758 29.8881937,24.2728758" id="Fill-23" fill="#0054A1"></path>
                <path d="M112.964295,18.0093305 C112.375411,18.0093305 111.891116,18.4686147 111.891116,19.0711411 L111.891116,42.9652884 C111.891116,43.5473516 112.375411,44.0293726 112.964295,44.0293726 L117.698105,44.0293726 C118.286989,44.0293726 118.764463,43.5473516 118.764463,42.9652884 L118.764463,33.9819621 L118.791747,34.1206568 L122.861642,43.3927411 C123.0208,43.7792674 123.411874,44.0293726 123.832505,44.0293726 L129.143832,44.0293726 C129.503074,44.0293726 129.844126,43.8315621 130.035116,43.51552 C130.146526,43.3518147 130.205642,43.1562779 130.205642,42.9652884 L130.089684,42.4969095 C130.089684,42.4969095 126.026611,34.2957305 125.599158,33.4453726 C126.003874,32.6222989 129.032421,26.4583411 129.032421,26.4583411 L129.125642,25.9967832 C129.125642,25.7989726 129.082442,25.5943411 128.966484,25.4260884 C128.777768,25.1100463 128.432168,24.9258779 128.072926,24.9258779 L122.834358,24.9258779 C122.397811,24.9258779 122.006737,25.1850779 121.8544,25.5943411 L118.791747,33.3589726 L118.764463,33.4817516 L118.764463,19.0711411 C118.764463,18.4686147 118.286989,18.0093305 117.698105,18.0093305 L112.964295,18.0093305 Z" id="Fill-25" fill="#0054A1"></path>
                <path d="M135.772303,34.8464168 L135.745019,34.7600168 C135.613145,34.4939958 135.501735,34.2393432 135.501735,33.5549642 C135.501735,32.0247747 136.595377,30.3718063 138.375672,30.3718063 C139.119166,30.3718063 139.905861,30.4854905 140.524303,31.2949221 C140.524303,31.2949221 137.038745,33.9028379 135.779124,34.8532379 L135.772303,34.8464168 Z M128.88304,34.9873853 C128.88304,40.3078063 133.100724,44.3163116 138.684893,44.3163116 C141.690703,44.3163116 144.062156,43.6569432 146.385861,42.2017853 C146.879251,41.8948379 147.033861,41.2422905 146.740556,40.7534484 L144.785187,37.5270905 C144.623756,37.2838063 144.378198,37.1201011 144.096261,37.0518905 C143.812051,36.9973221 143.523293,37.0518905 143.280008,37.2133221 C142.179545,37.9568168 141.145019,38.2887747 139.889945,38.2887747 C139.039587,38.2887747 138.321103,38.1750905 137.916387,37.9704589 C139.951335,36.4379958 146.674619,31.3654063 146.674619,31.3654063 C146.952008,31.1539537 147.095251,30.8401853 147.095251,30.5195958 L146.974745,30.02848 C145.267208,26.7839326 142.147714,24.9263326 138.434787,24.9263326 C132.809693,24.9263326 128.88304,29.0712589 128.88304,34.9873853 Z" id="Fill-27" fill="#0054A1"></path>
                <path d="M148.006543,30.6498779 C148.006543,34.7311411 150.691764,35.5610358 152.65168,36.1476463 C153.936312,36.5341726 154.507006,36.8138358 154.507006,37.3777095 C154.507006,37.57552 154.434248,37.7301305 154.313743,37.8620042 C153.886291,38.2894568 152.769912,38.2894568 151.880901,38.2894568 L151.746754,38.2894568 C151.051006,38.2894568 150.314333,38.2144253 149.413954,38.0234358 C149.107006,37.9552253 148.781869,38.0438989 148.534038,38.2417095 C148.297575,38.4326989 148.156606,38.7441937 148.156606,39.0647832 L148.156606,42.7913516 C148.156606,43.2961095 148.490838,43.7326568 148.97968,43.8349726 C150.441659,44.1487411 151.867259,44.3192674 153.349701,44.3192674 C160.618669,44.3192674 162.142038,41.0929095 162.142038,38.3894989 C162.142038,34.3491621 159.370417,33.5078989 157.340017,32.9076463 C155.884859,32.4574568 155.357364,32.2005305 155.357364,31.6025516 C155.357364,30.8408674 156.898922,30.7249095 157.828859,30.7249095 C158.449575,30.7249095 159.056648,30.7726568 159.775133,30.9136253 C160.084354,30.96592 160.402669,30.8749726 160.648227,30.6680674 C160.880143,30.4657095 161.014291,30.1746779 161.014291,29.8609095 L161.014291,26.4662989 C161.014291,25.9615411 160.657322,25.5113516 160.154838,25.4249516 C158.997533,25.1953095 157.269533,24.9247411 155.616564,24.9247411 C149.984648,24.9247411 148.006543,28.0101305 148.006543,30.6498779" id="Fill-29" fill="#0054A1"></path>
                <path d="M104.007343,25.2078147 C103.429827,25.2078147 102.947806,25.6830147 102.947806,26.2832674 L102.947806,42.9675621 C102.947806,43.5473516 103.429827,44.0316463 104.007343,44.0316463 L108.757069,44.0316463 C109.34368,44.0316463 109.814333,43.5473516 109.814333,42.9675621 L109.814333,26.2832674 C109.814333,25.6830147 109.34368,25.2078147 108.757069,25.2078147 L104.007343,25.2078147 Z" id="Fill-31" fill="#0054A1"></path>
                <path d="M102.945987,20.8402947 C102.945987,22.7433684 104.492093,24.2735579 106.399714,24.2735579 C108.314156,24.2735579 109.835251,22.7433684 109.835251,20.8402947 C109.835251,18.9394947 108.314156,17.3933895 106.399714,17.3933895 C104.492093,17.3933895 102.945987,18.9394947 102.945987,20.8402947" id="Fill-33" fill="#0054A1"></path>
                <path d="M92.6787116,20.3007495 C92.0966484,20.3007495 91.6123537,20.7782232 91.6123537,21.36256 L91.6123537,25.4983916 C91.0530274,25.5120337 90.5891958,25.9895074 90.5891958,26.5556547 L90.5891958,29.8888758 C90.5891958,30.4663916 91.0666695,30.9370442 91.6578274,30.9370442 L91.6942063,30.9370442 L91.6942063,38.4356547 C91.6942063,42.3259284 93.8451116,44.3176758 98.09008,44.3176758 L100.218248,44.1266863 C100.752564,44.0789389 101.161827,43.6332968 101.161827,43.0807916 L101.161827,39.1063916 C101.161827,38.8062653 100.995848,38.5402442 100.788943,38.3469811 C100.59568,38.1491705 100.291006,38.0445811 99.99088,38.0445811 L100.03408,38.0445811 C98.674417,38.0445811 98.551638,37.6216758 98.551638,36.5007495 L98.551638,30.9370442 L99.649827,30.9370442 C100.236438,30.9370442 100.702543,30.4663916 100.702543,29.8888758 L100.702543,26.5556547 C100.702543,25.9690442 100.236438,25.4938442 99.649827,25.4938442 L98.474333,25.4938442 L98.474333,21.36256 C98.474333,20.7782232 98.008227,20.3007495 97.4079747,20.3007495 L92.6787116,20.3007495 Z" id="Fill-35" fill="#0054A1"></path>
                <path d="M166.675764,37.9238484 C165.270627,37.9238484 164.14288,39.0311326 164.14288,40.7068379 C164.14288,42.3598063 165.270627,43.4739116 166.675764,43.4739116 C168.049069,43.4739116 169.215469,42.3598063 169.215469,40.7068379 C169.215469,39.0311326 168.049069,37.9238484 166.675764,37.9238484 Z M166.675764,44.3197221 C164.799975,44.3197221 163.131091,42.9759747 163.131091,40.7068379 C163.131091,38.4058695 164.799975,37.0871326 166.675764,37.0871326 C168.54928,37.0871326 170.222712,38.4058695 170.222712,40.7068379 C170.222712,42.9759747 168.54928,44.3197221 166.675764,44.3197221 Z M166.805364,40.3362274 C167.171427,40.3362274 167.387427,40.2611958 167.387427,39.8337432 C167.387427,39.4335747 166.971343,39.4040168 166.659848,39.4040168 L166.08688,39.4040168 L166.08688,40.3362274 L166.805364,40.3362274 Z M166.08688,42.6303747 L165.270627,42.6303747 L165.270627,38.7287326 L166.693954,38.7287326 C167.673912,38.7287326 168.253701,39.0311326 168.253701,39.9133221 C168.253701,40.6431747 167.855806,40.8955537 167.337406,40.9273853 L168.310543,42.6303747 L167.348775,42.6303747 L166.471133,41.0024168 L166.08688,41.0024168 L166.08688,42.6303747 Z" id="Fill-37" fill="#0054A1"></path>
            </g>
        </g>
    </g>
</svg>