<?xml version="1.0" encoding="UTF-8"?>
<svg width="216px" height="216px" viewBox="0 0 216 216" version="1.1" xmlns="http://www.w3.org/2000/svg" xmlns:xlink="http://www.w3.org/1999/xlink">
    <!-- Generator: Sketch 51.2 (57519) - http://www.bohemiancoding.com/sketch -->
    <title>youAndMe</title>
    <desc>Created with Sketch.</desc>
    <defs></defs>
    <g id="youAndMe" stroke="none" stroke-width="1" fill="none" fill-rule="evenodd">
        <g transform="translate(1.000000, 67.000000)" fill-rule="nonzero">
            <path d="M211.841056,55.7883883 C213.539697,54.8174369 214.688901,52.997165 214.693095,50.9021748 C214.697289,48.7652427 213.516629,46.9114175 211.771852,45.9530485 C213.283852,44.9401553 214.282066,43.2226408 214.288357,41.2681553 C214.290454,39.1752621 213.151736,37.3445049 211.455192,36.3714563 C213.153833,35.404699 214.305134,33.5865243 214.309328,31.4894369 C214.311425,29.3860583 213.166416,27.5532039 211.459386,26.5822524 C212.895891,25.563068 213.837483,23.9000777 213.839581,22.0043107 C213.843775,19.6702524 212.434532,17.667534 210.415037,16.8077282 C211.882998,15.794835 212.847658,14.1045825 212.849755,12.1878447 C212.860241,9.075767 210.343736,6.5487767 207.229561,6.54248544 C206.801755,6.54038835 206.386532,6.58862136 205.985988,6.67669903 C205.996474,6.53829126 206.009056,6.3998835 206.009056,6.25728155 C206.017445,3.14520388 203.498843,0.61401942 200.388862,0.61192233 C198.486804,0.60772816 196.807037,1.54932039 195.781561,2.99001942 C194.783348,1.44236893 193.044862,0.41479612 191.067309,0.41269903 C189.127503,0.40640777 187.41628,1.38574757 186.399192,2.87258252 C185.415658,1.24104854 183.631037,0.14217476 181.588474,0.14007767 C179.594144,0.1358835 177.851464,1.1655534 176.844862,2.72159223 C175.840357,1.16135922 174.099775,0.12120388 172.107542,0.11491262 C170.067076,0.11281553 168.280357,1.1991068 167.288435,2.82854369 C166.302804,1.19700971 164.524474,0.10023301 162.479814,0.09603883 C160.321911,0.09184466 158.445017,1.30605825 157.495037,3.08648544 C156.542959,1.32073786 154.687037,0.12120388 152.543814,0.11491262 C150.392202,0.11281553 148.523697,1.3144466 147.569522,3.08229126 C146.583891,1.45285437 144.803464,0.35398058 142.758804,0.3518835 C140.665911,0.34978641 138.83725,1.49479612 137.864202,3.18924272 C136.895348,1.48850485 135.072979,0.33930097 132.980085,0.33300971 C130.836862,0.32881553 128.970454,1.51996117 128.012085,3.27732039 C127.032746,1.63530097 125.246027,0.52594175 123.192979,0.52384466 C121.148318,0.51965049 119.3616,1.60594175 118.371775,3.22908738 C117.363076,1.74434951 115.656047,0.76081553 113.722532,0.75871845 C111.556241,0.75242718 109.681445,1.97083495 108.733561,3.75335922 C107.743736,2.14069903 105.975891,1.05440777 103.937522,1.05231068 C101.76494,1.04392233 99.8775612,2.27491262 98.938066,4.07631068 C97.9482408,2.46994175 96.1824932,1.3983301 94.1588039,1.39413592 C92.0281631,1.39203883 90.1701437,2.57060194 89.2096777,4.31537864 C88.2030757,2.79079612 86.4834641,1.78629126 84.5205903,1.78 C82.3752699,1.77580583 80.5109592,2.97114563 79.5504932,4.72640777 C78.5438913,3.22069903 76.8284738,2.21619417 74.8739883,2.21409709 C72.5567068,2.20780583 70.5665709,3.60236893 69.6962796,5.59879612 C68.7358136,3.88128155 66.9050563,2.71739806 64.7932893,2.7111068 C62.5703767,2.70900971 60.6557359,3.99242718 59.7330175,5.85673786 C58.736901,4.29440777 56.9900272,3.25425243 54.9977942,3.25005825 C52.737134,3.24586408 50.7910369,4.57541748 49.8871922,6.49425243 C48.8952699,4.90466019 47.1337165,3.84143689 45.1205126,3.83933981 C42.9542214,3.83514563 41.0668427,5.05984466 40.1252505,6.85495146 C39.106066,5.41215534 37.4325903,4.46217476 35.5263379,4.4558835 C33.2866485,4.45378641 31.3552311,5.76236893 30.4429981,7.65603883 C29.4363961,6.14194175 27.7188816,5.14582524 25.7664932,5.14163107 C23.4869592,5.13533981 21.5219883,6.48796117 20.6307262,8.4382524 C19.6262214,6.90528155 17.9003184,5.89238835 15.9332505,5.88609709 C13.3035029,5.87980583 11.0952699,7.68120388 10.472435,10.1180194 C9.70280388,9.723767 8.83460971,9.4993786 7.91608544,9.4972816 C4.80400777,9.4909903 2.27911456,12.0074951 2.27072621,15.1195728 C2.26653204,16.7846602 2.9879301,18.2756893 4.13503689,19.3095534 C1.79888155,20.0078835 0.0876582524,22.2098252 0.0834640777,24.8269903 C0.0771728155,27.0079612 1.2599301,28.9079223 3.00680388,29.8872621 C1.22008544,30.8519223 0.0016776699,32.764466 -0.000419417476,34.972699 C-0.00671067961,37.3109515 1.35639612,39.3220583 3.31297864,40.2321942 C1.49480388,41.1842718 0.249133981,43.1114951 0.240745631,45.3469903 C0.236551456,47.9515728 1.9247068,50.1577087 4.24618252,50.8728155 C2.24975534,51.7556893 0.848900971,53.7856699 0.846803883,56.1490874 C0.840512621,58.7159223 2.47624078,60.8885049 4.73480388,61.6392621 C2.9879301,62.7423301 1.79468738,64.8792621 1.79259029,67.3391456 C1.78420194,70.9293592 4.29651262,73.8443107 7.41068738,73.8485049 C7.73783301,73.8485049 8.05868738,73.8128544 8.37534757,73.7499417 C8.16144466,74.3413204 8.0377165,74.9725437 8.0377165,75.6373204 C8.03142524,78.7431068 10.5479301,81.2742913 13.6579107,81.2826796 C15.6165903,81.2847767 17.338299,80.2907573 18.3511922,78.7829515 C19.2843961,80.6011262 21.1717748,81.8509903 23.3569398,81.8572816 C25.3974058,81.8593786 27.1841243,80.7730874 28.1739495,79.1457476 C29.1595806,80.7751845 30.9379107,81.8719612 32.984668,81.8740583 C35.0817553,81.8803495 36.9083184,80.7353398 37.8834641,79.0408932 C38.8481243,80.7374369 40.6725903,81.890835 42.7675806,81.8950291 C44.8688621,81.9013204 46.7017165,80.7479223 47.674765,79.0450874 C48.6478136,80.7353398 50.4638913,81.8782524 52.5525903,81.8803495 C54.7209786,81.8866408 56.5999689,80.6619417 57.5478524,78.8710291 C58.497833,80.6220971 60.3537553,81.8111456 62.4864932,81.8153398 C64.5563184,81.8216311 66.3640078,80.7038835 67.3475417,79.0408932 C68.3394641,80.6346796 70.1031146,81.6979029 72.1163184,81.7020971 C74.1987262,81.7041942 76.0127068,80.5780583 76.9920466,78.9003883 C77.986066,80.4815922 79.7413282,81.5406214 81.7503379,81.5427184 C83.7866097,81.5490097 85.5628427,80.4690097 86.5610563,78.8500583 C87.5697553,80.3494757 89.2809786,81.339301 91.2270757,81.3455922 C93.2717359,81.3476893 95.0626485,80.2551068 96.0503767,78.6256699 C97.0632699,80.1146019 98.770299,81.100233 100.703814,81.1023301 C102.809289,81.1086214 104.644241,79.9552233 105.617289,78.2481942 C106.619697,79.7895534 108.353988,80.8150291 110.333639,80.8171262 C112.447503,80.8234175 114.288746,79.659534 115.2576,77.9378252 C116.260008,79.4707961 117.988008,80.4878835 119.95927,80.4920777 C122.083619,80.4983689 123.935348,79.3260971 124.900008,77.5897087 C125.902416,79.1142913 127.630416,80.1229903 129.591192,80.1292816 C131.72393,80.1334757 133.577755,78.9570097 134.540318,77.212233 C135.549017,78.7263301 137.264435,79.7245437 139.221017,79.7287379 C141.360047,79.732932 143.220163,78.5459806 144.182726,76.7886214 C145.187231,78.2943301 146.902649,79.2841553 148.848746,79.2904466 C150.84727,79.2925437 152.598338,78.2544854 153.602843,76.6900583 C154.63461,77.9923495 156.222105,78.8374757 158.013017,78.8395728 C160.122687,78.8458641 161.96393,77.6798835 162.930687,75.9665631 C163.951969,77.3967767 165.617056,78.3299806 167.502338,78.3362718 C169.614105,78.3425631 171.459542,77.1765825 172.426299,75.459068 C173.449678,76.8725049 175.100085,77.7910291 176.974882,77.7952233 C179.20828,77.7994175 181.135503,76.4992233 182.049833,74.6181359 C183.050144,76.1678835 184.786532,77.1933592 186.76828,77.1933592 C188.955542,77.1996505 190.845017,75.9560777 191.782416,74.1420971 C192.799503,75.6016699 194.485561,76.5600388 196.393911,76.5663301 C198.769911,76.5684272 200.799891,75.1067573 201.634532,73.0285437 C202.630649,73.949165 203.964396,74.5174757 205.43026,74.5195728 C208.544435,74.5300583 211.071425,72.0072621 211.077717,68.8993786 C211.077717,67.8969709 210.817678,66.9553786 210.364707,66.1438058 C212.828784,65.548233 214.665833,63.3337087 214.672124,60.6850874 C214.678416,58.588 213.535503,56.7572427 211.841056,55.7883883" id="Fill-1" fill="#F97FB5"></path>
            <path d="M6.1463534,19.8963184 C6.4126835,15.5217942 9.85819806,12.0091728 14.2264311,11.6589592 C38.5253825,9.6960854 118.111946,4.00668738 199.139208,6.24008544 C203.631169,6.36381359 207.307363,9.8554641 207.668062,14.3327456 C208.410431,23.4802408 209.370897,40.1730563 208.964062,62.0079301 C208.880179,66.564901 205.32981,70.3040078 200.783324,70.6269592 C175.729421,72.396901 95.5347029,77.461367 15.9942757,76.0038913 C11.6176544,75.9200078 7.96452816,72.638066 7.42347961,68.2908039 C6.26588738,59.004901 4.81260583,41.7584544 6.1463534,19.8963184" id="Fill-4" fill="#FFFFFF"></path>
            <path d="M140.662975,10.0744 C139.803169,10.0744 139.100645,9.3823612 139.090159,8.5204583 C139.079674,7.65226408 139.775907,6.93925437 140.644101,6.92876893 C147.281383,6.84698252 154.025616,6.8008466 160.84115,6.8008466 L162.680295,6.8008466 C163.548489,6.8008466 164.253111,7.50546796 164.253111,8.3736621 C164.253111,9.2439534 163.548489,9.9464777 162.680295,9.9464777 L160.84115,9.9464777 C154.038198,9.9464777 147.306548,9.9926136 140.681849,10.0744 L140.662975,10.0744 Z M96.6367223,11.1627883 C95.7936932,11.1627883 95.0953631,10.4938175 95.0660039,9.6465942 C95.0345476,8.7784 95.7119068,8.0486136 96.580101,8.0171573 C103.67245,7.75921553 111.035324,7.53063301 118.607907,7.34189515 C119.423674,7.25172039 120.197499,8.0066718 120.21847,8.8769631 C120.241538,9.7451573 119.553693,10.4665553 118.685499,10.4875262 C111.125499,10.6762641 103.775208,10.9048466 96.6933437,11.1627883 L96.6367223,11.1627883 Z M52.6440233,13.2451961 C51.8177709,13.2451961 51.123635,12.5992932 51.0754019,11.7646524 C51.0250718,10.8964583 51.6877515,10.1519922 52.5538485,10.1016621 C59.3127612,9.7074097 66.6861204,9.3131573 74.5606835,8.9398757 C75.4288777,8.8727689 76.1649553,9.5669049 76.2068971,10.4371961 C76.2488388,11.3032932 75.5777709,12.0393709 74.7116738,12.0813126 C66.8475961,12.4545942 59.4868194,12.8488466 52.7362951,13.243099 C52.7069359,13.2451961 52.6754796,13.2451961 52.6440233,13.2451961 Z M204.77513,14.7634874 C204.104062,14.7634874 203.485421,14.3335845 203.273616,13.6604194 C202.690625,11.7961087 200.983596,10.5084971 199.024917,10.4560699 C194.230975,10.3218563 189.441227,10.2170019 184.666159,10.1394097 C183.797965,10.1247301 183.105926,9.4117204 183.120606,8.5414291 C183.133188,7.67323495 183.890237,6.95393398 184.718586,6.99377864 C189.506237,7.07137087 194.30647,7.17622524 199.110897,7.31043883 C202.411713,7.40271068 205.291014,9.5773903 206.276645,12.7230214 C206.534586,13.5513709 206.073227,14.4321476 205.244878,14.6921864 C205.087596,14.7425165 204.930315,14.7634874 204.77513,14.7634874 Z M8.28643107,34.8284194 L8.26546019,34.8284194 C7.39726602,34.8158369 6.7031301,34.1007301 6.71361553,33.2325359 C6.77652816,28.8223612 6.94429515,24.3597592 7.21272233,19.9600699 C7.44549903,16.1391767 10.4988583,13.027099 14.3134602,12.7230214 C18.1616155,12.4084583 23.668567,11.9848466 30.5554019,11.5067107 C31.4361786,11.4458951 32.1743534,12.1001864 32.2330718,12.9662835 C32.2938874,13.8323806 31.6416932,14.5831379 30.7755961,14.6439534 C23.9034408,15.1220893 18.4090718,15.545701 14.5672078,15.858167 C12.3002563,16.0385165 10.4904699,17.8860505 10.3520621,20.1530019 C10.085732,24.5002641 9.92006214,28.9167301 9.8592466,33.2765748 C9.84876117,34.1384777 9.14623689,34.8284194 8.28643107,34.8284194 Z M206.391984,58.7247301 L206.375208,58.7247301 C205.507014,58.7163417 204.810781,58.003332 204.819169,57.1351379 C204.84014,55.2393709 204.848528,53.3855456 204.846431,51.5736621 C204.846431,46.0541282 204.76045,40.5408854 204.592683,35.1912155 C204.565421,34.3230214 205.246975,33.5974291 206.115169,33.5680699 C206.977072,33.5512932 207.711052,34.2244583 207.736217,35.0926524 C207.906082,40.4758757 207.992062,46.0226718 207.992062,51.5736621 C207.994159,53.393934 207.985771,55.2603417 207.9648,57.1686913 C207.956412,58.0305942 207.253887,58.7247301 206.391984,58.7247301 Z M170.559052,71.4519534 C169.730703,71.4519534 169.036567,70.8039534 168.988334,69.9672155 C168.940101,69.0990214 169.604878,68.3566524 170.470975,68.3084194 C179.180179,67.817701 186.608062,67.3542447 192.442159,66.9704777 C193.289383,66.9033709 194.059014,67.5681476 194.115635,68.4342447 C194.172256,69.3024388 193.517965,70.051099 192.649771,70.1077204 C186.807285,70.4935845 179.368917,70.9591379 170.64713,71.4498563 C170.617771,71.4519534 170.588412,71.4519534 170.559052,71.4519534 Z M126.562159,73.5322641 C125.721227,73.5322641 125.024994,72.8653903 124.991441,72.018167 C124.959984,71.1520699 125.635247,70.4201864 126.503441,70.3887301 C134.224917,70.0909437 141.583596,69.7721864 148.491402,69.4450408 C149.384761,69.3674485 150.095674,70.0720699 150.137616,70.9402641 C150.17746,71.8084583 149.508489,72.5445359 148.640295,72.5864777 C141.724101,72.9136233 134.354936,73.2323806 126.625072,73.530167 C126.604101,73.5322641 126.58313,73.5322641 126.562159,73.5322641 Z M82.540101,74.8156816 C81.6844893,74.8156816 80.9840621,74.1320311 80.9672854,73.2743223 C80.9505087,72.4061282 81.6404505,71.6868272 82.5107417,71.6700505 C90.0120233,71.5253515 97.3644117,71.3429049 104.509188,71.1331961 L104.555324,71.1331961 C105.402548,71.1331961 106.102975,71.8084583 106.126043,72.6619728 C106.151208,73.530167 105.469654,74.2536621 104.60146,74.2788272 C97.4461981,74.4885359 90.0833243,74.6709825 82.5715573,74.8156816 L82.540101,74.8156816 Z M16.4965282,74.9436039 L16.4524893,74.9436039 L16.0204893,74.9352155 C12.1912078,74.8660117 8.95330485,71.9510602 8.48355728,68.1574291 C7.98445049,64.1603806 7.57971262,59.8550602 7.27982913,55.3610019 C7.22320777,54.4949049 7.87749903,53.7441476 8.7456932,53.6875262 C9.56775146,53.6309049 10.3604505,54.283099 10.4191689,55.1512932 C10.7148583,59.586633 11.1133049,63.8311379 11.6040233,67.769468 C11.8829359,70.0196427 13.803868,71.7476427 16.0708194,71.7895845 L16.5384699,71.7979728 C17.4066641,71.8210408 18.0903146,72.5445359 18.0672466,73.4127301 C18.0441786,74.2662447 17.3437515,74.9436039 16.4965282,74.9436039 Z M45.0882175,75.1910602 C42.8967612,75.1910602 40.7011107,75.186866 38.4991689,75.1784777 C37.6309748,75.1742835 36.9305476,74.467565 36.9326447,73.5993709 C36.9368388,72.7332738 37.6393631,72.0328466 38.5054602,72.0328466 L38.5117515,72.0328466 C45.8997903,72.0601087 53.2416932,72.041235 60.508101,71.9783223 L60.5227806,71.9783223 C61.3846835,71.9783223 62.0872078,72.6724583 62.0955961,73.5364583 C62.1018874,74.4046524 61.4056544,75.115565 60.5374602,75.1239534 C55.4226641,75.1679922 50.2680233,75.1910602 45.0882175,75.1910602 Z" id="Fill-6" fill="#F97FB5"></path>
            <path d="M112.94619,69.2802097 C153.495472,52.9082485 151.371122,21.2904621 137.672948,14.7139961 C122.857025,7.60696699 113.044753,22.4165981 113.044753,22.4165981 C113.044753,22.4165981 103.30588,7.56292816 88.4543068,14.615433 C74.7288699,21.1247922 72.4724039,52.7383845 112.948287,69.2802097 L112.94619,69.2802097 Z" id="Fill-8" fill="#F97FB5"></path>
            <path d="M46.5337398,25.7780194 C45.4893903,36.7625631 44.9147883,42.9070291 44.7952544,44.2093204 C44.6778175,45.5095146 44.4177786,47.5499806 44.0151379,50.3265243 C43.6166913,53.0988738 42.8743223,55.0512621 41.7943223,56.1836893 C40.7185165,57.3140194 39.2966913,58.0186408 37.5435262,58.2975534 C35.786167,58.576466 34.0309049,58.6016311 32.2756427,58.3709515 C30.5182835,58.144466 28.9643417,57.4545243 27.6054291,56.32 C26.2507107,55.1875728 25.2336233,54.0236893 24.5562641,52.8325437 C23.8768078,51.6434951 23.7090408,50.8193398 24.050866,50.368466 C24.3926913,49.9154951 24.9001864,50.3118447 25.5796427,51.5617087 C26.2528078,52.8094757 27.1881087,53.8852816 28.3729631,54.7933204 C29.5641087,55.7055534 30.9460893,56.3011262 32.5356816,56.5884272 C34.1189825,56.8736311 35.6771184,56.8191068 37.2079922,56.4269515 C38.7367689,56.0347961 39.9572738,55.1582136 40.8674097,53.8013981 C41.7754485,52.4466796 42.2871379,50.945165 42.4024777,49.3031456 C42.5220117,47.6611262 42.6646136,46.5559612 42.8344777,45.9897476 C43.0085359,45.4277282 42.6415456,45.4801553 41.7314097,46.1575146 C40.825468,46.8369709 39.8587107,47.3402718 38.8395262,47.68 C37.8182447,48.0197282 36.7424388,48.1853981 35.6100117,48.183301 C34.4775845,48.1812039 33.2067495,47.9253592 31.7891184,47.4094757 C30.3735845,46.8977864 29.3544,46.4427184 28.7336621,46.0421748 C28.1087301,45.6479223 27.4565359,45.1068738 26.7833709,44.4274175 C26.0997204,43.7416699 25.5397981,43.0643107 25.0868272,42.3827573 C24.6380505,41.703301 24.241701,40.287767 23.906167,38.1340583 C23.5727301,35.9803495 23.5769243,33.233165 23.9271379,29.8925049 C24.2689631,26.5497476 24.5290019,24.6833398 24.7030602,24.2869903 C24.8729243,23.8906408 25.1832932,23.6641553 25.634167,23.607534 C26.091332,23.5530097 26.4562252,23.8109515 26.739332,24.377165 C27.0224388,24.9433786 26.9616233,26.7825243 26.5610796,29.8946019 C26.1563417,33.0108738 25.923565,35.223301 25.8669437,36.5234951 C25.8061282,37.8257864 26.0871379,39.1008155 26.7057786,40.3464854 C27.3286136,41.5963495 28.1716427,42.6994175 29.2495456,43.6640777 C30.3211573,44.630835 31.4242252,45.2851262 32.5566524,45.6269515 C33.6890796,45.9708738 34.8215068,46.1134757 35.9560311,46.0589515 C37.0884583,46.0065243 38.2754097,45.6709903 39.5273709,45.0460583 C40.7709437,44.4295146 41.6496233,43.8926602 42.1613126,43.4375922 C42.675099,42.9909126 43.0148272,42.4226019 43.1846913,41.7410485 C43.3566524,41.0636893 43.6460505,38.2871456 44.0528854,33.4219029 C44.4576233,28.5461748 44.7218563,25.6878447 44.835099,24.8406214 C44.9504388,23.9892039 45.2104777,23.5383301 45.6047301,23.4796117 C45.9989825,23.4250874 46.3387107,23.5404272 46.6218175,23.8214369 C46.9049243,24.1087379 46.8713709,24.760932 46.5337398,25.7780194" id="Fill-10" fill="#7E57C5"></path>
            <path d="M50.5056233,33.4353243 C49.993934,34.9032854 49.7380893,36.5201398 49.7317981,38.2754019 C49.729701,40.0306641 49.7800311,41.3916738 49.8932738,42.3521398 C50.0044194,43.3188971 50.3420505,43.9983534 50.906167,44.3968 C51.4702835,44.7910524 52.0385942,45.2167612 52.6027107,45.6739262 C53.1710214,46.1268971 53.907099,46.5253437 54.8130408,46.869266 C55.7168854,47.2110913 56.6500893,47.4962951 57.6147495,47.7206835 C58.5731184,47.949266 59.5356816,47.924101 60.5024388,47.6430913 C61.4629049,47.3662757 62.3457786,46.9133049 63.1363806,46.2862757 C63.9332738,45.669732 64.6714485,44.8204117 65.3509049,43.7467029 C66.0324583,42.6729942 66.5147883,41.5971883 66.8041864,40.5234796 C67.0893903,39.4455767 67.2047301,38.3425087 67.1502058,37.2100816 C67.0956816,36.0776544 66.7853126,34.8592466 66.2232932,33.5548583 C65.6612738,32.252567 65.2104,31.3675961 64.8706718,30.9167223 C64.5288466,30.4658485 64.0507107,29.9541592 63.4278757,29.3837515 C62.8050408,28.8175379 62.0962252,28.4757126 61.3077204,28.3582757 C60.5129243,28.2429359 59.7495845,28.1863146 59.0135068,28.1842175 C58.2774291,28.1842175 57.5686136,28.1800233 56.8891573,28.1800233 C56.209701,28.1779262 55.7001087,28.293266 55.3582835,28.5176544 C55.0185553,28.7420427 54.4544388,29.0230524 53.6596427,29.3627806 C52.0679534,30.6063534 51.0173126,31.9631689 50.5056233,33.4353243 M53.3220117,26.8148194 C53.5526913,26.7015767 54.2006913,26.5065476 55.2827883,26.2234408 C56.3585942,25.940334 57.4302058,25.8040233 58.5102058,25.8061204 C59.5860117,25.8061204 60.5192155,25.8669359 61.3119146,25.9780816 C62.1025165,26.0997126 62.9266718,26.3261981 63.7717981,26.6638291 C64.6232155,27.0098485 65.4704388,27.6054214 66.3176621,28.4526447 C67.1690796,29.3082563 67.7856233,30.4973049 68.1798757,32.0281786 C68.5720311,33.5590524 68.7964194,35.1171883 68.8509437,36.7004893 C68.9033709,38.2858874 68.8698175,39.5336544 68.7586718,40.437499 C68.6391379,41.3434408 68.3832932,42.2829359 67.9848466,43.2413049 C67.5884971,44.203868 67.0789049,45.2188583 66.4518757,46.2946641 C65.8248466,47.372567 64.9755262,48.3057709 63.8955262,49.0963728 C62.8176233,49.8848777 61.8844194,50.2812272 61.0917204,50.277033 C60.2969243,50.277033 59.2798369,50.2749359 58.0320699,50.2728388 C56.7864,50.2686447 55.513468,49.9561786 54.2111767,49.3291495 C52.9088854,48.7042175 51.8917981,48.1925282 51.1557204,47.7940816 C50.4196427,47.395635 49.826167,46.8273243 49.3731961,46.0912466 C48.9223223,45.3530718 48.4714485,44.3905087 48.0205748,43.2035573 C47.569701,42.0103146 47.3474097,40.8757903 47.3495068,39.8020816 C47.3516039,38.7220816 47.4669437,37.4491495 47.6976233,35.9769942 C47.9283029,34.5069359 48.1275262,33.3451495 48.2994874,32.493732 C48.4714485,31.6465087 48.7860117,30.885266 49.2368854,30.2037126 C49.6940505,29.5263534 50.6566136,28.3373049 52.1371573,26.6428583 C52.6991767,26.8693437 53.0976233,26.925965 53.3220117,26.8148194" id="Fill-12" fill="#7E57C5"></path>
            <path d="M75.1545786,27.8790913 C75.4964039,27.8790913 75.7459573,28.0363728 75.9179184,28.3467417 C76.0877825,28.6592078 76.1444039,29.0261981 76.0877825,29.4540039 C76.0290641,29.8797126 75.8298408,30.3221981 75.4880155,30.7898485 C75.1461903,31.2554019 74.6953165,32.1969942 74.1228117,33.6125282 C73.554501,35.0280621 73.099433,36.393266 72.7576078,37.7081398 C72.4136854,39.0209165 72.2983456,40.4175767 72.4073942,41.8939262 C72.5143456,43.3660816 72.7408311,44.4209165 73.076365,45.0542369 C73.4181903,45.6980427 73.9550447,46.3061981 74.6848311,46.8849942 C75.4251029,47.4679845 76.2345786,47.8957903 77.132132,48.1684117 C78.0212971,48.441033 78.9188505,48.5731495 79.8268893,48.5752466 C80.7328311,48.5794408 81.6891029,48.4473243 82.6936078,48.1768 C83.6981126,47.912567 84.5725981,47.4407223 85.3065786,46.761266 C86.0489476,46.0839068 86.5858019,45.4526835 86.9276272,44.8738874 C87.2694524,44.2950913 87.5546563,43.4751301 87.7832388,42.4140039 C88.0097243,41.3507806 88.1292583,40.0820427 88.1313553,38.6119845 C88.1355495,37.137732 87.8524427,35.8186641 87.2904233,34.6589748 C86.7263068,33.4950913 86.2460738,32.4717126 85.8518214,31.5762563 C85.4617631,30.6828971 85.5435495,30.0852272 86.1118602,29.7727612 C86.6780738,29.4644893 87.2128311,29.3827029 87.7224233,29.5399845 C88.2341126,29.6993631 88.9030835,30.9114796 89.7356272,33.176334 C90.5660738,35.4453825 90.9792,37.3432466 90.9750058,38.8720233 C90.9750058,40.4028971 90.8575689,41.7177709 90.6289864,42.8229359 C90.4004039,43.9239068 90.0564816,44.9787417 89.6035107,45.9853437 C89.1442485,46.9877515 88.3054136,47.8769165 87.0723262,48.6528388 C85.8350447,49.4308583 84.908132,49.8964117 84.2832,50.0515961 C83.6624621,50.2046835 82.7040932,50.2822757 81.4164816,50.2780816 C80.1267728,50.2759845 79.0866175,50.2738874 78.2939184,50.2738874 C77.4991223,50.2696932 76.6854524,50.0809553 75.8529087,49.713965 C75.018268,49.3427806 74.202501,48.8940039 73.4098019,48.369732 C72.6192,47.8475573 71.8915107,47.0884117 71.226734,46.0985864 C70.5661515,45.1024699 70.2159379,44.0769942 70.1739961,43.0095767 C70.1299573,41.9505476 70.1907728,40.713266 70.3522485,39.295635 C70.5095301,37.880101 70.7318214,36.5400621 71.0191223,35.2818097 C71.3064233,34.0235573 72.2878602,31.7083728 73.9676272,28.3446447 C74.418501,28.0342757 74.8127534,27.8769942 75.1545786,27.8790913" id="Fill-14" fill="#7E57C5"></path>
            <path d="M115.511348,32.6386408 C116.220163,31.613165 116.415192,30.7072233 116.094338,29.9208155 C115.775581,29.1344078 115.003852,28.587068 113.789639,28.2850874 C112.56494,27.9789126 111.728202,27.8866408 111.279425,28.0061748 C110.828551,28.1299029 110.314765,28.3689709 109.733872,28.7296699 C109.157173,29.092466 108.769212,29.572699 108.57628,30.1745631 C108.383348,30.7827184 108.3456,31.4160388 108.475619,32.0766214 C108.599348,32.7434951 109.561911,33.9220583 111.359115,35.6186019 C113.41426,34.6581359 114.798338,33.6641165 115.511348,32.6386408 M107.441755,42.1153786 C106.827309,42.9143689 106.424668,43.6399612 106.229639,44.2900583 C106.03461,44.9380583 105.940241,45.7559223 105.938144,46.7352621 C105.936047,47.7187961 106.122687,48.5135922 106.508551,49.1154563 C106.894416,49.7215146 107.324318,50.1933592 107.810843,50.524699 C108.288979,50.8581359 109.014571,50.9504078 109.975037,50.8015146 C110.939697,50.6526214 111.757561,50.5100194 112.439115,50.3737087 C113.110183,50.2394951 113.869328,49.8934757 114.706066,49.3377476 C115.540707,48.7820194 116.1216,48.3835728 116.440357,48.1424078 C116.765406,47.9012427 116.285173,47.1127379 115.001755,45.7810874 C113.720435,44.4473398 112.111969,42.148932 110.195231,38.8816699 C108.970532,40.2384854 108.054105,41.3184854 107.441755,42.1153786 M112.986454,52.9153786 C111.809988,53.2299417 110.845328,53.355767 110.092474,53.2949515 C109.337522,53.2320388 108.622416,53.1691262 107.947153,53.1083107 C107.269794,53.0474951 106.693095,52.8566602 106.210765,52.5358058 C105.732629,52.2233398 105.178998,51.6739029 104.554066,50.9021748 C103.929134,50.1325437 103.551658,49.3 103.42793,48.4087379 C103.297911,47.5195728 103.270649,46.6555728 103.333561,45.8230291 C103.400668,44.9946796 103.570532,44.1956893 103.84525,43.4260583 C104.119969,42.652233 104.566649,41.8867961 105.176901,41.115068 C105.78925,40.3454369 107.062183,39.1312233 108.9936,37.4745243 C107.357872,35.5661748 106.508551,34.1003107 106.447736,33.0706408 C106.384823,32.045165 106.418377,31.0867961 106.550493,30.1934369 C106.680513,29.3021748 106.955231,28.5723883 107.374649,27.9977864 C107.791969,27.4252816 108.383348,26.9492427 109.136202,26.5738641 C109.895348,26.2005825 110.782416,26.0118447 111.814183,26.0160388 C112.841755,26.0181359 113.91127,26.1754175 115.020629,26.4983689 C116.127891,26.8192233 117.054804,27.3917282 117.811852,28.2263689 C118.56261,29.0589126 119.005095,29.9166214 119.133017,30.8120777 C119.256746,31.7054369 119.04494,32.6239612 118.495503,33.5760388 C117.95026,34.5239223 117.398726,35.2243495 116.851386,35.6794175 C116.306144,36.1323883 114.922066,36.9271845 112.705445,38.0721942 C114.116784,40.3097864 115.463115,42.2453981 116.765406,43.8811262 C118.061406,45.5189515 118.711503,46.3053592 118.711503,46.2445437 C118.711503,46.1816311 119.218998,45.820932 120.229794,45.1582524 C121.242687,44.4934757 122.106687,44.0153398 122.813406,43.7133592 C123.522221,43.4134757 124.101017,43.2331262 124.549794,43.1723107 C124.998571,43.1156893 125.384435,43.3568544 125.707386,43.9020971 C126.028241,44.4473398 126.024047,44.8688544 125.703192,45.170835 C125.384435,45.4686214 124.866454,45.7433398 124.161833,45.9824078 C123.455115,46.2235728 122.61628,46.7038058 121.649522,47.427301 C120.682765,48.1507961 120.229794,48.5429515 120.298998,48.6016699 C120.364008,48.6624854 121.066532,49.4509903 122.414959,50.9608932 C123.761289,52.4791845 124.470105,53.62 124.549794,54.3938252 C124.629483,55.1634563 124.53092,55.6373981 124.258299,55.8198447 C123.985678,55.996 123.704668,56.0274563 123.413173,55.9079223 C123.127969,55.7883883 122.710649,55.4339806 122.163309,54.8635728 C121.620163,54.2868738 120.254959,52.6490485 118.08028,49.9584854 C115.85527,51.6151845 114.160823,52.5987184 112.986454,52.9153786" id="Fill-16" fill="#FFFFFF"></path>
            <path d="M137.969895,29.3413903 C138.028614,29.093934 138.167021,28.9660117 138.397701,28.9660117 C138.619992,28.9681087 138.903099,28.9681087 139.247021,28.9681087 C139.58675,28.9681087 139.869856,29.2491184 140.094245,29.8174291 C140.32073,30.3773515 140.631099,30.5325359 141.025351,30.2850796 C141.419604,30.0355262 142.103254,29.5699728 143.072109,28.8842252 C144.034672,28.1963806 144.993041,27.797934 145.959798,27.6721087 C146.924458,27.5504777 148.029623,27.5525748 149.271099,27.6804971 C150.518866,27.8105165 151.592575,28.3704388 152.498517,29.3749437 C153.402361,30.3710602 154.083915,30.6898175 154.534788,30.3102447 C154.989856,29.9390602 155.585429,29.5343223 156.31941,29.1002252 C157.059682,28.6661282 157.965623,28.4165748 159.041429,28.3557592 C160.119332,28.2970408 161.251759,28.7038757 162.436614,29.5783612 C163.621468,30.4591379 164.531604,31.3650796 165.150245,32.3003806 C165.770983,33.2419728 166.221856,34.7078369 166.500769,36.7063612 C166.779682,38.7027883 166.68741,41.0745942 166.232342,43.8196816 C165.770983,46.5647689 165.429157,48.653468 165.198478,50.0899728 C164.969895,51.5243806 164.625973,52.4575845 164.173002,52.8937786 C163.717934,53.3278757 163.378206,53.5187107 163.15172,53.4557981 C162.925235,53.3907883 162.843449,52.6442252 162.897973,51.2077204 C162.960885,49.7733126 163.080419,48.3997204 163.250283,47.0911379 C163.422245,45.7783612 163.652924,44.3754097 163.938128,42.8780893 C164.225429,41.3786718 164.340769,39.8519922 164.286245,38.2917592 C164.233817,36.7336233 163.871021,35.3264777 163.193662,34.0787107 C162.514206,32.8288466 161.694245,32.1053515 160.733779,31.9187107 C159.771216,31.7299728 158.951254,31.662866 158.269701,31.7236816 C157.58605,31.7844971 156.849973,32.1598757 156.061468,32.8456233 C155.264575,33.5292738 154.92275,34.5589437 155.033895,35.9325359 C155.145041,37.3040311 155.197468,38.4595262 155.193274,39.3948272 C155.193274,40.3322252 155.191177,41.6135456 155.18908,43.2324971 C155.184885,44.8556427 154.954206,46.8206136 154.492847,49.1316039 C154.037779,51.4384 153.553351,52.6232544 153.039565,52.686167 C152.534167,52.7448854 152.194439,52.6211573 152.022478,52.3065942 C151.854711,52.0004194 151.798089,51.4656621 151.858905,50.7170019 C151.915526,49.9641476 152.060225,48.2822835 152.295099,45.6609243 C152.523682,43.039565 152.643216,40.6656621 152.64741,38.549701 C152.651604,36.4274485 152.456575,34.8336621 152.062322,33.7725359 C151.66807,32.7114097 151.133313,31.9291961 150.453856,31.4258951 C149.7744,30.9288854 148.954439,30.582866 147.993973,30.3941282 C147.029313,30.2032932 146.06675,30.293468 145.102089,30.6688466 C144.137429,31.0400311 142.520575,32.1598757 140.25572,34.0220893 C140.912109,44.3879922 141.241351,50.3500117 141.237157,51.9123417 C141.232963,53.4725748 141.031643,54.3114097 140.635293,54.437235 C140.236847,54.5609631 139.840497,54.4980505 139.446245,54.2464 C139.049895,53.9989437 138.586439,46.1956816 138.053779,30.8387107 C137.942633,30.0858563 137.913274,29.5909437 137.969895,29.3413903" id="Fill-18" fill="#7E57C5"></path>
            <path d="M180.052986,36.7938097 C181.441258,35.9633631 182.850501,35.1580816 184.282812,34.3821592 C185.717219,33.6041398 186.488948,33.0777709 186.60219,32.7904699 C186.715433,32.5094602 186.60219,32.2242563 186.262462,31.9432466 C185.926928,31.6601398 185.48654,31.3476738 184.949685,31.0037515 C184.414928,30.6619262 183.825647,30.4606058 183.188132,30.3830136 C182.54852,30.3117126 181.942462,30.2760621 181.363666,30.2760621 C180.780676,30.271868 180.00685,30.3578485 179.046384,30.5256155 C178.081724,30.6933825 177.349841,30.9618097 176.852831,31.3308971 C176.357918,31.6936932 175.693142,32.1382757 174.854307,32.6604505 C174.019666,33.1847223 173.323433,34.1472854 172.769802,35.5418485 C172.214074,36.9427029 171.903705,38.9055767 171.842889,41.4283728 C175.923821,39.1719068 178.66052,37.6242563 180.052986,36.7938097 M186.394579,29.097499 C186.960792,29.3806058 187.501841,29.6511301 188.007239,29.9069748 C188.521025,30.1649165 189.068365,30.561266 189.666035,31.1023146 C190.257414,31.641266 190.511161,32.1361786 190.425181,32.5891495 C190.343394,33.0421204 190.148365,33.3650718 189.848482,33.5642951 C189.550695,33.7614214 188.349064,34.5037903 186.233103,35.7893049 C184.123433,37.0706252 181.64887,38.3917903 178.813608,39.7423146 C175.978346,41.0949359 174.309064,41.9715184 173.795278,42.3657709 C173.283588,42.7642175 172.826423,43.3472078 172.415394,44.1273243 C172.000171,44.9032466 171.939355,45.6057709 172.237142,46.2265087 C172.534928,46.8514408 172.971122,47.3924893 173.547821,47.8475573 C174.130812,48.2984311 174.728482,48.7115573 175.351317,49.0806447 C175.976249,49.4518291 176.706035,49.7433243 177.538579,49.9551301 C178.373219,50.1711301 179.279161,50.3388971 180.256404,50.4500427 C181.23155,50.5674796 182.032637,50.5884505 182.657569,50.5171495 C183.280404,50.4521398 183.819355,50.3535767 184.270229,50.2256544 C184.725297,50.1019262 185.163588,49.8859262 185.585103,49.592334 C186.017103,49.2945476 186.432326,48.8856155 186.845452,48.3634408 C187.258579,47.841266 187.610889,47.287635 187.908676,46.7088388 C188.210656,46.1258485 188.485375,45.5114019 188.743317,44.8613049 C189.001258,44.2091107 189.255006,43.6533825 189.508753,43.1878291 C189.766695,42.7180816 190.037219,42.4853049 190.320326,42.4853049 C190.601336,42.4853049 190.934773,42.5733825 191.31854,42.7411495 C191.698113,42.9131107 191.90153,43.1899262 191.928792,43.5736932 C191.960249,43.9553631 191.872171,44.5949748 191.675045,45.488334 C191.471627,46.3754019 191.123511,47.2100427 190.626501,47.985965 C190.129491,48.7639845 189.687006,49.3889165 189.307433,49.856567 C188.919472,50.3221204 188.227433,50.8568777 187.220831,51.465033 C186.214229,52.0710913 185.228598,52.4213049 184.261841,52.5177709 C183.301375,52.6142369 182.275899,52.664567 181.185414,52.6603728 C180.094928,52.6582757 179.077841,52.593266 178.129957,52.4653437 C177.182074,52.3332272 176.179666,52.0207612 175.133219,51.5237515 C174.084676,51.0225476 173.061297,50.2969553 172.056792,49.3469748 C171.056482,48.3990913 170.370734,47.3882951 170.007938,46.3082951 C169.640948,45.2303922 169.458501,44.0539262 169.462695,42.7788971 C169.466889,41.505965 169.559161,40.2980427 169.747899,39.1467417 C169.930346,38.0038291 170.131666,36.9552854 170.347666,36.009499 C170.561569,35.0616155 170.846773,34.1745476 171.203278,33.3545864 C171.557685,32.5367223 172.113414,31.7482175 172.864171,31.0016544 C173.617025,30.2529942 174.529258,29.5546641 175.611355,28.9024699 C176.687161,28.2544699 177.855239,27.824567 179.117685,27.6148583 C180.375938,27.4030524 181.885841,27.4743534 183.639006,27.8161786 C184.911938,28.3865864 185.832559,28.8122951 186.394579,29.097499" id="Fill-20" fill="#7E57C5"></path>
        </g>
    </g>
</svg>